<svg width="21" height="21" viewBox="0 0 21 21" fill="none" xmlns="http://www.w3.org/2000/svg">
<path d="M8.086 7.2632L8.972 4.1642C9.304 3.0042 10.948 3.0042 11.28 4.1642L12.165 7.2632C12.221 7.45924 12.3261 7.63777 12.4703 7.78194C12.6144 7.92611 12.793 8.03117 12.989 8.0872L16.088 8.9722C17.248 9.3042 17.248 10.9482 16.088 11.2802L12.989 12.1652C12.793 12.2212 12.6144 12.3263 12.4703 12.4705C12.3261 12.6146 12.221 12.7932 12.165 12.9892L11.28 16.0882C10.948 17.2482 9.304 17.2482 8.972 16.0882L8.087 12.9892C8.03097 12.7932 7.92591 12.6146 7.78174 12.4705C7.63757 12.3263 7.45904 12.2212 7.263 12.1652L4.164 11.2802C3.004 10.9482 3.004 9.3042 4.164 8.9722L7.263 8.0872C7.45904 8.03117 7.63757 7.92611 7.78174 7.78194C7.92591 7.63777 8.03097 7.45924 8.087 7.2632M16.23 14.6332C16.519 13.7902 17.734 13.7892 18.022 14.6332L18.048 14.7202L18.344 15.9082L19.532 16.2052C20.492 16.4452 20.492 17.8072 19.532 18.0472L18.344 18.3442L18.048 19.5322C17.808 20.4912 16.445 20.4912 16.205 19.5322L15.908 18.3442L14.72 18.0472C13.76 17.8072 13.76 16.4442 14.72 16.2052L15.908 15.9082L16.205 14.7202L16.23 14.6332ZM17.126 16.9232C17.0684 17.0003 17.0001 17.0687 16.923 17.1262C17.0001 17.1838 17.0684 17.2521 17.126 17.3292C17.1835 17.2521 17.2519 17.1838 17.329 17.1262C17.2519 17.0683 17.1835 16.9996 17.126 16.9222M2.23 0.632201C2.528 -0.238799 3.815 -0.209799 4.048 0.719201L4.344 1.9072L5.532 2.2042C6.492 2.4442 6.492 3.8062 5.532 4.0462L4.344 4.3432L4.048 5.5312C3.808 6.4902 2.445 6.4902 2.205 5.5312L1.908 4.3432L0.72 4.0462C-0.24 3.8062 -0.24 2.4432 0.72 2.2042L1.908 1.9072L2.205 0.719201L2.23 0.632201ZM3.126 2.9232C3.06838 2.99992 3.00001 3.06796 2.923 3.1252C3.00015 3.18306 3.06852 3.25177 3.126 3.3292C3.18348 3.25177 3.25185 3.18306 3.329 3.1252C3.25192 3.06765 3.18355 3.00028 3.126 2.9232Z" fill="white"/>
</svg>
