<svg width="26" height="26" viewBox="0 0 26 26" fill="none" xmlns="http://www.w3.org/2000/svg">
<path d="M19.8873 13.7891C19.9227 17.6079 23.2377 18.8788 23.2742 18.8951C23.2462 18.9845 22.7447 20.7061 21.528 22.4841C20.4762 24.0214 19.3844 25.5529 17.6649 25.585C15.9753 25.6159 15.432 24.5828 13.5001 24.5828C11.5687 24.5828 10.9653 25.5529 9.36566 25.6159C7.70572 25.6789 6.44167 23.9533 5.38116 22.4219C3.21422 19.2889 1.55814 13.5687 3.78175 9.70754C4.88634 7.79004 6.86072 6.57596 9.00348 6.54468C10.6334 6.5136 12.1718 7.64115 13.1682 7.64115C14.1639 7.64115 16.0334 6.28509 17.9989 6.48415C18.8217 6.51848 21.1313 6.81646 22.6143 8.98746C22.495 9.0616 19.8587 10.5964 19.8873 13.7891ZM16.7119 4.41166C17.593 3.34506 18.1862 1.8598 18.0245 0.382477C16.7541 0.433461 15.2181 1.2289 14.3071 2.2951C13.4905 3.23902 12.7755 4.75027 12.9683 6.19835C14.3843 6.30804 15.8305 5.47888 16.7119 4.41166Z" fill="black"/>
</svg>
