<svg width="21" height="25" viewBox="0 0 21 25" fill="none" xmlns="http://www.w3.org/2000/svg">
<path d="M10.1886 8.89689C10.5791 8.50637 11.2123 8.50637 11.6028 8.89689C11.9933 9.28742 11.9933 9.92058 11.6028 10.3111L7.43087 14.483C6.86389 15.05 6.83098 16.0045 7.43087 16.6044C8.03076 17.2042 8.98521 17.1713 9.55219 16.6044L17.3304 8.82618C18.932 7.22456 18.8444 4.68333 17.3304 3.16933C15.8164 1.65533 13.2751 1.5677 11.6735 3.16933L3.89533 10.9475C1.3446 13.4982 1.39217 17.6367 3.89533 20.1399C6.39849 22.6431 10.537 22.6906 13.0877 20.1399L17.2597 15.968C17.6502 15.5774 18.2833 15.5774 18.6739 15.968C19.0644 16.3585 19.0644 16.9917 18.6739 17.3822L14.5019 21.5541C11.1628 24.8933 5.75815 24.8311 2.48112 21.5541C-0.795906 18.2771 -0.858028 12.8724 2.48112 9.53329L10.2593 1.75512C12.6646 -0.650197 16.4705 -0.51896 18.7446 1.75512C21.0187 4.02919 21.1499 7.83508 18.7446 10.2404L10.9664 18.0186C9.63934 19.3456 7.42023 19.4221 6.01665 18.0186C4.61308 16.615 4.6896 14.3959 6.01665 13.0688L10.1886 8.89689Z" fill="#A0A1B0"/>
</svg>
