<svg width="22" height="24" viewBox="0 0 22 24" fill="none" xmlns="http://www.w3.org/2000/svg">
<path d="M2 5C2 4.33696 2.26339 3.70107 2.73223 3.23223C3.20107 2.76339 3.83696 2.5 4.5 2.5H14.5C15.163 2.5 15.7989 2.76339 16.2678 3.23223C16.7366 3.70107 17 4.33696 17 5V10.5C17 10.6326 16.9473 10.7598 16.8536 10.8536C16.7598 10.9473 16.6326 11 16.5 11C16.3674 11 16.2402 10.9473 16.1464 10.8536C16.0527 10.7598 16 10.6326 16 10.5V5C16 4.60218 15.842 4.22064 15.5607 3.93934C15.2794 3.65804 14.8978 3.5 14.5 3.5H4.5C4.10218 3.5 3.72064 3.65804 3.43934 3.93934C3.15804 4.22064 3 4.60218 3 5V19.382C3 19.4673 3.02181 19.5511 3.06335 19.6256C3.10489 19.7 3.16478 19.7626 3.23733 19.8074C3.30988 19.8522 3.39268 19.8777 3.47786 19.8815C3.56304 19.8853 3.64777 19.8672 3.724 19.829L4.724 19.329C4.97309 19.2046 5.25188 19.1521 5.52916 19.1771C5.80644 19.2022 6.07127 19.304 6.294 19.471L7.2 20.15C7.28655 20.2149 7.39181 20.25 7.5 20.25C7.60819 20.25 7.71345 20.2149 7.8 20.15L8.662 19.503C8.90058 19.3241 9.18707 19.2203 9.48489 19.205C9.7827 19.1897 10.0783 19.2635 10.334 19.417L11.007 19.821C11.1208 19.8892 11.2028 19.9997 11.2351 20.1284C11.2673 20.257 11.2472 20.3932 11.179 20.507C11.1108 20.6208 11.0003 20.7028 10.8716 20.7351C10.743 20.7673 10.6068 20.7472 10.493 20.679L9.819 20.275C9.73388 20.2238 9.63544 20.1991 9.53623 20.2041C9.43703 20.2091 9.34156 20.2435 9.262 20.303L8.4 20.95C8.14036 21.1447 7.82456 21.25 7.5 21.25C7.17544 21.25 6.85964 21.1447 6.6 20.95L5.694 20.27C5.61966 20.2146 5.53138 20.181 5.43902 20.1728C5.34667 20.1647 5.25387 20.1824 5.171 20.224L4.171 20.724C3.94227 20.8384 3.6881 20.8924 3.43262 20.8809C3.17713 20.8694 2.92883 20.7928 2.7113 20.6584C2.49376 20.5239 2.31422 20.336 2.18973 20.1126C2.06523 19.8893 1.99992 19.6377 2 19.382V5Z" fill="white"/>
<path d="M5 7C5 6.86739 5.05268 6.74021 5.14645 6.64645C5.24021 6.55268 5.36739 6.5 5.5 6.5H12C12.1326 6.5 12.2598 6.55268 12.3536 6.64645C12.4473 6.74021 12.5 6.86739 12.5 7C12.5 7.13261 12.4473 7.25979 12.3536 7.35355C12.2598 7.44732 12.1326 7.5 12 7.5H5.5C5.36739 7.5 5.24021 7.44732 5.14645 7.35355C5.05268 7.25979 5 7.13261 5 7ZM5 10C5 9.86739 5.05268 9.74021 5.14645 9.64645C5.24021 9.55268 5.36739 9.5 5.5 9.5H13.5C13.6326 9.5 13.7598 9.55268 13.8536 9.64645C13.9473 9.74021 14 9.86739 14 10C14 10.1326 13.9473 10.2598 13.8536 10.3536C13.7598 10.4473 13.6326 10.5 13.5 10.5H5.5C5.36739 10.5 5.24021 10.4473 5.14645 10.3536C5.05268 10.2598 5 10.1326 5 10ZM5 13C5 12.8674 5.05268 12.7402 5.14645 12.6464C5.24021 12.5527 5.36739 12.5 5.5 12.5H9C9.13261 12.5 9.25979 12.5527 9.35355 12.6464C9.44732 12.7402 9.5 12.8674 9.5 13C9.5 13.1326 9.44732 13.2598 9.35355 13.3536C9.25979 13.4473 9.13261 13.5 9 13.5H5.5C5.36739 13.5 5.24021 13.4473 5.14645 13.3536C5.05268 13.2598 5 13.1326 5 13ZM5 16C5 15.8674 5.05268 15.7402 5.14645 15.6464C5.24021 15.5527 5.36739 15.5 5.5 15.5H9C9.13261 15.5 9.25979 15.5527 9.35355 15.6464C9.44732 15.7402 9.5 15.8674 9.5 16C9.5 16.1326 9.44732 16.2598 9.35355 16.3536C9.25979 16.4473 9.13261 16.5 9 16.5H5.5C5.36739 16.5 5.24021 16.4473 5.14645 16.3536C5.05268 16.2598 5 16.1326 5 16ZM16 14.5C15.2044 14.5 14.4413 14.8161 13.8787 15.3787C13.3161 15.9413 13 16.7044 13 17.5C13 18.2956 13.3161 19.0587 13.8787 19.6213C14.4413 20.1839 15.2044 20.5 16 20.5C16.7956 20.5 17.5587 20.1839 18.1213 19.6213C18.6839 19.0587 19 18.2956 19 17.5C19 16.7044 18.6839 15.9413 18.1213 15.3787C17.5587 14.8161 16.7956 14.5 16 14.5ZM12 17.5C12 16.4391 12.4214 15.4217 13.1716 14.6716C13.9217 13.9214 14.9391 13.5 16 13.5C17.0609 13.5 18.0783 13.9214 18.8284 14.6716C19.5786 15.4217 20 16.4391 20 17.5C20 18.5609 19.5786 19.5783 18.8284 20.3284C18.0783 21.0786 17.0609 21.5 16 21.5C14.9391 21.5 13.9217 21.0786 13.1716 20.3284C12.4214 19.5783 12 18.5609 12 17.5ZM17.666 16.271C17.7126 16.3174 17.7495 16.3726 17.7747 16.4334C17.7999 16.4941 17.8129 16.5592 17.8129 16.625C17.8129 16.6908 17.7999 16.7559 17.7747 16.8166C17.7495 16.8774 17.7126 16.9326 17.666 16.979L15.562 19.082L14.334 17.854C14.2875 17.8076 14.2506 17.7525 14.2254 17.6918C14.2003 17.6311 14.1873 17.5661 14.1872 17.5004C14.1872 17.4347 14.2001 17.3696 14.2252 17.3089C14.2503 17.2482 14.2871 17.193 14.3335 17.1465C14.4273 17.0526 14.5545 16.9998 14.6871 16.9997C14.7528 16.9997 14.8179 17.0126 14.8786 17.0377C14.9393 17.0628 14.9945 17.0996 15.041 17.146L15.562 17.668L16.959 16.271C17.0528 16.1773 17.1799 16.1246 17.3125 16.1246C17.4451 16.1246 17.5722 16.1773 17.666 16.271Z" fill="white"/>
</svg>
