<svg width="19" height="19" viewBox="0 0 19 19" fill="none" xmlns="http://www.w3.org/2000/svg">
<path fill-rule="evenodd" clip-rule="evenodd" d="M17.8472 12.6055L13.4306 10.6264L13.4184 10.6208C12.9526 10.4216 12.4177 10.4709 11.9963 10.7521C11.9718 10.7682 11.9484 10.7857 11.9259 10.8046L9.64407 12.7499C8.19845 12.0477 6.70595 10.5664 6.00376 9.13956L7.95188 6.82299C7.97063 6.79956 7.98845 6.77612 8.00532 6.75081C8.28033 6.33057 8.32678 5.8006 8.12907 5.33893V5.32768L6.14438 0.90362C5.8801 0.293774 5.24601 -0.0694377 4.58626 0.0111198C1.95834 0.356924 -0.00474283 2.5993 8.60672e-06 5.24987C8.60672e-06 12.6936 6.05626 18.7499 13.5 18.7499C16.1506 18.7546 18.393 16.7915 18.7388 14.1636C18.8195 13.5041 18.4567 12.8701 17.8472 12.6055ZM13.5 17.2499C6.87559 17.2426 1.50724 11.8743 1.50001 5.24987C1.49271 3.35605 2.89196 1.75095 4.76907 1.49987C4.7687 1.50361 4.7687 1.50738 4.76907 1.51112L6.73782 5.91737L4.80001 8.23674C4.78034 8.25938 4.76247 8.28351 4.74657 8.30893C4.45962 8.74925 4.42406 9.30764 4.65282 9.78081C5.5022 11.518 7.25251 13.2552 9.00845 14.1036C9.48515 14.3303 10.0459 14.2897 10.485 13.9967C10.5091 13.9805 10.5322 13.963 10.5544 13.9442L12.8334 11.9999L17.2397 13.9733C17.2397 13.9733 17.2472 13.9733 17.25 13.9733C17.002 15.8532 15.3962 17.2563 13.5 17.2499Z" fill="white"/>
</svg>
