<svg width="22" height="24" viewBox="0 0 22 24" fill="none" xmlns="http://www.w3.org/2000/svg">
<path d="M11 4C9.41775 4 7.87103 4.46919 6.55544 5.34824C5.23985 6.22729 4.21447 7.47672 3.60897 8.93853C3.00347 10.4003 2.84504 12.0089 3.15372 13.5607C3.4624 15.1126 4.22433 16.538 5.34315 17.6569C6.46197 18.7757 7.88743 19.5376 9.43928 19.8463C10.9911 20.155 12.5997 19.9965 14.0615 19.391C15.5233 18.7855 16.7727 17.7602 17.6518 16.4446C18.5308 15.129 19 13.5823 19 12C19 9.87827 18.1571 7.84344 16.6569 6.34315C15.1566 4.84285 13.1217 4 11 4ZM4 12C4.00048 10.3179 4.60966 8.69288 5.715 7.425L15.575 17.285C14.561 18.1607 13.3169 18.7269 11.9906 18.9165C10.6643 19.1061 9.31138 18.9111 8.0926 18.3546C6.87382 17.7981 5.84035 16.9036 5.1149 15.7772C4.38945 14.6508 4.0025 13.3398 4 12ZM16.285 16.575L6.425 6.715C7.76668 5.59397 9.47931 5.0156 11.2259 5.09369C12.9726 5.17177 14.6268 5.90066 15.8631 7.13695C17.0993 8.37324 17.8282 10.0274 17.9063 11.7741C17.9844 13.5207 17.406 15.2333 16.285 16.575Z" fill="white"/>
</svg>
