<svg width="22" height="18" viewBox="0 0 22 18" fill="none" xmlns="http://www.w3.org/2000/svg">
<path d="M0.75 8.75C0.75 4.979 0.75 3.093 1.922 1.922C3.094 0.751 4.979 0.75 8.75 0.75H12.75C16.521 0.75 18.407 0.75 19.578 1.922C20.749 3.094 20.75 4.979 20.75 8.75C20.75 12.521 20.75 14.407 19.578 15.578C18.406 16.749 16.521 16.75 12.75 16.75H8.75C4.979 16.75 3.093 16.75 1.922 15.578C0.751 14.406 0.75 12.521 0.75 8.75Z" stroke="#717171" stroke-width="1.5"/>
<path d="M8.75 12.75H4.75M12.75 12.75H11.25M0.75 6.75H20.75" stroke="#717171" stroke-width="1.5" stroke-linecap="round"/>
</svg>
