<svg width="26" height="26" viewBox="0 0 26 26" fill="none" xmlns="http://www.w3.org/2000/svg">
<rect width="26" height="26" rx="5" fill="url(#paint0_linear_214_131)"/>
<path d="M19.2176 13.3117C18.7011 12.185 18.1643 11.1311 17.579 10.0955C18.1637 9.08026 18.6873 8.27506 19.1762 7.63853C19.2418 7.55322 19.2642 7.44297 19.2379 7.33862C19.211 7.23494 19.1388 7.14832 19.0404 7.10501C17.5717 6.45468 16.1273 6.77361 14.731 7.08204C13.5064 7.35241 12.347 7.60046 11.1992 7.22773V13.9974C11.6159 14.1096 12.0307 14.1543 12.4421 14.1543C13.269 14.1543 14.0833 13.9738 14.8819 13.7979C16.2272 13.5 17.4983 13.2204 18.7569 13.7769C18.8901 13.836 19.0449 13.8058 19.148 13.7028C19.2504 13.5997 19.2773 13.4435 19.2169 13.311L19.2176 13.3117Z" fill="white"/>
<path d="M14.3017 10.3974L13.9775 10.0732C13.7892 9.88491 13.4834 9.88491 13.2951 10.0732C13.1067 10.2616 13.1067 10.5674 13.2951 10.7557L13.9972 11.4579C14.1652 11.6259 14.4382 11.6259 14.6062 11.4579L15.9909 10.0732C16.1792 9.88491 16.1792 9.57911 15.9909 9.39077C15.8025 9.20243 15.4967 9.20243 15.3084 9.39077L14.3017 10.3974Z" fill="white"/>
<path d="M10.8523 16.501C10.8412 16.4997 10.8307 16.4997 10.8195 16.4997H10.5V6.34977C10.5 6.15618 10.3431 6 10.1502 6C9.95726 6 9.80042 6.15618 9.80042 6.34977V18.2492V18.2498C9.80042 18.4428 9.64358 18.5996 9.45065 18.5996C9.25773 18.5996 9.10089 18.4434 9.10089 18.2498V16.56C7.67885 16.7897 6.75098 17.436 6.75098 18.236C6.75098 19.2413 8.23405 19.9999 10.2008 19.9999C12.1675 19.9999 13.6505 19.2413 13.6505 18.236C13.6505 17.3547 12.5264 16.6578 10.8531 16.5016L10.8523 16.501Z" fill="white"/>
<defs>
<linearGradient id="paint0_linear_214_131" x1="0" y1="0" x2="30.4783" y2="18.7018" gradientUnits="userSpaceOnUse">
<stop stop-color="#A783F8"/>
<stop offset="1" stop-color="#7F45FF"/>
</linearGradient>
</defs>
</svg>
