<svg width="22" height="24" viewBox="0 0 22 24" fill="none" xmlns="http://www.w3.org/2000/svg">
<path d="M12.6635 9.41468C12.564 9.13511 12.3806 8.89308 12.1382 8.72174C11.8958 8.55039 11.6064 8.45811 11.3095 8.4575H10.1981C9.88096 8.45584 9.57451 8.57177 9.33797 8.78286C9.10143 8.99396 8.9516 9.28522 8.91746 9.60033C8.88331 9.91545 8.96728 10.232 9.15312 10.4888C9.33896 10.7457 9.61347 10.9245 9.92357 10.9907L11.616 11.3598C11.9621 11.4355 12.268 11.6364 12.4748 11.9239C12.6817 12.2113 12.7751 12.565 12.7369 12.917C12.6987 13.2691 12.5318 13.5946 12.2681 13.8311C12.0044 14.0675 11.6626 14.1983 11.3083 14.1981H10.3519C9.72663 14.1981 9.19489 13.7995 8.99795 13.2422M10.8307 8.4575V7.02173M10.8307 15.6339V14.1994M4.84375 19.4934V16.4176H7.92094" stroke="white" stroke-linecap="round" stroke-linejoin="round"/>
<path d="M18.8628 10.0261C19.1896 11.7673 18.9287 13.5676 18.1211 15.1445C17.3135 16.7214 16.0049 17.9857 14.4008 18.7388C12.7966 19.492 10.9876 19.6914 9.25777 19.3058C7.52794 18.9202 5.97516 17.9714 4.84316 16.6083M3.13717 12.969C2.8104 11.2279 3.07129 9.42754 3.87888 7.85062C4.68647 6.2737 5.99505 5.00944 7.59924 4.25629C9.20342 3.50313 11.0124 3.30371 12.7422 3.68932C14.4721 4.07493 16.0248 5.02374 17.1568 6.38684" stroke="white" stroke-linecap="round" stroke-linejoin="round"/>
<path d="M17.1553 3.50296V6.57874H14.0781" stroke="white" stroke-linecap="round" stroke-linejoin="round"/>
</svg>
