<svg width="26" height="26" viewBox="0 0 26 26" fill="none" xmlns="http://www.w3.org/2000/svg">
<rect width="26" height="26" rx="5" fill="url(#paint0_linear_214_138)"/>
<path d="M7.59106 12.4143C7.59106 13.4621 7.85501 14.4359 8.38293 15.3357C8.91084 16.2355 9.62772 16.9566 10.5336 17.499C10.7074 17.6099 10.8286 17.761 10.8971 17.9523C10.9656 18.1436 10.95 18.3253 10.8502 18.4974C10.7508 18.6823 10.5989 18.8026 10.3943 18.8583C10.1897 18.914 9.99399 18.8923 9.80726 18.7932C8.6526 18.1276 7.74625 17.2278 7.08822 16.0938C6.43019 14.9597 6.10118 13.7333 6.10118 12.4143C6.10118 12.0938 6.12303 11.7795 6.16673 11.4714C6.21043 11.1632 6.26928 10.855 6.34328 10.5469L6.10118 10.6948C5.92736 10.8057 5.74112 10.8336 5.54247 10.7784C5.34382 10.7231 5.19483 10.609 5.09551 10.4359C4.99618 10.2629 4.97433 10.0748 5.02995 9.87164C5.08557 9.6685 5.20054 9.51763 5.37486 9.41902L7.6283 8.12474C7.80212 8.02613 7.99159 8.00468 8.19669 8.0604C8.4018 8.11611 8.55377 8.23001 8.6526 8.40209L9.95624 10.6208C10.0556 10.7934 10.0774 10.9815 10.0218 11.1851C9.96618 11.3888 9.85121 11.5397 9.67689 11.6378C9.50257 11.7359 9.31336 11.7576 9.10925 11.7029C8.90513 11.6481 8.75292 11.534 8.6526 11.3604L8.0194 10.2695C7.88283 10.6147 7.77729 10.966 7.7028 11.3234C7.6283 11.6809 7.59106 12.0445 7.59106 12.4143ZM13.5506 6.47917C13.0415 6.47917 12.5387 6.54401 12.0421 6.67368C11.5455 6.80335 11.0737 6.99121 10.6267 7.23724C10.4405 7.33585 10.245 7.36987 10.0404 7.3393C9.83581 7.30874 9.6836 7.20692 9.58377 7.03386C9.47203 6.83663 9.4472 6.63645 9.50928 6.43331C9.57136 6.23018 9.70172 6.07289 9.90037 5.96146C10.4591 5.64097 11.0458 5.40061 11.6607 5.24036C12.2755 5.08012 12.9055 5 13.5506 5C14.5314 5 15.472 5.18194 16.3724 5.54581C17.2728 5.90969 18.0766 6.43652 18.7838 7.1263V6.84896C18.7838 6.63941 18.8553 6.46388 18.9983 6.32238C19.1414 6.18087 19.3182 6.10987 19.5287 6.10938C19.7393 6.10888 19.9164 6.17988 20.0599 6.32238C20.2034 6.46487 20.2747 6.6404 20.2737 6.84896V9.43751C20.2737 9.64705 20.2024 9.82283 20.0599 9.96483C19.9173 10.1068 19.7403 10.1776 19.5287 10.1771H16.9214C16.7104 10.1771 16.5336 10.1061 16.391 9.96409C16.2485 9.82209 16.177 9.64656 16.1765 9.43751C16.176 9.22845 16.2475 9.05292 16.391 8.91092C16.5346 8.76892 16.7114 8.69792 16.9214 8.69792H18.2065C17.6353 7.99532 16.9463 7.45 16.1393 7.06196C15.3322 6.67393 14.4693 6.47966 13.5506 6.47917ZM18.0575 16.2971C18.5293 15.7548 18.8893 15.157 19.1376 14.5037C19.386 13.8504 19.5101 13.1662 19.5101 12.4513C19.5101 12.2418 19.5816 12.0569 19.7247 11.8966C19.8677 11.7364 20.0445 11.6563 20.255 11.6563C20.4656 11.6563 20.6427 11.7364 20.7862 11.8966C20.9297 12.0569 21.001 12.2418 21 12.4513C21 13.2525 20.8726 14.0259 20.6178 14.7714C20.3631 15.5169 19.9938 16.2104 19.5101 16.8518C19.0264 17.4933 18.4523 18.0418 17.7878 18.4974C17.1233 18.953 16.4 19.292 15.6178 19.5143L15.804 19.6253C15.9778 19.7239 16.0896 19.875 16.1393 20.0786C16.1889 20.2823 16.1641 20.4701 16.0648 20.6422C15.9654 20.8143 15.8164 20.9252 15.6178 20.975C15.4191 21.0248 15.2329 21.0002 15.0591 20.9011L12.787 19.6068C12.6132 19.5082 12.4985 19.3571 12.4429 19.1534C12.3872 18.9498 12.4088 18.7619 12.5077 18.5899L13.8113 16.3526C13.9106 16.18 14.0596 16.0691 14.2583 16.0198C14.4569 15.9705 14.6432 15.9952 14.817 16.0938C14.9908 16.1924 15.1058 16.3435 15.1619 16.5471C15.218 16.7508 15.1962 16.9386 15.0963 17.1107L14.4073 18.2755C15.115 18.1769 15.7824 17.958 16.4097 17.6188C17.0369 17.2796 17.5862 16.839 18.0575 16.2971Z" fill="white"/>
<defs>
<linearGradient id="paint0_linear_214_138" x1="0" y1="0" x2="30.4783" y2="18.7018" gradientUnits="userSpaceOnUse">
<stop stop-color="#A783F8"/>
<stop offset="1" stop-color="#7F45FF"/>
</linearGradient>
</defs>
</svg>
