<svg width="16" height="16" viewBox="0 0 16 16" fill="none" xmlns="http://www.w3.org/2000/svg">
<g clip-path="url(#clip0_1_1578)">
<path d="M14.5 0.849609C15.4128 0.849609 16.1504 1.58716 16.1504 2.5V14.5C16.1504 15.4128 15.4128 16.1504 14.5 16.1504H1.5C0.587157 16.1504 -0.150391 15.4128 -0.150391 14.5V2.5C-0.150391 1.58716 0.587157 0.849609 1.5 0.849609H14.5ZM1.5 2.15039C1.30284 2.15039 1.15039 2.30284 1.15039 2.5V14.5C1.15039 14.6972 1.30284 14.8496 1.5 14.8496H14.5C14.6972 14.8496 14.8496 14.6972 14.8496 14.5V2.5C14.8496 2.30284 14.6972 2.15039 14.5 2.15039H1.5Z" fill="white" stroke="white" stroke-width="0.3"/>
<path d="M15.5 4.84961C15.8628 4.84961 16.1504 5.13716 16.1504 5.5C16.1504 5.86284 15.8628 6.15039 15.5 6.15039H0.5C0.137157 6.15039 -0.150391 5.86284 -0.150391 5.5C-0.150391 5.13716 0.137157 4.84961 0.5 4.84961H15.5ZM4.5 -0.150391C4.86284 -0.150391 5.15039 0.137157 5.15039 0.5V3.5C5.15039 3.86284 4.86284 4.15039 4.5 4.15039C4.13716 4.15039 3.84961 3.86284 3.84961 3.5V0.5C3.84961 0.137157 4.13716 -0.150391 4.5 -0.150391ZM11.5 -0.150391C11.8628 -0.150391 12.1504 0.137157 12.1504 0.5V3.5C12.1504 3.86284 11.8628 4.15039 11.5 4.15039C11.1372 4.15039 10.8496 3.86284 10.8496 3.5V0.5C10.8496 0.137157 11.1372 -0.150391 11.5 -0.150391Z" fill="white" stroke="white" stroke-width="0.3"/>
</g>
<defs>
<clipPath id="clip0_1_1578">
<rect width="16" height="16" fill="white"/>
</clipPath>
</defs>
</svg>
