<svg width="13" height="16" viewBox="0 0 13 16" fill="none" xmlns="http://www.w3.org/2000/svg">
<path d="M12.9998 4.34665V5.15209V5.15135C12.9998 5.25542 12.9585 5.35435 12.8846 5.42766C12.8107 5.50094 12.7103 5.54272 12.6061 5.54272H0.393681C0.176533 5.54272 0 5.36756 0 5.15137V4.34667C0 3.37487 0.794019 2.58777 1.7727 2.58777H5.07002C4.7369 2.06963 4.71548 1.41224 5.01314 0.873577C5.31081 0.334913 5.88102 0 6.5 0C7.11898 0 7.68919 0.334932 7.98686 0.873577C8.28452 1.41222 8.2631 2.06963 7.92998 2.58777H11.2273C12.206 2.58777 12.9998 3.37486 12.9998 4.34665ZM11.9103 6.32394L11.2567 14.2704C11.1725 15.2451 10.3518 15.9956 9.36579 16H3.63416C2.6481 15.9956 1.82748 15.2451 1.74327 14.2704L1.0896 6.32394H11.9103ZM4.74713 7.64531C4.74713 7.42912 4.5706 7.2547 4.35271 7.2547C4.13556 7.2547 3.95903 7.42912 3.95903 7.64531V14.6318C3.95903 14.8479 4.13556 15.0231 4.35271 15.0231C4.5706 15.0231 4.74713 14.8479 4.74713 14.6318V7.64531ZM6.89422 7.64531H6.89348C6.89348 7.42912 6.71769 7.2547 6.4998 7.2547C6.28191 7.2547 6.10612 7.42912 6.10612 7.64531V14.6318C6.10612 14.8479 6.28191 15.0231 6.4998 15.0231C6.71769 15.0231 6.89348 14.8479 6.89348 14.6318L6.89422 7.64531ZM9.04132 7.64531H9.04058C9.04058 7.42912 8.86405 7.2547 8.6469 7.2547C8.42901 7.2547 8.25248 7.42912 8.25248 7.64531V14.6318C8.25248 14.8479 8.42901 15.0231 8.6469 15.0231C8.86405 15.0231 9.04058 14.8479 9.04058 14.6318L9.04132 7.64531Z" fill="url(#paint0_radial_1_4098)"/>
<defs>
<radialGradient id="paint0_radial_1_4098" cx="0" cy="0" r="1" gradientTransform="matrix(9.32025 -14.131 7.75447 10.9575 6.68119 9.54569)" gradientUnits="userSpaceOnUse">
<stop offset="0.109324" stop-color="#C91F1F"/>
<stop offset="1" stop-color="#A21515"/>
</radialGradient>
</defs>
</svg>
