<svg width="21" height="22" viewBox="0 0 21 22" fill="none" xmlns="http://www.w3.org/2000/svg">
<path fill-rule="evenodd" clip-rule="evenodd" d="M3.31583 0C2.43641 0 1.59302 0.347678 0.971183 0.966548C0.349345 1.58542 0 2.42479 0 3.3V18.7C0 19.5752 0.349345 20.4146 0.971183 21.0335C1.59302 21.6523 2.43641 22 3.31583 22H9.94748C10.8269 22 11.6703 21.6523 12.2921 21.0335C12.914 20.4146 13.2633 19.5752 13.2633 18.7V3.3C13.2633 2.42479 12.914 1.58542 12.2921 0.966548C11.6703 0.347678 10.8269 0 9.94748 0H3.31583ZM14.6924 5.8223C14.8997 5.61608 15.1808 5.50024 15.4739 5.50024C15.7669 5.50024 16.048 5.61608 16.2553 5.8223L20.6764 10.2223C20.8836 10.4286 21 10.7083 21 11C21 11.2917 20.8836 11.5714 20.6764 11.7777L16.2553 16.1777C16.0468 16.3781 15.7676 16.4889 15.4778 16.4864C15.188 16.4839 14.9108 16.3682 14.7059 16.1643C14.501 15.9604 14.3847 15.6845 14.3822 15.396C14.3797 15.1076 14.4911 14.8298 14.6924 14.6223L17.2268 12.1H7.73693C7.44379 12.1 7.16266 11.9841 6.95538 11.7778C6.7481 11.5715 6.63165 11.2917 6.63165 11C6.63165 10.7083 6.7481 10.4285 6.95538 10.2222C7.16266 10.0159 7.44379 9.9 7.73693 9.9H17.2268L14.6924 7.3777C14.4852 7.17142 14.3688 6.89168 14.3688 6.6C14.3688 6.30832 14.4852 6.02858 14.6924 5.8223Z" fill="url(#paint0_radial_220_193)"/>
<defs>
<radialGradient id="paint0_radial_220_193" cx="0" cy="0" r="1" gradientTransform="matrix(15.0558 -19.4302 12.5264 15.0665 10.7927 13.1253)" gradientUnits="userSpaceOnUse">
<stop offset="0.109324" stop-color="#C91F1F"/>
<stop offset="1" stop-color="#A21515"/>
</radialGradient>
</defs>
</svg>
