<svg width="20" height="20" viewBox="0 0 20 20" fill="none" xmlns="http://www.w3.org/2000/svg">
<path d="M17.5006 6.66675C16.2923 6.66675 15.6173 7.86675 15.8923 8.75841L12.934 11.7251C12.684 11.6501 12.3173 11.6501 12.0673 11.7251L9.94232 9.60008C10.2257 8.70842 9.55065 7.50008 8.33398 7.50008C7.12565 7.50008 6.44232 8.70008 6.72565 9.60008L2.92565 13.3917C2.03398 13.1167 0.833984 13.7917 0.833984 15.0001C0.833984 15.9167 1.58398 16.6667 2.50065 16.6667C3.70898 16.6667 4.38398 15.4667 4.10898 14.5751L7.90065 10.7751C8.15065 10.8501 8.51732 10.8501 8.76732 10.7751L10.8923 12.9001C10.609 13.7917 11.284 15.0001 12.5007 15.0001C13.709 15.0001 14.3923 13.8001 14.109 12.9001L17.0756 9.94175C17.9673 10.2167 19.1673 9.54175 19.1673 8.33341C19.1673 7.41675 18.4173 6.66675 17.5006 6.66675Z" fill="url(#paint0_linear_220_220)"/>
<path d="M12.5007 7.5L13.284 5.775L15.0007 5L13.284 4.225L12.5007 2.5L11.734 4.225L10.0007 5L11.734 5.775L12.5007 7.5ZM2.91732 9.16667L3.33398 7.5L5.00065 7.08333L3.33398 6.66667L2.91732 5L2.50065 6.66667L0.833984 7.08333L2.50065 7.5L2.91732 9.16667Z" fill="url(#paint1_linear_220_220)"/>
<defs>
<linearGradient id="paint0_linear_220_220" x1="10.0007" y1="6.66675" x2="10.0007" y2="16.6667" gradientUnits="userSpaceOnUse">
<stop stop-color="#FF8573"/>
<stop offset="1" stop-color="#995045"/>
</linearGradient>
<linearGradient id="paint1_linear_220_220" x1="7.91732" y1="2.5" x2="7.91732" y2="9.16667" gradientUnits="userSpaceOnUse">
<stop stop-color="#FF8573"/>
<stop offset="1" stop-color="#995045"/>
</linearGradient>
</defs>
</svg>
