<svg width="24" height="24" viewBox="0 0 24 24" fill="none" xmlns="http://www.w3.org/2000/svg">
<path d="M9.5 18.75C9.5 19.413 9.76358 20.0487 10.2324 20.5176C10.7013 20.9864 11.337 21.25 12 21.25C12.663 21.25 13.2987 20.9864 13.7676 20.5176C14.2364 20.0487 14.5 19.413 14.5 18.75V17.75H9.5V18.75ZM20.5 15.207L18.3965 13.1035C18.3027 13.0098 18.25 12.8826 18.25 12.75V10.75H19.25V12.543L21.3535 14.6465C21.4473 14.7402 21.5 14.8674 21.5 15V17.25C21.5 17.3826 21.4473 17.5097 21.3535 17.6035C21.2597 17.6973 21.1326 17.75 21 17.75H15.5V18.75C15.5 19.6783 15.131 20.5682 14.4746 21.2246C13.8182 21.881 12.9283 22.25 12 22.25C11.0717 22.25 10.1818 21.881 9.52539 21.2246C8.86901 20.5682 8.5 19.6783 8.5 18.75V17.75H3C2.86739 17.75 2.74025 17.6973 2.64648 17.6035C2.55272 17.5097 2.5 17.3826 2.5 17.25V15L2.50977 14.9023C2.52896 14.8061 2.57609 14.7169 2.64648 14.6465L4.75 12.543V9.75L4.75781 9.41406C4.83755 7.73847 5.49606 6.13786 6.62598 4.88867C7.83126 3.55625 9.48795 2.71806 11.2754 2.53613L11.5 2.51367V1H12.5V2.51367L12.7246 2.53613C13.4216 2.60745 14.1036 2.78185 14.75 3.05078V4.14453C13.8967 3.72334 12.9564 3.50189 12.001 3.5C10.9032 3.49785 9.82415 3.78575 8.87305 4.33398C7.92198 4.88223 7.13232 5.67203 6.58398 6.62305C6.03582 7.5739 5.74804 8.65245 5.75 9.75V12.75L5.74023 12.8477C5.72104 12.9439 5.67391 13.0331 5.60352 13.1035L3.5 15.207V16.75H20.5V15.207Z" fill="white" stroke="white" stroke-width="0.5"/>
<path d="M19.5 9C21.1569 9 22.5 7.65685 22.5 6C22.5 4.34315 21.1569 3 19.5 3C17.8431 3 16.5 4.34315 16.5 6C16.5 7.65685 17.8431 9 19.5 9Z" fill="#FF0000"/>
</svg>
