<svg width="23" height="16" viewBox="0 0 23 16" fill="none" xmlns="http://www.w3.org/2000/svg">
<path d="M0 4C0 2.93913 0.432839 1.92172 1.2033 1.17157C1.97376 0.421427 3.01872 0 4.10832 0H10.6816C11.7712 0 12.8162 0.421427 13.5866 1.17157C14.3571 1.92172 14.7899 2.93913 14.7899 4V12C14.7899 13.0609 14.3571 14.0783 13.5866 14.8284C12.8162 15.5786 11.7712 16 10.6816 16H4.10832C3.01872 16 1.97376 15.5786 1.2033 14.8284C0.432839 14.0783 0 13.0609 0 12V4ZM19.7791 14.0448L16.2689 11.6864C16.2908 11.5371 16.3018 11.3861 16.3018 11.2336V4.7696C16.3018 4.616 16.2908 4.46507 16.2689 4.3168L19.7791 1.9584C20.0873 1.7513 20.4478 1.63017 20.8216 1.60812C21.1954 1.58607 21.5683 1.66393 21.9 1.83329C22.2316 2.00265 22.5094 2.25706 22.7033 2.56901C22.8972 2.88096 22.9998 3.23858 23 3.6032V12.4C22.9998 12.7646 22.8972 13.1222 22.7033 13.4342C22.5094 13.7461 22.2316 14.0006 21.9 14.1699C21.5683 14.3393 21.1954 14.4171 20.8216 14.3951C20.4478 14.373 20.0873 14.2519 19.7791 14.0448Z" fill="url(#paint0_linear_1_7135)"/>
<defs>
<linearGradient id="paint0_linear_1_7135" x1="11.5" y1="0" x2="11.5" y2="16" gradientUnits="userSpaceOnUse">
<stop stop-color="#FF8573"/>
<stop offset="1" stop-color="#995045"/>
</linearGradient>
</defs>
</svg>
