<svg width="20" height="20" viewBox="0 0 20 20" fill="none" xmlns="http://www.w3.org/2000/svg">
<path d="M13.5 9C13.9167 9 14.271 8.85433 14.563 8.56299C14.855 8.27166 15.0007 7.91733 15 7.5C14.9993 7.08266 14.8537 6.72866 14.563 6.438C14.2723 6.14733 13.918 6.00133 13.5 6C13.082 5.99866 12.728 6.14466 12.438 6.438C12.148 6.73133 12.002 7.08533 12 7.5C11.998 7.91466 12.144 8.269 12.438 8.56299C12.732 8.85699 13.086 9.00266 13.5 9ZM6.5 9C6.91666 9 7.271 8.85433 7.563 8.56299C7.855 8.27166 8.00066 7.91733 8 7.5C7.99933 7.08266 7.85366 6.72866 7.563 6.438C7.27233 6.14733 6.918 6.00133 6.5 6C6.082 5.99866 5.728 6.14466 5.438 6.438C5.148 6.73133 5.002 7.08533 5 7.5C4.998 7.91466 5.144 8.269 5.438 8.56299C5.732 8.85699 6.086 9.00266 6.5 9ZM13.088 14.538C14.0127 13.896 14.6833 13.05 15.1 12H4.9C5.31666 13.05 5.98766 13.896 6.913 14.538C7.83833 15.18 8.86733 15.5007 9.99999 15.5C11.1327 15.4993 12.162 15.1787 13.088 14.538ZM6.1 19.213C4.88333 18.6877 3.825 17.975 2.925 17.075C2.025 16.175 1.31267 15.1167 0.788001 13.9C0.263335 12.6833 0.000667932 11.3833 1.26582e-06 9.99999C-0.0006654 8.61666 0.262001 7.31666 0.788001 6.1C1.314 4.88333 2.02633 3.825 2.925 2.925C3.82367 2.025 4.882 1.31267 6.1 0.788001C7.318 0.263335 8.618 0.000667932 9.99999 1.26582e-06C11.382 -0.0006654 12.682 0.262001 13.9 0.788001C15.118 1.314 16.1763 2.02633 17.075 2.925C17.9737 3.82367 18.6863 4.882 19.213 6.1C19.7397 7.318 20.002 8.618 20 9.99999C19.998 11.382 19.7353 12.682 19.212 13.9C18.6887 15.118 17.9763 16.1763 17.075 17.075C16.1737 17.9737 15.1153 18.6863 13.9 19.213C12.6847 19.7397 11.3847 20.002 9.99999 20C8.61533 19.998 7.31533 19.7363 6.1 19.213Z" fill="url(#paint0_linear_220_214)"/>
<defs>
<linearGradient id="paint0_linear_220_214" x1="10" y1="0" x2="10" y2="20" gradientUnits="userSpaceOnUse">
<stop stop-color="#FF8573"/>
<stop offset="1" stop-color="#995045"/>
</linearGradient>
</defs>
</svg>
