<svg width="19" height="19" viewBox="0 0 19 19" fill="none" xmlns="http://www.w3.org/2000/svg">
<path fill-rule="evenodd" clip-rule="evenodd" d="M12.078 0.732516C12.078 0.538241 12.1585 0.351922 12.3017 0.214549C12.445 0.0771755 12.6393 0 12.8418 0H15.3244C15.5269 0 15.7212 0.0771755 15.8645 0.214549C16.0077 0.351922 16.0882 0.538241 16.0882 0.732516V2.79382H18.2362C18.4387 2.79382 18.633 2.87099 18.7763 3.00837C18.9195 3.14574 19 3.33206 19 3.52633V5.90701C19 6.10128 18.9195 6.2876 18.7763 6.42498C18.633 6.56235 18.4387 6.63953 18.2362 6.63953H16.0882V8.69936C16.0882 8.89363 16.0077 9.07995 15.8645 9.21733C15.7212 9.3547 15.5269 9.43188 15.3244 9.43188H12.8418C12.6393 9.43188 12.445 9.3547 12.3017 9.21733C12.1585 9.07995 12.078 8.89363 12.078 8.69936V6.63953H9.93005C9.72746 6.63953 9.53317 6.56235 9.38992 6.42498C9.24667 6.2876 9.1662 6.10128 9.1662 5.90701V3.52633C9.1662 3.33206 9.24667 3.14574 9.38992 3.00837C9.53317 2.87099 9.72746 2.79382 9.93005 2.79382H12.078V0.732516ZM2.81555 8.74478H0V14.6049L2.79263 17.283C3.36013 17.8274 4.03389 18.2592 4.77545 18.5538C5.51701 18.8484 6.31182 19 7.1145 19H16.0408C16.6486 19 17.2315 18.7685 17.6612 18.3564C18.091 17.9442 18.3324 17.3853 18.3324 16.8025C18.3324 16.2196 18.091 15.6607 17.6612 15.2486C17.2315 14.8364 16.6486 14.6049 16.0408 14.6049H11.7984C11.6396 15.1185 11.3443 15.5837 10.9416 15.9549C10.5388 16.3261 10.0423 16.5905 9.50089 16.7223C8.95944 16.854 8.39158 16.8486 7.85298 16.7065C7.31438 16.5644 6.82353 16.2905 6.42856 15.9117L4.2134 13.7874C4.12472 13.7024 4.05438 13.6014 4.00639 13.4903C3.9584 13.3792 3.9337 13.2601 3.9337 13.1399C3.9337 13.0196 3.9584 12.9005 4.00639 12.7894C4.05438 12.6783 4.12472 12.5774 4.2134 12.4923C4.30207 12.4073 4.40734 12.3398 4.5232 12.2938C4.63906 12.2478 4.76323 12.2241 4.88864 12.2241C5.01404 12.2241 5.13822 12.2478 5.25408 12.2938C5.36994 12.3398 5.47521 12.4073 5.56388 12.4923L7.77905 14.6166C8.01238 14.8399 8.3247 14.9709 8.65406 14.9836C8.98341 14.9964 9.30573 14.89 9.55706 14.6854C9.8084 14.4809 9.97039 14.1933 10.0109 13.8796C10.0514 13.5659 9.96747 13.249 9.77575 12.9919L7.13741 10.4618C6.56992 9.91742 5.89615 9.48559 5.1546 9.19098C4.41304 8.89637 3.61822 8.74475 2.81555 8.74478Z" fill="url(#paint0_linear_1_7141)"/>
<defs>
<linearGradient id="paint0_linear_1_7141" x1="9.5" y1="0" x2="9.5" y2="19" gradientUnits="userSpaceOnUse">
<stop stop-color="#FF8573"/>
<stop offset="1" stop-color="#995045"/>
</linearGradient>
</defs>
</svg>
