<svg width="19" height="18" viewBox="0 0 19 18" fill="none" xmlns="http://www.w3.org/2000/svg">
<path d="M9.432 0C7.56653 0 5.74295 0.527841 4.19187 1.51677C2.64078 2.50571 1.43186 3.91131 0.717972 5.55585C0.00408675 7.20038 -0.182698 9.00998 0.181237 10.7558C0.545173 12.5016 1.44348 14.1053 2.76257 15.364C4.08166 16.6226 5.76228 17.4798 7.59191 17.8271C9.42154 18.1743 11.318 17.9961 13.0415 17.3149C14.7649 16.6337 16.238 15.4802 17.2744 14.0001C18.3108 12.5201 18.864 10.78 18.864 9C18.864 6.61305 17.8703 4.32387 16.1014 2.63604C14.3326 0.948212 11.9335 0 9.432 0ZM9.432 3.992C9.74789 3.992 10.0567 4.08138 10.3193 4.24884C10.582 4.4163 10.7867 4.65432 10.9076 4.93279C11.0285 5.21126 11.0601 5.51769 10.9985 5.81332C10.9368 6.10894 10.7847 6.3805 10.5614 6.59363C10.338 6.80677 10.0534 6.95191 9.74359 7.01072C9.43378 7.06952 9.11264 7.03934 8.8208 6.92399C8.52896 6.80864 8.27952 6.61331 8.10402 6.36269C7.92852 6.11207 7.83485 5.81742 7.83485 5.516C7.83471 5.31578 7.87592 5.1175 7.95613 4.93248C8.03633 4.74747 8.15395 4.57935 8.30228 4.43772C8.4506 4.2961 8.62672 4.18375 8.82056 4.1071C9.0144 4.03045 9.22218 3.992 9.432 3.992ZM11.5615 13.21C11.5613 13.3253 11.5131 13.4358 11.4277 13.5173C11.3423 13.5988 11.2265 13.6447 11.1057 13.645H7.7594C7.63857 13.6447 7.52278 13.5988 7.43735 13.5173C7.35191 13.4358 7.30379 13.3253 7.30352 13.21V12.337C7.30379 12.2217 7.35191 12.1112 7.43735 12.0297C7.52278 11.9482 7.63857 11.9023 7.7594 11.902H8.21423V9.58H7.7594C7.63857 9.57974 7.52278 9.53382 7.43735 9.4523C7.35191 9.37078 7.30379 9.26029 7.30352 9.145V8.274C7.30338 8.21674 7.31506 8.16002 7.3379 8.10707C7.36073 8.05413 7.39427 8.00599 7.43661 7.96541C7.47894 7.92483 7.52923 7.8926 7.58462 7.87057C7.64 7.84854 7.69939 7.83713 7.7594 7.837H10.1939C10.3147 7.83726 10.4305 7.88318 10.516 7.9647C10.6014 8.04622 10.6495 8.15671 10.6498 8.272V11.901H11.1057C11.2265 11.9013 11.3423 11.9472 11.4277 12.0287C11.5131 12.1102 11.5613 12.2207 11.5615 12.336V13.21Z" fill="url(#paint0_linear_1_7147)"/>
<defs>
<linearGradient id="paint0_linear_1_7147" x1="9.432" y1="0" x2="9.432" y2="18" gradientUnits="userSpaceOnUse">
<stop stop-color="#FF8573"/>
<stop offset="1" stop-color="#995045"/>
</linearGradient>
</defs>
</svg>
