<svg width="20" height="19" viewBox="0 0 20 19" fill="none" xmlns="http://www.w3.org/2000/svg">
<path d="M3.63761 1.462V16.168C3.63706 16.3373 3.56632 16.4995 3.44086 16.6193C3.31539 16.739 3.14538 16.8065 2.96794 16.807C2.7905 16.8065 2.62049 16.739 2.49502 16.6193C2.36955 16.4995 2.29882 16.3373 2.29827 16.168V2.925H1.53218C1.33107 2.92474 1.13188 2.96231 0.945997 3.03556C0.760118 3.10882 0.591195 3.21632 0.448892 3.35192C0.306589 3.48752 0.193697 3.64856 0.116672 3.82582C0.0396473 4.00309 1.24903e-06 4.1931 1.43772e-06 4.385V17.538C-0.000274486 17.7301 0.0391681 17.9203 0.116069 18.0978C0.192971 18.2753 0.305819 18.4366 0.44815 18.5724C0.590481 18.7082 0.759496 18.8159 0.945513 18.8892C1.13153 18.9626 1.33089 19.0003 1.53218 19H18.4333C18.8254 18.9997 19.2013 18.851 19.4786 18.5864C19.7558 18.3219 19.9117 17.9631 19.912 17.589V1.462C19.9123 1.26993 19.8728 1.0797 19.7959 0.902207C19.719 0.72471 19.6062 0.563436 19.4639 0.427624C19.3215 0.291812 19.1525 0.184132 18.9665 0.110753C18.7805 0.0373741 18.5811 -0.000261914 18.3798 1.37187e-06L5.07023 0.0910015C4.87943 0.0827126 4.68891 0.112533 4.51089 0.178553C4.33286 0.244574 4.17124 0.345339 4.03639 0.474397C3.90153 0.603456 3.7964 0.757963 3.72773 0.928028C3.65906 1.09809 3.62837 1.27996 3.63761 1.462ZM6.79733 2.925H10.8206C10.998 2.92553 11.1681 2.99302 11.2935 3.11274C11.419 3.23246 11.4897 3.39469 11.4903 3.564C11.4897 3.73331 11.419 3.89554 11.2935 4.01526C11.1681 4.13498 10.998 4.20247 10.8206 4.203H6.79733C6.61989 4.20247 6.44988 4.13498 6.32441 4.01526C6.19894 3.89554 6.12821 3.73331 6.12766 3.564C6.12821 3.39469 6.19894 3.23246 6.32441 3.11274C6.44988 2.99302 6.61989 2.92553 6.79733 2.925ZM6.79733 10.233H13.8818C14.0592 10.2335 14.2293 10.301 14.3547 10.4207C14.4802 10.5405 14.5509 10.7027 14.5515 10.872C14.5509 11.0413 14.4802 11.2035 14.3547 11.3233C14.2293 11.443 14.0592 11.5105 13.8818 11.511H6.79733C6.61989 11.5105 6.44988 11.443 6.32441 11.3233C6.19894 11.2035 6.12821 11.0413 6.12766 10.872C6.12766 10.7023 6.19814 10.5396 6.32367 10.4195C6.4492 10.2993 6.61953 10.2315 6.79733 10.231V10.233ZM16.179 15.166H6.79733C6.61989 15.1655 6.44988 15.098 6.32441 14.9783C6.19894 14.8585 6.12821 14.6963 6.12766 14.527C6.12821 14.3577 6.19894 14.1955 6.32441 14.0757C6.44988 13.956 6.61989 13.8885 6.79733 13.888H16.179C16.3565 13.8885 16.5265 13.956 16.6519 14.0757C16.7774 14.1955 16.8481 14.3577 16.8487 14.527C16.8473 14.6958 16.7762 14.8572 16.6508 14.9763C16.5255 15.0954 16.3559 15.1625 16.179 15.163V15.166ZM16.179 7.858H6.79733C6.61989 7.85747 6.44988 7.78998 6.32441 7.67026C6.19894 7.55054 6.12821 7.38831 6.12766 7.219C6.12821 7.04969 6.19894 6.88746 6.32441 6.76774C6.44988 6.64802 6.61989 6.58053 6.79733 6.58H16.179C16.3565 6.58053 16.5265 6.64802 16.6519 6.76774C16.7774 6.88746 16.8481 7.04969 16.8487 7.219C16.8476 7.38797 16.7766 7.54968 16.6512 7.66897C16.5258 7.78826 16.3561 7.85548 16.179 7.856V7.858Z" fill="url(#paint0_linear_1_7132)"/>
<defs>
<linearGradient id="paint0_linear_1_7132" x1="9.956" y1="0" x2="9.956" y2="19" gradientUnits="userSpaceOnUse">
<stop stop-color="#FF8573"/>
<stop offset="1" stop-color="#995045"/>
</linearGradient>
</defs>
</svg>
