<svg width="19" height="19" viewBox="0 0 19 19" fill="none" xmlns="http://www.w3.org/2000/svg">
<path fill-rule="evenodd" clip-rule="evenodd" d="M13.4301 2.5918L15.1686 4.33028C17.7232 6.88575 19 8.16253 19 9.74901C19 11.3364 17.7232 12.6132 15.1686 15.1677C12.6131 17.7232 11.3363 19 9.74884 19C8.16233 19 6.88457 17.7232 4.33 15.1687L2.59149 13.4302C1.12373 11.9615 0.389376 11.2281 0.116724 10.2753C-0.156878 9.32247 0.0768235 8.31073 0.544227 6.28821L0.813078 5.12162C1.20543 3.41924 1.40208 2.56805 1.98444 1.98476C2.56679 1.40147 3.41895 1.20577 5.12136 0.813423L6.28797 0.543626C8.31148 0.0771822 9.32229 -0.156515 10.2751 0.116132C11.228 0.389728 11.9624 1.12407 13.4301 2.5918ZM8.68863 11.7117C8.04928 11.0733 8.05403 10.1556 8.43688 9.42887C8.3421 9.29197 8.29826 9.1262 8.31297 8.96034C8.32769 8.79449 8.40002 8.63902 8.51743 8.52095C8.63483 8.40287 8.78988 8.32964 8.95565 8.31397C9.12142 8.2983 9.28744 8.34119 9.42489 8.43518C9.74789 8.26418 10.1022 8.17298 10.4556 8.17678C10.6446 8.17855 10.8251 8.2553 10.9575 8.39017C11.0899 8.52503 11.1633 8.70696 11.1615 8.89592C11.1597 9.08489 11.083 9.26541 10.9481 9.39778C10.8132 9.53015 10.6313 9.60353 10.4423 9.60176C10.2224 9.60989 10.0145 9.70445 9.86379 9.86491C9.49614 10.2326 9.59209 10.6012 9.69564 10.7047C9.80014 10.8082 10.1678 10.9042 10.5354 10.5366C11.2802 9.79176 12.5666 9.54476 13.3902 10.3684C14.0296 11.0077 14.0248 11.9254 13.642 12.6522C13.7361 12.7891 13.7795 12.9546 13.7645 13.1202C13.7495 13.2857 13.6772 13.4407 13.5599 13.5585C13.4427 13.6763 13.288 13.7495 13.1225 13.7652C12.9571 13.781 12.7913 13.7384 12.654 13.6449C12.2277 13.8788 11.7331 13.9568 11.2555 13.8653C11.0704 13.8273 10.9079 13.7172 10.8038 13.5594C10.6998 13.4015 10.6627 13.2088 10.7007 13.0236C10.7388 12.8384 10.8488 12.676 11.0067 12.5719C11.1645 12.4679 11.3573 12.4308 11.5424 12.4688C11.7106 12.504 11.9823 12.4489 12.2151 12.2161C12.5827 11.8475 12.4868 11.4799 12.3832 11.3763C12.2787 11.2728 11.9111 11.1768 11.5434 11.5445C10.7986 12.2893 9.51229 12.5363 8.68863 11.7117ZM7.61892 7.87849C7.79533 7.70202 7.93525 7.49254 8.0307 7.262C8.12614 7.03146 8.17525 6.78438 8.1752 6.53487C8.17516 6.28535 8.12597 6.03829 8.03044 5.80778C7.93491 5.57728 7.79492 5.36785 7.61845 5.19144C7.44198 5.01504 7.23249 4.87512 7.00195 4.77968C6.77141 4.68424 6.52432 4.63513 6.2748 4.63518C6.02528 4.63522 5.77822 4.68441 5.54771 4.77994C5.3172 4.87546 5.10776 5.01545 4.93136 5.19192C4.57509 5.54831 4.37499 6.03162 4.37508 6.53554C4.37517 7.03946 4.57544 7.5227 4.93183 7.87896C5.28823 8.23522 5.77155 8.43532 6.27548 8.43523C6.7794 8.43514 7.26266 8.23487 7.61892 7.87849Z" fill="url(#paint0_linear_220_226)"/>
<defs>
<linearGradient id="paint0_linear_220_226" x1="9.5" y1="0" x2="9.5" y2="19" gradientUnits="userSpaceOnUse">
<stop stop-color="#FF8573"/>
<stop offset="1" stop-color="#995045"/>
</linearGradient>
</defs>
</svg>
