<svg width="19" height="19" viewBox="0 0 19 19" fill="none" xmlns="http://www.w3.org/2000/svg">
<path fill-rule="evenodd" clip-rule="evenodd" d="M5.44074 1C5.72074 0.41 6.32474 0 7.02274 0H11.0227C11.7207 0 12.3237 0.41 12.6047 1C13.2877 1.006 13.8207 1.037 14.2967 1.223C14.865 1.44527 15.3591 1.82301 15.7227 2.313C16.0897 2.807 16.2627 3.44 16.4987 4.311L17.2407 7.033L17.5207 7.874L17.5447 7.904C18.4457 9.058 18.0167 10.774 17.1587 14.205C16.6127 16.388 16.3407 17.479 15.5267 18.115C14.7127 18.75 13.5877 18.75 11.3377 18.75H6.70774C4.45774 18.75 3.33274 18.75 2.51874 18.115C1.70474 17.479 1.43174 16.388 0.886738 14.205C0.0287378 10.774 -0.400262 9.058 0.500738 7.904L0.524738 7.874L0.804738 7.033L1.54674 4.311C1.78374 3.44 1.95674 2.806 2.32274 2.312C2.68647 1.82238 3.18063 1.445 3.74874 1.223C4.22474 1.037 4.75674 1.005 5.44074 1ZM5.44274 2.503C4.78074 2.51 4.51474 2.535 4.29474 2.621C3.9887 2.74068 3.72255 2.94411 3.52674 3.208C3.35074 3.445 3.24674 3.776 2.95674 4.843L2.38674 6.932C3.40674 6.75 4.80074 6.75 6.70674 6.75H11.3377C13.2447 6.75 14.6377 6.75 15.6577 6.93L15.0887 4.841C14.7987 3.774 14.6947 3.443 14.5187 3.206C14.3229 2.94211 14.0568 2.73868 13.7507 2.619C13.5307 2.533 13.2647 2.508 12.6027 2.501C12.4608 2.79985 12.237 3.05232 11.9573 3.22914C11.6776 3.40596 11.3536 3.49987 11.0227 3.5H7.02274C6.69198 3.49996 6.36801 3.4062 6.08837 3.22956C5.80873 3.05293 5.58487 2.80166 5.44274 2.503Z" fill="url(#paint0_linear_220_224)"/>
<defs>
<linearGradient id="paint0_linear_220_224" x1="9.02274" y1="0" x2="9.02274" y2="18.75" gradientUnits="userSpaceOnUse">
<stop stop-color="#FF8573"/>
<stop offset="1" stop-color="#995045"/>
</linearGradient>
</defs>
</svg>
