<svg width="19" height="18" viewBox="0 0 19 18" fill="none" xmlns="http://www.w3.org/2000/svg">
<path d="M18.3264 12.7193L14.1994 11.0313C14.0231 10.9598 13.8272 10.9448 13.6413 10.9886C13.4553 11.0325 13.2893 11.1327 13.1681 11.2743L11.3404 13.4043C8.47219 12.1142 6.16385 9.91193 4.81137 7.17529L7.04361 5.43129C7.19228 5.3159 7.29754 5.15747 7.34349 4.97995C7.38943 4.80242 7.37356 4.61545 7.29827 4.44729L5.5303 0.509289C5.44737 0.328062 5.30075 0.18014 5.11574 0.0910485C4.93073 0.00195681 4.71892 -0.0227156 4.51688 0.021289L0.685392 0.864289C0.490434 0.907271 0.316509 1.01206 0.192022 1.16154C0.0675351 1.31102 -0.000157204 1.49636 2.74144e-07 1.68729C-0.000137384 3.82953 0.441978 5.95082 1.3011 7.93001C2.16022 9.90919 3.41951 11.7075 5.00707 13.2223C6.59462 14.737 8.47933 15.9385 10.5536 16.7582C12.6278 17.5778 14.851 17.9996 17.096 17.9993C17.2961 17.9994 17.4904 17.9348 17.647 17.8161C17.8037 17.6973 17.9135 17.5313 17.9585 17.3453L18.843 13.6893C18.8885 13.4955 18.8619 13.2926 18.7676 13.1156C18.6733 12.9386 18.5173 12.7984 18.3264 12.7193Z" fill="url(#paint0_linear_1_7144)"/>
<defs>
<linearGradient id="paint0_linear_1_7144" x1="9.43235" y1="0" x2="9.43235" y2="17.9993" gradientUnits="userSpaceOnUse">
<stop stop-color="#FF8573"/>
<stop offset="1" stop-color="#995045"/>
</linearGradient>
</defs>
</svg>
