<svg width="11" height="6" viewBox="0 0 11 6" fill="none" xmlns="http://www.w3.org/2000/svg">
<path d="M0.999892 9.49304e-06L9.48529 9.12213e-06C9.68556 3.0571e-05 9.8812 0.0601821 10.0469 0.172673C10.2126 0.285163 10.3407 0.444811 10.4146 0.630938C10.4885 0.817065 10.5048 1.0211 10.4614 1.21661C10.4181 1.41212 10.317 1.59011 10.1713 1.72751L5.92859 5.72751C5.74303 5.90246 5.49763 5.99991 5.24259 5.99991C4.98756 5.99991 4.74216 5.90246 4.55659 5.72751L0.313892 1.72751C0.168199 1.59011 0.0671176 1.41212 0.0237399 1.21661C-0.0196379 1.0211 -0.00331359 0.817066 0.0705987 0.630939C0.144511 0.444811 0.272606 0.285164 0.438293 0.172673C0.60398 0.0601825 0.799626 3.09595e-05 0.999892 9.49304e-06Z" fill="#4E4D60"/>
</svg>
