<svg width="22" height="22" viewBox="0 0 22 22" fill="none" xmlns="http://www.w3.org/2000/svg">
<path d="M12.3348 15.0707L20.7869 6.52287V17.307C20.7869 19.8948 18.7051 22 16.146 22H4.64092C2.08185 22 0 19.8948 0 17.307V5.67109C0 3.08303 2.08185 0.977867 4.64092 0.977867H15.7961L7.09813 9.77438C6.98432 9.88974 6.90554 10.0354 6.87105 10.1945L5.73569 15.4345C5.67415 15.718 5.75983 16.0134 5.96277 16.2189C6.12246 16.3801 6.33733 16.4679 6.55803 16.4679C6.61798 16.4679 6.67847 16.4617 6.73842 16.4483L11.9197 15.3001C12.077 15.2655 12.221 15.1855 12.3348 15.0707ZM21.4122 0.5945C21.0331 0.211133 20.5262 0 19.9847 0C19.4433 0 18.9364 0.210865 18.5573 0.5945L16.9354 2.23447L19.7906 5.12193L21.4122 3.48196C21.7912 3.09859 22 2.58565 22 2.03836C22 1.49027 21.7912 0.977867 21.4122 0.5945ZM7.66209 14.5001L11.3183 13.6899L18.5995 6.32622L15.7444 3.43877L8.46348 10.8024L7.66209 14.5001Z" fill="url(#paint0_linear_1_5182)"/>
<defs>
<linearGradient id="paint0_linear_1_5182" x1="11" y1="0" x2="11" y2="22" gradientUnits="userSpaceOnUse">
<stop stop-color="#FF8573"/>
<stop offset="1" stop-color="#995045"/>
</linearGradient>
</defs>
</svg>
