<svg width="24" height="24" viewBox="0 0 24 24" fill="none" xmlns="http://www.w3.org/2000/svg">
<g clip-path="url(#clip0_1_7231)">
<path d="M8.36104 0.789371C5.96307 1.62125 3.89506 3.20018 2.46077 5.29425C1.02649 7.38832 0.301526 9.88714 0.392371 12.4237C0.483217 14.9602 1.38508 17.4008 2.9655 19.3869C4.54591 21.373 6.72158 22.7999 9.17292 23.4581C11.1603 23.9709 13.2424 23.9934 15.2404 23.5237C17.0504 23.1172 18.7238 22.2476 20.0967 21C21.5256 19.6619 22.5627 17.9596 23.0967 16.0762C23.677 14.0281 23.7803 11.8742 23.3985 9.78H12.2385V14.4094H18.7017C18.5725 15.1477 18.2957 15.8524 17.8878 16.4813C17.48 17.1102 16.9494 17.6503 16.3279 18.0694C15.5387 18.5914 14.649 18.9427 13.716 19.1006C12.7803 19.2746 11.8205 19.2746 10.8848 19.1006C9.9364 18.9045 9.03923 18.5131 8.25042 17.9512C6.9832 17.0542 6.03168 15.7799 5.53167 14.31C5.02319 12.8126 5.02319 11.1893 5.53167 9.69187C5.88759 8.64228 6.47598 7.68663 7.25292 6.89625C8.14203 5.97515 9.26766 5.31674 10.5063 4.99326C11.745 4.66979 13.0488 4.69374 14.2748 5.0625C15.2325 5.35648 16.1083 5.87013 16.8323 6.5625C17.561 5.8375 18.2885 5.11062 19.0148 4.38187C19.3898 3.99 19.7985 3.61687 20.1679 3.21562C19.0627 2.18714 17.7654 1.38685 16.3504 0.860621C13.7736 -0.0750226 10.9541 -0.100167 8.36104 0.789371Z" fill="white"/>
<path d="M8.3607 0.789382C10.9536 -0.100761 13.7731 -0.0762781 16.3501 0.858757C17.7654 1.38856 19.062 2.1927 20.1657 3.22501C19.7907 3.62626 19.3951 4.00126 19.0126 4.39126C18.2851 5.11751 17.5582 5.84126 16.832 6.56251C16.1079 5.87014 15.2321 5.35649 14.2745 5.06251C13.0489 4.69246 11.7451 4.66712 10.5061 4.98927C9.26712 5.31143 8.14079 5.96862 7.2507 6.88876C6.47377 7.67914 5.88538 8.63479 5.52945 9.68438L1.64258 6.67501C3.03384 3.91606 5.44273 1.80568 8.3607 0.789382Z" fill="#E33629"/>
<path d="M0.611401 9.65625C0.820316 8.62087 1.16716 7.61818 1.64265 6.675L5.52953 9.69188C5.02105 11.1893 5.02105 12.8126 5.52953 14.31C4.23453 15.31 2.9389 16.315 1.64265 17.325C0.452308 14.9556 0.0892746 12.2559 0.611401 9.65625Z" fill="#F8BD00"/>
<path d="M12.2372 9.77812H23.3972C23.7789 11.8724 23.6756 14.0263 23.0953 16.0744C22.5614 17.9578 21.5242 19.66 20.0953 20.9981C18.8409 20.0194 17.5809 19.0481 16.3265 18.0694C16.9484 17.6499 17.4792 17.1092 17.8871 16.4796C18.295 15.8501 18.5716 15.1446 18.7003 14.4056H12.2372C12.2353 12.8644 12.2372 11.3212 12.2372 9.77812Z" fill="#587DBD"/>
<path d="M1.64062 17.325C2.93687 16.325 4.2325 15.32 5.5275 14.31C6.02851 15.7804 6.98138 17.0548 8.25 17.9512C9.04126 18.5105 9.94037 18.8987 10.89 19.0912C11.8257 19.2652 12.7855 19.2652 13.7212 19.0912C14.6542 18.9333 15.5439 18.5821 16.3331 18.06C17.5875 19.0387 18.8475 20.01 20.1019 20.9887C18.7292 22.237 17.0558 23.1073 15.2456 23.5144C13.2476 23.9841 11.1655 23.9616 9.17812 23.4487C7.60632 23.0291 6.13814 22.2892 4.86562 21.2756C3.51874 20.2063 2.41867 18.8587 1.64062 17.325Z" fill="#319F43"/>
</g>
<defs>
<clipPath id="clip0_1_7231">
<rect width="24" height="24" fill="white"/>
</clipPath>
</defs>
</svg>
