<svg width="29" height="25" viewBox="0 0 29 25" fill="none" xmlns="http://www.w3.org/2000/svg">
<path d="M26.8352 2.89983C25.7446 1.54086 24.1449 0.592407 22.3417 0.210196C19.0842 -0.511757 15.8122 0.677343 14.2417 3.09801C12.6857 0.691499 9.45728 -0.497601 6.21436 0.19604C2.9569 0.889682 -0.373268 3.62178 0.0339148 9.25585C0.615604 14.8899 5.82172 20.6656 13.9363 24.6717C13.9654 24.6858 13.9945 24.7 14.0381 24.7H14.3726C14.4016 24.7 14.4453 24.6858 14.4743 24.6717C22.7198 20.6231 27.9841 14.8616 28.5658 9.25585C28.7548 6.72194 28.1586 4.51361 26.8352 2.89983Z" fill="url(#paint0_linear_1_6478)"/>
<defs>
<linearGradient id="paint0_linear_1_6478" x1="14.3" y1="0" x2="14.3" y2="24.7" gradientUnits="userSpaceOnUse">
<stop stop-color="#FF8573"/>
<stop offset="1" stop-color="#995045"/>
</linearGradient>
</defs>
</svg>
