<svg width="23" height="24" viewBox="0 0 23 24" fill="none" xmlns="http://www.w3.org/2000/svg">
    <path d="M11.5 0C5.15 0 0 5.15 0 11.5C0 17.85 5.15 23 11.5 23C17.85 23 23 17.85 23 11.5C23 5.15 17.85 0 11.5 0ZM11.5 19C10.67 19 10 18.33 10 17.5C10 16.67 10.67 16 11.5 16C12.33 16 13 16.67 13 17.5C13 18.33 12.33 19 11.5 19ZM14.5 11.05L13.15 12.4C12.63 12.92 12.25 13.5 12.25 15H10.75V14.5C10.75 13.67 11.08 12.92 11.61 12.39L12.55 11.45C12.83 11.17 13 10.78 13 10.35C13 9.49 12.31 8.8 11.45 8.8C10.59 8.8 9.9 9.49 9.9 10.35H8.4C8.4 8.66 9.76 7.3 11.45 7.3C13.14 7.3 14.5 8.66 14.5 10.35C14.5 10.61 14.45 10.84 14.5 11.05Z" fill="url(#paint0_linear_help)"/>
    <defs>
      <linearGradient id="paint0_linear_help" x1="11.5" y1="0" x2="11.5" y2="24" gradientUnits="userSpaceOnUse">
        <stop stop-color="#FF8573"/>
        <stop offset="1" stop-color="#995045"/>
      </linearGradient>
    </defs>
  </svg>