<svg width="26" height="26" viewBox="0 0 26 26" fill="none" xmlns="http://www.w3.org/2000/svg">
<path fill-rule="evenodd" clip-rule="evenodd" d="M13.0009 2.32499C11.5985 2.32475 10.2098 2.60071 8.91414 3.13712C7.61843 3.67352 6.4411 4.45987 5.44938 5.45124C4.45765 6.44262 3.67097 7.61961 3.13424 8.915C2.59751 10.2104 2.32126 11.5988 2.32126 13.0009C2.32126 13.3087 2.19898 13.6039 1.98132 13.8215C1.76366 14.0391 1.46845 14.1614 1.16063 14.1614C0.852813 14.1614 0.557602 14.0391 0.339942 13.8215C0.122281 13.6039 6.58422e-07 13.3087 6.58422e-07 13.0009C-0.000847488 10.3359 0.817728 7.73506 2.34481 5.55077C3.8719 3.36648 6.03367 1.70436 8.53721 0.789608C11.0408 -0.125143 13.765 -0.248296 16.3409 0.436836C18.9168 1.12197 21.2198 2.58226 22.9378 4.61985L24.0186 3.53926C24.1808 3.37704 24.3874 3.26653 24.6124 3.22167C24.8374 3.17682 25.0707 3.19965 25.2827 3.28726C25.4947 3.37488 25.676 3.52336 25.8037 3.71395C25.9314 3.90454 25.9997 4.12868 26 4.35806V8.44834C26 9.08889 25.48 9.60876 24.8394 9.60876H20.7502C20.5206 9.60881 20.2962 9.54077 20.1053 9.41327C19.9144 9.28576 19.7656 9.10451 19.6777 8.89244C19.5899 8.68038 19.5669 8.44702 19.6117 8.22189C19.6565 7.99676 19.7671 7.78997 19.9294 7.62768L21.2888 6.26859C20.2886 5.03517 19.0253 4.04081 17.5914 3.35818C16.1575 2.67556 14.5891 2.32193 13.0009 2.32314M24.8394 11.8386C25.48 11.8386 26 12.3585 26 12.9991C26.0008 15.6641 25.1823 18.2649 23.6552 20.4492C22.1281 22.6335 19.9663 24.2956 17.4628 25.2104C14.9592 26.1251 12.235 26.2483 9.65908 25.5632C7.08319 24.878 4.78022 23.4177 3.06221 21.3801L1.98143 22.4607C1.81911 22.6231 1.61229 22.7336 1.38712 22.7784C1.16195 22.8232 0.928553 22.8002 0.716448 22.7124C0.504344 22.6245 0.323062 22.4758 0.195533 22.2849C0.0680045 22.094 -4.21512e-05 21.8696 6.58422e-07 21.6401V17.5535C6.58422e-07 16.913 0.519964 16.3931 1.16063 16.3931H5.25163C5.48105 16.3934 5.70523 16.4617 5.89585 16.5894C6.08647 16.717 6.23498 16.8983 6.32261 17.1103C6.41025 17.3223 6.43307 17.5555 6.38821 17.7804C6.34335 18.0054 6.23282 18.212 6.07057 18.3742L4.71124 19.7333C6.10189 21.4458 7.98899 22.6857 10.1131 23.2823C12.2372 23.8789 14.494 23.8029 16.5732 23.065C18.6523 22.327 20.4518 20.9631 21.7242 19.161C22.9966 17.3588 23.6794 15.2069 23.6787 13.0009C23.6787 12.3604 24.1987 11.8386 24.8394 11.8386ZM11.376 9.28756C11.376 8.85669 11.5472 8.44347 11.852 8.13879C12.1567 7.83412 12.57 7.66296 13.0009 7.66296C13.4319 7.66296 13.8452 7.83412 14.1499 8.13879C14.4546 8.44347 14.6258 8.85669 14.6258 9.28756C14.6258 9.71843 14.4546 10.1317 14.1499 10.4363C13.8452 10.741 13.4319 10.9122 13.0009 10.9122C12.57 10.9122 12.1567 10.741 11.852 10.4363C11.5472 10.1317 11.376 9.71843 11.376 9.28756ZM13.0009 5.3421C11.9543 5.3421 10.9506 5.75779 10.2106 6.4977C9.47054 7.23762 9.05478 8.24116 9.05478 9.28756C9.05478 10.334 9.47054 11.3375 10.2106 12.0774C10.9506 12.8173 11.9543 13.233 13.0009 13.233C14.0475 13.233 15.0512 12.8173 15.7913 12.0774C16.5313 11.3375 16.9471 10.334 16.9471 9.28756C16.9471 8.24116 16.5313 7.23762 15.7913 6.4977C15.0512 5.75779 14.0475 5.3421 13.0009 5.3421ZM13.0009 14.8576C11.9168 14.8574 10.8562 15.1736 9.94906 15.7672C9.04196 16.3608 8.32781 17.2062 7.89415 18.1996C7.8325 18.3409 7.80698 18.4952 7.8199 18.6488C7.83282 18.8024 7.88378 18.9503 7.96817 19.0793C8.05255 19.2082 8.16772 19.3141 8.30328 19.3875C8.43884 19.4608 8.59053 19.4992 8.74466 19.4993H17.2572C17.4113 19.4992 17.563 19.4608 17.6986 19.3875C17.8341 19.3141 17.9493 19.2082 18.0337 19.0793C18.1181 18.9503 18.169 18.8024 18.182 18.6488C18.1949 18.4952 18.1694 18.3409 18.1077 18.1996C17.6741 17.2062 16.9599 16.3608 16.0528 15.7672C15.1457 15.1736 14.0851 14.8574 13.0009 14.8576Z" fill="url(#paint0_linear_1_6076)"/>
<defs>
<linearGradient id="paint0_linear_1_6076" x1="13" y1="0" x2="13" y2="26" gradientUnits="userSpaceOnUse">
<stop stop-color="#FF8573"/>
<stop offset="1" stop-color="#995045"/>
</linearGradient>
</defs>
</svg>
