<svg width="16" height="20" viewBox="0 0 16 20" fill="none" xmlns="http://www.w3.org/2000/svg">
<path d="M15.15 7.95C15.15 13.8 7.95 18.75 7.95 18.75C7.95 18.75 0.75 13.8 0.75 7.95C0.75 6.04044 1.50857 4.20909 2.85883 2.85883C4.20909 1.50857 6.04044 0.75 7.95 0.75C9.85956 0.75 11.6909 1.50857 13.0412 2.85883C14.3914 4.20909 15.15 6.04044 15.15 7.95Z" stroke="white" stroke-width="1.5"/>
<path d="M10.65 7.95C10.65 8.66608 10.3655 9.35284 9.85919 9.85919C9.35284 10.3655 8.66608 10.65 7.95 10.65C7.23392 10.65 6.54716 10.3655 6.04081 9.85919C5.53446 9.35284 5.25 8.66608 5.25 7.95C5.25 7.23392 5.53446 6.54716 6.04081 6.04081C6.54716 5.53446 7.23392 5.25 7.95 5.25C8.66608 5.25 9.35284 5.53446 9.85919 6.04081C10.3655 6.54716 10.65 7.23392 10.65 7.95Z" stroke="white" stroke-width="1.5"/>
</svg>
