<svg width="244" height="244" viewBox="0 0 244 244" fill="none" xmlns="http://www.w3.org/2000/svg">
<g clip-path="url(#clip0_1_487)">
<g filter="url(#filter0_d_1_487)">
<path d="M176.161 94.8989C167.389 93.5398 145.629 98.0319 139.675 98.3491C138.738 98.4028 137.914 98.3442 137.126 98.2222C136.24 99.9058 135.152 101.768 134.293 103.195C137.052 102.317 139.168 101.402 140.276 100.877C140.463 100.789 140.622 100.711 140.754 100.645C141.015 100.516 141.159 100.443 141.174 100.438C143.521 99.9644 147.186 99.2543 150.558 98.6248C153.949 97.9733 157.024 97.4024 158.166 97.2657C160.769 96.951 170.602 94.6452 176.044 95.7871C181.465 96.951 182.983 99.1177 183.476 101.089C183.969 103.041 183.456 107.082 182.136 109.585C180.836 112.089 175.79 118.081 175.08 119.56C174.765 120.231 174.665 120.958 174.233 121.668C174.338 121.285 174.384 120.914 174.445 120.543C174.741 118.682 174.523 117.018 173.996 116.129C173.543 115.38 172.34 114.751 170.724 114.453C171.573 114.236 172.34 113.941 172.991 113.467C174.431 112.403 177.564 110.137 178.549 108.658C179.516 107.179 181.643 104.578 179.357 100.872C177.405 97.7171 175.709 97.6 173.364 97.3243C171.02 97.0486 166.169 97.9148 161.972 98.6834C158.7 99.2738 146.322 101.187 142.262 102.922C142.223 102.941 142.184 102.961 142.142 102.961C141.234 103.295 135.203 105.562 132.485 109.583C129.547 113.938 128.995 122.671 127.695 125.609C126.375 128.547 123.044 138.026 122.61 139.88C121.841 143.152 122.451 149.165 122.473 150.485C122.532 152.378 123.281 154.447 124.918 154.328C126.555 154.23 127.639 152.297 128.407 153.066C128.664 153.322 128.722 153.676 128.722 154.149C128.703 154.406 128.664 154.72 128.603 155.057C128.544 155.45 128.446 155.901 128.368 156.411C128.368 156.414 128.368 156.416 128.368 156.419C128.31 156.694 128.251 157.009 128.212 157.346C128.134 157.78 128.073 158.232 128.015 158.744C128.015 158.749 128.015 158.751 128.015 158.754C127.995 159.064 127.956 159.376 127.937 159.666C127.897 160.059 127.858 160.45 127.839 160.82C127.839 160.823 127.839 160.828 127.839 160.83C127.8 161.142 127.78 161.435 127.761 161.731C127.761 161.731 127.761 161.735 127.761 161.738C127.736 162.082 127.727 162.421 127.712 162.76C127.712 162.704 127.702 162.641 127.702 162.587V162.58C126.338 162.777 124.03 163.09 122.146 163.234C120.08 163.392 117.498 163.094 116.22 162.916C116.22 162.653 116.21 162.382 116.21 162.116C116.21 162.106 116.21 162.097 116.21 162.087C117.728 162.348 120.109 162.482 122.307 162.36C124.028 162.265 126.292 161.921 127.663 161.694C127.644 161.243 127.644 160.791 127.663 160.34C127.663 160.335 127.663 160.332 127.663 160.328C126.319 160.523 123.93 160.85 121.985 160.999C119.975 161.152 117.481 160.877 116.181 160.698C116.176 160.491 116.181 160.281 116.171 160.081C116.171 160.005 116.159 159.94 116.156 159.866C117.676 160.115 119.997 160.242 122.146 160.123C123.947 160.023 126.341 159.652 127.683 159.427C127.683 158.876 127.722 158.344 127.761 157.795C127.761 157.795 127.761 157.79 127.761 157.787C126.441 157.98 123.976 158.322 121.983 158.473C119.831 158.637 117.157 158.312 115.951 158.141C115.934 158.053 115.932 157.958 115.912 157.873C115.912 157.834 115.893 157.795 115.893 157.756C115.815 157.461 115.754 157.185 115.675 156.89C115.556 156.377 115.439 155.884 115.341 155.43C115.244 155.096 115.183 154.798 115.144 154.542C115.126 154.445 115.134 154.384 115.124 154.296C115.083 153.942 115.105 153.686 115.202 153.535C115.227 153.496 115.224 153.425 115.261 153.4C115.329 153.361 115.41 153.347 115.495 153.352C115.514 153.352 115.539 153.364 115.561 153.366C115.632 153.376 115.702 153.388 115.783 153.417C115.802 153.425 115.824 153.437 115.846 153.447C115.932 153.483 116.017 153.522 116.107 153.574C116.115 153.576 116.12 153.581 116.127 153.586C116.678 153.903 117.301 154.445 117.667 154.603C118.003 154.759 118.477 154.725 118.95 154.564C119.118 154.508 119.282 154.432 119.443 154.345C119.475 154.328 119.501 154.31 119.531 154.293C119.655 154.22 119.775 154.14 119.887 154.049C119.928 154.018 119.967 153.986 120.004 153.952C120.102 153.866 120.185 153.774 120.265 153.676C120.297 153.637 120.333 153.6 120.363 153.559C120.455 153.425 120.534 153.283 120.58 153.134C120.58 153.132 120.585 153.127 120.585 153.125C120.941 152.022 120.721 143.919 120.329 141.298C119.914 138.697 119.184 136.943 117.667 133.671C117.091 132.443 116.532 131.25 115.985 130.013C115.622 129.188 115.263 128.344 114.904 127.456C114.37 126.126 113.841 124.701 113.309 123.105C111.889 118.848 111.14 111.989 109.407 109.466C107.672 106.982 102.173 105.564 102.094 105.523H102.075C100.992 105.01 99.9448 104.556 99.1567 104.242C94.5646 102.37 82.2255 99.7667 77.7701 98.8005C73.2951 97.8147 68.9397 97.0461 65.8849 97.3804C62.83 97.6952 62.2785 98.3466 61.0951 100.318C59.8922 102.27 60.7609 105.325 61.6271 107.728C62.4933 110.134 63.8157 111.098 65.9825 112.421C67.4806 113.309 69.2935 112.972 70.1622 114.016C70.0255 113.997 69.8865 113.997 69.7474 113.997C69.4204 113.97 69.0959 113.953 68.7738 113.95C68.4542 113.946 68.1394 113.955 67.832 113.975C66.9072 114.038 66.0435 114.219 65.2871 114.541C64.5331 114.865 63.8865 115.331 63.3985 115.966C63.2936 116.105 63.2131 116.251 63.1301 116.395C62.8324 116.905 62.6445 117.452 62.5713 118.035C62.5396 118.286 62.5274 118.543 62.5323 118.804C62.0589 117.915 61.6661 116.891 61.1927 116.222C59.6751 114.053 56.7178 107.943 56.9349 104.139C57.1521 100.316 59.0041 97.9099 61.9613 96.0579C64.8991 94.206 74.4981 96.175 77.7701 96.6094C81.0421 97.0437 91.3902 99.7228 99.8277 101.616C99.9863 101.655 100.421 101.775 101.031 101.911C101.043 101.916 101.14 101.96 101.311 102.033C101.482 102.107 101.724 102.209 102.024 102.334C103.827 103.075 107.721 104.564 110.708 104.888C112.22 105.054 113.304 105.191 114.255 105.296C112.65 103.078 111.108 98.7858 110.288 96.2726C105.403 97.4097 103.485 99.1445 100.142 99.33C97.8367 99.469 73.9466 92.964 63.6767 94.5793C53.4262 96.175 56.1468 109.954 57.2717 112.989C58.3941 116.044 60.268 117.62 60.3851 120.636C60.4632 122.468 60.1679 126.529 61.2513 126.529C62.1395 126.529 61.5075 122.154 61.8613 122.034C62.8275 121.719 62.3932 125.209 63.2009 125.209C63.6742 125.209 63.1228 122.903 62.9447 120.931C64.1085 124.32 67.4587 127.829 70.3159 129.23C74.6908 131.338 82.3988 131.299 83.4431 128.559C83.6993 127.888 83.936 127.158 84.0531 126.351C84.0531 126.348 84.0531 126.343 84.0531 126.341C85.4561 125.767 89.7334 124.015 91.3585 123.31C93.4837 122.388 96.7777 120.099 98.9029 118.545C99.8326 117.864 100.926 116.957 101.872 116.142C103.253 119.887 104.573 123.71 105.579 125.819C109.422 133.978 110.9 135.418 111.591 139.439C112.399 144.089 111.118 147.935 111.276 150.97C111.435 154.025 111.75 159.94 111.75 162.994C111.75 166.049 111.828 171.825 111.986 174.053C112.064 175.155 113.445 176.044 115.178 176.693C115.217 176.693 115.256 176.712 115.297 176.732C115.712 176.871 116.124 177.007 116.578 177.146C116.559 176.732 116.559 176.3 116.539 175.846C116.539 175.57 116.52 175.294 116.52 174.999C116.5 174.545 116.5 174.072 116.481 173.579C116.481 173.45 116.476 173.306 116.471 173.169C116.508 173.181 116.542 173.194 116.578 173.203C118.511 173.755 120.619 174.031 121.802 174.031H121.88C122.137 174.031 122.393 174.031 122.629 173.992C124.581 173.952 126.324 173.589 128.044 172.942C128.044 173.016 128.049 173.086 128.049 173.159C128.049 173.159 128.049 173.162 128.049 173.164C128.068 173.618 128.088 174.053 128.088 174.484C128.107 174.799 128.107 175.09 128.107 175.382V175.39C128.127 175.902 128.127 176.375 128.146 176.829V176.849C128.266 176.79 128.403 176.751 128.52 176.69C128.737 176.612 128.954 176.512 129.171 176.414C129.21 176.395 129.249 176.375 129.291 176.375C129.33 176.356 129.349 176.336 129.388 176.317C130.669 175.726 131.557 174.977 131.557 174.05C131.557 169.87 131.301 164.273 131.301 161.396V150.97C131.301 148.408 129.605 143.343 129.705 140.917C129.864 137.23 131.401 133.014 133.707 128.381C135.147 125.484 137.116 119.416 138.731 114.863C138.731 114.865 139.98 119.089 141.125 119.906C142.269 120.724 146.302 122.932 148.428 125.057C150.533 127.161 155.247 128.52 155.343 128.549C155.345 128.551 155.347 128.556 155.35 128.559C157.182 130.904 161.599 131.435 167.945 128.756C171.493 127.239 173.367 124.518 174.155 121.937C173.818 123.989 172.576 126.668 173.286 126.531C173.977 126.392 175.021 124.167 175.119 124.521C175.414 125.506 172.518 129.252 174.606 128.246C177.168 127.043 176.539 119.218 177.622 117.623C179.042 115.514 182.097 113.167 184.01 107.077C185.054 103.766 185.469 96.3336 176.163 94.8965L176.161 94.8989ZM119.989 147.618C119.989 147.708 119.992 147.796 119.994 147.884C119.992 147.705 119.985 147.539 119.985 147.352C119.985 147.444 119.989 147.527 119.989 147.618ZM119.963 145.561C119.963 145.644 119.965 145.734 119.967 145.819C119.967 145.734 119.965 145.644 119.963 145.561ZM119.655 142.215C119.643 142.157 119.633 142.096 119.619 142.037C119.623 142.064 119.633 142.089 119.638 142.115C119.645 142.147 119.648 142.186 119.655 142.218V142.215ZM99.1445 114.219C98.1636 116.1 93.8082 118.879 91.356 120.107C89.7993 120.885 86.0393 121.751 83.4992 122.278C82.8087 120.741 81.4691 119.045 79.0828 117.252C77.8213 116.286 75.7913 115.319 73.5635 114.69C73.5635 114.592 73.4855 114.434 73.3269 114.216C72.0068 112.364 66.5656 112.521 64.9503 110.925C63.3546 109.31 60.7926 104.027 61.4221 101.463C62.525 97.1462 69.9182 97.6195 76.6599 99.2153C81.352 100.338 95.7212 104.144 97.2974 105.818C98.0855 106.665 99.0908 108.89 100.155 111.628C99.8667 112.547 99.5178 113.506 99.1469 114.219H99.1445ZM106.152 107.99C106.457 108.226 106.745 108.468 106.994 108.717C107.177 108.9 107.353 109.114 107.519 109.353C107.575 109.436 107.626 109.539 107.682 109.627C107.467 109.28 107.243 108.961 106.996 108.714C106.748 108.465 106.455 108.224 106.155 107.987L106.152 107.99ZM107.838 109.895C107.889 109.985 107.943 110.061 107.992 110.154C108.143 110.447 108.287 110.761 108.424 111.096C108.241 110.652 108.043 110.259 107.838 109.893V109.895ZM112.184 125.811C112.228 125.948 112.272 126.08 112.316 126.211C112.272 126.08 112.228 125.945 112.184 125.811ZM114.143 153.632C114.143 153.632 114.138 153.642 114.138 153.647C114.138 153.637 114.138 153.627 114.148 153.618C114.143 153.622 114.148 153.627 114.143 153.632ZM114.765 152.351L114.76 152.356C114.76 152.356 114.765 152.349 114.77 152.346C114.77 152.346 114.768 152.351 114.765 152.351ZM116.239 164.656C116.232 164.544 116.234 164.434 116.232 164.322C117.752 164.578 120.114 164.712 122.295 164.59C124.028 164.495 126.292 164.151 127.658 163.924C127.658 164.039 127.644 164.151 127.651 164.271C127.651 164.275 127.651 164.278 127.651 164.283C127.644 164.461 127.651 164.639 127.651 164.817C126.287 165.015 124.013 165.322 122.134 165.466C120.094 165.622 117.557 165.334 116.261 165.156C116.254 164.964 116.246 164.788 116.237 164.659L116.239 164.656ZM116.298 166.884C116.298 166.772 116.29 166.674 116.29 166.564C117.813 166.813 120.141 166.942 122.295 166.823C124.04 166.725 126.314 166.379 127.673 166.152C127.678 166.274 127.673 166.396 127.69 166.518V166.525C127.69 166.686 127.71 166.867 127.719 167.035C126.363 167.233 124.037 167.547 122.132 167.694C120.116 167.848 117.618 167.569 116.31 167.391C116.305 167.223 116.303 167.04 116.295 166.881L116.298 166.884ZM116.356 169.112C116.356 169.011 116.351 168.909 116.349 168.809C117.871 169.053 120.168 169.175 122.295 169.058C124.091 168.958 126.47 168.589 127.812 168.365C127.824 168.484 127.836 168.602 127.846 168.731C127.846 168.731 127.846 168.736 127.846 168.738C127.861 168.892 127.866 169.082 127.875 169.251C126.548 169.443 124.111 169.78 122.132 169.931C120.146 170.083 117.693 169.814 116.368 169.636C116.361 169.463 116.361 169.28 116.354 169.114L116.356 169.112ZM122.134 172.164C120.177 172.313 117.769 172.054 116.429 171.876C116.425 171.703 116.422 171.525 116.415 171.359C116.415 171.256 116.41 171.154 116.407 171.051C117.93 171.288 120.194 171.408 122.293 171.29C124.147 171.188 126.634 170.798 127.949 170.576C127.954 170.7 127.966 170.815 127.966 170.946C127.973 171.117 127.98 171.295 127.988 171.469C126.69 171.659 124.164 172.01 122.132 172.166L122.134 172.164ZM128.854 166.352V166.096C128.834 165.879 128.834 165.661 128.815 165.444C128.815 165.442 128.815 165.437 128.815 165.434C128.825 165.434 128.861 165.425 128.861 165.425V166.301C128.866 166.518 128.878 166.725 128.893 166.962C128.893 166.745 128.873 166.547 128.854 166.352ZM167.35 113.941C166.72 113.941 166.542 114.119 166.659 114.314C163.822 114.668 160.628 115.871 157.809 118.494C156.172 120.011 155.03 121.824 154.557 123.598C154.557 123.603 154.557 123.608 154.557 123.61V123.591C154.557 123.591 145.295 121.793 143.147 118.606C141.003 115.424 140.717 114.275 140.444 110.422C140.444 110.42 140.446 110.415 140.449 110.412V110.393C140.627 109.998 140.783 109.702 140.922 109.485C142.362 107.238 144.807 104.893 148.945 103.158C150.936 102.312 166.488 98.0929 171.691 98.0929C178.254 98.0929 179.969 103.139 179.377 105.149C178.686 107.455 173.482 112.128 171.944 112.974C170.683 113.684 168.633 113.941 167.352 113.941H167.35Z" fill="#FF8573"/>
</g>
<g filter="url(#filter1_d_1_487)">
<path d="M121.461 140.385L121.187 137.504C120.563 128.927 120.963 120.817 122.805 112.408C125.055 102.129 130.245 93.1274 123.274 83.3747C120.409 79.3658 113.816 73.2512 114.607 67.9417C115.419 62.4834 124.694 58.0524 128.444 54.3412C129.898 52.9016 131.575 50.7422 129.935 48.7853C130.379 48.7609 130.908 49.083 131.318 49.2977C134.244 50.8398 136.259 53.6336 134.93 57.0008C134.273 58.6673 132.485 60.712 131.17 61.9222C129.71 63.2667 127.578 65.3602 126.919 67.3195C126.019 69.9986 127.492 72.4167 128.808 74.6542C130.706 77.8823 132.799 80.698 134.005 84.3288C137.518 94.911 130.506 104.046 126.504 113.221C122.759 121.807 121.207 131.006 121.463 140.38L121.461 140.385Z" fill="#662D91"/>
<g filter="url(#filter2_d_1_487)">
<path d="M119.677 115.517C119.528 115.522 119.558 115.251 119.543 115.139C119.133 112.338 119.009 110.041 118.216 107.248C115.837 98.8638 109.124 90.7679 114.665 82.0156C115.122 81.2958 115.639 80.5955 116.254 80.0002C117.201 82.04 118.665 83.7675 119.721 85.7537C122.6 91.1681 123.064 96.6581 122.102 102.68C121.58 105.95 120.516 109.131 119.992 112.399C119.826 113.433 119.736 114.473 119.682 115.519L119.677 115.517Z" fill="#662D91"/>
</g>
<g filter="url(#filter3_d_1_487)">
<path d="M121.512 31.859C125.614 28.2332 132.346 29.4288 134.547 34.5381C137.736 41.946 129.271 48.5681 122.612 44.364C118.196 41.5775 117.545 35.3653 121.514 31.8566L121.512 31.859Z" fill="#662D91"/>
</g>
<path d="M33.1913 161.411C33.1913 145.297 44.9326 132.29 61.3929 132.29C77.8531 132.29 88.7867 145.065 88.7867 162.563V165.439H45.8525C46.7724 173.843 53.1042 180.748 63.5791 180.748C68.9886 180.748 75.4351 178.562 79.3488 174.648L84.873 182.59C79.3488 187.885 71.1748 190.647 62.3127 190.647C45.6207 190.647 33.1913 179.02 33.1913 161.411ZM61.3929 142.189C51.0326 142.189 46.3137 150.131 45.7378 156.921H77.0455C76.8137 150.36 72.3265 142.189 61.3929 142.189Z" fill="#662D91"/>
<path d="M115.383 189.266L92.7078 133.671H105.601L121.829 175.338L138.058 133.671H151.065L128.39 189.266H115.383Z" fill="#662D91"/>
<path d="M155.213 161.411C155.213 145.297 166.955 132.29 183.415 132.29C199.875 132.29 210.809 145.065 210.809 162.563V165.439H167.874C168.794 173.843 175.126 180.748 185.601 180.748C191.011 180.748 197.457 178.562 201.371 174.648L206.895 182.59C201.371 187.885 193.197 190.647 184.335 190.647C167.643 190.647 155.213 179.02 155.213 161.411ZM183.415 142.189C173.055 142.189 168.336 150.131 167.76 156.921H199.067C198.836 150.36 194.348 142.189 183.415 142.189Z" fill="#662D91"/>
<path d="M161.679 213.898V195.08H164.978V210.992H173.272V213.898H161.677H161.679Z" fill="#FF8573"/>
<g filter="url(#filter4_d_1_487)">
<path d="M176.268 213.898V195.08H179.567V210.992H187.86V213.898H176.266H176.268Z" fill="#FF8573"/>
</g>
<g filter="url(#filter5_d_1_487)">
<path d="M189.161 204.504C189.161 198.721 193.477 194.771 199.036 194.771C202.842 194.771 205.187 196.744 206.595 199.001L203.774 200.441C202.871 198.889 201.066 197.706 199.036 197.706C195.31 197.706 192.548 200.556 192.548 204.504C192.548 208.452 195.312 211.302 199.036 211.302C201.066 211.302 202.871 210.145 203.774 208.566L206.595 210.006C205.158 212.263 202.842 214.237 199.036 214.237C193.477 214.237 189.161 210.286 189.161 204.504Z" fill="#FF8573"/>
</g>
<path d="M153.966 203.96H39.5134V207.012H153.966V203.96Z" fill="#FF8573"/>
</g>
</g>
<defs>
<filter id="filter0_d_1_487" x="41.1873" y="83.4214" width="158.253" height="112.625" filterUnits="userSpaceOnUse" color-interpolation-filters="sRGB">
<feFlood flood-opacity="0" result="BackgroundImageFix"/>
<feColorMatrix in="SourceAlpha" type="matrix" values="0 0 0 0 0 0 0 0 0 0 0 0 0 0 0 0 0 0 127 0" result="hardAlpha"/>
<feOffset dy="4"/>
<feGaussianBlur stdDeviation="7.45"/>
<feComposite in2="hardAlpha" operator="out"/>
<feColorMatrix type="matrix" values="0 0 0 0 0 0 0 0 0 0 0 0 0 0 0 0 0 0 0.35 0"/>
<feBlend mode="normal" in2="BackgroundImageFix" result="effect1_dropShadow_1_487"/>
<feBlend mode="normal" in="SourceGraphic" in2="effect1_dropShadow_1_487" result="shape"/>
</filter>
<filter id="filter1_d_1_487" x="-9.40865" y="-8.83706" width="262.817" height="269.674" filterUnits="userSpaceOnUse" color-interpolation-filters="sRGB">
<feFlood flood-opacity="0" result="BackgroundImageFix"/>
<feColorMatrix in="SourceAlpha" type="matrix" values="0 0 0 0 0 0 0 0 0 0 0 0 0 0 0 0 0 0 127 0" result="hardAlpha"/>
<feOffset dy="4"/>
<feGaussianBlur stdDeviation="21.3"/>
<feComposite in2="hardAlpha" operator="out"/>
<feColorMatrix type="matrix" values="0 0 0 0 1 0 0 0 0 1 0 0 0 0 1 0 0 0 1 0"/>
<feBlend mode="normal" in2="BackgroundImageFix" result="effect1_dropShadow_1_487"/>
<feBlend mode="normal" in="SourceGraphic" in2="effect1_dropShadow_1_487" result="shape"/>
</filter>
<filter id="filter2_d_1_487" x="97.6286" y="69.1002" width="39.8277" height="65.3191" filterUnits="userSpaceOnUse" color-interpolation-filters="sRGB">
<feFlood flood-opacity="0" result="BackgroundImageFix"/>
<feColorMatrix in="SourceAlpha" type="matrix" values="0 0 0 0 0 0 0 0 0 0 0 0 0 0 0 0 0 0 127 0" result="hardAlpha"/>
<feOffset dy="4"/>
<feGaussianBlur stdDeviation="7.45"/>
<feComposite in2="hardAlpha" operator="out"/>
<feColorMatrix type="matrix" values="0 0 0 0 0 0 0 0 0 0 0 0 0 0 0 0 0 0 0.35 0"/>
<feBlend mode="normal" in2="BackgroundImageFix" result="effect1_dropShadow_1_487"/>
<feBlend mode="normal" in="SourceGraphic" in2="effect1_dropShadow_1_487" result="shape"/>
</filter>
<filter id="filter3_d_1_487" x="103.985" y="18.8629" width="46.1559" height="45.7112" filterUnits="userSpaceOnUse" color-interpolation-filters="sRGB">
<feFlood flood-opacity="0" result="BackgroundImageFix"/>
<feColorMatrix in="SourceAlpha" type="matrix" values="0 0 0 0 0 0 0 0 0 0 0 0 0 0 0 0 0 0 127 0" result="hardAlpha"/>
<feOffset dy="4"/>
<feGaussianBlur stdDeviation="7.45"/>
<feComposite in2="hardAlpha" operator="out"/>
<feColorMatrix type="matrix" values="0 0 0 0 0 0 0 0 0 0 0 0 0 0 0 0 0 0 0.35 0"/>
<feBlend mode="normal" in2="BackgroundImageFix" result="effect1_dropShadow_1_487"/>
<feBlend mode="normal" in="SourceGraphic" in2="effect1_dropShadow_1_487" result="shape"/>
</filter>
<filter id="filter4_d_1_487" x="161.366" y="184.18" width="41.3948" height="48.6173" filterUnits="userSpaceOnUse" color-interpolation-filters="sRGB">
<feFlood flood-opacity="0" result="BackgroundImageFix"/>
<feColorMatrix in="SourceAlpha" type="matrix" values="0 0 0 0 0 0 0 0 0 0 0 0 0 0 0 0 0 0 127 0" result="hardAlpha"/>
<feOffset dy="4"/>
<feGaussianBlur stdDeviation="7.45"/>
<feComposite in2="hardAlpha" operator="out"/>
<feColorMatrix type="matrix" values="0 0 0 0 0 0 0 0 0 0 0 0 0 0 0 0 0 0 0.35 0"/>
<feBlend mode="normal" in2="BackgroundImageFix" result="effect1_dropShadow_1_487"/>
<feBlend mode="normal" in="SourceGraphic" in2="effect1_dropShadow_1_487" result="shape"/>
</filter>
<filter id="filter5_d_1_487" x="174.261" y="183.871" width="47.2338" height="49.2663" filterUnits="userSpaceOnUse" color-interpolation-filters="sRGB">
<feFlood flood-opacity="0" result="BackgroundImageFix"/>
<feColorMatrix in="SourceAlpha" type="matrix" values="0 0 0 0 0 0 0 0 0 0 0 0 0 0 0 0 0 0 127 0" result="hardAlpha"/>
<feOffset dy="4"/>
<feGaussianBlur stdDeviation="7.45"/>
<feComposite in2="hardAlpha" operator="out"/>
<feColorMatrix type="matrix" values="0 0 0 0 0 0 0 0 0 0 0 0 0 0 0 0 0 0 0.35 0"/>
<feBlend mode="normal" in2="BackgroundImageFix" result="effect1_dropShadow_1_487"/>
<feBlend mode="normal" in="SourceGraphic" in2="effect1_dropShadow_1_487" result="shape"/>
</filter>
<clipPath id="clip0_1_487">
<rect width="244" height="244" fill="white"/>
</clipPath>
</defs>
</svg>
