<svg width="24" height="24" viewBox="0 0 24 24" fill="none" xmlns="http://www.w3.org/2000/svg">
<path d="M4.69218 12.0177C5.15492 11.9179 5.61097 12.2121 5.71081 12.6748C6.32294 15.512 8.84434 17.5714 11.7853 17.5714H12.2139C15.1545 17.5714 17.6757 15.5125 18.2882 12.6756C18.3881 12.2129 18.8442 11.9188 19.3069 12.0187C19.7696 12.1186 20.0638 12.5747 19.9639 13.0374C19.2269 16.4508 16.3285 18.9798 12.8568 19.2599L12.8567 21.8572C12.8567 22.3305 12.473 22.7143 11.9996 22.7143C11.5262 22.7143 11.1425 22.3305 11.1425 21.8572L11.1423 19.2599C7.67022 18.9797 4.77161 16.4502 4.03508 13.0363C3.93525 12.5736 4.22944 12.1175 4.69218 12.0177ZM11.9996 1.71429C14.3665 1.71429 16.2853 3.63307 16.2853 6.00001V11.1429C16.2853 13.5098 14.3665 15.4286 11.9996 15.4286C9.63266 15.4286 7.71388 13.5098 7.71388 11.1429V6.00001C7.71388 3.63307 9.63266 1.71429 11.9996 1.71429Z" fill="white"/>
</svg>
