<svg width="22" height="24" viewBox="0 0 22 24" fill="none" xmlns="http://www.w3.org/2000/svg">
<path d="M9.22222 9.33333V14.6667M12.7778 9.33333V14.6667M19 12C19 13.0506 18.7931 14.0909 18.391 15.0615C17.989 16.0321 17.3997 16.914 16.6569 17.6569C15.914 18.3997 15.0321 18.989 14.0615 19.391C13.0909 19.7931 12.0506 20 11 20C9.94943 20 8.90914 19.7931 7.93853 19.391C6.96793 18.989 6.08601 18.3997 5.34315 17.6569C4.60028 16.914 4.011 16.0321 3.60896 15.0615C3.20693 14.0909 3 13.0506 3 12C3 9.87827 3.84285 7.84344 5.34315 6.34315C6.84344 4.84285 8.87827 4 11 4C13.1217 4 15.1566 4.84285 16.6569 6.34315C18.1571 7.84344 19 9.87827 19 12Z" stroke="white" stroke-linecap="round" stroke-linejoin="round"/>
</svg>
