<svg width="24" height="29" viewBox="0 0 24 29" fill="none" xmlns="http://www.w3.org/2000/svg">
<g clip-path="url(#clip0_1_7222)">
<path d="M20.3601 2.25729C19.0538 0.732198 16.6924 0.0783539 13.6715 0.0783539H4.90404C4.60513 0.0783067 4.31602 0.187508 4.0887 0.386316C3.86139 0.585123 3.71079 0.860488 3.664 1.16288L0.0133797 24.8783C-0.0591828 25.3459 0.294348 25.7694 0.757098 25.7694H6.16985L7.52922 16.9377L7.48704 17.2143C7.58388 16.59 8.10513 16.1296 8.72238 16.1296H11.2945C16.3474 16.1296 20.304 14.0274 21.4597 7.94609C21.494 7.76623 21.5238 7.59118 21.5494 7.42016C21.4036 7.34103 21.4036 7.34103 21.5494 7.42016C21.8936 5.17246 21.5471 3.64247 20.3601 2.25729Z" fill="#27346A"/>
<path d="M9.60035 6.61046C9.74829 6.53817 9.91016 6.50077 10.0741 6.50099H16.9476C17.7616 6.50099 18.5208 6.55524 19.2145 6.66961C19.4086 6.70134 19.6018 6.73919 19.7936 6.78312C20.0655 6.84458 20.3343 6.9198 20.5989 7.00849C20.94 7.12516 21.2576 7.26104 21.5495 7.42016C21.8936 5.1716 21.5471 3.64247 20.3601 2.25729C19.0531 0.732198 16.6924 0.0783539 13.6715 0.0783539H4.90329C4.28594 0.0783539 3.76076 0.538705 3.66401 1.16288L0.0133802 24.8774C-0.0591823 25.3458 0.294349 25.7687 0.756349 25.7687H6.16985L8.99013 7.44973C9.01788 7.26968 9.08792 7.09923 9.19421 6.95303C9.30051 6.80684 9.43988 6.68928 9.60035 6.61046Z" fill="#27346A"/>
<path d="M21.4591 7.9461C20.3033 14.0265 16.3469 16.1296 11.2939 16.1296H8.72099C8.10374 16.1296 7.5824 16.59 7.48649 17.2143L5.79533 28.1954C5.73215 28.6047 6.04115 28.9755 6.4454 28.9755H11.0082C11.2696 28.9754 11.5224 28.8799 11.7211 28.7059C11.9198 28.532 12.0514 28.2912 12.0922 28.0268L12.1367 27.7886L12.9966 22.206L13.0521 21.8975C13.0929 21.6331 13.2245 21.3923 13.4232 21.2184C13.6219 21.0445 13.8746 20.9489 14.136 20.9488H14.8189C19.2389 20.9488 22.6999 19.1095 23.7112 13.79C24.1334 11.567 23.915 9.71097 22.7982 8.40732C22.4595 8.01246 22.0388 7.68635 21.5488 7.42017C21.5223 7.59205 21.4935 7.76625 21.4591 7.9461Z" fill="#2790C3"/>
<path d="M20.3384 6.9262C20.1582 6.87231 19.9763 6.82459 19.793 6.78312C19.601 6.7399 19.4079 6.70231 19.2139 6.67039C18.5194 6.55525 17.7608 6.5009 16.9461 6.5009H10.0734C9.90935 6.50062 9.7474 6.53834 9.59964 6.61124C9.43897 6.68977 9.29941 6.80725 9.19306 6.95349C9.08672 7.09974 9.01678 7.27034 8.98933 7.45051L7.52852 16.9377L7.48633 17.2143C7.58242 16.59 8.10367 16.1296 8.72102 16.1296H11.2939C16.3468 16.1296 20.3033 14.0274 21.459 7.9461C21.4934 7.76624 21.5223 7.59196 21.5488 7.42016C21.2562 7.26204 20.9393 7.12507 20.5982 7.00927C20.5121 6.98003 20.4255 6.95234 20.3385 6.9262" fill="#1F264F"/>
</g>
<defs>
<clipPath id="clip0_1_7222">
<rect width="24" height="29" fill="white"/>
</clipPath>
</defs>
</svg>
