<svg width="17" height="17" viewBox="0 0 17 17" fill="none" xmlns="http://www.w3.org/2000/svg">
<path d="M7 9.33334H1.16667C0.836115 9.33334 0.559226 9.22134 0.336004 8.99734C0.112782 8.77334 0.000781801 8.49645 4.02298e-06 8.16667C-0.000773755 7.83689 0.111226 7.56 0.336004 7.336C0.560782 7.112 0.837671 7 1.16667 7H7V1.16667C7 0.836115 7.112 0.559226 7.336 0.336004C7.56 0.112782 7.83689 0.000781801 8.16667 4.02298e-06C8.49645 -0.000773755 8.77373 0.111226 8.9985 0.336004C9.22328 0.560782 9.33489 0.837671 9.33334 1.16667V7H15.1667C15.4972 7 15.7745 7.112 15.9985 7.336C16.2225 7.56 16.3341 7.83689 16.3333 8.16667C16.3326 8.49645 16.2206 8.77373 15.9973 8.9985C15.7741 9.22328 15.4972 9.33489 15.1667 9.33334H9.33334V15.1667C9.33334 15.4972 9.22134 15.7745 8.99734 15.9985C8.77334 16.2225 8.49645 16.3341 8.16667 16.3333C7.83689 16.3326 7.56 16.2206 7.336 15.9973C7.112 15.7741 7 15.4972 7 15.1667V9.33334Z" fill="#717171"/>
</svg>
