<svg width="23" height="26" viewBox="0 0 23 26" fill="none" xmlns="http://www.w3.org/2000/svg">
<path d="M17.7667 17.0358C16.4667 17.0358 15.275 17.6309 14.5167 18.598L8.37778 14.5436C8.55833 14.0601 8.66667 13.5393 8.66667 12.9814C8.66667 12.5722 8.59445 12.1631 8.48611 11.7911L14.7333 7.66237C15.5278 8.44349 16.575 8.92704 17.7667 8.92704C20.15 8.92704 22.1 6.91846 22.1 4.46352C22.1 2.00858 20.15 0 17.7667 0C15.3833 0 13.4333 2.00858 13.4333 4.46352C13.4333 4.90987 13.5056 5.31903 13.6139 5.72818L7.40278 9.81974C6.60833 9.00143 5.525 8.51788 4.33333 8.51788C1.95 8.51788 0 10.5265 0 12.9814C0 15.4363 1.95 17.4449 4.33333 17.4449C5.38056 17.4449 6.35556 17.0358 7.11389 16.4034L13.5056 20.6438C13.4333 20.9413 13.4333 21.2389 13.4333 21.5365C13.4333 23.9914 15.3833 26 17.7667 26C20.15 26 22.1 23.9914 22.1 21.5365C22.1 19.0815 20.15 17.0358 17.7667 17.0358Z" fill="url(#paint0_linear_1_6479)"/>
<defs>
<linearGradient id="paint0_linear_1_6479" x1="11.05" y1="0" x2="11.05" y2="26" gradientUnits="userSpaceOnUse">
<stop stop-color="#FF8573"/>
<stop offset="1" stop-color="#995045"/>
</linearGradient>
</defs>
</svg>
