<svg width="20" height="23" viewBox="0 0 20 23" fill="none" xmlns="http://www.w3.org/2000/svg">
<path d="M2.99335 21.5413C1.61634 21.5413 0.5 20.3957 0.5 18.9813V8.69227C0.5 7.91493 0.844838 7.17849 1.43515 6.69338L8.29334 1.06142C8.73153 0.698555 9.28262 0.5 9.85154 0.5C10.4205 0.5 10.9716 0.698555 11.4097 1.06142L18.2668 6.69338C18.8582 7.17849 19.2031 7.91493 19.2031 8.69227V18.9813C19.2031 20.3957 18.0867 21.5413 16.7097 21.5413H2.99335Z" stroke="white" stroke-linecap="round" stroke-linejoin="round"/>
<path d="M6.9292 21.5412V15.1121C6.9292 14.492 7.17551 13.8974 7.61395 13.4589C8.05239 13.0205 8.64704 12.7742 9.26708 12.7742H10.436C11.0561 12.7742 11.6507 13.0205 12.0892 13.4589C12.5276 13.8974 12.7739 14.492 12.7739 15.1121V21.5412" stroke="white" stroke-linecap="round" stroke-linejoin="round"/>
</svg>
