<svg width="30" height="29" viewBox="0 0 30 29" fill="none" xmlns="http://www.w3.org/2000/svg">
<path d="M13.6367 1.58203C14.7247 1.58203 15.7837 1.71424 16.7998 1.96289L16.2188 4.25C14.6361 3.8671 12.9888 3.83992 11.3936 4.17285C9.73248 4.51954 8.1724 5.24723 6.83203 6.29883C5.49161 7.35049 4.40615 8.69882 3.66016 10.2402C2.91444 11.7813 2.52703 13.4746 2.52734 15.1904C2.52405 16.9216 2.91743 18.6289 3.6748 20.1777L3.83105 20.4854L4.27344 21.3213L3.39648 25.3203L3.3291 25.627L3.63574 25.5576L7.58105 24.6689L8.40625 25.1162C10.0152 25.9871 11.8121 26.4416 13.6367 26.4385C16.5838 26.4385 19.41 25.2529 21.4932 23.1436C23.5762 21.0342 24.746 18.1734 24.7461 15.1914C24.7461 14.805 24.725 14.4235 24.6875 14.0469L26.999 13.7695C27.0472 14.237 27.0732 14.711 27.0732 15.1914C27.0731 22.7098 21.0554 28.7998 13.6367 28.7998L13.2227 28.7939C11.1588 28.7322 9.13501 28.1876 7.31055 27.2002L7.24414 27.1641L7.1709 27.1807L0.262695 28.7354L1.79883 21.7363L1.81445 21.665L1.78027 21.6006C0.771118 19.6915 0.200232 17.5098 0.200195 15.1914C0.200195 7.67289 6.21797 1.58203 13.6367 1.58203ZM9.35059 15.3916C9.39976 16.4696 9.84404 17.4936 10.6016 18.2607C11.4061 19.0754 12.4979 19.5342 13.6367 19.5342C14.7756 19.5342 15.8674 19.0754 16.6719 18.2607C17.4294 17.4936 17.8737 16.4696 17.9229 15.3916H20.25C20.1997 17.0978 19.5102 18.7228 18.3154 19.9326C17.0741 21.1896 15.3912 21.8955 13.6367 21.8955C11.8823 21.8955 10.1994 21.1896 8.95801 19.9326C7.76326 18.7228 7.07377 17.0978 7.02344 15.3916H9.35059ZM24.5459 0.200195C24.6438 0.200195 24.74 0.230004 24.8213 0.286133C24.9025 0.342272 24.9657 0.422103 25.002 0.515625L25.0029 0.519531L25.3477 1.35938V1.36035C25.9455 2.83655 27.0804 4.0253 28.5186 4.68066L28.5195 4.68164L29.498 5.12305C29.5873 5.16537 29.6632 5.23265 29.7168 5.31738C29.7708 5.403 29.7998 5.50343 29.7998 5.60547C29.7997 5.70738 29.7708 5.80706 29.7168 5.89258C29.6762 5.95678 29.6229 6.01085 29.5605 6.05176L29.4961 6.08789L28.4619 6.55371C27.0589 7.19094 25.9426 8.33721 25.334 9.76562L24.999 10.5469L24.998 10.5498C24.9605 10.6409 24.8969 10.7182 24.8164 10.7725C24.736 10.8266 24.642 10.8555 24.5459 10.8555C24.4498 10.8554 24.3558 10.8267 24.2754 10.7725C24.215 10.7317 24.1643 10.6781 24.127 10.6152L24.0938 10.5498L24.0928 10.5469L23.7578 9.76562C23.1866 8.42676 22.1698 7.33629 20.8887 6.68066L20.6289 6.55566L19.5938 6.08691C19.5042 6.04469 19.4278 5.97749 19.374 5.89258C19.3198 5.80687 19.291 5.70671 19.291 5.60449C19.291 5.50225 19.3198 5.40213 19.374 5.31641C19.4278 5.23146 19.5042 5.16432 19.5938 5.12207L20.5713 4.68164L20.5723 4.68066C21.9207 4.06686 23.0029 2.98474 23.626 1.63574L23.7441 1.3623L24.0889 0.519531L24.0898 0.515625C24.1261 0.422022 24.1901 0.342283 24.2715 0.286133C24.3527 0.230143 24.4482 0.200235 24.5459 0.200195Z" fill="#D5D5D5" stroke="#66308F" stroke-width="0.4"/>
</svg>
