<svg width="18" height="18" viewBox="0 0 18 18" fill="none" xmlns="http://www.w3.org/2000/svg">
<path d="M0.15676 15.1743L2.8252 17.8427C3.03703 18.0519 3.38072 18.0519 3.59255 17.8427L8.99986 12.4337L14.4072 17.8427C14.5127 17.9481 14.6524 18 14.7922 18C14.9319 18 15.069 17.9481 15.1771 17.8427L17.8431 15.1743C18.0523 14.9625 18.0523 14.6188 17.8431 14.407L12.4358 8.99978L17.8431 3.59259C18.0523 3.38077 18.0523 3.03709 17.8431 2.82527L15.1747 0.156891C14.9628 -0.0522971 14.6191 -0.0522971 14.4073 0.156891L9 5.56588L3.59268 0.156891C3.38085 -0.0522971 3.03717 -0.0522971 2.82534 0.156891L0.156895 2.82527C-0.0522984 3.0371 -0.0522984 3.38077 0.156895 3.59259L5.56421 8.99978L0.156895 14.407C-0.0522984 14.6179 -0.0524333 14.9625 0.15676 15.1743Z" fill="#262626"/>
</svg>
