<svg width="22" height="26" viewBox="0 0 22 26" fill="none" xmlns="http://www.w3.org/2000/svg">
<path d="M2.53943 26C1.81552 26 1.21157 25.7776 0.727571 25.3327C0.243571 24.8878 0.00104762 24.3326 0 23.6672V8.11055C0 7.44611 0.242524 6.89144 0.727571 6.44655C1.21262 6.00167 1.81657 5.77874 2.53943 5.77778H5.5V5.05555C5.5 3.65156 6.03481 2.45796 7.10443 1.47478C8.17405 0.491592 9.47257 0 11 0C12.5274 0 13.826 0.491592 14.8956 1.47478C15.9652 2.45796 16.5 3.65156 16.5 5.05555V5.77778H19.4621C20.185 5.77778 20.7884 6.0007 21.2724 6.44655C21.7564 6.89241 21.999 7.44756 22 8.112V23.6672C22 24.3317 21.7575 24.8868 21.2724 25.3327C20.7874 25.7785 20.184 26.001 19.4621 26H2.53943ZM2.53943 24.5556H19.4621C19.7031 24.5556 19.9247 24.4631 20.1269 24.2782C20.329 24.0933 20.4296 23.8892 20.4286 23.6658V8.112C20.4286 7.88955 20.328 7.68541 20.1269 7.49956C19.9257 7.3137 19.7036 7.22126 19.4606 7.22222H16.5V10.8333C16.5 11.0394 16.4251 11.2113 16.2753 11.349C16.1255 11.4867 15.9385 11.5556 15.7143 11.5556C15.4901 11.5556 15.3031 11.4867 15.1533 11.349C15.0035 11.2113 14.9286 11.0394 14.9286 10.8333V7.22222H7.07143V10.8333C7.07143 11.0394 6.99652 11.2113 6.84671 11.349C6.69691 11.4867 6.5099 11.5556 6.28571 11.5556C6.06152 11.5556 5.87452 11.4867 5.72471 11.349C5.5749 11.2113 5.5 11.0394 5.5 10.8333V7.22222H2.53943C2.29743 7.22222 2.07533 7.31467 1.87314 7.49956C1.67095 7.68444 1.57038 7.88859 1.57143 8.112V23.6672C1.57143 23.8887 1.672 24.0924 1.87314 24.2782C2.07429 24.4641 2.29586 24.5565 2.53786 24.5556M7.07143 5.77778H14.9286V5.05555C14.9286 4.03867 14.5504 3.18259 13.794 2.48733C13.0376 1.79207 12.1063 1.44444 11 1.44444C9.89371 1.44444 8.96238 1.79207 8.206 2.48733C7.44962 3.18259 7.07143 4.03867 7.07143 5.05555V5.77778Z" fill="#D5D5D5"/>
</svg>
