<svg width="24" height="24" viewBox="0 0 24 24" fill="none" xmlns="http://www.w3.org/2000/svg">
<path d="M9 0.150391H15C16.205 0.150391 17.1834 1.128 17.1836 2.33301V6.81641H21.667C22.872 6.81658 23.8496 7.79495 23.8496 9V15C23.8496 15.579 23.6203 16.1345 23.2109 16.5439C22.8016 16.9533 22.2459 17.1835 21.667 17.1836H17.1836V21.667C17.1835 22.2459 16.9533 22.8016 16.5439 23.2109C16.1345 23.6203 15.579 23.8496 15 23.8496H9C8.42102 23.8496 7.86549 23.6203 7.45605 23.2109C7.04668 22.8016 6.81649 22.2459 6.81641 21.667V17.1836H2.33301C1.75407 17.1835 1.19844 16.9533 0.789062 16.5439C0.37971 16.1345 0.150391 15.579 0.150391 15V9C0.150391 7.79495 1.128 6.81658 2.33301 6.81641H6.81641V2.33301C6.81658 1.128 7.79495 0.150391 9 0.150391ZM9 1.84961C8.87189 1.84961 8.74883 1.90067 8.6582 1.99121C8.56764 2.08178 8.51669 2.20494 8.5166 2.33301V7.66699C8.51652 7.89231 8.42691 8.10825 8.26758 8.26758C8.10825 8.42691 7.89231 8.51652 7.66699 8.5166H2.33301C2.20494 8.51669 2.08178 8.56764 1.99121 8.6582C1.90067 8.74883 1.84961 8.87189 1.84961 9V15C1.84961 15.2667 2.06631 15.4832 2.33301 15.4834H7.66699C7.89231 15.4835 8.10825 15.5731 8.26758 15.7324C8.42691 15.8918 8.51652 16.1077 8.5166 16.333V21.667C8.51678 21.9337 8.73327 22.1504 9 22.1504H15C15.1281 22.1504 15.2512 22.0993 15.3418 22.0088C15.4324 21.9182 15.4833 21.7951 15.4834 21.667V16.333C15.4835 16.1077 15.5731 15.8918 15.7324 15.7324C15.8918 15.5731 16.1077 15.4835 16.333 15.4834H21.667C21.7951 15.4833 21.9182 15.4324 22.0088 15.3418C22.0993 15.2512 22.1504 15.1281 22.1504 15V9C22.1504 8.87189 22.0993 8.74883 22.0088 8.6582C21.9182 8.56764 21.7951 8.51669 21.667 8.5166H16.333C16.1077 8.51652 15.8918 8.42691 15.7324 8.26758C15.5731 8.10825 15.4835 7.89231 15.4834 7.66699V2.33301C15.4833 2.20494 15.4324 2.08178 15.3418 1.99121C15.2512 1.90067 15.1281 1.84961 15 1.84961H9Z" fill="#D5D5D5" stroke="#401E59" stroke-width="0.3"/>
</svg>
