<svg width="26" height="18" viewBox="0 0 26 18" fill="none" xmlns="http://www.w3.org/2000/svg">
<path d="M0 4.5C0 3.30653 0.489297 2.16193 1.36025 1.31802C2.2312 0.474106 3.41247 0 4.64418 0H12.0749C13.3066 0 14.4879 0.474106 15.3588 1.31802C16.2298 2.16193 16.7191 3.30653 16.7191 4.5V13.5C16.7191 14.6935 16.2298 15.8381 15.3588 16.682C14.4879 17.5259 13.3066 18 12.0749 18H4.64418C3.41247 18 2.2312 17.5259 1.36025 16.682C0.489297 15.8381 0 14.6935 0 13.5V4.5ZM22.359 15.8004L18.391 13.1472C18.4157 12.9792 18.4281 12.8094 18.4281 12.6378V5.3658C18.4281 5.193 18.4157 5.0232 18.391 4.8564L22.359 2.2032C22.7074 1.97021 23.1149 1.83394 23.5375 1.80913C23.96 1.78432 24.3816 1.87192 24.7565 2.06245C25.1314 2.25298 25.4454 2.53919 25.6646 2.89013C25.8837 3.24108 25.9997 3.6434 26 4.0536V13.95C25.9997 14.3602 25.8837 14.7625 25.6646 15.1135C25.4454 15.4644 25.1314 15.7506 24.7565 15.9411C24.3816 16.1317 23.96 16.2193 23.5375 16.1945C23.1149 16.1697 22.7074 16.0334 22.359 15.8004Z" fill="url(#paint0_linear_1_6070)"/>
<defs>
<linearGradient id="paint0_linear_1_6070" x1="-4.01529" y1="-0.502223" x2="30.5279" y2="0.785471" gradientUnits="userSpaceOnUse">
<stop stop-color="#662E91"/>
<stop stop-color="#1E0E2B"/>
<stop offset="0.5" stop-color="#6C3398"/>
<stop offset="1" stop-color="#1E0E2B"/>
</linearGradient>
</defs>
</svg>
