<svg width="42" height="14" viewBox="0 0 42 14" fill="none" xmlns="http://www.w3.org/2000/svg">
<path d="M21.7214 4.45773C21.6974 6.40019 23.4052 7.4841 24.6916 8.1286C26.0133 8.78981 26.4572 9.21386 26.452 9.80523C26.4421 10.7102 25.3977 11.1096 24.4204 11.1251C22.7153 11.1523 21.7238 10.6518 20.9357 10.2733L20.3214 13.2283C21.1122 13.6029 22.5765 13.9297 24.0949 13.944C27.6591 13.944 29.991 12.1351 30.0036 9.33058C30.0175 5.7712 25.2149 5.57419 25.2477 3.98325C25.2591 3.50084 25.7068 2.98605 26.6879 2.85516C27.1735 2.78904 28.5141 2.73843 30.0339 3.458L30.6305 0.598964C29.8131 0.292988 28.7626 0 27.4547 0C24.1 0 21.7404 1.83349 21.7214 4.45773ZM36.3625 0.246264C35.7116 0.246264 35.1632 0.636578 34.9184 1.23554L29.8271 13.734H33.3887L34.0974 11.7202H38.4497L38.8608 13.734H42L39.2606 0.246264H36.3625ZM36.8607 3.88981L37.8886 8.9546H35.0736L36.8607 3.88981ZM17.4031 0.246433L14.5957 13.7338H17.9896L20.7957 0.246096L17.4031 0.246433ZM12.3823 0.246433L8.8497 9.42655L7.42071 1.6208C7.25304 0.749421 6.59088 0.246264 5.85556 0.246264H0.0808828L0 0.637927C1.18552 0.902409 2.53247 1.32899 3.34852 1.78542C3.84792 2.06424 3.99033 2.30798 4.15439 2.97053L6.86093 13.734H10.4475L15.9462 0.246264L12.3823 0.246433Z" fill="url(#paint0_linear_1_7246)"/>
<defs>
<linearGradient id="paint0_linear_1_7246" x1="1930.91" y1="41.9157" x2="1972.4" y2="-1390.09" gradientUnits="userSpaceOnUse">
<stop stop-color="#222357"/>
<stop offset="1" stop-color="#254AA5"/>
</linearGradient>
</defs>
</svg>
