<svg width="40" height="25" viewBox="0 0 40 25" fill="none" xmlns="http://www.w3.org/2000/svg">
<path d="M19.9931 0C11.0457 0 3.79113 7.3397 3.79113 16.3922C3.79113 16.6679 3.7984 16.9418 3.81112 17.2175C3.88379 17.2966 3.96191 17.3701 4.04366 17.4381C4.08363 17.3241 4.1454 17.2341 4.17265 17.1054C4.26531 16.6588 4.80127 16.4805 5.13735 16.7874C5.14462 16.6422 5.20275 16.5044 5.30449 16.4014C5.8441 15.8445 6.31826 15.3427 6.48723 14.5174C6.59442 13.988 7.28844 13.8704 7.56276 14.3336C7.91521 14.9309 8.19863 15.464 8.57108 15.8794C8.87993 15.4364 9.21602 14.9567 9.47582 14.5854C9.96454 13.8906 10.3134 13.398 10.4732 13.1958C10.7112 12.8944 10.8911 12.5892 11.2853 12.3723C11.4815 12.2657 11.7631 12.2069 12.0157 12.2657C12.2682 12.3245 12.4698 12.4606 12.6606 12.6333C13.0875 13.0193 13.5381 13.4678 13.9196 13.8428C14.114 13.5211 14.2394 13.3061 14.6045 12.7344C14.8898 12.2878 15.1914 11.8282 15.4639 11.4459C15.7364 11.0636 15.909 10.7897 16.2215 10.5618C16.5721 10.3063 16.9082 10.2125 17.0863 10.1684C17.2625 10.1225 17.2007 10.1592 17.2371 10.1133C17.3188 10.014 17.4515 9.77691 17.6241 9.53426C17.7966 9.29347 18.0655 8.94056 18.5742 8.94056C18.6251 8.94056 18.6433 8.9424 18.6705 8.94424C18.6778 8.92954 18.7178 8.88542 18.8195 8.75859C18.9812 8.55824 19.1011 8.34318 19.2537 8.10607C19.4063 7.86897 19.6043 7.59693 19.9313 7.40575C20.1421 7.2826 20.3038 7.14658 20.6399 7.13003H20.6417C20.8088 7.12084 20.9978 7.17599 21.1304 7.25502C21.2612 7.33406 21.3484 7.42413 21.432 7.51603C21.6191 7.7219 21.7681 7.9535 21.9025 8.12813C21.9152 8.14467 21.9189 8.14651 21.9316 8.16122C21.9843 8.12813 21.9734 8.09872 22.0824 8.07299C22.215 8.04358 22.3985 8.06747 22.5202 8.13365C22.6438 8.19982 22.7128 8.27886 22.7619 8.34686C22.9181 8.55641 22.9999 8.74205 23.2851 9.17217C23.5703 9.60228 24.0027 10.2107 24.6586 11.0011C26.0175 12.6407 26.0575 13.0009 27.7598 14.2325C28.3884 14.6883 29.2641 15.2177 29.6674 15.4658C29.7401 15.3758 29.7455 15.3813 29.8309 15.2581C30.0762 14.9107 30.3251 14.4549 30.3832 14.1755C30.4922 13.6479 31.1845 13.5303 31.4569 13.9935C31.7095 14.4236 31.9257 14.8133 32.1564 15.157C32.2908 14.6534 32.9594 14.5615 33.2229 15.01C33.2755 15.1001 33.3191 15.1662 33.3682 15.2563C33.7988 14.8023 34.1712 14.3593 34.3111 13.6829C34.4201 13.1553 35.1123 13.0377 35.3848 13.5009C35.6537 13.9567 35.8626 14.3979 36.1133 14.7545C35.2794 6.38004 28.3123 0.00355504 19.9932 0.00355504L19.9931 0ZM19.955 1.09366L20.0258 1.28298L20.2129 1.35467L20.0258 1.42635L19.955 1.61568L19.8841 1.42635L19.697 1.35467L19.8841 1.28298L19.955 1.09366ZM24.9222 1.60464L24.993 1.79396L25.1801 1.86564L24.993 1.93733L24.9222 2.12665L24.8513 1.93733L24.6642 1.86564L24.8513 1.79396L24.9222 1.60464ZM15.891 2.05865L15.9618 2.24797L16.149 2.31965L15.9618 2.39134L15.891 2.58066L15.8201 2.39134L15.633 2.31965L15.8201 2.24797L15.891 2.05865ZM22.5186 2.4373L22.5894 2.62662L22.7765 2.6983L22.5894 2.76999L22.5186 2.95931L22.4477 2.76999L22.2606 2.6983L22.4477 2.62662L22.5186 2.4373ZM19.0249 2.58802L19.1993 3.04938L19.6553 3.224L19.1993 3.40046L19.0249 3.86183L18.8505 3.40046L18.3945 3.224L18.8505 3.04938L19.0249 2.58802ZM26.452 3.19278L26.6264 3.65414L27.0824 3.82876L26.6264 4.00522L26.452 4.46658L26.2794 4.00522L25.8234 3.82876L26.2794 3.65414L26.452 3.19278ZM14.4703 3.61186C13.7981 3.93169 13.3675 4.6173 13.3675 5.3691C13.3675 6.44069 14.2268 7.31014 15.286 7.31014C15.0298 7.43145 14.7519 7.49395 14.4685 7.49395C13.4093 7.49395 12.5499 6.6245 12.5499 5.55291C12.5499 4.48132 13.4093 3.61187 14.4685 3.61187L14.4703 3.61186ZM10.8622 3.73502L10.933 3.92434L11.1201 3.99602L10.933 4.06771L10.8622 4.25703L10.7913 4.06771L10.6042 3.99602L10.7913 3.92434L10.8622 3.73502ZM29.3133 4.16513L29.3842 4.35445L29.5713 4.42614L29.3842 4.49782L29.3133 4.68714L29.2425 4.49782L29.0554 4.42614L29.2425 4.35445L29.3133 4.16513ZM24.0066 4.49599L24.0775 4.68531L24.2646 4.75699L24.0775 4.82868L24.0066 5.018L23.9358 4.82868L23.7487 4.75699L23.9358 4.68531L24.0066 4.49599ZM20.7474 4.76251L20.8182 4.95184L21.0053 5.02352L20.8182 5.0952L20.7474 5.28453L20.6765 5.0952L20.4894 5.02352L20.6765 4.95184L20.7474 4.76251ZM17.3318 4.81214L17.4027 5.00147L17.5898 5.07315L17.4027 5.14483L17.3318 5.33416L17.2609 5.14483L17.0738 5.07315L17.2609 5.00147L17.3318 4.81214ZM14.6557 5.01801L14.8301 5.47937L15.2861 5.65399L14.8301 5.83045L14.6575 6.29182L14.4849 5.83045L14.0289 5.65399L14.4849 5.47937L14.6557 5.01801ZM26.6937 5.27351L26.7646 5.46283L26.9517 5.53451L26.7646 5.6062L26.6937 5.79552L26.6229 5.6062L26.4357 5.53451L26.6229 5.46283L26.6937 5.27351ZM22.4388 5.7459L22.6114 6.20726L23.0675 6.38188L22.6114 6.5565L22.4388 7.01786L22.2663 6.5565L21.8102 6.38188L22.2663 6.20726L22.4388 5.7459ZM31.4393 5.76795L31.5102 5.95728L31.6973 6.02896L31.5102 6.10065L31.4393 6.28997L31.3685 6.10065L31.1814 6.02896L31.3685 5.95728L31.4393 5.76795ZM8.95114 6.21829L9.022 6.40761L9.20912 6.47929L9.022 6.55098L8.95114 6.7403L8.88029 6.55098L8.69316 6.47929L8.88029 6.40761L8.95114 6.21829ZM10.9659 6.40394L11.0368 6.59326L11.2239 6.66494L11.0368 6.73663L10.9659 6.92595L10.8951 6.73663L10.7079 6.66494L10.8951 6.59326L10.9659 6.40394ZM18.6255 7.08036L18.6964 7.26968L18.8835 7.34136L18.6964 7.41305L18.6255 7.60237L18.5547 7.41305L18.3676 7.34136L18.5547 7.26968L18.6255 7.08036ZM28.9176 7.28623L29.0902 7.74759L29.5462 7.92221L29.0902 8.09867L28.9176 8.56003L28.745 8.09867L28.289 7.92221L28.745 7.74759L28.9176 7.28623ZM23.7434 7.6612L23.8143 7.85052L24.0014 7.92221L23.8143 7.99389L23.7434 8.18321L23.6726 7.99389L23.4855 7.92221L23.6726 7.85052L23.7434 7.6612ZM20.6694 7.71818H20.6676C20.5568 7.72369 20.4278 7.79538 20.2225 7.91486C20.1716 7.94427 20.1244 7.97919 20.0808 8.01595C20.059 8.03433 20.0372 8.05455 20.0172 8.07477C19.9972 8.09499 19.9773 8.11521 19.9573 8.13727C19.9191 8.18138 19.8828 8.22733 19.8464 8.27512C19.7393 8.42033 19.643 8.5876 19.5303 8.76591C19.454 8.88355 19.3705 9.0067 19.2723 9.12986C19.1742 9.25301 19.1034 9.3394 19.0471 9.40006C19.0198 9.43131 18.9944 9.45336 18.9726 9.47358C18.929 9.51035 18.8908 9.52689 18.849 9.53424C18.8272 9.53792 18.8054 9.53792 18.78 9.53792C18.7273 9.53608 18.6637 9.53057 18.5729 9.53057C18.5493 9.53057 18.5275 9.5324 18.5057 9.53792C18.4839 9.54343 18.4621 9.54895 18.4403 9.55814C18.4294 9.56181 18.4203 9.56917 18.4094 9.57284C18.3567 9.60041 18.3076 9.63718 18.2604 9.68313C18.1659 9.77687 18.0769 9.90186 17.9915 10.0342C17.8898 10.1923 17.7899 10.3577 17.6881 10.4864C17.6718 10.5084 17.6536 10.5268 17.6354 10.5434C17.6173 10.5599 17.6009 10.5764 17.5827 10.5911C17.5646 10.6058 17.5464 10.6169 17.5282 10.6297C17.4737 10.6628 17.4156 10.6867 17.3538 10.7051C17.2721 10.7308 17.1831 10.7492 17.085 10.7786C17.0105 10.8007 16.9305 10.8283 16.8433 10.8705C16.7561 10.911 16.6616 10.9661 16.5599 11.0415C16.5254 11.0672 16.4854 11.1021 16.4418 11.1499C16.3528 11.2418 16.2438 11.3742 16.1239 11.5341C16.004 11.694 15.8695 11.8815 15.7315 12.0837C15.6624 12.1848 15.5916 12.2896 15.5207 12.3962C15.3772 12.6112 15.2337 12.8336 15.092 13.0542C14.9502 13.2748 14.814 13.4917 14.6886 13.6939C14.3126 14.3005 14.0328 14.7673 14.0328 14.7673C14.0328 14.7673 13.7366 14.475 13.366 14.1166C13.2752 14.0302 13.1789 13.9365 13.0826 13.8446C12.7864 13.5597 12.483 13.2711 12.265 13.0726C12.2287 13.0395 12.1942 13.0101 12.1597 12.9844C12.0579 12.9072 11.9653 12.8612 11.8799 12.841C11.8508 12.8336 11.8236 12.83 11.7963 12.83C11.7418 12.8281 11.6891 12.8373 11.6383 12.8557C11.5874 12.8741 11.5365 12.9035 11.4875 12.9384C11.4384 12.9752 11.3875 13.0193 11.3367 13.0707C11.3112 13.0965 11.2858 13.1241 11.2604 13.1535C11.1568 13.2693 11.0478 13.4108 10.9261 13.5634C10.8661 13.6387 10.7444 13.806 10.5754 14.0413C10.0704 14.7471 9.1511 16.0595 8.25361 17.3498C8.21909 17.302 8.18457 17.2561 8.14824 17.2101C8.1119 17.166 8.07375 17.1219 8.0356 17.0814C7.95747 16.9987 7.87754 16.927 7.79215 16.8701L8.51523 16.6918C7.96293 16.2947 7.64681 15.7212 7.35431 15.1698C7.30526 15.0779 7.2562 14.9878 7.20897 14.8978C7.15991 14.8077 7.11086 14.7195 7.05999 14.6349C6.98369 15.0099 6.85106 15.3297 6.68937 15.6146C6.63487 15.7102 6.57673 15.8003 6.51678 15.8885C6.45682 15.9767 6.39324 16.0594 6.32965 16.1403C6.13526 16.3829 5.92451 16.6017 5.72285 16.8112L6.3696 17.0704C5.99717 17.3259 5.65015 17.7321 5.32677 18.2689C5.2214 18.0942 5.12511 17.9141 5.03064 17.7376C4.93616 17.5612 4.84351 17.3866 4.74722 17.2211C4.73632 17.2708 4.72542 17.3185 4.71452 17.3663C4.7018 17.4141 4.68908 17.4601 4.67636 17.506C4.62186 17.688 4.55283 17.8589 4.4747 18.017C4.43474 18.096 4.39477 18.1714 4.35117 18.2468C4.17676 18.5427 3.96783 18.7982 3.75343 19.0335C3.64442 18.8368 3.50635 18.6217 3.34829 18.4398C3.2847 18.3681 3.2193 18.3001 3.15026 18.2431C3.11575 18.2137 3.08122 18.188 3.04489 18.1641L3.76797 17.9858C3.67532 17.9196 3.58993 17.8479 3.50999 17.7725C3.39008 17.6604 3.28289 17.5391 3.18479 17.4104C2.82507 16.9436 2.58891 16.3977 2.31274 15.9253C2.30002 15.9878 2.28549 16.0484 2.26913 16.1073C2.25278 16.1661 2.23643 16.2249 2.21826 16.2819C2.20009 16.3389 2.18011 16.394 2.15831 16.4491C2.11652 16.5576 2.06928 16.6605 2.02023 16.7598C1.9948 16.8094 1.96936 16.8572 1.94211 16.905C1.91486 16.9528 1.8876 16.9987 1.85854 17.0447C1.60055 17.4546 1.27898 17.7873 0.975603 18.1016L1.62055 18.3608C1.57149 18.3957 1.52244 18.4306 1.47339 18.4711C1.37528 18.5501 1.28081 18.6383 1.18816 18.7357C0.95379 18.9821 0.732145 19.2909 0.519584 19.6603L1.27355 19.5537C1.19542 19.6713 1.12094 19.789 1.0519 19.9084C1.01738 19.9673 0.982863 20.0279 0.951981 20.0867C0.888393 20.2062 0.828443 20.3275 0.777571 20.4488C0.699449 20.6308 0.63768 20.8165 0.595896 21.0058L1.46795 20.5775C1.38619 20.686 1.30989 20.7834 1.23903 20.8734C1.16818 20.9635 1.10096 21.0462 1.03737 21.1253C0.912016 21.2833 0.799375 21.4267 0.695817 21.5793C0.590446 21.7318 0.494157 21.8954 0.394232 22.0976C0.294311 22.298 0.194386 22.5369 0.0853818 22.8384L1.36076 22.2668C1.24994 22.3678 1.13367 22.4928 1.01739 22.6325C0.841163 22.8421 0.661307 23.0865 0.48872 23.3384C0.316129 23.592 0.148983 23.8531 0 24.0993L1.11548 24.0865L0.363331 24.9798H6.33885L6.3334 24.9761L6.57503 24.9798H7.36169V24.9743L11.3913 24.9798C16.126 24.9908 20.8657 24.9963 25.6041 24.9982C30.3425 25 35.0766 25 39.8001 25C39.7293 24.8621 39.6493 24.7261 39.5549 24.5919C39.5076 24.5239 39.4568 24.4578 39.4023 24.3934C39.375 24.3603 39.3459 24.3273 39.3169 24.296C39.2878 24.2629 39.2569 24.2317 39.2242 24.1986L40 24.2115C39.9709 24.0975 39.9273 23.9854 39.8728 23.8769C39.8183 23.7685 39.7547 23.66 39.6857 23.5553C39.4513 23.2042 39.1425 22.8678 38.8936 22.5204L39.6385 22.7005L38.5812 21.1566L39.3769 21.2797L38.3704 19.9048L39.2569 20.118C39.2224 20.039 39.177 19.9452 39.1207 19.8423C39.0934 19.7908 39.0625 19.7375 39.0316 19.6842C39.0207 19.664 39.0062 19.6456 38.9953 19.6254C38.9735 19.5905 38.9535 19.5556 38.9299 19.5225C38.8936 19.4692 38.8554 19.414 38.8173 19.3626C38.7173 19.2321 38.6083 19.1126 38.4921 19.0207C38.4684 19.0023 38.4448 18.9857 38.4212 18.9692L39.1062 18.8001C38.9753 18.7064 38.8591 18.6016 38.7519 18.4895C38.681 18.4141 38.6156 18.3369 38.5539 18.256C38.4612 18.1347 38.3758 18.0097 38.2977 17.8792C38.1923 17.7064 38.0979 17.53 38.0052 17.3572C37.958 17.2708 37.9125 17.1844 37.8671 17.098C37.8217 17.0135 37.7745 16.9289 37.7272 16.848C37.7036 16.9657 37.6727 17.0796 37.6382 17.1862C37.62 17.2395 37.6019 17.2928 37.5819 17.3443C37.3639 17.9104 37.0096 18.3314 36.6517 18.71C36.5863 18.778 36.5227 18.846 36.4573 18.9122L37.0696 19.1585C37.0042 19.2026 36.9406 19.2522 36.8788 19.3055C36.8152 19.3589 36.7534 19.4177 36.6917 19.482L35.7506 18.1071L36.5463 18.2321L35.5398 16.8572L36.4264 17.0722C36.41 17.0336 36.3882 16.9895 36.3664 16.9436C36.3446 16.8976 36.3192 16.848 36.2919 16.7965C36.2374 16.6936 36.172 16.5833 36.0994 16.4748C35.9903 16.3131 35.8668 16.1532 35.7305 16.0319C35.7178 16.0208 35.7051 16.0098 35.6924 16.0006C35.6815 15.9914 35.6724 15.9822 35.6615 15.9749C35.6379 15.9565 35.6143 15.94 35.5907 15.9234L36.2756 15.7543C36.1884 15.6918 36.1066 15.6238 36.0322 15.5521C35.994 15.5172 35.9577 15.4804 35.9231 15.4418C35.8886 15.4051 35.8541 15.3665 35.8214 15.3279C35.7887 15.2893 35.756 15.2488 35.7251 15.2084C35.4453 14.8463 35.2455 14.4346 35.0384 14.0504C34.9929 13.9658 34.9457 13.8813 34.8985 13.8004C34.8858 13.8592 34.873 13.918 34.8585 13.9732C34.844 14.0302 34.8276 14.0853 34.8095 14.1386C34.7913 14.1919 34.7731 14.2452 34.7531 14.2967C34.4951 14.9658 34.0464 15.4327 33.6304 15.8646L34.2426 16.1109C34.1281 16.1899 34.0173 16.2818 33.9083 16.3884C33.8811 16.416 33.8538 16.4473 33.8266 16.4767C33.8011 16.5042 33.7739 16.53 33.7484 16.5594C33.6958 16.62 33.6431 16.6844 33.5904 16.7505C33.5468 16.6936 33.5032 16.6366 33.4632 16.5778C33.4232 16.5189 33.3833 16.4601 33.3451 16.3995C33.307 16.3388 33.2706 16.2782 33.2361 16.2175C33.1289 16.0337 33.0326 15.848 32.9345 15.6661C32.8691 15.5447 32.8055 15.4253 32.7365 15.3113C32.6584 15.6881 32.5239 16.0098 32.355 16.291C32.2878 16.4031 32.2151 16.5116 32.1388 16.6127C32.1006 16.6641 32.0625 16.7138 32.0225 16.7615C31.9953 16.7266 31.968 16.6935 31.9389 16.6605C31.9099 16.6274 31.8808 16.5961 31.8499 16.5667C31.79 16.5079 31.7282 16.4546 31.6646 16.4123L32.3495 16.2432C31.9135 15.9289 31.6319 15.5006 31.3903 15.0631C31.3685 15.0245 31.3485 14.9841 31.3267 14.9455C31.3013 14.8977 31.274 14.8499 31.2486 14.8021C31.1559 14.6275 31.0651 14.4566 30.9706 14.2948C30.9597 14.35 30.9452 14.4051 30.927 14.4621C30.8925 14.5742 30.8471 14.6882 30.7962 14.8021C30.7435 14.9161 30.6836 15.0282 30.62 15.1385C30.5255 15.3021 30.4219 15.4602 30.3202 15.6017C30.0513 15.9804 29.806 16.2469 29.806 16.2469C29.806 16.2469 28.9304 15.7157 28.1473 15.201C27.8857 15.0301 27.6368 14.8591 27.4315 14.712C27.3225 14.633 27.2189 14.5576 27.1227 14.4841C26.832 14.2654 26.5904 14.0687 26.3814 13.8849C26.1034 13.6386 25.8818 13.4125 25.6729 13.1754C25.5112 12.9916 25.3531 12.7949 25.186 12.5817C25.1387 12.5211 25.0933 12.4641 25.0424 12.3997C24.9916 12.3354 24.9316 12.26 24.8789 12.192C24.69 11.9512 24.4829 11.6902 24.2231 11.3759C23.8888 10.9734 23.6108 10.6149 23.3783 10.3025C23.262 10.1462 23.1584 10.001 23.064 9.86685C22.9695 9.73267 22.8859 9.60952 22.8132 9.49739C22.6661 9.27498 22.5553 9.09669 22.4735 8.96251C22.4335 8.89634 22.399 8.8412 22.3718 8.79525C22.3445 8.75113 22.3227 8.71805 22.3064 8.69599C22.2991 8.68496 22.29 8.67577 22.2828 8.66841C22.2446 8.63165 22.2119 8.64084 22.1756 8.66658C22.1174 8.71069 22.052 8.8026 21.9485 8.83568C21.9267 8.84304 21.9012 8.84671 21.8758 8.84671C21.8613 8.84671 21.8449 8.84488 21.8304 8.83936C21.7995 8.83017 21.765 8.80995 21.7305 8.78422C21.5397 8.64084 21.309 8.27875 21.1164 8.03058C21.0819 7.98646 21.0474 7.94419 21.0147 7.90926C20.982 7.87434 20.9529 7.84309 20.9238 7.81736C20.8384 7.74016 20.7658 7.70891 20.684 7.71259L20.6694 7.71818ZM25.7855 8.06191L25.8563 8.25123L26.0435 8.32291L25.8563 8.3946L25.7855 8.58392L25.7146 8.3946L25.5275 8.32291L25.7146 8.25123L25.7855 8.06191ZM20.7839 8.43688L21.8176 9.78789L22.2482 9.54894L22.8078 11.0966L23.9487 12.9274L24.4446 14.5394L26.6411 16.326L25.3058 13.7766L28.9448 17.394L29.1592 16.7176L32.929 20.0519L29.29 19.006L30.7761 21.4892L26.8138 18.7651L28.1491 20.5959C28.1491 20.5959 26.9427 19.7467 25.9526 18.8754C25.8291 18.767 25.7273 18.6714 25.6437 18.585C25.5184 18.4563 25.4312 18.3534 25.3676 18.2633C25.304 18.1751 25.2604 18.1034 25.2241 18.0391C25.1859 17.9747 25.155 17.9178 25.1096 17.8626C25.0642 17.8056 25.0079 17.7505 24.9225 17.6862C24.8644 17.6439 24.7935 17.5979 24.7063 17.5465C24.6627 17.5207 24.6173 17.4913 24.5719 17.4601C24.3448 17.3057 24.1068 17.0906 23.8906 16.8737C23.4582 16.4399 23.113 15.9988 23.113 15.9988L25.4821 20.3348L23.9106 20.2043L27.9384 23.7997L24.6864 22.9725C24.6864 22.9725 24.492 22.9725 24.2267 22.9541C24.1377 22.9486 24.0414 22.9394 23.9415 22.9284C23.7416 22.9063 23.5254 22.8733 23.3329 22.8255C23.2366 22.8016 23.1457 22.7722 23.064 22.7391C22.9822 22.706 22.9114 22.6674 22.8551 22.6233C22.826 22.6012 22.8005 22.5773 22.7751 22.5534C22.7497 22.5277 22.7261 22.502 22.7043 22.4744C22.5716 22.3071 22.4881 22.0939 22.439 21.9064C22.4063 21.7814 22.3863 21.6675 22.3754 21.5848C22.3645 21.502 22.3609 21.4506 22.3609 21.4506C22.3609 21.4506 21.9739 20.3183 21.8649 19.8827C21.8522 19.8275 21.8231 19.7669 21.7832 19.7007C21.7632 19.6676 21.7396 19.6327 21.7141 19.5959C21.5343 19.3423 21.2327 19.0261 20.9547 18.6934C20.8348 18.5519 20.7204 18.4067 20.6204 18.2615C20.5205 18.1163 20.4369 17.9729 20.3806 17.835C20.3625 17.7891 20.3461 17.7431 20.3334 17.699C20.3079 17.6108 20.2934 17.5262 20.2862 17.4472C20.2771 17.3277 20.288 17.2193 20.3098 17.1237C20.3243 17.0593 20.3425 17.0005 20.3643 16.9472C20.4079 16.8406 20.4587 16.7579 20.5005 16.7009C20.5423 16.6439 20.5732 16.6145 20.5732 16.6145L20.079 15.6348L22.7715 17.7487C22.7715 17.7487 22.7588 17.6825 22.7261 17.563C22.7097 17.5023 22.6916 17.4288 22.6661 17.3424C22.6407 17.256 22.6116 17.1586 22.5771 17.0483C22.5426 16.9381 22.5026 16.8186 22.4554 16.6881C22.3627 16.4271 22.2465 16.1275 22.1029 15.7984C22.0666 15.7157 22.0303 15.633 21.9903 15.5466C21.9503 15.4621 21.9104 15.3738 21.8668 15.2856C21.7814 15.1092 21.7014 14.9566 21.6269 14.8279C21.5688 14.725 21.5143 14.6386 21.4634 14.5632C21.4507 14.5449 21.438 14.5228 21.4253 14.5044C21.4126 14.486 21.3999 14.4713 21.3871 14.4529C21.3544 14.4088 21.3235 14.3684 21.2945 14.3335C21.2818 14.3188 21.269 14.3022 21.2581 14.2894C21.2327 14.2618 21.2091 14.2379 21.1873 14.2177C21.1655 14.1975 21.1437 14.1791 21.1255 14.1644C21.0874 14.135 21.0529 14.1166 21.0238 14.1055C20.9893 14.0927 20.9656 14.0908 20.9457 14.0927C20.9311 14.0945 20.9202 14.0964 20.913 14.0982C20.9039 14.1019 20.9002 14.1055 20.9002 14.1055L20.2971 11.2289L21.934 13.6699C21.934 13.6699 21.9176 13.4751 21.7995 12.9549C21.7759 12.852 21.7487 12.7343 21.7159 12.6038C21.6832 12.4733 21.6469 12.3281 21.6051 12.1682C21.5633 12.0083 21.5143 11.8337 21.4616 11.6425C21.4071 11.4513 21.3508 11.2749 21.2908 11.1094C21.2599 11.0267 21.2309 10.9477 21.2 10.8723C21.0456 10.4937 20.8839 10.1941 20.7422 9.96981C20.7185 9.93304 20.7004 9.90731 20.6786 9.87422C20.5932 9.74555 20.5151 9.63895 20.4587 9.57094C20.3879 9.48455 20.3443 9.44227 20.3443 9.44227L20.7839 8.43688ZM15.9785 8.55452L16.0494 8.74384L16.2365 8.81553L16.0494 8.88721L15.9785 9.07653L15.9077 8.88721L15.7205 8.81553L15.9077 8.74384L15.9785 8.55452ZM11.9362 8.74936L12.0071 8.93868L12.1942 9.01036L12.0071 9.08205L11.9362 9.27137L11.8654 9.08205L11.6782 9.01036L11.8654 8.93868L11.9362 8.74936ZM32.1222 8.7806L32.2966 9.24197L32.7526 9.41843L32.2966 9.59305L32.124 10.0544L31.9496 9.59305L31.4936 9.41843L31.9496 9.24197L32.1222 8.7806ZM8.68753 8.84861L8.86194 9.30998L9.31795 9.4846L8.86194 9.65921L8.68753 10.1206L8.51494 9.65921L8.05893 9.4846L8.51494 9.30998L8.68753 8.84861ZM6.32211 9.1133L6.39296 9.30262L6.58009 9.37431L6.39296 9.44599L6.32211 9.63531L6.25126 9.44599L6.06413 9.37431L6.25126 9.30262L6.32211 9.1133ZM14.5101 9.67759L14.6845 10.139L15.1405 10.3154L14.6845 10.49L14.5101 10.9514L14.3357 10.49L13.8797 10.3154L14.3357 10.139L14.5101 9.67759ZM29.8982 10.1426L29.969 10.332L30.1561 10.4036L29.969 10.4753L29.8982 10.6646L29.8273 10.4753L29.6402 10.4036L29.8273 10.332L29.8982 10.1426ZM27.758 10.6297L27.9324 11.0911L28.3884 11.2657L27.9324 11.4422L27.758 11.9036L27.5854 11.4422L27.1294 11.2657L27.5854 11.0911L27.758 10.6297ZM12.7531 11.1352L12.824 11.3245L13.0111 11.3962L12.824 11.4679L12.7531 11.6572L12.6823 11.4679L12.4952 11.3962L12.6823 11.3245L12.7531 11.1352ZM8.13128 11.6168L8.20213 11.8061L8.38925 11.8778L8.20213 11.9495L8.13128 12.1388L8.06042 11.9495L7.8733 11.8778L8.06042 11.8061L8.13128 11.6168ZM32.6394 11.7381L32.7102 11.9274L32.8973 11.9991L32.7102 12.0708L32.6394 12.2601L32.5685 12.0708L32.3814 11.9991L32.5685 11.9274L32.6394 11.7381ZM29.3765 13.1038L29.4473 13.2931L29.6344 13.3648L29.4473 13.4365L29.3765 13.6258L29.3056 13.4365L29.1185 13.3648L29.3056 13.2931L29.3765 13.1038ZM5.62228 13.7729L5.69314 13.9622L5.88026 14.0339L5.69314 14.1056L5.62228 14.2949L5.55143 14.1056L5.36431 14.0339L5.55143 13.9622L5.62228 13.7729ZM12.1861 13.8593C12.1843 13.8666 12.1934 13.885 12.2116 13.9089C12.2297 13.9328 12.257 13.9659 12.2933 14.0045C12.3642 14.0817 12.4659 14.1864 12.5913 14.3096C12.7166 14.4327 12.8638 14.5761 13.0255 14.7287C13.1872 14.8831 13.3598 15.0485 13.5378 15.2176C13.8939 15.5558 14.2627 15.9106 14.5734 16.2212C14.6515 16.2984 14.7242 16.3738 14.7932 16.4436C14.8623 16.5135 14.9259 16.5815 14.9822 16.644C15.0403 16.7065 15.0912 16.7635 15.1348 16.8149C15.1784 16.8664 15.2166 16.9124 15.2438 16.9528C15.3001 17.0318 15.3419 17.109 15.3728 17.1862C15.3891 17.2248 15.4019 17.2634 15.4146 17.302C15.4618 17.4564 15.4836 17.6108 15.5218 17.7726C15.5418 17.8535 15.5654 17.938 15.5999 18.0244C15.6508 18.1549 15.7253 18.2909 15.8433 18.438C15.8815 18.4876 15.9251 18.5372 15.9741 18.5887C16.0723 18.6916 16.1903 18.7982 16.3375 18.9122C16.4102 18.9692 16.4901 19.028 16.5791 19.0868C17.2786 19.5666 17.7146 19.8496 17.9762 20.0133C18.2378 20.1768 18.3232 20.221 18.3232 20.221C18.3232 20.221 16.4283 19.5023 15.9106 19.3056C15.7816 19.256 15.6544 19.2027 15.5381 19.1475C15.1875 18.9858 14.9204 18.8258 14.9204 18.8258C14.9204 18.8258 14.9386 18.8589 14.9731 18.9122C15.0222 18.9931 15.1039 19.1218 15.2002 19.2578C15.2329 19.3038 15.2674 19.3497 15.302 19.3957C15.3365 19.4416 15.3746 19.4876 15.411 19.5298C15.4473 19.574 15.4854 19.6144 15.5236 19.653C15.5799 19.71 15.658 19.7596 15.7525 19.8056C15.847 19.8515 15.9542 19.8938 16.0723 19.9379C16.1504 19.9673 16.2321 19.9967 16.3157 20.028C16.3993 20.0592 16.4847 20.0923 16.5682 20.1291C16.8226 20.2375 17.0733 20.3717 17.2677 20.5684C17.3967 20.6989 17.493 20.8018 17.5638 20.8845C17.6347 20.9654 17.6801 21.0261 17.7092 21.0702C17.7691 21.1566 17.7637 21.1786 17.7637 21.1786L16.6645 21.004C16.6645 21.004 16.6591 21.0077 16.6518 21.0132C16.6445 21.0205 16.6373 21.0297 16.6318 21.0444C16.6155 21.0886 16.6191 21.1731 16.7554 21.3128C16.8008 21.3588 16.8607 21.4121 16.937 21.4727C17.0152 21.5315 17.1115 21.5996 17.2295 21.6731C17.3476 21.7466 17.4893 21.8293 17.6547 21.9194C17.8218 22.0094 17.9817 22.1069 18.1361 22.2098C18.1597 22.2263 18.1834 22.2429 18.207 22.2594C18.2597 22.2944 18.3105 22.3293 18.3614 22.366C18.5068 22.4726 18.6466 22.5811 18.7756 22.6877C19.1008 22.9579 19.3697 23.2244 19.5677 23.434C19.8039 23.6858 19.9384 23.8586 19.9384 23.8586L15.8034 22.4635L17.2677 23.9891C17.2677 23.9891 17.255 24.0479 17.1732 24.0718C17.1151 24.0883 17.0188 24.0883 16.868 24.035C16.8171 24.0167 16.7572 23.9928 16.6936 23.9615C16.6809 23.956 16.6718 23.9523 16.6591 23.945C16.5791 23.9045 16.4883 23.8549 16.3866 23.7924C16.1813 23.6674 15.9487 23.5057 15.7144 23.3366C15.48 23.1656 15.2456 22.9855 15.0349 22.82C14.6152 22.491 14.2973 22.2245 14.2973 22.2245L13.5016 23.0516L13.8032 21.3955C13.8032 21.3955 13.7305 21.4084 13.6142 21.4231C13.4689 21.4396 13.2581 21.458 13.0365 21.4507C12.9929 21.4488 12.9475 21.447 12.9039 21.4433C12.8584 21.4396 12.8148 21.4341 12.7712 21.4286C12.7276 21.4231 12.684 21.4139 12.6422 21.4047C12.6005 21.3955 12.5587 21.3845 12.5187 21.3716C12.4787 21.3588 12.4406 21.3441 12.4043 21.3275C12.3679 21.311 12.3334 21.2926 12.3007 21.2705C12.268 21.2485 12.2389 21.2264 12.2117 21.2007C12.1045 21.0978 12.0082 20.9838 11.9264 20.8698C11.9119 20.8496 11.901 20.8294 11.8883 20.811C11.8629 20.7724 11.8374 20.7356 11.8156 20.697C11.8047 20.6768 11.7956 20.6584 11.7847 20.6382C11.7339 20.5445 11.6884 20.4507 11.6594 20.3644C11.6412 20.3129 11.6267 20.2633 11.6176 20.2155C11.6085 20.1695 11.6012 20.1254 11.6012 20.0868C11.6012 20.0666 11.6012 20.0482 11.6031 20.0317C11.6049 20.0151 11.6085 19.9986 11.6121 19.982C11.6775 19.7431 11.7847 19.3718 11.8065 19.2413C11.8083 19.2247 11.7993 19.1972 11.7775 19.1604C11.7557 19.1236 11.7248 19.0777 11.6884 19.0262C11.6503 18.9747 11.6067 18.9196 11.5576 18.8608C11.4595 18.7395 11.3542 18.6237 11.256 18.5115C11.2106 18.4601 11.1579 18.3994 11.1198 18.359C11.0417 18.2726 10.989 18.2175 10.989 18.2175C10.989 18.2175 11.4523 18.3277 11.8937 18.5593C11.9828 18.6053 12.07 18.6568 12.1517 18.7137C12.1935 18.7413 12.2335 18.7707 12.2716 18.802C12.3098 18.8332 12.3461 18.8645 12.3824 18.8975C12.417 18.9306 12.4497 18.9656 12.4805 19.0005C12.5096 19.0354 12.5387 19.0722 12.5623 19.1108C12.7567 19.4159 12.9711 19.71 13.1382 19.9269C13.3054 20.1456 13.4235 20.2872 13.4235 20.2872C13.4235 20.2872 13.2127 19.7909 12.9475 19.2008C12.8149 18.9049 12.6677 18.5869 12.5242 18.2928C12.3825 18.0006 12.2444 17.7322 12.1317 17.5428C12.0754 17.4473 12.0227 17.3609 11.9737 17.2837C11.9246 17.2065 11.881 17.1366 11.8393 17.0741C11.7975 17.0116 11.7611 16.9583 11.7284 16.9105C11.6957 16.8627 11.6648 16.8223 11.6394 16.7874C11.534 16.6477 11.485 16.6054 11.485 16.6054L11.4214 15.7121L11.8738 14.9934L12.3697 15.4291L12.1861 13.8593ZM33.8367 17.3223C33.7695 17.4252 33.7041 17.53 33.6459 17.6347C33.5715 17.5557 33.4915 17.4822 33.4098 17.427L33.8367 17.3223ZM7.7352 17.859L7.87328 17.8921C7.8533 17.9215 7.83694 17.9435 7.81696 17.9711L7.7352 17.859ZM6.01473 18.2634C5.89664 18.4417 5.78763 18.6199 5.69135 18.8019C5.63321 18.7302 5.57689 18.6585 5.5242 18.5832C5.47151 18.5078 5.42246 18.4324 5.37341 18.3552L6.01473 18.2634ZM2.98437 19.153L3.51667 19.2817C3.47851 19.3221 3.44036 19.3607 3.40221 19.3993L4.04897 19.6585C3.90363 19.7577 3.76192 19.8809 3.62385 20.0261L2.98437 19.153ZM6.20551 19.2872C6.05835 19.482 5.93299 19.6382 5.81672 19.7835C5.78584 19.7449 5.75313 19.7081 5.72043 19.6732C5.68773 19.6382 5.65503 19.6052 5.62051 19.5739L6.20551 19.2872ZM36.0459 19.471L36.5673 19.5978C36.4928 19.6805 36.422 19.7687 36.3493 19.8662C36.2439 19.7357 36.1404 19.6033 36.0441 19.471H36.0459Z" fill="#AFAFAF"/>
</svg>
