<svg width="14" height="13" viewBox="0 0 14 13" fill="none" xmlns="http://www.w3.org/2000/svg">
<path fill-rule="evenodd" clip-rule="evenodd" d="M13.6638 0.209756C13.8971 0.427429 13.908 0.766944 13.8729 1.05375C13.8371 1.34877 13.7377 1.68966 13.6082 2.0237C13.3523 2.68082 12.9428 3.40366 12.5493 3.77192L12.542 3.77877L11.2191 4.94927L12.7402 8.70995C12.8252 8.89958 12.8496 9.10826 12.8102 9.31061C12.7709 9.51295 12.6696 9.70022 12.5186 9.84965L11.497 10.8627C11.4595 10.8991 11.4139 10.9274 11.3634 10.9455C11.313 10.9636 11.2589 10.9712 11.205 10.9676C11.1511 10.964 11.0987 10.9494 11.0514 10.9247C11.0042 10.9001 10.9634 10.8661 10.9317 10.8251L8.39419 7.44909L7.5715 8.17672C7.19196 8.53266 6.82852 8.85027 6.47897 9.08848C6.28047 9.22843 6.06372 9.34413 5.83398 9.43279L6.51626 11.0489C6.67787 11.4322 6.5616 11.8655 6.26397 12.1599L5.5166 12.8991C5.47968 12.9329 5.43575 12.9593 5.38753 12.9766C5.3393 12.9939 5.28781 13.0017 5.23621 12.9997C5.18461 12.9976 5.13401 12.9857 5.08753 12.9646C5.04105 12.9436 4.99967 12.9138 4.96594 12.8772L2.81598 10.3637L0.130715 8.35127C0.0916113 8.31966 0.0598593 8.28087 0.037426 8.23731C0.0149926 8.19374 0.00235591 8.14633 0.000299134 8.09801C-0.00175764 8.04968 0.00680917 8.00148 0.0254688 7.95638C0.0441284 7.91129 0.0724833 7.87026 0.108776 7.83584L0.897828 7.13627C1.21228 6.85768 1.67518 6.74816 2.08397 6.89943L3.81125 7.53808C3.89901 7.33067 4.02844 7.12943 4.17909 6.93503C4.43284 6.60783 4.77362 6.26695 5.15315 5.91169L5.9305 5.14231L2.32383 2.76707C2.27995 2.73752 2.24354 2.69931 2.21717 2.65514C2.1908 2.61098 2.17511 2.56193 2.1712 2.51147C2.1673 2.46101 2.17527 2.41036 2.19457 2.36309C2.21387 2.31583 2.24401 2.27311 2.28287 2.23795L3.36517 1.28101C3.69205 0.992831 4.16958 0.911375 4.58348 1.07429L8.60114 2.49806L9.85895 1.25226C10.2524 0.883994 11.0246 0.500671 11.7266 0.261779C12.0835 0.140621 12.4477 0.0475283 12.7621 0.0139875C13.0693 -0.0188688 13.4305 -0.00860122 13.6638 0.209756ZM10.3789 1.73347L8.96459 3.13397C8.91504 3.18298 8.85111 3.21718 8.78085 3.23228C8.71059 3.24739 8.63713 3.24271 8.5697 3.21884L4.3173 1.71156L4.30267 1.70609C4.23041 1.67695 4.1506 1.66829 4.07313 1.68119C3.99566 1.69409 3.92393 1.72797 3.86683 1.77864L3.10995 2.44741L6.69616 4.80895C6.73747 4.83838 6.77187 4.87546 6.7972 4.91788C6.82254 4.96029 6.83827 5.00714 6.84341 5.0555C6.84856 5.10385 6.84301 5.15268 6.82711 5.19894C6.81121 5.24521 6.7853 5.28791 6.751 5.32438L5.67309 6.39221C5.29648 6.74405 4.98935 7.05413 4.76996 7.33683C4.54838 7.62159 4.44308 7.84747 4.4248 8.03092C4.41867 8.08345 4.39975 8.13397 4.36951 8.17858C4.33926 8.2232 4.29849 8.26074 4.25033 8.2883C4.20216 8.31587 4.14789 8.33273 4.09168 8.33759C4.03546 8.34246 3.97881 8.33519 3.92606 8.31636L1.81485 7.53602C1.47262 7.40939 1.12453 7.87622 0.915379 8.06172L3.30521 9.85171C3.32666 9.86768 3.34567 9.88548 3.36225 9.9051L5.27455 12.1421C5.47199 11.9456 5.97146 11.6198 5.83617 11.3001L5.00251 9.32395C4.98239 9.27458 4.97463 9.22155 4.97983 9.16893C4.98502 9.11631 5.00304 9.06551 5.03249 9.02043C5.06193 8.97535 5.10203 8.93718 5.1497 8.90887C5.19737 8.88056 5.25133 8.86286 5.30745 8.85712C5.50344 8.84001 5.74403 8.74075 6.0497 8.53335C6.35099 8.328 6.68226 8.0405 7.05887 7.68867L7.06618 7.68182L8.19894 6.67902C8.23789 6.64697 8.28349 6.62278 8.33288 6.60796C8.38228 6.59314 8.4344 6.58801 8.48601 6.59289C8.53761 6.59777 8.58759 6.61256 8.63281 6.63633C8.67804 6.6601 8.71754 6.69234 8.74886 6.73104L11.2718 10.0879L11.987 9.3794C12.0431 9.32417 12.08 9.25429 12.0928 9.179C12.1056 9.10371 12.0937 9.02655 12.0586 8.95774L10.4491 4.97802C10.4236 4.91491 10.4186 4.84614 10.4347 4.78038C10.4509 4.71461 10.4874 4.65477 10.5398 4.60839L12.036 3.28387C12.3168 3.01897 12.6795 2.40839 12.9208 1.78891C13.0437 1.47267 13.2082 1.07429 13.149 0.727927C13.1446 0.701231 13.1373 0.695071 13.1088 0.690964C12.7395 0.635519 12.3139 0.789533 11.976 0.90453C11.3135 1.13042 10.6619 1.46993 10.3782 1.73278" fill="white"/>
</svg>
