<svg width="28" height="26" viewBox="0 0 28 26" fill="none" xmlns="http://www.w3.org/2000/svg">
<path d="M6.93499 26H21.065C22.904 25.9986 24.6672 25.3201 25.9675 24.1127C27.2678 22.9052 27.9985 21.268 28 19.5604V6.43963C27.9985 4.73198 27.2678 3.09476 25.9675 1.88734C24.6672 0.679919 22.904 0.00143513 21.065 0H6.93499C5.09598 0.00143733 3.33282 0.679919 2.03252 1.88734C0.73222 3.09476 0.00154552 4.73202 0 6.43963V19.5604C0.0015479 21.268 0.73222 22.9052 2.03252 24.1127C3.33282 25.3201 5.09602 25.9986 6.93499 26ZM1.9814 6.4396C1.98449 3.89968 4.1997 1.84278 6.93499 1.83983H21.065C23.8003 1.84271 26.0154 3.89968 26.0186 6.4396V19.5603C26.0155 22.1002 23.8003 24.1572 21.065 24.1601H6.93499C4.1997 24.1572 1.98457 22.1002 1.9814 19.5603V6.4396Z" fill="#62748E"/>
<path d="M20.6974 8.1335C20.6974 10.5687 17.0469 10.5687 17.0469 8.1335C17.0469 5.69834 20.6974 5.69834 20.6974 8.1335Z" fill="#62748E"/>
<path d="M5.59166 18.9134L8.65122 15.8539C9.74289 14.7651 11.5099 14.7651 12.6018 15.8539L15.248 18.5001H15.2465C17.0689 20.3137 20.0135 20.3137 21.8345 18.5001L24.1561 16.1785C24.52 15.8146 24.52 15.2236 24.1561 14.8597C23.7922 14.4958 23.2012 14.4958 22.8373 14.8597L20.5157 17.1813C19.424 18.2701 17.657 18.2701 16.5652 17.1813L13.919 14.5351H13.9204C12.0995 12.7201 9.15348 12.7201 7.33247 14.5351L4.27292 17.5947C3.90903 17.9586 3.90903 18.5495 4.27292 18.9134C4.6368 19.2773 5.22776 19.2773 5.59166 18.9134Z" fill="#62748E"/>
</svg>
