<svg width="72" height="66" viewBox="0 0 72 66" fill="none" xmlns="http://www.w3.org/2000/svg">
<path d="M69.3882 46.6585C63.2674 36.0249 53.2495 18.6128 47.1287 7.98071C41.0087 -2.66024 30.9908 -2.66024 24.8693 7.98071C18.7522 18.6128 8.73354 36.0249 2.61206 46.6585C-3.50794 57.298 1.49847 66 13.7422 66C25.9844 66 46.0159 66 58.2566 66C70.4988 66 75.5089 57.298 69.3882 46.6585ZM35.7039 54.2528C32.5711 54.2528 30.0352 51.7061 30.0352 48.5635C30.0352 45.4202 32.5711 42.8728 35.7039 42.8728C38.8374 42.8728 41.3748 45.4202 41.3748 48.5635C41.3748 51.7054 38.8374 54.2528 35.7039 54.2528ZM41.585 33.5343C41.585 36.792 38.9506 39.436 35.7039 39.436C32.4579 39.436 29.8242 36.792 29.8242 33.5343V23.4207C29.8242 20.1623 32.4579 17.5198 35.7039 17.5198C38.9506 17.5198 41.585 20.1623 41.585 23.4207V33.5343Z" fill="#D40438"/>
</svg>
