<svg width="18" height="12" viewBox="0 0 18 12" fill="none" xmlns="http://www.w3.org/2000/svg">
<path d="M14.3541 4.04596H17.0928V5.44177H15.1936V10.1852C15.1936 10.6931 15.01 11.1224 14.6428 11.4731C14.2756 11.8237 13.8265 11.9991 13.2953 11.9991C12.7642 11.9991 12.3147 11.8237 11.9469 11.4731C11.5791 11.1224 11.3952 10.6934 11.3952 10.1861C11.3952 9.67879 11.5788 9.24949 11.946 8.8982C12.3131 8.5469 12.7626 8.37156 13.2944 8.37216C13.4944 8.37216 13.6825 8.40058 13.8585 8.45742C14.0351 8.51546 14.2 8.60555 14.3532 8.72769L14.3541 4.04596ZM0 12V10.5062C0 10.1283 0.113952 9.77734 0.341856 9.45326C0.570393 9.12857 0.87743 8.87613 1.26297 8.69595C2.18408 8.27391 3.08715 7.96312 3.97217 7.76359C4.8572 7.56406 5.74887 7.46429 6.6472 7.46429C7.19037 7.46429 7.70505 7.49604 8.19125 7.55953C8.67744 7.62301 9.1554 7.72399 9.62514 7.86245C9.51625 7.9858 9.41718 8.10914 9.32792 8.23249C9.23929 8.35584 9.16078 8.4813 9.09241 8.60888C8.72967 8.53028 8.33432 8.47102 7.90636 8.43111C7.47841 8.39181 7.05869 8.37216 6.6472 8.37216C5.80585 8.37216 4.97432 8.46618 4.1526 8.65423C3.33088 8.84287 2.51897 9.12192 1.71688 9.49135C1.47631 9.602 1.28861 9.74862 1.15376 9.93122C1.01765 10.1138 0.949599 10.3055 0.949599 10.5062V11.093H8.88065C8.91231 11.2557 8.95346 11.4105 9.0041 11.5574C9.05411 11.7049 9.12249 11.8525 9.20922 12H0ZM6.6472 5.44177C5.86409 5.44177 5.19336 5.17513 4.63499 4.64184C4.07663 4.10854 3.79776 3.46823 3.7984 2.7209C3.79903 1.97356 4.0779 1.33264 4.63499 0.798141C5.19209 0.263639 5.86283 -0.00240222 6.6472 1.63416e-05C7.43156 0.0024349 8.1023 0.268476 8.6594 0.798141C9.2165 1.32781 9.49536 1.96872 9.49599 2.7209C9.49663 3.47307 9.21776 4.11338 8.6594 4.64184C8.10103 5.17029 7.4303 5.43694 6.6472 5.44177ZM6.6472 4.53482C7.16948 4.53482 7.61674 4.35705 7.98898 4.00152C8.36122 3.64599 8.54703 3.21912 8.54639 2.7209C8.54576 2.22267 8.35996 1.79549 7.98898 1.43936C7.618 1.08323 7.17074 0.905767 6.6472 0.906976C6.12365 0.908185 5.67671 1.08565 5.30636 1.43936C4.93602 1.79308 4.7499 2.22025 4.748 2.7209C4.7461 3.22154 4.93222 3.64841 5.30636 4.00152C5.6805 4.35463 6.12745 4.5324 6.6472 4.53482Z" fill="white"/>
</svg>
