<svg width="16" height="16" viewBox="0 0 16 16" fill="none" xmlns="http://www.w3.org/2000/svg">
<path d="M10.6663 13.3334V2.66671C10.6663 2.31309 10.5259 1.97395 10.2758 1.7239C10.0258 1.47385 9.68663 1.33337 9.33301 1.33337H6.66634C6.31272 1.33337 5.97358 1.47385 5.72353 1.7239C5.47348 1.97395 5.33301 2.31309 5.33301 2.66671V13.3334" stroke="#E040FB" stroke-width="1.33333" stroke-linecap="round" stroke-linejoin="round"/>
<path d="M13.333 4H2.66634C1.92996 4 1.33301 4.59695 1.33301 5.33333V12C1.33301 12.7364 1.92996 13.3333 2.66634 13.3333H13.333C14.0694 13.3333 14.6663 12.7364 14.6663 12V5.33333C14.6663 4.59695 14.0694 4 13.333 4Z" stroke="#E040FB" stroke-width="1.33333" stroke-linecap="round" stroke-linejoin="round"/>
</svg>
