<svg width="40" height="40" viewBox="0 0 40 40" fill="none" xmlns="http://www.w3.org/2000/svg">
<path d="M20 30V8.33331" stroke="#FFEA00" stroke-width="3.33333" stroke-linecap="round" stroke-linejoin="round"/>
<path d="M25 21.6667C23.558 21.2451 22.2914 20.3677 21.39 19.1658C20.4886 17.964 20.0009 16.5023 20 15C19.9991 16.5023 19.5114 17.964 18.61 19.1658C17.7086 20.3677 16.442 21.2451 15 21.6667" stroke="#FFEA00" stroke-width="3.33333" stroke-linecap="round" stroke-linejoin="round"/>
<path d="M29.33 10.8334C29.7135 10.1692 29.9391 9.42565 29.9893 8.66034C30.0395 7.89503 29.9129 7.12842 29.6194 6.41984C29.326 5.71125 28.8734 5.07968 28.2968 4.57398C27.7202 4.06828 27.0349 3.70201 26.2941 3.50351C25.5533 3.305 24.7767 3.27958 24.0245 3.42921C23.2723 3.57884 22.5646 3.89952 21.9561 4.36643C21.3477 4.83333 20.8548 5.43396 20.5156 6.12183C20.1764 6.80971 20 7.56639 20 8.33335C20 7.56639 19.8236 6.80971 19.4844 6.12183C19.1452 5.43396 18.6523 4.83333 18.0439 4.36643C17.4354 3.89952 16.7277 3.57884 15.9755 3.42921C15.2233 3.27958 14.4467 3.305 13.7059 3.50351C12.9651 3.70201 12.2798 4.06828 11.7032 4.57398C11.1266 5.07968 10.674 5.71125 10.3806 6.41984C10.0871 7.12842 9.96053 7.89503 10.0107 8.66034C10.0609 9.42565 10.2865 10.1692 10.67 10.8334" stroke="#FFEA00" stroke-width="3.33333" stroke-linecap="round" stroke-linejoin="round"/>
<path d="M29.9951 8.54169C30.9748 8.79358 31.8843 9.2651 32.6547 9.92054C33.4252 10.576 34.0364 11.3981 34.442 12.3248C34.8477 13.2514 35.0372 14.2582 34.9961 15.2689C34.9551 16.2796 34.6846 17.2677 34.2051 18.1584" stroke="#FFEA00" stroke-width="3.33333" stroke-linecap="round" stroke-linejoin="round"/>
<path d="M30 30C31.4675 29.9999 32.894 29.5157 34.0582 28.6223C35.2225 27.7289 36.0594 26.4763 36.4392 25.0588C36.819 23.6413 36.7205 22.1381 36.159 20.7823C35.5974 19.4265 34.6042 18.2938 33.3333 17.56" stroke="#FFEA00" stroke-width="3.33333" stroke-linecap="round" stroke-linejoin="round"/>
<path d="M33.2787 29.1383C33.3955 30.042 33.3258 30.9601 33.0738 31.8358C32.8219 32.7116 32.3932 33.5264 31.814 34.2299C31.2349 34.9334 30.5176 35.5108 29.7066 35.9262C28.8956 36.3417 28.008 36.5865 27.0987 36.6455C26.1894 36.7045 25.2776 36.5765 24.4197 36.2693C23.5618 35.9621 22.7759 35.4824 22.1107 34.8596C21.4455 34.2368 20.915 33.4842 20.552 32.6484C20.1891 31.8126 20.0013 30.9112 20.0003 30C19.9993 30.9112 19.8116 31.8126 19.4486 32.6484C19.0856 33.4842 18.5551 34.2368 17.8899 34.8596C17.2247 35.4824 16.4389 35.9621 15.581 36.2693C14.7231 36.5765 13.8113 36.7045 12.9019 36.6455C11.9926 36.5865 11.105 36.3417 10.294 35.9262C9.48301 35.5108 8.76578 34.9334 8.18663 34.2299C7.60748 33.5264 7.17871 32.7116 6.9268 31.8358C6.67489 30.9601 6.60518 30.042 6.72199 29.1383" stroke="#FFEA00" stroke-width="3.33333" stroke-linecap="round" stroke-linejoin="round"/>
<path d="M10.0004 30C8.53285 29.9999 7.10637 29.5157 5.94214 28.6223C4.7779 27.7289 3.94098 26.4763 3.56115 25.0588C3.18133 23.6413 3.27983 22.1381 3.84139 20.7823C4.40294 19.4265 5.39617 18.2938 6.66703 17.56" stroke="#FFEA00" stroke-width="3.33333" stroke-linecap="round" stroke-linejoin="round"/>
<path d="M10.0046 8.54169C9.02489 8.79358 8.11539 9.2651 7.34494 9.92054C6.57449 10.576 5.96329 11.3981 5.55763 12.3248C5.15197 13.2514 4.96249 14.2582 5.00354 15.2689C5.04459 16.2796 5.31509 17.2677 5.79456 18.1584" stroke="#FFEA00" stroke-width="3.33333" stroke-linecap="round" stroke-linejoin="round"/>
</svg>
