<svg width="38" height="38" viewBox="0 0 38 38" fill="none" xmlns="http://www.w3.org/2000/svg">
<mask id="path-1-inside-1_1_974" fill="white">
<path d="M0 18.9062C0 8.46462 8.46462 0 18.9062 0C29.3479 0 37.8125 8.46462 37.8125 18.9062C37.8125 29.3479 29.3479 37.8125 18.9062 37.8125C8.46462 37.8125 0 29.3479 0 18.9062Z"/>
</mask>
<path d="M0 18.9062C0 8.46462 8.46462 0 18.9062 0C29.3479 0 37.8125 8.46462 37.8125 18.9062C37.8125 29.3479 29.3479 37.8125 18.9062 37.8125C8.46462 37.8125 0 29.3479 0 18.9062Z" fill="#141414"/>
<path d="M0 18.9062M37.8125 18.9062M37.8125 18.9062M0 18.9062M18.9062 0M37.8125 18.9062M18.9062 37.8125M0 18.9062M18.9062 37.8125V36.9034C8.96669 36.9034 0.909091 28.8458 0.909091 18.9062H0H-0.909091C-0.909091 29.85 7.96254 38.7216 18.9062 38.7216V37.8125ZM37.8125 18.9062H36.9034C36.9034 28.8458 28.8458 36.9034 18.9062 36.9034V37.8125V38.7216C29.85 38.7216 38.7216 29.85 38.7216 18.9062H37.8125ZM18.9062 0V0.909091C28.8458 0.909091 36.9034 8.96669 36.9034 18.9062H37.8125H38.7216C38.7216 7.96254 29.85 -0.909091 18.9062 -0.909091V0ZM18.9062 0V-0.909091C7.96254 -0.909091 -0.909091 7.96254 -0.909091 18.9062H0H0.909091C0.909091 8.96669 8.96669 0.909091 18.9062 0.909091V0Z" fill="#1F1F1F" mask="url(#path-1-inside-1_1_974)"/>
<path d="M20.4332 22.7129C20.6053 22.792 20.7992 22.81 20.983 22.7641C21.1667 22.7182 21.3294 22.6111 21.4441 22.4604L21.7399 22.0729C21.8952 21.8659 22.0965 21.6979 22.3279 21.5822C22.5593 21.4665 22.8145 21.4062 23.0732 21.4062H25.5732C26.0153 21.4062 26.4392 21.5818 26.7518 21.8944C27.0643 22.207 27.2399 22.6309 27.2399 23.0729V25.5729C27.2399 26.0149 27.0643 26.4389 26.7518 26.7514C26.4392 27.064 26.0153 27.2396 25.5732 27.2396C21.595 27.2396 17.7797 25.6592 14.9666 22.8462C12.1536 20.0331 10.5732 16.2178 10.5732 12.2396C10.5732 11.7976 10.7488 11.3736 11.0614 11.0611C11.374 10.7485 11.7979 10.5729 12.2399 10.5729H14.7399C15.1819 10.5729 15.6059 10.7485 15.9184 11.0611C16.231 11.3736 16.4066 11.7976 16.4066 12.2396V14.7396C16.4066 14.9983 16.3463 15.2535 16.2306 15.4849C16.1149 15.7164 15.9469 15.9177 15.7399 16.0729L15.3499 16.3654C15.1969 16.4822 15.0891 16.6484 15.0447 16.8357C15.0004 17.023 15.0222 17.2199 15.1066 17.3929C16.2455 19.7061 18.1186 21.5769 20.4332 22.7129Z" stroke="#B0B0B0" stroke-width="1.66667" stroke-linecap="round" stroke-linejoin="round"/>
</svg>
