<svg width="40" height="40" viewBox="0 0 40 40" fill="none" xmlns="http://www.w3.org/2000/svg">
<path d="M23.053 27.6133C23.3972 27.7714 23.785 27.8075 24.1525 27.7157C24.52 27.6239 24.8452 27.4097 25.0747 27.1083L25.6663 26.3333C25.9768 25.9194 26.3794 25.5833 26.8423 25.3519C27.3051 25.1205 27.8155 25 28.333 25H33.333C34.2171 25 35.0649 25.3512 35.69 25.9763C36.3152 26.6014 36.6663 27.4493 36.6663 28.3333V33.3333C36.6663 34.2174 36.3152 35.0652 35.69 35.6904C35.0649 36.3155 34.2171 36.6667 33.333 36.6667C25.3765 36.6667 17.7459 33.506 12.1198 27.8799C6.49371 22.2538 3.33301 14.6232 3.33301 6.66668C3.33301 5.78262 3.6842 4.93478 4.30932 4.30965C4.93444 3.68453 5.78229 3.33334 6.66634 3.33334H11.6663C12.5504 3.33334 13.3982 3.68453 14.0234 4.30965C14.6485 4.93478 14.9997 5.78262 14.9997 6.66668V11.6667C14.9997 12.1842 14.8792 12.6945 14.6478 13.1574C14.4163 13.6202 14.0803 14.0229 13.6663 14.3333L12.8863 14.9183C12.5804 15.152 12.3647 15.4843 12.276 15.8589C12.1873 16.2335 12.231 16.6273 12.3997 16.9733C14.6775 21.5998 18.4237 25.3413 23.053 27.6133Z" stroke="#00FF41" stroke-width="3.33333" stroke-linecap="round" stroke-linejoin="round"/>
</svg>
