<svg width="27" height="27" viewBox="0 0 27 27" fill="none" xmlns="http://www.w3.org/2000/svg">
<mask id="path-1-inside-1_1_2748" fill="white">
<path d="M19.7599 0C17.8443 0.00944952 16.0099 0.766131 14.6558 2.10546C13.3016 3.4448 12.5373 5.25845 12.5289 7.15194C12.5248 8.38155 12.8475 9.59066 13.4646 10.6583C13.3492 11.0715 13.2597 11.4913 13.1966 11.9154C13.1223 12.3271 13.1634 12.751 13.3156 13.1412C13.4678 13.5314 13.7252 13.8729 14.0598 14.1288C14.3945 14.3846 14.7936 14.545 15.214 14.5924C15.6343 14.6399 16.0598 14.5727 16.4442 14.3982C16.7621 14.259 17.0801 14.0839 17.398 13.9492C18.161 14.2016 18.9599 14.3319 19.7644 14.3353C21.6834 14.3353 23.5238 13.5818 24.8808 12.2405C26.2377 10.8993 27 9.08018 27 7.18336C27 5.28655 26.2377 3.46743 24.8808 2.12618C23.5238 0.784932 21.6834 0.0314271 19.7644 0.0314271L19.7599 0ZM19.7599 12.6293C18.8982 12.6281 18.0482 12.4315 17.2754 12.0546C16.7897 12.3512 16.2861 12.6181 15.7674 12.8537C15.66 12.9122 15.5376 12.9382 15.4153 12.9285C15.2931 12.9189 15.1764 12.874 15.0797 12.7995C14.983 12.7249 14.9105 12.624 14.8713 12.5091C14.8321 12.3943 14.8278 12.2706 14.859 12.1534C14.9453 11.6326 15.1224 10.9861 15.2814 10.3575C14.5898 9.42721 14.2188 8.30191 14.2231 7.14745C14.2231 6.06394 14.5482 5.00478 15.1573 4.10395C15.7664 3.20311 16.6321 2.50107 17.6449 2.08664C18.6577 1.67221 19.7721 1.564 20.8472 1.77571C21.9222 1.98742 22.9096 2.50953 23.6844 3.27599C24.4592 4.04246 24.9866 5.01884 25.1999 6.08163C25.4132 7.14442 25.3028 8.24587 24.8827 9.24664C24.4626 10.2474 23.7516 11.1025 22.8398 11.7039C21.9279 12.3052 20.8561 12.6256 19.7599 12.6248V12.6293ZM21.0181 19.3637L18.8288 17.5678C17.5525 16.5262 16.5214 16.5666 15.1043 17.2311C14.4139 17.5499 13.7416 17.909 13.0558 18.1919C12.7359 18.2048 12.4181 18.1352 12.1337 17.9898C11.4562 17.681 10.8406 17.2536 10.3169 16.7283C9.776 16.219 9.3247 15.6242 8.98152 14.9683C8.83317 14.7037 8.7492 14.4086 8.73625 14.1063C9.05874 13.406 9.4857 12.7235 9.84906 12.0636C10.6394 10.7167 10.7575 9.70203 9.80818 8.35964L8.16849 6.05647C7.07839 4.52103 5.25247 4.07207 3.69453 5.27977C-0.802139 8.70534 -1.03833 13.5496 2.14114 17.936C3.10981 19.1503 4.17286 20.2882 5.3206 21.3391C6.3562 22.3807 7.46901 23.4806 8.60453 24.4234C12.7787 27.8849 17.6887 28.0151 21.4677 23.8577C22.7804 22.3986 22.4988 20.5758 21.0181 19.3726V19.3637ZM20.0052 22.5692C16.6667 26.2148 12.8786 25.474 9.81727 22.9508C8.58182 21.9093 4.64837 18.1066 3.71724 16.8046C1.40532 13.6125 0.942023 9.80529 4.86639 6.76583C5.57496 6.22708 6.14272 6.52788 6.58784 7.12949L8.21391 9.45959C8.71808 10.16 8.57728 10.4204 8.17303 11.1207C7.76878 11.8211 7.30095 12.6023 6.97846 13.3027C5.74301 15.965 11.1345 21.0922 13.7916 19.9877C14.482 19.7094 15.2496 19.3098 15.9173 19.009C16.6667 18.6678 16.9302 18.56 17.5979 19.0853L19.7872 20.8811C20.3731 21.3346 20.6138 21.9182 20.0052 22.5782V22.5692ZM20.255 9.94896C20.3515 10.0424 20.4278 10.1543 20.4794 10.2778C20.5309 10.4012 20.5565 10.5337 20.5548 10.6673C20.5623 10.8052 20.5375 10.943 20.4824 11.0699C20.4272 11.1969 20.3432 11.3095 20.2368 11.3991C20.0512 11.5708 19.8052 11.6643 19.551 11.6595C19.2901 11.6636 19.0372 11.5707 18.8424 11.3991C18.7376 11.3082 18.6547 11.1954 18.5997 11.0688C18.5446 10.9421 18.519 10.805 18.5245 10.6673C18.5199 10.5334 18.5443 10.4 18.596 10.2762C18.6477 10.1523 18.7255 10.0408 18.8242 9.94896C18.9206 9.85722 19.0345 9.78536 19.1593 9.73757C19.2841 9.68978 19.4172 9.66702 19.551 9.6706C19.6817 9.66994 19.8113 9.695 19.9322 9.74433C20.0531 9.79366 20.1628 9.86628 20.255 9.95794V9.94896ZM22.2126 4.11248C22.4249 4.41575 22.5515 4.76948 22.5795 5.13722C22.6074 5.50496 22.5357 5.87342 22.3716 6.20463C22.2413 6.44409 22.0743 6.66217 21.8765 6.85113C21.5586 7.1654 21.2406 7.44376 20.9272 7.72212C20.8217 7.81519 20.7216 7.91412 20.6274 8.01843C20.5648 8.07812 20.5153 8.14995 20.4821 8.22944C20.4528 8.28507 20.4299 8.34382 20.414 8.40454C20.3776 8.52576 20.3413 8.64697 20.3095 8.76819C20.3026 8.8691 20.2756 8.96766 20.23 9.05822C20.1844 9.14877 20.1212 9.22954 20.044 9.29587C19.9667 9.3622 19.877 9.4128 19.7799 9.44475C19.6829 9.4767 19.5803 9.48937 19.4783 9.48204C19.3683 9.48597 19.2586 9.46814 19.1556 9.42959C19.0526 9.39104 18.9585 9.33255 18.8787 9.25756C18.7922 9.16688 18.7256 9.05937 18.6834 8.94188C18.6412 8.82438 18.6242 8.69949 18.6335 8.57514C18.6214 8.27682 18.6757 7.97951 18.7924 7.70416C18.8808 7.46481 19.0184 7.24619 19.1967 7.06214C19.4023 6.84582 19.6223 6.64333 19.8553 6.45605C20.035 6.30836 20.2064 6.15098 20.3685 5.98464C20.4634 5.89052 20.5458 5.78492 20.6138 5.67037C20.6656 5.56733 20.6906 5.45313 20.6865 5.33814C20.6855 5.10258 20.5909 4.87684 20.423 4.70959C20.2136 4.52934 19.9419 4.43605 19.6645 4.4492C19.524 4.43882 19.3828 4.45653 19.2494 4.50127C19.1159 4.54601 18.993 4.61686 18.8878 4.70959C18.6852 4.95925 18.5311 5.24392 18.4336 5.54915C18.4026 5.75877 18.2976 5.9508 18.1372 6.09129C17.9768 6.23178 17.7713 6.31169 17.557 6.31687C17.4346 6.31641 17.3136 6.29151 17.2012 6.24368C17.0888 6.19585 16.9874 6.12606 16.9029 6.03852C16.8186 5.95842 16.7518 5.86215 16.7065 5.75561C16.6612 5.64907 16.6384 5.53451 16.6395 5.41895C16.653 5.00831 16.7802 4.6092 17.0074 4.26512C17.2763 3.86956 17.6398 3.54571 18.0657 3.32231C18.5582 3.05715 19.113 2.92549 19.6736 2.94069C20.1969 2.92947 20.7159 3.03698 21.1907 3.25496C21.609 3.44633 21.9635 3.75157 22.2126 4.13492V4.11248Z"/>
</mask>
<path d="M19.7599 0C17.8443 0.00944952 16.0099 0.766131 14.6558 2.10546C13.3016 3.4448 12.5373 5.25845 12.5289 7.15194C12.5248 8.38155 12.8475 9.59066 13.4646 10.6583C13.3492 11.0715 13.2597 11.4913 13.1966 11.9154C13.1223 12.3271 13.1634 12.751 13.3156 13.1412C13.4678 13.5314 13.7252 13.8729 14.0598 14.1288C14.3945 14.3846 14.7936 14.545 15.214 14.5924C15.6343 14.6399 16.0598 14.5727 16.4442 14.3982C16.7621 14.259 17.0801 14.0839 17.398 13.9492C18.161 14.2016 18.9599 14.3319 19.7644 14.3353C21.6834 14.3353 23.5238 13.5818 24.8808 12.2405C26.2377 10.8993 27 9.08018 27 7.18336C27 5.28655 26.2377 3.46743 24.8808 2.12618C23.5238 0.784932 21.6834 0.0314271 19.7644 0.0314271L19.7599 0ZM19.7599 12.6293C18.8982 12.6281 18.0482 12.4315 17.2754 12.0546C16.7897 12.3512 16.2861 12.6181 15.7674 12.8537C15.66 12.9122 15.5376 12.9382 15.4153 12.9285C15.2931 12.9189 15.1764 12.874 15.0797 12.7995C14.983 12.7249 14.9105 12.624 14.8713 12.5091C14.8321 12.3943 14.8278 12.2706 14.859 12.1534C14.9453 11.6326 15.1224 10.9861 15.2814 10.3575C14.5898 9.42721 14.2188 8.30191 14.2231 7.14745C14.2231 6.06394 14.5482 5.00478 15.1573 4.10395C15.7664 3.20311 16.6321 2.50107 17.6449 2.08664C18.6577 1.67221 19.7721 1.564 20.8472 1.77571C21.9222 1.98742 22.9096 2.50953 23.6844 3.27599C24.4592 4.04246 24.9866 5.01884 25.1999 6.08163C25.4132 7.14442 25.3028 8.24587 24.8827 9.24664C24.4626 10.2474 23.7516 11.1025 22.8398 11.7039C21.9279 12.3052 20.8561 12.6256 19.7599 12.6248V12.6293ZM21.0181 19.3637L18.8288 17.5678C17.5525 16.5262 16.5214 16.5666 15.1043 17.2311C14.4139 17.5499 13.7416 17.909 13.0558 18.1919C12.7359 18.2048 12.4181 18.1352 12.1337 17.9898C11.4562 17.681 10.8406 17.2536 10.3169 16.7283C9.776 16.219 9.3247 15.6242 8.98152 14.9683C8.83317 14.7037 8.7492 14.4086 8.73625 14.1063C9.05874 13.406 9.4857 12.7235 9.84906 12.0636C10.6394 10.7167 10.7575 9.70203 9.80818 8.35964L8.16849 6.05647C7.07839 4.52103 5.25247 4.07207 3.69453 5.27977C-0.802139 8.70534 -1.03833 13.5496 2.14114 17.936C3.10981 19.1503 4.17286 20.2882 5.3206 21.3391C6.3562 22.3807 7.46901 23.4806 8.60453 24.4234C12.7787 27.8849 17.6887 28.0151 21.4677 23.8577C22.7804 22.3986 22.4988 20.5758 21.0181 19.3726V19.3637ZM20.0052 22.5692C16.6667 26.2148 12.8786 25.474 9.81727 22.9508C8.58182 21.9093 4.64837 18.1066 3.71724 16.8046C1.40532 13.6125 0.942023 9.80529 4.86639 6.76583C5.57496 6.22708 6.14272 6.52788 6.58784 7.12949L8.21391 9.45959C8.71808 10.16 8.57728 10.4204 8.17303 11.1207C7.76878 11.8211 7.30095 12.6023 6.97846 13.3027C5.74301 15.965 11.1345 21.0922 13.7916 19.9877C14.482 19.7094 15.2496 19.3098 15.9173 19.009C16.6667 18.6678 16.9302 18.56 17.5979 19.0853L19.7872 20.8811C20.3731 21.3346 20.6138 21.9182 20.0052 22.5782V22.5692ZM20.255 9.94896C20.3515 10.0424 20.4278 10.1543 20.4794 10.2778C20.5309 10.4012 20.5565 10.5337 20.5548 10.6673C20.5623 10.8052 20.5375 10.943 20.4824 11.0699C20.4272 11.1969 20.3432 11.3095 20.2368 11.3991C20.0512 11.5708 19.8052 11.6643 19.551 11.6595C19.2901 11.6636 19.0372 11.5707 18.8424 11.3991C18.7376 11.3082 18.6547 11.1954 18.5997 11.0688C18.5446 10.9421 18.519 10.805 18.5245 10.6673C18.5199 10.5334 18.5443 10.4 18.596 10.2762C18.6477 10.1523 18.7255 10.0408 18.8242 9.94896C18.9206 9.85722 19.0345 9.78536 19.1593 9.73757C19.2841 9.68978 19.4172 9.66702 19.551 9.6706C19.6817 9.66994 19.8113 9.695 19.9322 9.74433C20.0531 9.79366 20.1628 9.86628 20.255 9.95794V9.94896ZM22.2126 4.11248C22.4249 4.41575 22.5515 4.76948 22.5795 5.13722C22.6074 5.50496 22.5357 5.87342 22.3716 6.20463C22.2413 6.44409 22.0743 6.66217 21.8765 6.85113C21.5586 7.1654 21.2406 7.44376 20.9272 7.72212C20.8217 7.81519 20.7216 7.91412 20.6274 8.01843C20.5648 8.07812 20.5153 8.14995 20.4821 8.22944C20.4528 8.28507 20.4299 8.34382 20.414 8.40454C20.3776 8.52576 20.3413 8.64697 20.3095 8.76819C20.3026 8.8691 20.2756 8.96766 20.23 9.05822C20.1844 9.14877 20.1212 9.22954 20.044 9.29587C19.9667 9.3622 19.877 9.4128 19.7799 9.44475C19.6829 9.4767 19.5803 9.48937 19.4783 9.48204C19.3683 9.48597 19.2586 9.46814 19.1556 9.42959C19.0526 9.39104 18.9585 9.33255 18.8787 9.25756C18.7922 9.16688 18.7256 9.05937 18.6834 8.94188C18.6412 8.82438 18.6242 8.69949 18.6335 8.57514C18.6214 8.27682 18.6757 7.97951 18.7924 7.70416C18.8808 7.46481 19.0184 7.24619 19.1967 7.06214C19.4023 6.84582 19.6223 6.64333 19.8553 6.45605C20.035 6.30836 20.2064 6.15098 20.3685 5.98464C20.4634 5.89052 20.5458 5.78492 20.6138 5.67037C20.6656 5.56733 20.6906 5.45313 20.6865 5.33814C20.6855 5.10258 20.5909 4.87684 20.423 4.70959C20.2136 4.52934 19.9419 4.43605 19.6645 4.4492C19.524 4.43882 19.3828 4.45653 19.2494 4.50127C19.1159 4.54601 18.993 4.61686 18.8878 4.70959C18.6852 4.95925 18.5311 5.24392 18.4336 5.54915C18.4026 5.75877 18.2976 5.9508 18.1372 6.09129C17.9768 6.23178 17.7713 6.31169 17.557 6.31687C17.4346 6.31641 17.3136 6.29151 17.2012 6.24368C17.0888 6.19585 16.9874 6.12606 16.9029 6.03852C16.8186 5.95842 16.7518 5.86215 16.7065 5.75561C16.6612 5.64907 16.6384 5.53451 16.6395 5.41895C16.653 5.00831 16.7802 4.6092 17.0074 4.26512C17.2763 3.86956 17.6398 3.54571 18.0657 3.32231C18.5582 3.05715 19.113 2.92549 19.6736 2.94069C20.1969 2.92947 20.7159 3.03698 21.1907 3.25496C21.609 3.44633 21.9635 3.75157 22.2126 4.13492V4.11248Z" fill="#62748E" stroke="white" stroke-width="0.2" mask="url(#path-1-inside-1_1_2748)"/>
</svg>
