<svg width="49" height="44" viewBox="0 0 49 44" fill="none" xmlns="http://www.w3.org/2000/svg">
<path fill-rule="evenodd" clip-rule="evenodd" d="M43.125 5.625H36.6281L33.4336 0.834375C33.086 0.313409 32.5013 0.000376225 31.875 0H16.875C16.2487 0.000376225 15.664 0.313409 15.3164 0.834375L12.1195 5.625H5.625C2.5184 5.625 0 8.1434 0 11.25V37.5C0 40.6066 2.5184 43.125 5.625 43.125H43.125C46.2316 43.125 48.75 40.6066 48.75 37.5V11.25C48.75 8.1434 46.2316 5.625 43.125 5.625ZM32.8125 23.4375C32.8125 28.0974 29.0349 31.875 24.375 31.875C19.7151 31.875 15.9375 28.0974 15.9375 23.4375C15.9375 18.7776 19.7151 15 24.375 15C29.0349 15 32.8125 18.7776 32.8125 23.4375Z" fill="white"/>
</svg>
