<svg width="64" height="64" viewBox="0 0 64 64" fill="none" xmlns="http://www.w3.org/2000/svg">
<path d="M0 32C0 14.3269 14.3269 0 32 0C49.6731 0 64 14.3269 64 32C64 49.6731 49.6731 64 32 64C14.3269 64 0 49.6731 0 32Z" fill="#D32F2F" fill-opacity="0.2"/>
<path d="M34.663 21.3333C35.144 21.3333 35.6161 21.4634 36.0293 21.7099C36.4424 21.9564 36.7812 22.31 37.0097 22.7333L37.6577 23.9333C37.8862 24.3567 38.2249 24.7103 38.638 24.9567C39.0512 25.2032 39.5233 25.3333 40.0043 25.3333H42.667C43.3742 25.3333 44.0525 25.6143 44.5526 26.1144C45.0527 26.6145 45.3337 27.2928 45.3337 28V40C45.3337 40.7072 45.0527 41.3855 44.5526 41.8856C44.0525 42.3857 43.3742 42.6667 42.667 42.6667H21.3337C20.6264 42.6667 19.9481 42.3857 19.448 41.8856C18.9479 41.3855 18.667 40.7072 18.667 40V28C18.667 27.2928 18.9479 26.6145 19.448 26.1144C19.9481 25.6143 20.6264 25.3333 21.3337 25.3333H23.9963C24.4769 25.3334 24.9485 25.2035 25.3614 24.9576C25.7742 24.7116 26.1129 24.3586 26.3417 23.936L26.9937 22.7307C27.2224 22.308 27.5611 21.9551 27.974 21.7091C28.3868 21.4631 28.8584 21.3333 29.339 21.3333H34.663Z" stroke="url(#paint0_linear_1_1924)" stroke-width="2.66667" stroke-linecap="round" stroke-linejoin="round"/>
<path d="M32 37.3333C34.2091 37.3333 36 35.5425 36 33.3333C36 31.1242 34.2091 29.3333 32 29.3333C29.7909 29.3333 28 31.1242 28 33.3333C28 35.5425 29.7909 37.3333 32 37.3333Z" stroke="url(#paint1_linear_1_1924)" stroke-width="2.66667" stroke-linecap="round" stroke-linejoin="round"/>
<defs>
<linearGradient id="paint0_linear_1_1924" x1="31.9986" y1="24.4723" x2="31.9986" y2="42.1026" gradientUnits="userSpaceOnUse">
<stop stop-color="#FF1A00"/>
<stop offset="1" stop-color="#8F0000"/>
</linearGradient>
<linearGradient id="paint1_linear_1_1924" x1="31.9995" y1="30.5104" x2="31.9995" y2="37.1218" gradientUnits="userSpaceOnUse">
<stop stop-color="#FF1A00"/>
<stop offset="1" stop-color="#8F0000"/>
</linearGradient>
</defs>
</svg>
