<svg width="41" height="34" viewBox="0 0 41 34" fill="none" xmlns="http://www.w3.org/2000/svg">
<path d="M25.7111 26.7877C34.611 19.9141 37.3428 11.5151 37.3832 11.3851C37.2544 11.4343 28.9981 14.6586 22.625 23.8936C25.3562 10.1248 20.5 0 20.5 0C20.5 0 15.6438 10.1248 18.375 23.8936C12.0019 14.6586 3.74506 11.4343 3.61679 11.3851C3.65837 11.5162 6.38956 19.9141 15.2889 26.7877C6.49909 25.0819 0 27.5323 0 27.5323C0 27.5323 5.61641 30.8578 14.152 30.876C11.1795 32.2411 9.594 33.9943 9.594 33.9943C9.594 33.9943 14.4906 34.287 19.3895 30.6699L19.3543 30.5751C19.3772 30.5839 19.4 30.5921 19.4246 30.6003C19.4246 30.6231 19.4246 30.6465 19.4235 30.6694H19.7813V33.9791H21.2187V30.6694H21.5765C21.5754 30.6465 21.5754 30.6231 21.5754 30.6003C21.5994 30.5915 21.6222 30.5833 21.6457 30.5751L21.6105 30.6699C26.5088 34.287 31.406 33.9943 31.406 33.9943C31.406 33.9943 29.8205 32.2417 26.848 30.876C35.3836 30.8578 41 27.5323 41 27.5323C41 27.5323 34.5003 25.0819 25.7111 26.7877Z" fill="#AFAFAF"/>
</svg>
