<svg width="28" height="28" viewBox="0 0 28 28" fill="none" xmlns="http://www.w3.org/2000/svg">
<path d="M10.5996 0.0498047H24.5107C26.3488 0.0520994 27.851 1.51363 27.9453 3.35352L27.9502 3.5332V12.8691C27.9479 14.7924 26.4082 16.3492 24.5107 16.3516H20.8389V21.375C20.8365 23.2982 19.2978 24.855 17.4004 24.8574H8.91992V27.0449C8.91992 27.365 8.75274 27.6581 8.48828 27.8203L8.36914 27.8818C8.03544 28.0208 7.6512 27.9435 7.39551 27.6846L4.61816 24.8721L4.60352 24.8574H3.48926C1.59194 24.8551 0.0522758 23.2982 0.0498047 21.375V12.0381C0.052277 10.115 1.59185 8.55807 3.48926 8.55566H7.16113V3.5332C7.16346 1.60997 8.70217 0.0522147 10.5996 0.0498047ZM3.32031 10.375C2.48735 10.4615 1.83812 11.1731 1.83691 12.0381V21.375C1.83815 22.296 2.57417 23.042 3.48438 23.0459V23.0469C3.62333 23.0604 3.80634 23.0551 4.00391 23.0479C4.20269 23.0406 4.41848 23.0303 4.62891 23.0332C4.83972 23.0361 5.04253 23.0524 5.21387 23.0947C5.38527 23.1371 5.51941 23.2044 5.60156 23.3066V23.3076L5.60547 23.3115L7.04785 24.7734L7.13281 24.8594V23.9521C7.13281 23.7123 7.2281 23.4812 7.39551 23.3115C7.563 23.1419 7.78993 23.0469 8.02637 23.0469H17.4004C18.3117 23.0456 19.0505 22.2977 19.0518 21.375V12.0381C19.0505 11.1155 18.3116 10.3674 17.4004 10.3662H3.48926L3.32031 10.375ZM6.44531 15.8008C6.92526 15.8185 7.30644 16.2184 7.30664 16.7061C7.30664 17.1939 6.92537 17.5936 6.44531 17.6113C5.96556 17.5933 5.58398 17.1937 5.58398 16.7061C5.58419 16.2186 5.96567 15.8188 6.44531 15.8008ZM10.4443 15.8008C10.9245 15.8182 11.3055 16.2181 11.3057 16.7061C11.3057 17.1942 10.9246 17.5939 10.4443 17.6113C9.96371 17.593 9.58398 17.1935 9.58398 16.7061C9.58419 16.2187 9.96383 15.8191 10.4443 15.8008ZM14.4434 15.8008C14.9233 15.8185 15.3045 16.2184 15.3047 16.7061C15.3047 17.1939 14.9234 17.5936 14.4434 17.6113C13.9636 17.5933 13.582 17.1937 13.582 16.7061C13.5822 16.2186 13.9637 15.8188 14.4434 15.8008ZM10.5996 1.86133C9.6884 1.86256 8.94966 2.61094 8.94824 3.53223V8.55566H17.4004C19.2977 8.55802 20.8363 10.1149 20.8389 12.0381V14.541H24.5127V14.54C25.4244 14.538 26.1619 13.7913 26.1631 12.8691V3.53223C26.1617 2.61092 25.4231 1.86256 24.5107 1.86133H10.5996Z" fill="#62748E" stroke="white" stroke-width="0.1"/>
</svg>
