<svg width="23" height="23" viewBox="0 0 23 23" fill="none" xmlns="http://www.w3.org/2000/svg">
    <path
        d="M12.6037 21.4791L13.2492 21.8612V21.8612L12.6037 21.4791ZM13.1834 20.4999L12.5379 20.1179V20.1179L13.1834 20.4999ZM9.70042 20.4999L9.055 20.8819H9.055L9.70042 20.4999ZM10.28 21.4791L10.9254 21.0971V21.0971L10.28 21.4791ZM1.15694 15.6261L1.84985 15.3391L1.84985 15.3391L1.15694 15.6261ZM6.94016 18.9171L6.92724 19.667V19.667L6.94016 18.9171ZM4.05015 18.5193L3.76313 19.2122L3.76313 19.2122L4.05015 18.5193ZM21.7269 15.6261L22.4198 15.9131V15.9131L21.7269 15.6261ZM15.9436 18.9171L15.9307 18.1672V18.1672L15.9436 18.9171ZM18.8337 18.5193L19.1207 19.2122H19.1207L18.8337 18.5193ZM19.5811 1.53778L19.1892 2.17726V2.17726L19.5811 1.53778ZM21.346 3.3027L21.9855 2.91083V2.91083L21.346 3.3027ZM3.3027 1.53778L2.91083 0.898299V0.898299L3.3027 1.53778ZM1.53778 3.3027L0.898299 2.91083H0.898299L1.53778 3.3027ZM8.665 19.1506L9.04207 18.5023L9.04207 18.5023L8.665 19.1506ZM12.6037 21.4791L13.2492 21.8612L13.8288 20.8819L13.1834 20.4999L12.5379 20.1179L11.9583 21.0971L12.6037 21.4791ZM9.70042 20.4999L9.055 20.8819L9.63461 21.8612L10.28 21.4791L10.9254 21.0971L10.3458 20.1179L9.70042 20.4999ZM12.6037 21.4791L11.9583 21.0971C11.7321 21.4793 11.1516 21.4793 10.9254 21.0971L10.28 21.4791L9.63461 21.8612C10.4416 23.2246 12.4422 23.2246 13.2492 21.8612L12.6037 21.4791ZM9.83812 0.75V1.5H13.0457V0.75V0H9.83812V0.75ZM22.1338 9.83812H21.3838V10.9073H22.1338H22.8838V9.83812H22.1338ZM0.75 10.9073H1.5V9.83812H0.75H0V10.9073H0.75ZM0.75 10.9073H0C0 12.1425 -0.000406146 13.1065 0.0526067 13.8834C0.106079 14.6671 0.216396 15.3153 0.464027 15.9131L1.15694 15.6261L1.84985 15.3391C1.69054 14.9545 1.59739 14.4887 1.54913 13.7813C1.50041 13.0672 1.5 12.163 1.5 10.9073H0.75ZM6.94016 18.9171L6.95308 18.1672C5.61079 18.1441 4.89848 18.0589 4.33716 17.8264L4.05015 18.5193L3.76313 19.2122C4.61379 19.5646 5.5851 19.6439 6.92724 19.667L6.94016 18.9171ZM1.15694 15.6261L0.464027 15.9131C1.08273 17.4068 2.26945 18.5935 3.76313 19.2122L4.05015 18.5193L4.33716 17.8264C3.21102 17.3599 2.31631 16.4652 1.84985 15.3391L1.15694 15.6261ZM22.1338 10.9073H21.3838C21.3838 12.163 21.3834 13.0672 21.3347 13.7813C21.2864 14.4887 21.1933 14.9545 21.034 15.3391L21.7269 15.6261L22.4198 15.9131C22.6674 15.3153 22.7777 14.6671 22.8312 13.8834C22.8842 13.1065 22.8838 12.1425 22.8838 10.9073H22.1338ZM15.9436 18.9171L15.9565 19.667C17.2987 19.6439 18.27 19.5646 19.1207 19.2122L18.8337 18.5193L18.5467 17.8264C17.9853 18.0589 17.273 18.1441 15.9307 18.1672L15.9436 18.9171ZM21.7269 15.6261L21.034 15.3391C20.5675 16.4652 19.6728 17.3599 18.5467 17.8264L18.8337 18.5193L19.1207 19.2122C20.6144 18.5935 21.8011 17.4068 22.4198 15.9131L21.7269 15.6261ZM13.0457 0.75V1.5C14.8102 1.5 16.0809 1.50079 17.0728 1.59511C18.0536 1.68836 18.6841 1.86772 19.1892 2.17726L19.5811 1.53778L19.973 0.898299C19.1926 0.420059 18.3054 0.205532 17.2148 0.10184C16.1354 -0.000791252 14.7811 0 13.0457 0V0.75ZM22.1338 9.83812H22.8838C22.8838 8.10268 22.8846 6.74844 22.782 5.66903C22.6783 4.57845 22.4638 3.69124 21.9855 2.91083L21.346 3.3027L20.7066 3.69457C21.0161 4.1997 21.1955 4.83023 21.2887 5.81101C21.383 6.80294 21.3838 8.07364 21.3838 9.83812H22.1338ZM19.5811 1.53778L19.1892 2.17726C19.8077 2.55622 20.3276 3.07616 20.7066 3.69457L21.346 3.3027L21.9855 2.91083C21.4829 2.09058 20.7932 1.40095 19.973 0.898299L19.5811 1.53778ZM9.83812 0.75V0C8.10268 0 6.74844 -0.000791252 5.66903 0.10184C4.57846 0.205532 3.69124 0.420059 2.91083 0.898299L3.3027 1.53778L3.69457 2.17726C4.1997 1.86772 4.83023 1.68836 5.81101 1.59511C6.80294 1.50079 8.07364 1.5 9.83812 1.5V0.75ZM0.75 9.83812H1.5C1.5 8.07364 1.50079 6.80294 1.59511 5.81101C1.68836 4.83023 1.86772 4.1997 2.17726 3.69457L1.53778 3.3027L0.898299 2.91083C0.420059 3.69124 0.205532 4.57845 0.10184 5.66903C-0.000791252 6.74844 0 8.10268 0 9.83812H0.75ZM3.3027 1.53778L2.91083 0.898299C2.09058 1.40094 1.40095 2.09058 0.898299 2.91083L1.53778 3.3027L2.17726 3.69457C2.55622 3.07616 3.07616 2.55622 3.69457 2.17726L3.3027 1.53778ZM9.70042 20.4999L10.3458 20.1179C10.1283 19.7503 9.93911 19.4292 9.75562 19.1774C9.5629 18.913 9.34404 18.6779 9.04207 18.5023L8.665 19.1506L8.28792 19.7989C8.34701 19.8333 8.42108 19.8931 8.54341 20.0609C8.67497 20.2414 8.82301 20.49 9.055 20.8819L9.70042 20.4999ZM6.94016 18.9171L6.92724 19.667C7.39576 19.6751 7.69594 19.681 7.92558 19.7064C8.14131 19.7303 8.2313 19.766 8.28793 19.7989L8.665 19.1506L9.04207 18.5023C8.73762 18.3252 8.41979 18.252 8.09067 18.2155C7.77545 18.1806 7.39375 18.1748 6.95308 18.1672L6.94016 18.9171ZM13.1834 20.4999L13.8288 20.8819C14.0608 20.49 14.2088 20.2414 14.3404 20.0609C14.4627 19.8931 14.5368 19.8333 14.5958 19.7989L14.2188 19.1506L13.8417 18.5023C13.5397 18.6779 13.3209 18.913 13.1282 19.1774C12.9447 19.4292 12.7555 19.7503 12.5379 20.1179L13.1834 20.4999ZM15.9436 18.9171L15.9307 18.1672C15.49 18.1748 15.1083 18.1806 14.7931 18.2155C14.464 18.252 14.1461 18.3252 13.8417 18.5023L14.2188 19.1506L14.5958 19.7989C14.6525 19.766 14.7425 19.7303 14.9582 19.7064C15.1878 19.681 15.488 19.6751 15.9565 19.667L15.9436 18.9171Z"
        fill="#ffffff" />
</svg>
    