<svg width="26" height="26" viewBox="0 0 26 26" fill="none" xmlns="http://www.w3.org/2000/svg">
<path opacity="0.9" fill-rule="evenodd" clip-rule="evenodd" d="M22.191 3.80748C17.1148 -1.26916 8.88336 -1.26916 3.80716 3.80748C-1.26905 8.88413 -1.26905 17.1163 3.80716 22.1929C6.14176 24.5289 9.43905 26.0218 13.0059 25.9998H24.0033C24.5928 25.9998 24.9277 25.3289 24.5754 24.8568L22.7012 22.3534C22.5361 22.1418 22.5407 21.836 22.7244 21.6267C27.281 16.4872 27.0658 8.68309 22.1908 3.80766L22.191 3.80748ZM12.9991 11.2142C13.985 11.2142 14.7849 12.0142 14.7849 13.0002C14.7849 13.9862 13.985 14.7862 12.9991 14.7862C12.0132 14.7862 11.2144 13.9862 11.2144 13.0002C11.2144 12.0142 12.0132 11.2142 12.9991 11.2142ZM19.3739 11.2142C20.3598 11.2142 21.1597 12.0142 21.1597 13.0002C21.1597 13.9862 20.3598 14.7862 19.3739 14.7862C18.388 14.7862 17.5892 13.9862 17.5892 13.0002C17.5881 12.0142 18.388 11.2142 19.3739 11.2142ZM6.62429 11.2142C7.61022 11.2142 8.40896 12.0142 8.40896 13.0002C8.40896 13.9862 7.60906 14.7862 6.62429 14.7862C5.63837 14.7862 4.83847 13.9862 4.83847 13.0002C4.83963 12.0142 5.63837 11.2142 6.62429 11.2142Z" fill="url(#paint0_linear_61_539)"/>
<defs>
<linearGradient id="paint0_linear_61_539" x1="13" y1="-5.98" x2="13" y2="47.84" gradientUnits="userSpaceOnUse">
<stop stop-color="#370ADD"/>
<stop offset="1" stop-color="#D40438"/>
</linearGradient>
</defs>
</svg>
