<svg width="15" height="15" viewBox="0 0 15 15" fill="none" xmlns="http://www.w3.org/2000/svg">
<path d="M1.32691 10.2242C1.4249 10.4714 1.44672 10.7422 1.38955 11.0019L0.679805 13.1945C0.656936 13.3056 0.662849 13.4208 0.696982 13.5291C0.731116 13.6374 0.79234 13.7351 0.874847 13.8131C0.957354 13.8911 1.05841 13.9467 1.16843 13.9746C1.27845 14.0026 1.39379 14.002 1.50351 13.9728L3.77804 13.3077C4.02309 13.2591 4.27688 13.2804 4.51044 13.3691C5.93353 14.0336 7.54561 14.1742 9.06226 13.7661C10.5789 13.3579 11.9027 12.4272 12.8 11.1381C13.6973 9.84903 14.1104 8.28447 13.9666 6.72045C13.8228 5.15644 13.1312 3.69348 12.0138 2.58969C10.8965 1.4859 9.42517 0.812213 7.85951 0.687496C6.29385 0.562779 4.73445 0.995043 3.45645 1.90802C2.17844 2.821 1.26395 4.15603 0.874331 5.67755C0.484711 7.19907 0.644997 8.80932 1.32691 10.2242Z" stroke="#6B6B6B" stroke-width="1.33286" stroke-linecap="round" stroke-linejoin="round"/>
</svg>
