<svg width="51" height="49" viewBox="0 0 51 49" fill="none" xmlns="http://www.w3.org/2000/svg">
<path d="M40.5283 15.0363C41.2363 15.0363 41.8102 15.6177 41.8102 16.3351C41.8102 17.0524 41.2363 17.6338 40.5283 17.6338H10.4716C9.76354 17.6338 9.18967 17.0524 9.18967 16.3351C9.18967 15.6177 9.76357 15.0363 10.4716 15.0363H40.5283ZM30.824 22.3908C31.5321 22.3908 32.1059 22.9722 32.1059 23.6896C32.1059 24.4069 31.532 24.9883 30.824 24.9883H10.4716C9.76354 24.9883 9.18967 24.4069 9.18967 23.6896C9.18967 22.9722 9.76357 22.3908 10.4716 22.3908H30.824ZM45.1966 0H5.7912C2.58876 0 0 2.63271 0 5.8796V34.1449C0 37.3817 2.58132 40.022 5.77378 40.0245H14.2429C16.3472 42.1563 21.3904 47.2656 21.4006 47.2759C22.5335 48.4236 24.0241 49 25.5123 49C26.9855 49 28.4613 48.4337 29.5842 47.2986L36.7642 40.0246H45.1964C48.4013 40.0246 51 37.3919 51 34.145V5.87973C51 2.63033 48.4015 0 45.1966 0Z" fill="#D40438"/>
</svg>
