<svg width="25" height="25" viewBox="0 0 25 25" fill="none" xmlns="http://www.w3.org/2000/svg">
<path d="M13.65 23.196L14.4245 23.6544V23.6544L13.65 23.196ZM14.2735 22.1427L13.499 21.6843V21.6843L14.2735 22.1427ZM10.5273 22.1427L9.75278 22.6011H9.75278L10.5273 22.1427ZM11.1507 23.196L11.9252 22.7375V22.7375L11.1507 23.196ZM1.33808 16.9005L2.16958 16.5561V16.5561L1.33808 16.9005ZM7.55841 20.4403L7.5429 21.3401V21.3401L7.55841 20.4403ZM4.44996 20.0124L4.10554 20.8439H4.10555L4.44996 20.0124ZM23.4627 16.9005L24.2942 17.2449V17.2449L23.4627 16.9005ZM17.2423 20.4403L17.2268 19.5404V19.5404L17.2423 20.4403ZM20.3508 20.0124L20.6952 20.8439H20.6952L20.3508 20.0124ZM21.1548 1.74735L20.6845 2.51472V2.51472L21.1548 1.74735ZM23.0531 3.64567L23.8204 3.17542V3.17542L23.0531 3.64567ZM3.64602 1.74735L3.17577 0.979972V0.979972L3.64602 1.74735ZM1.74771 3.64567L0.980333 3.17542H0.980333L1.74771 3.64567ZM9.4136 20.6914L9.86609 19.9134L9.86609 19.9134L9.4136 20.6914ZM13.65 23.196L14.4245 23.6544L15.048 22.6011L14.2735 22.1427L13.499 21.6843L12.8755 22.7375L13.65 23.196ZM10.5273 22.1427L9.75278 22.6011L10.3762 23.6544L11.1507 23.196L11.9252 22.7375L11.3018 21.6843L10.5273 22.1427ZM13.65 23.196L12.8755 22.7375C12.6684 23.0875 12.1323 23.0875 11.9252 22.7375L11.1507 23.196L10.3762 23.6544C11.2803 25.1819 13.5204 25.1819 14.4245 23.6544L13.65 23.196ZM10.6754 0.900024V1.80002H14.1254V0.900024V2.44379e-05H10.6754V0.900024ZM23.9004 10.6751H23.0004V11.8251H23.9004H24.8004V10.6751H23.9004ZM0.900391 11.8251H1.80039V10.6751H0.900391H0.000390649V11.8251H0.900391ZM0.900391 11.8251H0.000390649C0.000390649 13.1523 -9.67383e-05 14.1929 0.0571898 15.0325C0.115028 15.8802 0.23475 16.5887 0.506591 17.2449L1.33808 16.9005L2.16958 16.5561C2.00372 16.1557 1.9046 15.666 1.85301 14.91C1.80088 14.1458 1.80039 13.177 1.80039 11.8251H0.900391ZM7.55841 20.4403L7.57391 19.5404C6.13015 19.5155 5.38013 19.4235 4.79438 19.1809L4.44996 20.0124L4.10555 20.8439C5.0385 21.2303 6.09933 21.3153 7.5429 21.3401L7.55841 20.4403ZM1.33808 16.9005L0.506591 17.2449C1.18153 18.8744 2.47611 20.169 4.10554 20.8439L4.44996 20.0124L4.79438 19.1809C3.60599 18.6887 2.66182 17.7445 2.16958 16.5561L1.33808 16.9005ZM23.9004 11.8251H23.0004C23.0004 13.177 22.9999 14.1458 22.9478 14.91C22.8962 15.666 22.7971 16.1557 22.6312 16.5561L23.4627 16.9005L24.2942 17.2449C24.566 16.5887 24.6858 15.8802 24.7436 15.0325C24.8009 14.1929 24.8004 13.1523 24.8004 11.8251H23.9004ZM17.2423 20.4403L17.2578 21.3401C18.7014 21.3153 19.7623 21.2303 20.6952 20.8439L20.3508 20.0124L20.0064 19.1809C19.4207 19.4235 18.6706 19.5155 17.2268 19.5404L17.2423 20.4403ZM23.4627 16.9005L22.6312 16.5561C22.139 17.7445 21.1948 18.6887 20.0064 19.1809L20.3508 20.0124L20.6952 20.8439C22.3247 20.169 23.6193 18.8744 24.2942 17.2449L23.4627 16.9005ZM14.1254 0.900024V1.80002C16.025 1.80002 17.3866 1.80097 18.448 1.9019C19.4961 2.00155 20.1583 2.19228 20.6845 2.51472L21.1548 1.74735L21.625 0.979972C20.7685 0.455089 19.7982 0.22216 18.6184 0.109981C17.452 -0.000925124 15.9902 2.44379e-05 14.1254 2.44379e-05V0.900024ZM23.9004 10.6751H24.8004C24.8004 8.81026 24.8013 7.34846 24.6904 6.18202C24.5783 5.00219 24.3453 4.03195 23.8204 3.17542L23.0531 3.64567L22.2857 4.11592C22.6081 4.64209 22.7989 5.30432 22.8985 6.3524C22.9994 7.41387 23.0004 8.77541 23.0004 10.6751H23.9004ZM21.1548 1.74735L20.6845 2.51472C21.3371 2.91463 21.8858 3.46332 22.2857 4.11592L23.0531 3.64567L23.8204 3.17542C23.2721 2.28063 22.5198 1.52831 21.625 0.979972L21.1548 1.74735ZM10.6754 0.900024V2.44379e-05C8.8106 2.44379e-05 7.3488 -0.000925124 6.18236 0.109981C5.00254 0.22216 4.0323 0.455089 3.17577 0.979972L3.64602 1.74735L4.11627 2.51472C4.64245 2.19228 5.30467 2.00155 6.35274 1.9019C7.4142 1.80097 8.77574 1.80002 10.6754 1.80002V0.900024ZM0.900391 10.6751H1.80039C1.80039 8.77541 1.80134 7.41387 1.90226 6.3524C2.00192 5.30432 2.19265 4.64209 2.51509 4.11592L1.74771 3.64567L0.980333 3.17542C0.455453 4.03195 0.222525 5.00219 0.110346 6.18202C-0.000558853 7.34846 0.000390649 8.81026 0.000390649 10.6751H0.900391ZM3.64602 1.74735L3.17577 0.979972C2.28098 1.5283 1.52866 2.28062 0.980333 3.17542L1.74771 3.64567L2.51509 4.11592C2.915 3.46332 3.46368 2.91463 4.11627 2.51472L3.64602 1.74735ZM10.5273 22.1427L11.3018 21.6843C11.0686 21.2904 10.8627 20.9406 10.6621 20.6653C10.4504 20.3749 10.206 20.1111 9.86609 19.9134L9.4136 20.6914L8.96111 21.4694C9.00956 21.4976 9.08022 21.551 9.20742 21.7255C9.34568 21.9152 9.50236 22.1781 9.75278 22.6011L10.5273 22.1427ZM7.55841 20.4403L7.5429 21.3401C8.04856 21.3489 8.36635 21.3552 8.60803 21.382C8.83301 21.4069 8.91563 21.443 8.96111 21.4694L9.4136 20.6914L9.86609 19.9134C9.52322 19.714 9.16719 19.6329 8.80614 19.5929C8.46177 19.5548 8.04615 19.5485 7.57391 19.5404L7.55841 20.4403ZM14.2735 22.1427L15.048 22.6011C15.2984 22.1781 15.455 21.9152 15.5933 21.7255C15.7205 21.551 15.7912 21.4976 15.8396 21.4694L15.3871 20.6914L14.9346 19.9134C14.5947 20.1111 14.3503 20.3749 14.1387 20.6653C13.9381 20.9406 13.7321 21.2904 13.499 21.6843L14.2735 22.1427ZM17.2423 20.4403L17.2268 19.5404C16.7546 19.5485 16.339 19.5548 15.9946 19.5929C15.6335 19.6329 15.2775 19.714 14.9346 19.9134L15.3871 20.6914L15.8396 21.4694C15.8851 21.443 15.9677 21.4069 16.1927 21.382C16.4344 21.3552 16.7522 21.3489 17.2578 21.3401L17.2423 20.4403Z" fill="#0B0C0C"/>
</svg>
