<svg width="283" height="136" viewBox="0 0 283 136" fill="none" xmlns="http://www.w3.org/2000/svg">
<path d="M275.013 101.544C275.041 101.391 275.123 101.253 275.242 101.154C275.362 101.054 275.513 101 275.668 101C275.824 101 275.975 101.054 276.094 101.154C276.214 101.253 276.295 101.391 276.324 101.544L277.024 105.25C277.074 105.513 277.202 105.755 277.392 105.945C277.581 106.134 277.823 106.262 278.087 106.312L281.792 107.013C281.945 107.041 282.083 107.123 282.183 107.242C282.282 107.362 282.337 107.513 282.337 107.668C282.337 107.824 282.282 107.975 282.183 108.094C282.083 108.214 281.945 108.295 281.792 108.324L278.087 109.024C277.823 109.074 277.581 109.202 277.392 109.392C277.202 109.581 277.074 109.823 277.024 110.087L276.324 113.792C276.295 113.945 276.214 114.083 276.094 114.183C275.975 114.282 275.824 114.337 275.668 114.337C275.513 114.337 275.362 114.282 275.242 114.183C275.123 114.083 275.041 113.945 275.013 113.792L274.312 110.087C274.262 109.823 274.134 109.581 273.945 109.392C273.755 109.202 273.513 109.074 273.25 109.024L269.544 108.324C269.391 108.295 269.253 108.214 269.154 108.094C269.054 107.975 269 107.824 269 107.668C269 107.513 269.054 107.362 269.154 107.242C269.253 107.123 269.391 107.041 269.544 107.013L273.25 106.312C273.513 106.262 273.755 106.134 273.945 105.945C274.134 105.755 274.262 105.513 274.312 105.25L275.013 101.544Z" stroke="#00E5FF" stroke-width="1.33333" stroke-linecap="round" stroke-linejoin="round"/>
<path d="M281.001 101.001V103.668" stroke="#00E5FF" stroke-width="1.33333" stroke-linecap="round" stroke-linejoin="round"/>
<path d="M282.335 102.335H279.668" stroke="#00E5FF" stroke-width="1.33333" stroke-linecap="round" stroke-linejoin="round"/>
<path d="M270.335 114.335C271.071 114.335 271.668 113.738 271.668 113.002C271.668 112.265 271.071 111.668 270.335 111.668C269.598 111.668 269.001 112.265 269.001 113.002C269.001 113.738 269.598 114.335 270.335 114.335Z" stroke="#00E5FF" stroke-width="1.33333" stroke-linecap="round" stroke-linejoin="round"/>
<path d="M10.0194 1.81639C10.0622 1.587 10.184 1.37981 10.3635 1.23071C10.543 1.08162 10.769 1 11.0024 1C11.2358 1 11.4618 1.08162 11.6413 1.23071C11.8208 1.37981 11.9425 1.587 11.9854 1.81639L13.0364 7.37439C13.111 7.76954 13.3031 8.13301 13.5874 8.41737C13.8718 8.70172 14.2352 8.89375 14.6304 8.96839L20.1884 10.0194C20.4178 10.0622 20.625 10.184 20.7741 10.3635C20.9232 10.543 21.0048 10.769 21.0048 11.0024C21.0048 11.2358 20.9232 11.4618 20.7741 11.6413C20.625 11.8208 20.4178 11.9425 20.1884 11.9854L14.6304 13.0364C14.2352 13.111 13.8718 13.3031 13.5874 13.5874C13.3031 13.8718 13.111 14.2352 13.0364 14.6304L11.9854 20.1884C11.9425 20.4178 11.8208 20.625 11.6413 20.7741C11.4618 20.9232 11.2358 21.0048 11.0024 21.0048C10.769 21.0048 10.543 20.9232 10.3635 20.7741C10.184 20.625 10.0622 20.4178 10.0194 20.1884L8.96839 14.6304C8.89375 14.2352 8.70172 13.8718 8.41737 13.5874C8.13301 13.3031 7.76954 13.111 7.37439 13.0364L1.81639 11.9854C1.587 11.9425 1.37981 11.8208 1.23071 11.6413C1.08162 11.4618 1 11.2358 1 11.0024C1 10.769 1.08162 10.543 1.23071 10.3635C1.37981 10.184 1.587 10.0622 1.81639 10.0194L7.37439 8.96839C7.76954 8.89375 8.13301 8.70172 8.41737 8.41737C8.70172 8.13301 8.89375 7.76954 8.96839 7.37439L10.0194 1.81639Z" stroke="#FFD700" stroke-width="2" stroke-linecap="round" stroke-linejoin="round"/>
<path d="M19.0024 1.00244V5.00244" stroke="#FFD700" stroke-width="2" stroke-linecap="round" stroke-linejoin="round"/>
<path d="M21.0024 3.00244H17.0024" stroke="#FFD700" stroke-width="2" stroke-linecap="round" stroke-linejoin="round"/>
<path d="M3.00244 21.0024C4.10701 21.0024 5.00244 20.107 5.00244 19.0024C5.00244 17.8979 4.10701 17.0024 3.00244 17.0024C1.89787 17.0024 1.00244 17.8979 1.00244 19.0024C1.00244 20.107 1.89787 21.0024 3.00244 21.0024Z" stroke="#FFD700" stroke-width="2" stroke-linecap="round" stroke-linejoin="round"/>
<g opacity="0.999426">
<path d="M77 64C77 28.6538 105.654 0 141 0C176.346 0 205 28.6538 205 64C205 99.3462 176.346 128 141 128C105.654 128 77 99.3462 77 64Z" fill="#E51F09" fill-opacity="0.2"/>
<path d="M162.333 66.6667C162.333 80 153 86.6667 141.907 90.5334C141.326 90.7302 140.695 90.7208 140.12 90.5067C129 86.6667 119.667 80 119.667 66.6667V48C119.667 47.2928 119.948 46.6145 120.448 46.1144C120.948 45.6143 121.626 45.3334 122.333 45.3334C127.667 45.3334 134.333 42.1334 138.973 38.08C139.538 37.5973 140.257 37.3322 141 37.3322C141.743 37.3322 142.462 37.5973 143.027 38.08C147.693 42.16 154.333 45.3334 159.667 45.3334C160.374 45.3334 161.052 45.6143 161.552 46.1144C162.052 46.6145 162.333 47.2928 162.333 48V66.6667Z" fill="url(#paint0_linear_7_8)" stroke="url(#paint1_linear_7_8)" stroke-width="5.33333" stroke-linecap="round" stroke-linejoin="round"/>
</g>
<path d="M165 112C165 98.7452 175.745 88 189 88C202.255 88 213 98.7452 213 112C213 125.255 202.255 136 189 136C175.745 136 165 125.255 165 112Z" fill="#00FF41"/>
<path d="M202.068 109.333C202.677 112.322 202.243 115.429 200.838 118.136C199.434 120.843 197.144 122.987 194.35 124.21C191.556 125.433 188.427 125.661 185.486 124.856C182.544 124.052 179.967 122.263 178.184 119.789C176.402 117.314 175.521 114.303 175.69 111.258C175.859 108.213 177.066 105.317 179.111 103.055C181.156 100.792 183.915 99.2992 186.928 98.8246C189.941 98.35 193.025 98.9225 195.667 100.447" fill="#00FF41"/>
<path d="M202.068 109.333C202.677 112.322 202.243 115.429 200.838 118.136C199.434 120.843 197.144 122.987 194.35 124.21C191.556 125.433 188.427 125.661 185.486 124.856C182.544 124.052 179.967 122.263 178.184 119.789C176.402 117.314 175.521 114.303 175.69 111.258C175.859 108.213 177.066 105.317 179.111 103.055C181.156 100.792 183.915 99.2992 186.928 98.8246C189.941 98.35 193.025 98.9225 195.667 100.447" stroke="white" stroke-width="2.66667" stroke-linecap="round" stroke-linejoin="round"/>
<path d="M185 110.667L189 114.667L202.333 101.333" fill="#00FF41"/>
<path d="M185 110.667L189 114.667L202.333 101.333" stroke="white" stroke-width="2.66667" stroke-linecap="round" stroke-linejoin="round"/>
<defs>
<linearGradient id="paint0_linear_7_8" x1="140.997" y1="45.1809" x2="140.997" y2="89.264" gradientUnits="userSpaceOnUse">
<stop stop-color="#FF1A00"/>
<stop offset="1" stop-color="#8F0000"/>
</linearGradient>
<linearGradient id="paint1_linear_7_8" x1="140.997" y1="45.1809" x2="140.997" y2="89.264" gradientUnits="userSpaceOnUse">
<stop stop-color="#FF1A00"/>
<stop offset="1" stop-color="#8F0000"/>
</linearGradient>
</defs>
</svg>
