<svg width="16" height="16" viewBox="0 0 16 16" fill="none" xmlns="http://www.w3.org/2000/svg">
<path d="M11.333 8H1.99967C1.82286 8 1.65329 8.07024 1.52827 8.19526C1.40325 8.32029 1.33301 8.48986 1.33301 8.66667V10C1.33301 10.1768 1.40325 10.3464 1.52827 10.4714C1.65329 10.5964 1.82286 10.6667 1.99967 10.6667H11.333" stroke="#00FF41" stroke-width="1.33333" stroke-linecap="round" stroke-linejoin="round"/>
<path d="M12.0003 5.33333C12.0003 3.66667 10.667 3.66667 10.667 2" stroke="#00FF41" stroke-width="1.33333" stroke-linecap="round" stroke-linejoin="round"/>
<path d="M14 10.6667C14.1768 10.6667 14.3464 10.5964 14.4714 10.4714C14.5964 10.3464 14.6667 10.1768 14.6667 10V8.66667C14.6667 8.48986 14.5964 8.32029 14.4714 8.19526C14.3464 8.07024 14.1768 8 14 8" stroke="#00FF41" stroke-width="1.33333" stroke-linecap="round" stroke-linejoin="round"/>
<path d="M14.6663 5.33333C14.6663 3.66667 13.333 3.66667 13.333 2" stroke="#00FF41" stroke-width="1.33333" stroke-linecap="round" stroke-linejoin="round"/>
<path d="M4.66699 8V10.6667" stroke="#00FF41" stroke-width="1.33333" stroke-linecap="round" stroke-linejoin="round"/>
</svg>
