<svg width="30" height="27" viewBox="0 0 30 27" fill="none" xmlns="http://www.w3.org/2000/svg">
<path d="M19.9997 25.3333V22.6666C19.9997 21.2521 19.4378 19.8955 18.4376 18.8954C17.4374 17.8952 16.0808 17.3333 14.6663 17.3333H6.66634C5.25185 17.3333 3.8953 17.8952 2.8951 18.8954C1.89491 19.8955 1.33301 21.2521 1.33301 22.6666V25.3333" stroke="#E040FB" stroke-width="2.66667" stroke-linecap="round" stroke-linejoin="round"/>
<path d="M20 1.50391C21.1437 1.8004 22.1565 2.46826 22.8796 3.40266C23.6026 4.33705 23.9949 5.48509 23.9949 6.66657C23.9949 7.84805 23.6026 8.99609 22.8796 9.93049C22.1565 10.8649 21.1437 11.5327 20 11.8292" stroke="#E040FB" stroke-width="2.66667" stroke-linecap="round" stroke-linejoin="round"/>
<path d="M28 25.3333V22.6666C27.9991 21.4849 27.6058 20.337 26.8818 19.403C26.1578 18.4691 25.1442 17.802 24 17.5066" stroke="#E040FB" stroke-width="2.66667" stroke-linecap="round" stroke-linejoin="round"/>
<path d="M10.6663 11.9999C13.6119 11.9999 15.9997 9.6121 15.9997 6.66659C15.9997 3.72107 13.6119 1.33325 10.6663 1.33325C7.72082 1.33325 5.33301 3.72107 5.33301 6.66659C5.33301 9.6121 7.72082 11.9999 10.6663 11.9999Z" stroke="#E040FB" stroke-width="2.66667" stroke-linecap="round" stroke-linejoin="round"/>
</svg>
