<svg width="20" height="20" viewBox="0 0 20 20" fill="none" xmlns="http://www.w3.org/2000/svg">
<path d="M3.33398 16.25V3.75002C3.33398 3.19749 3.55348 2.66758 3.94418 2.27688C4.33488 1.88618 4.86478 1.66669 5.41732 1.66669H15.834C16.055 1.66669 16.267 1.75448 16.4232 1.91076C16.5795 2.06704 16.6673 2.27901 16.6673 2.50002V17.5C16.6673 17.721 16.5795 17.933 16.4232 18.0893C16.267 18.2456 16.055 18.3334 15.834 18.3334H5.41732C4.86478 18.3334 4.33488 18.1139 3.94418 17.7232C3.55348 17.3325 3.33398 16.8026 3.33398 16.25ZM3.33398 16.25C3.33398 15.6975 3.55348 15.1676 3.94418 14.7769C4.33488 14.3862 4.86478 14.1667 5.41732 14.1667H16.6673" stroke="#00E5FF" stroke-width="1.66667" stroke-linecap="round" stroke-linejoin="round"/>
</svg>
