<svg width="48" height="48" viewBox="0 0 48 48" fill="none" xmlns="http://www.w3.org/2000/svg">
<path d="M23.1239 6.532C23.2102 6.37521 23.337 6.24447 23.4911 6.15341C23.6452 6.06235 23.8209 6.01431 23.9999 6.01431C24.1789 6.01431 24.3546 6.06235 24.5086 6.15341C24.6627 6.24447 24.7895 6.37521 24.8759 6.532L30.7799 17.74C30.9207 17.9995 31.1172 18.2247 31.3553 18.3992C31.5934 18.5738 31.8672 18.6935 32.1571 18.7497C32.4469 18.8059 32.7456 18.7973 33.0317 18.7244C33.3179 18.6514 33.5843 18.5161 33.8119 18.328L42.3659 11C42.5301 10.8664 42.7324 10.7884 42.9438 10.7772C43.1552 10.766 43.3646 10.8221 43.5421 10.9375C43.7195 11.0529 43.8557 11.2216 43.9312 11.4194C44.0066 11.6171 44.0174 11.8337 43.9619 12.038L38.2939 32.53C38.1782 32.9493 37.9289 33.3195 37.5839 33.5844C37.2389 33.8493 36.8169 33.9945 36.3819 33.998H11.6199C11.1845 33.995 10.7621 33.85 10.4167 33.585C10.0712 33.3201 9.82166 32.9497 9.70587 32.53L4.03987 12.04C3.98437 11.8357 3.99511 11.6191 4.07055 11.4214C4.14599 11.2236 4.28224 11.0549 4.45967 10.9395C4.63711 10.8241 4.84659 10.768 5.05795 10.7792C5.26932 10.7904 5.47167 10.8684 5.63587 11.002L14.1879 18.33C14.4155 18.5181 14.6819 18.6534 14.968 18.7264C15.2541 18.7993 15.5528 18.8079 15.8427 18.7517C16.1325 18.6955 16.4063 18.5758 16.6445 18.4012C16.8826 18.2267 17.0791 18.0015 17.2199 17.742L23.1239 6.532Z" fill="#FFD700" stroke="#FFD700" stroke-width="4" stroke-linecap="round" stroke-linejoin="round"/>
<path d="M10 42H38H10Z" fill="#FFD700"/>
<path d="M10 42H38" stroke="#FFD700" stroke-width="4" stroke-linecap="round" stroke-linejoin="round"/>
</svg>
