<svg width="32" height="32" viewBox="0 0 32 32" fill="none" xmlns="http://www.w3.org/2000/svg">
<path d="M5.333 18.6667C5.08068 18.6675 4.83331 18.5968 4.6196 18.4627C4.4059 18.3285 4.23464 18.1365 4.12573 17.9089C4.01682 17.6813 3.97472 17.4275 4.00433 17.1769C4.03394 16.9263 4.13404 16.6893 4.293 16.4933L17.493 2.89335C17.592 2.77906 17.7269 2.70182 17.8756 2.67432C18.0243 2.64683 18.178 2.6707 18.3113 2.74202C18.4446 2.81334 18.5498 2.92788 18.6094 3.06682C18.6691 3.20577 18.6798 3.36088 18.6397 3.50668L16.0797 11.5333C16.0042 11.7354 15.9788 11.9527 16.0058 12.1667C16.0327 12.3807 16.1112 12.5849 16.2345 12.7619C16.3577 12.9389 16.522 13.0834 16.7134 13.1829C16.9047 13.2824 17.1173 13.334 17.333 13.3333H26.6663C26.9186 13.3325 27.166 13.4032 27.3797 13.5374C27.5934 13.6715 27.7647 13.8635 27.8736 14.0911C27.9825 14.3187 28.0246 14.5726 27.995 14.8231C27.9654 15.0737 27.8653 15.3107 27.7063 15.5067L14.5063 29.1067C14.4073 29.221 14.2724 29.2982 14.1237 29.3257C13.975 29.3532 13.8214 29.3293 13.688 29.258C13.5547 29.1867 13.4496 29.0722 13.3899 28.9332C13.3302 28.7943 13.3196 28.6392 13.3597 28.4933L15.9197 20.4667C15.9952 20.2646 16.0205 20.0473 15.9935 19.8333C15.9666 19.6194 15.8881 19.4151 15.7649 19.2381C15.6416 19.0611 15.4773 18.9167 15.286 18.8171C15.0946 18.7176 14.882 18.666 14.6663 18.6667H5.333Z" stroke="#FFEA00" stroke-width="2.66667" stroke-linecap="round" stroke-linejoin="round"/>
</svg>
