<svg width="31" height="32" viewBox="0 0 31 32" fill="none" xmlns="http://www.w3.org/2000/svg">
<path d="M30.9595 12.1842C30.0423 6.53614 24.0023 -3.48865 16.3274 1.22377C16.0787 1.37594 15.7922 1.45654 15.4999 1.45654C15.2077 1.45654 14.9212 1.37594 14.6725 1.22377C6.99756 -3.48865 0.957667 6.53614 0.0403402 12.1842C-0.0790962 12.9674 0.0684351 13.7677 0.459606 14.4585C2.31283 17.8114 3.16454 21.6796 5.63721 24.4161C7.01113 28.5071 9.41393 32 15.4999 32C21.5859 32 23.9885 28.5072 25.3627 24.4161C27.8355 21.6797 28.6872 17.8114 30.5409 14.4584C30.9318 13.7675 31.0791 12.9673 30.9595 12.1842ZM14.3459 17.7661C14.2301 17.1748 14.162 16.5754 14.1423 15.9735C14.1058 14.557 14.4223 13.4918 15.0831 12.8073C15.137 12.7515 15.2016 12.7071 15.2733 12.6768C15.3449 12.6465 15.422 12.6308 15.4999 12.6308C15.5778 12.6308 15.6549 12.6465 15.7265 12.6768C15.7982 12.7071 15.8628 12.7515 15.9167 12.8073C16.5774 13.4918 16.894 14.557 16.8574 15.9735C16.8377 16.5755 16.7697 17.1749 16.6539 17.7662C16.6516 17.7792 16.6538 17.7926 16.66 17.8043C16.6663 17.8159 16.6763 17.8252 16.6884 17.8306C16.7006 17.836 16.7143 17.8372 16.7272 17.8341C16.7402 17.8309 16.7517 17.8236 16.7599 17.8132C17.0562 17.4279 17.3804 17.0646 17.7302 16.7261C18.6219 15.8734 19.4937 15.4406 20.3208 15.441C20.338 15.441 20.3555 15.441 20.3728 15.4416C20.4609 15.4438 20.5474 15.4656 20.6258 15.5055C20.7043 15.5453 20.7726 15.6021 20.8259 15.6717C20.8792 15.7412 20.916 15.8218 20.9336 15.9073C20.9511 15.9929 20.9491 16.0813 20.9275 16.1659C20.7198 16.9708 20.1378 17.781 19.1976 18.5747C18.8053 18.9027 18.3912 19.2041 17.958 19.4769C17.947 19.4839 17.9387 19.4942 17.9342 19.5064C17.9298 19.5186 17.9295 19.5318 17.9334 19.5442C17.9374 19.5565 17.9453 19.5672 17.956 19.5746C17.9667 19.5821 17.9795 19.5858 17.9926 19.5853C18.064 19.583 18.1346 19.5819 18.2045 19.5819C19.3536 19.5819 20.181 19.8828 20.664 20.4763C20.7594 20.5947 20.8058 20.7447 20.7937 20.8958C20.7815 21.0469 20.7119 21.1878 20.5987 21.2899L20.5863 21.2995C20.1848 21.5445 19.6619 21.6687 19.0349 21.6687C18.5184 21.6613 18.0044 21.5953 17.5031 21.4721C17.4916 21.4695 17.4796 21.4703 17.4686 21.4744C17.4576 21.4785 17.448 21.4858 17.4411 21.4953C17.4343 21.5047 17.4303 21.516 17.4299 21.5277C17.4294 21.5393 17.4325 21.5509 17.4386 21.5608C17.6403 21.8879 17.7117 22.2776 17.6389 22.654C17.6132 22.7865 17.5423 22.9061 17.4381 22.9929C17.3339 23.0798 17.2027 23.1285 17.0666 23.131H17.0529C16.6065 23.131 16.2454 22.8267 15.9507 22.4744C15.9434 22.4655 15.9335 22.4591 15.9224 22.456C15.9113 22.4529 15.8995 22.4532 15.8886 22.457C15.8777 22.4607 15.8682 22.4677 15.8614 22.477C15.8547 22.4863 15.851 22.4974 15.8509 22.5089C15.8421 22.9947 15.9185 23.7236 16.3851 24.1716C16.4644 24.246 16.511 24.3484 16.5145 24.4566C16.5181 24.5648 16.4784 24.6701 16.4042 24.7494C16.3306 24.8222 16.2313 24.8638 16.1273 24.8651C16.0233 24.8665 15.9229 24.8277 15.8474 24.7569C15.1971 24.147 15.0554 23.2022 15.0492 22.5617C15.0491 22.5503 15.0456 22.5392 15.039 22.5298C15.0323 22.5205 15.023 22.5134 15.0122 22.5095C15.0014 22.5056 14.9896 22.5051 14.9785 22.508C14.9674 22.5109 14.9574 22.5171 14.95 22.5258C14.6765 22.8408 14.3482 23.131 13.9461 23.131H13.9346C13.7956 23.1279 13.6621 23.0771 13.5568 22.9872C13.4514 22.8974 13.3809 22.7741 13.3572 22.6384C13.2895 22.2663 13.3621 21.8825 13.5612 21.5599C13.5673 21.55 13.5703 21.5386 13.5699 21.527C13.5694 21.5154 13.5655 21.5042 13.5587 21.4948C13.5519 21.4854 13.5424 21.4782 13.5315 21.4742C13.5206 21.4701 13.5086 21.4693 13.4972 21.4718C12.9955 21.5952 12.4812 21.6613 11.9643 21.6687C11.3372 21.6687 10.8143 21.5443 10.4128 21.2995L10.4005 21.29C10.2874 21.1879 10.2177 21.0469 10.2056 20.8957C10.1936 20.7445 10.2401 20.5945 10.3356 20.476C10.8186 19.8827 11.6461 19.5816 12.7951 19.5816C12.865 19.5816 12.9356 19.5828 13.007 19.585C13.0201 19.5855 13.0329 19.5818 13.0436 19.5744C13.0543 19.5669 13.0622 19.5562 13.0662 19.5439C13.0701 19.5316 13.0698 19.5183 13.0654 19.5061C13.0609 19.494 13.0526 19.4836 13.0416 19.4766C12.6084 19.2038 12.1943 18.9024 11.802 18.5745C10.8618 17.781 10.2798 16.9705 10.0721 16.1657C10.0505 16.081 10.0485 15.9926 10.0661 15.9071C10.0836 15.8215 10.1204 15.741 10.1737 15.6714C10.227 15.6018 10.2953 15.545 10.3738 15.5052C10.4522 15.4654 10.5387 15.4435 10.6268 15.4413C10.6441 15.4409 10.6613 15.4408 10.6788 15.4408C11.506 15.4408 12.3777 15.8732 13.2697 16.7263C13.6194 17.0647 13.9437 17.428 14.2399 17.8133C14.2482 17.8236 14.2598 17.831 14.2727 17.8341C14.2857 17.8372 14.2993 17.836 14.3115 17.8306C14.3237 17.8251 14.3337 17.8159 14.3399 17.8042C14.3461 17.7925 14.3482 17.7791 14.3459 17.7661ZM28.6783 14.05C28.503 14.1865 28.3345 14.3236 28.1709 14.4611C28.1985 14.185 28.1433 13.907 28.012 13.6619C24.0377 6.28399 18.9623 7.42445 15.4999 7.42445C12.0376 7.42445 6.96155 6.28398 2.98738 13.6628C2.85633 13.9076 2.80116 14.1852 2.82879 14.4609C2.66541 14.3236 2.49711 14.1867 2.32195 14.0503C2.01259 13.8125 1.78563 13.4852 1.67253 13.1139C1.55943 12.7425 1.56581 12.3455 1.69078 11.9779C3.02052 8.08189 8.9548 1.81634 14.1583 4.00227C14.5823 4.1817 15.0387 4.2742 15.4998 4.2742C15.9609 4.2742 16.4172 4.1817 16.8413 4.00227C22.0451 1.81628 27.9795 8.08255 29.3091 11.9786C29.434 12.346 29.4404 12.7428 29.3273 13.114C29.2143 13.4851 28.9875 13.8123 28.6783 14.05Z" fill="#AFAFAF"/>
</svg>
