<svg width="40" height="44" viewBox="0 0 40 44" fill="none" xmlns="http://www.w3.org/2000/svg">
<path d="M3.50682 25.5052C3.12835 25.5065 2.75728 25.4004 2.43673 25.1992C2.11617 24.998 1.85929 24.7099 1.69592 24.3685C1.53255 24.0271 1.46941 23.6464 1.51382 23.2705C1.55823 22.8947 1.70838 22.5391 1.94682 22.2452L21.7468 1.84521C21.8953 1.67377 22.0977 1.55792 22.3208 1.51667C22.5438 1.47543 22.7743 1.51123 22.9743 1.61822C23.1743 1.7252 23.332 1.897 23.4215 2.10542C23.511 2.31385 23.527 2.54651 23.4668 2.76521L19.6268 14.8052C19.5136 15.1083 19.4756 15.4342 19.516 15.7552C19.5564 16.0762 19.6741 16.3826 19.859 16.6481C20.0439 16.9136 20.2904 17.1302 20.5774 17.2795C20.8644 17.4288 21.1833 17.5063 21.5068 17.5052H35.5068C35.8853 17.5039 36.2564 17.61 36.5769 17.8113C36.8975 18.0125 37.1544 18.3005 37.3177 18.6419C37.4811 18.9833 37.5442 19.364 37.4998 19.7399C37.4554 20.1158 37.3053 20.4713 37.0668 20.7652L17.2668 41.1652C17.1183 41.3366 16.9159 41.4525 16.6929 41.4937C16.4698 41.535 16.2394 41.4992 16.0394 41.3922C15.8393 41.2852 15.6817 41.1134 15.5921 40.905C15.5026 40.6966 15.4867 40.4639 15.5468 40.2452L19.3868 28.2052C19.5001 27.9022 19.5381 27.5762 19.4976 27.2552C19.4572 26.9342 19.3395 26.6278 19.1546 26.3624C18.9698 26.0969 18.7233 25.8802 18.4363 25.7309C18.1493 25.5816 17.8303 25.5042 17.5068 25.5052H3.50682Z" stroke="#FFEA00" stroke-width="3" stroke-linecap="round" stroke-linejoin="round"/>
</svg>
