<svg width="27" height="30" viewBox="0 0 27 30" fill="none" xmlns="http://www.w3.org/2000/svg">
<path d="M22.6663 13.3333H3.99967C2.52692 13.3333 1.33301 14.5272 1.33301 15.9999V25.3333C1.33301 26.806 2.52692 27.9999 3.99967 27.9999H22.6663C24.1391 27.9999 25.333 26.806 25.333 25.3333V15.9999C25.333 14.5272 24.1391 13.3333 22.6663 13.3333Z" stroke="#00E5FF" stroke-width="2.66667" stroke-linecap="round" stroke-linejoin="round"/>
<path d="M6.66602 13.3333V7.99992C6.66602 6.23181 7.36839 4.53612 8.61864 3.28587C9.86888 2.03563 11.5646 1.33325 13.3327 1.33325C15.1008 1.33325 16.7965 2.03563 18.0467 3.28587C19.297 4.53612 19.9993 6.23181 19.9993 7.99992V13.3333" stroke="#00E5FF" stroke-width="2.66667" stroke-linecap="round" stroke-linejoin="round"/>
</svg>
