<svg width="30" height="22" viewBox="0 0 30 22" fill="none" xmlns="http://www.w3.org/2000/svg">
<path d="M1.41635 11.1299C1.30523 10.8305 1.30523 10.5012 1.41635 10.2019C2.49862 7.57766 4.3357 5.33391 6.69471 3.75505C9.05372 2.1762 11.8284 1.33334 14.667 1.33334C17.5056 1.33334 20.2803 2.1762 22.6393 3.75505C24.9983 5.33391 26.8354 7.57766 27.9177 10.2019C28.0288 10.5012 28.0288 10.8305 27.9177 11.1299C26.8354 13.754 24.9983 15.9978 22.6393 17.5767C20.2803 19.1555 17.5056 19.9984 14.667 19.9984C11.8284 19.9984 9.05372 19.1555 6.69471 17.5767C4.3357 15.9978 2.49862 13.754 1.41635 11.1299Z" stroke="#00E5FF" stroke-width="2.66667" stroke-linecap="round" stroke-linejoin="round"/>
<path d="M14.667 14.6659C16.8761 14.6659 18.667 12.875 18.667 10.6659C18.667 8.45672 16.8761 6.66586 14.667 6.66586C12.4579 6.66586 10.667 8.45672 10.667 10.6659C10.667 12.875 12.4579 14.6659 14.667 14.6659Z" stroke="#00E5FF" stroke-width="2.66667" stroke-linecap="round" stroke-linejoin="round"/>
</svg>
