<svg width="22" height="15" viewBox="0 0 22 15" fill="none" xmlns="http://www.w3.org/2000/svg">
<path d="M11.0048 11.4166C12.1056 11.4166 13.0397 11.0313 13.8071 10.2607C14.5745 9.49012 14.9581 8.55439 14.9581 7.45354C14.9581 6.35269 14.5728 5.41859 13.8022 4.65123C13.0316 3.88387 12.0959 3.50018 10.995 3.50018C9.89419 3.50018 8.96009 3.88549 8.19273 4.6561C7.42537 5.42671 7.04169 6.36244 7.04169 7.46329C7.04169 8.56414 7.42699 9.49824 8.1976 10.2656C8.96822 11.033 9.90394 11.4166 11.0048 11.4166ZM10.9999 10.3834C10.1874 10.3834 9.49679 10.099 8.92804 9.53029C8.35929 8.96154 8.07492 8.27091 8.07492 7.45841C8.07492 6.64591 8.35929 5.95529 8.92804 5.38654C9.49679 4.81779 10.1874 4.53341 10.9999 4.53341C11.8124 4.53341 12.503 4.81779 13.0718 5.38654C13.6405 5.95529 13.9249 6.64591 13.9249 7.45841C13.9249 8.27091 13.6405 8.96154 13.0718 9.53029C12.503 10.099 11.8124 10.3834 10.9999 10.3834ZM11.0029 14.5001C8.6564 14.5001 6.5179 13.8615 4.5874 12.5845C3.54382 11.8941 2.64188 11.0777 1.88158 10.135C0.626331 8.57881 0.626368 6.33811 1.88118 4.78151C2.64093 3.83902 3.54201 3.02263 4.58442 2.33235C6.51293 1.05528 8.65044 0.416748 10.9969 0.416748C13.3434 0.416748 15.4819 1.05528 17.4124 2.33235C18.456 3.0227 19.358 3.83918 20.1182 4.78178C21.3735 6.33802 21.3735 8.57872 20.1187 10.1353C19.3589 11.0778 18.4578 11.8942 17.4154 12.5845C15.4869 13.8615 13.3494 14.5001 11.0029 14.5001ZM10.9999 13.4167C13.0402 13.4167 14.9135 12.8796 16.6197 11.8053C17.3283 11.3592 17.9676 10.8484 18.5376 10.2731C20.0745 8.72172 20.0745 6.19511 18.5376 4.64376C17.9676 4.06841 17.3283 3.55767 16.6197 3.11154C14.9135 2.03723 13.0402 1.50008 10.9999 1.50008C8.95964 1.50008 7.08638 2.03723 5.38013 3.11154C4.67156 3.55767 4.03228 4.06841 3.46228 4.64376C1.92536 6.19511 1.92536 8.72172 3.46228 10.2731C4.03228 10.8484 4.67156 11.3592 5.38013 11.8053C7.08638 12.8796 8.95964 13.4167 10.9999 13.4167Z" fill="#292D32"/>
</svg>
