<svg width="36" height="48" viewBox="0 0 36 48" fill="none" xmlns="http://www.w3.org/2000/svg">
<path d="M31.8268 29.6161C31.6287 30.0319 31.2992 30.3477 30.8382 30.5654C30.542 30.7047 30.3106 30.8008 30.1399 30.8576C29.7849 30.9793 29.4907 31.0852 29.2671 31.1793C28.9886 31.295 28.7571 31.4657 28.5727 31.6932C28.5472 31.7246 28.4629 31.8423 28.3197 32.0404C28.2648 32.1188 28.1628 32.2051 28.0118 32.3052C27.998 32.315 27.998 32.3228 28.0137 32.3307C28.4237 32.5582 28.7905 32.8093 29.1298 33.1466C29.3475 33.3604 29.4888 33.6076 29.5574 33.8861C29.5652 33.9175 29.5829 33.941 29.6123 33.9548C30.4244 34.3765 31.4345 34.8826 32.2682 35.4514C33.0919 36.0163 33.7314 36.8577 34.1825 37.8169C34.8612 39.2644 35.2103 40.7865 35.3398 42.3733C35.4575 43.8346 35.5065 45.2703 35.5516 46.8925C35.5516 46.9141 35.5438 46.9297 35.5281 46.9395C35.3006 47.1102 35.0848 47.0435 34.8377 47.0435C13.1165 47.1455 1.61467 47.1985 0.331726 47.2063C0.0747754 47.2063 -0.0272171 46.969 0.00612442 46.7493C0.0296618 46.5943 0.0806605 46.4139 0.104195 46.2432C0.229728 45.3135 0.363104 44.4053 0.500407 43.5247C0.678899 42.3792 0.908388 41.2592 1.18888 40.1667C1.37521 39.4527 1.56744 38.8721 1.84009 38.0601C2.14804 37.1382 2.49914 36.3065 3.03853 35.5259C3.06206 35.4925 3.17583 35.3591 3.38374 35.1257C3.52889 34.961 3.65246 34.8354 3.75642 34.753C4.26442 34.3333 4.86266 34.047 5.45894 33.8213C6.56519 33.4036 7.65381 33.074 8.86007 32.7092C8.88361 32.7014 8.8993 32.6896 8.90911 32.6661C8.94638 32.5915 8.98757 32.5209 9.03464 32.4582C9.45243 31.9207 9.88003 31.45 10.3194 31.0459C10.3214 31.0459 10.3214 31.044 10.3214 31.044C10.3194 31.042 10.3194 31.042 10.3194 31.044C10.0938 31.1793 9.91926 31.3127 9.68782 31.4735C9.52894 31.5834 9.38576 31.6579 9.25237 31.703C8.50701 31.956 7.84992 31.4068 7.62437 30.7242C7.62044 30.7125 7.61456 30.7086 7.60083 30.7164C7.3478 30.889 7.0634 30.9557 6.74369 30.9125C6.18663 30.84 5.70217 30.6105 5.29811 30.2182C4.90778 29.8436 4.66457 29.412 4.48998 28.8805C4.19576 27.99 4.06238 27.0112 4.20361 26.0776C4.22714 25.9226 4.26637 25.7167 4.32718 25.4519C4.32718 25.448 4.32718 25.4421 4.32129 25.4401C4.31737 25.4362 4.31148 25.4362 4.30952 25.4421C3.72303 25.9069 3.35236 26.5424 3.39941 27.3113C3.4406 27.9841 3.72893 28.551 4.26639 29.006C4.43703 29.1531 4.39584 29.4179 4.15459 29.4356C4.10947 29.4415 4.03886 29.4199 3.94471 29.3748C3.7623 29.2865 3.56419 29.1865 3.34843 29.0727C2.59523 28.6726 1.88517 28.0704 1.52821 27.2761C1.19868 26.5425 1.1673 25.7795 1.43406 24.9851C1.58901 24.5241 1.80869 24.0789 2.09114 23.6474C2.60698 22.8667 2.93653 22.4548 3.73874 21.4034C4.12906 20.8915 4.48997 20.3364 4.82143 19.744C5.34907 18.7986 5.6158 17.7394 5.45497 16.6646C5.34121 15.9231 5.1176 15.0837 5.17448 14.2638C5.24706 13.2124 5.70604 12.165 6.34154 11.3177C6.7456 10.7783 7.15162 10.2585 7.55765 9.75245C7.95778 9.2562 8.32651 8.65012 8.66389 7.93614C9.0346 7.14764 9.31119 6.55528 9.4916 6.15513C9.6799 5.74126 9.92312 5.29995 10.2212 4.82529C10.5096 4.37023 10.7979 3.95831 11.0843 3.58367C12.2102 2.11649 13.6342 0.957273 15.3897 0.337493C17.1315 -0.27842 19.4989 -0.148946 20.6405 1.54969C20.6483 1.55949 20.6562 1.55949 20.662 1.54969C21.1387 0.929857 21.9232 0.682708 22.6922 0.672917C24.0593 0.649379 25.344 1.31826 26.2502 2.31268C27.227 3.37774 27.9371 4.62132 28.5373 5.97471C28.9021 6.80243 29.2905 7.78906 29.6984 8.93648C29.8495 9.36604 29.9966 9.7289 30.1417 10.0329C30.4634 10.7018 30.9793 11.3177 31.5363 11.8296C31.5814 11.8688 31.8972 12.1493 32.4856 12.6691C32.7583 12.9123 33.0407 13.2477 33.331 13.6753C33.6056 14.0833 33.8116 14.507 33.9528 14.9503C34.2686 15.9624 34.3078 17.0804 33.9704 18.0925C33.586 19.2537 32.7367 20.2541 32.9113 21.5192C32.9936 22.09 33.1819 22.6019 33.4801 23.055C33.9939 23.8357 34.2333 24.173 34.4569 24.5712C34.9512 25.444 35.1355 26.3914 35.0041 27.4113C34.8805 28.3744 34.4314 29.1531 33.7272 29.82C33.0564 30.4614 32.2816 30.9733 31.4519 31.3813C31.3793 31.4186 31.2479 31.4539 31.1675 31.4127C30.9223 31.2852 31.0125 31.0459 31.1675 30.8812C31.5147 30.5104 31.7775 30.128 31.8403 29.618C31.8403 29.616 31.8363 29.6141 31.8344 29.6141C31.8324 29.6101 31.8288 29.6141 31.8268 29.6161ZM20.2306 6.80225C20.1423 6.9317 20.0874 7.01801 20.0599 7.05724C19.446 7.98502 18.6085 8.68133 17.514 8.99712C16.9687 9.15404 16.5274 9.28938 16.1841 9.40314C15.3407 9.67774 14.5601 10.1407 14.0305 10.8409C13.695 11.2803 13.4675 11.7137 13.2008 12.3257C12.9595 12.8749 12.7065 13.4516 12.3299 13.9086C12.3162 13.9242 12.3142 13.9419 12.3162 13.9635L12.3377 14.0753V14.0871C12.0886 15.8936 12.173 17.6667 12.5868 19.4066C12.9321 20.86 13.5519 22.286 14.4777 23.457C15.6977 25.0026 17.5061 26.0088 19.5226 25.5616C21.127 25.2066 22.4275 24.0062 23.3003 22.6666C25.048 19.9951 25.5638 16.5135 25.0931 13.3927C25.0852 13.3437 25.095 13.2946 25.0931 13.2476C25.0891 13.226 25.0793 13.2083 25.0636 13.1946C24.7498 12.9102 24.5478 12.718 24.4536 12.616C24.2575 12.4042 24.0221 12.1021 23.7455 11.7059C23.7377 11.6961 23.7299 11.6863 23.722 11.6784C23.6749 11.6274 23.6279 11.5725 23.5808 11.5313C22.7334 10.7918 22.1685 9.90135 21.6997 8.86962C21.5723 8.58129 21.2584 7.89087 20.9544 7.41816C20.7896 7.16317 20.5758 6.95133 20.3111 6.78462C20.2797 6.76697 20.2541 6.77087 20.2306 6.80225ZM25.6973 16.884C26.019 16.531 26.4132 16.3074 26.882 16.2132C27.0036 16.1858 27.1252 16.1858 27.2429 16.2074C27.4018 16.2387 27.5116 16.3957 27.4234 16.5506C27.3567 16.6644 27.2704 16.6722 27.137 16.6683C26.9683 16.6604 26.7957 16.6918 26.6231 16.7664C26.6094 16.7722 26.6074 16.7821 26.6153 16.7958C26.8232 17.0763 26.8624 17.5117 26.7879 17.8314C26.7251 18.0982 26.6035 18.312 26.4289 18.4728C26.2622 18.6238 25.9994 18.5316 26.0288 18.2963C26.0347 18.2551 26.0739 18.1923 26.1485 18.1041C26.3877 17.8236 26.4427 17.4999 26.3132 17.1253C26.2975 17.0782 26.274 17.041 26.2465 17.0155C26.2308 17.0017 26.2171 17.0017 26.2014 17.0155C26.0151 17.1645 25.8327 17.3548 25.7248 17.5706C25.6836 17.651 25.6365 17.7353 25.5816 17.8236C25.5679 17.8491 25.5581 17.8766 25.5522 17.904C25.4698 18.4689 25.3462 19.0299 25.1893 19.5889C25.1834 19.6066 25.1913 19.6223 25.2109 19.6281C25.9758 19.8969 26.6662 19.485 27.1723 18.9083C27.6136 18.4042 27.9098 17.8334 28.0628 17.2018C28.202 16.6252 28.1373 16.0956 27.8706 15.6091C27.7333 15.362 27.4979 15.1247 27.2507 15.0286C26.7172 14.8246 26.2347 15.1502 25.9052 15.5817C25.8483 15.6582 25.7306 15.8308 25.7286 15.9348C25.7169 16.2937 25.7012 16.6075 25.6737 16.8743C25.6737 16.8802 25.6757 16.8841 25.6816 16.888C25.6855 16.89 25.6914 16.888 25.6973 16.884ZM11.7807 17.345C11.7592 17.1508 11.7474 16.9154 11.7356 16.6389C11.7337 16.4898 11.7042 16.4349 11.6258 16.3074C11.4571 16.0406 11.2394 15.8406 10.9746 15.7111C10.0056 15.2345 9.37402 16.0799 9.19747 16.9233C9.04252 17.6687 9.25239 18.4905 9.66233 19.124C10.0625 19.738 10.6136 20.1322 11.3178 20.3009C11.6022 20.3676 11.92 20.3735 12.2671 20.3127C12.3162 20.3049 12.3358 20.2774 12.3201 20.2303C12.1122 19.5556 11.9612 18.8495 11.8611 18.1159C11.8611 18.1041 11.8572 18.0904 11.8513 18.0806C11.7258 17.8236 11.41 17.6138 11.1432 17.5079C11.0647 17.4765 11.0177 17.4373 10.9706 17.5236C10.7941 17.8394 10.7686 18.3199 11.0294 18.5945C11.1589 18.7279 11.3099 18.8377 11.2452 18.9946C11.1903 19.128 11.0196 19.1829 10.9 19.0947C10.3684 18.6965 10.2684 18.0139 10.5352 17.4235C10.541 17.4157 10.5391 17.4078 10.5332 17.4C10.5273 17.3922 10.5195 17.3863 10.5116 17.3902C10.4371 17.398 10.3763 17.4098 10.3272 17.4255C10.2115 17.4647 10.0526 17.5569 9.95457 17.5314C9.79373 17.4883 9.71527 17.3274 9.80942 17.1862C9.84277 17.1332 9.90357 17.0881 9.98988 17.0489C10.5725 16.7939 11.2785 16.9822 11.765 17.3529C11.767 17.3549 11.7709 17.3549 11.7748 17.3549C11.7787 17.3529 11.7807 17.3509 11.7807 17.345ZM18.2281 42.1276C18.6459 41.2332 19.1147 40.4506 19.6717 39.5778C19.9424 39.1561 20.4504 38.4088 21.1938 37.3378C21.5272 36.8553 22.2686 35.8706 23.4141 34.3839C23.7751 33.9151 24.1281 33.4346 24.4733 32.9363C24.7009 32.6107 24.899 32.2596 25.0657 31.8909C25.0794 31.8654 25.0716 31.8458 25.05 31.8301C24.6616 31.5673 24.3105 31.3083 23.9947 31.0573C23.4965 30.6611 23.1199 30.1883 22.8669 29.6392C22.7786 29.4489 22.6884 29.2057 22.5982 28.9154C22.4726 28.5035 22.3746 28.1661 22.3098 27.9033C22.151 27.26 22.0647 26.6166 22.0529 25.9732C22.049 25.6123 22.0509 25.2239 22.0647 24.8159C22.0666 24.8081 22.0607 24.8042 22.0529 24.7983C22.049 24.7963 22.0411 24.7963 22.0352 24.8002C21.4292 25.3161 20.7505 25.6907 20.0012 25.9261C19.046 26.2203 18.0868 26.2203 17.1237 25.9261C16.5255 25.7417 15.9861 25.4671 15.5055 25.0984C15.4996 25.0964 15.4938 25.0964 15.4859 25.0984C15.482 25.1023 15.4781 25.1063 15.4781 25.1121C15.5212 25.73 15.533 26.2988 15.5232 26.8225C15.5232 26.8284 15.5212 26.8303 15.5212 26.8323L15.4859 26.9323C15.484 26.9382 15.484 26.9461 15.484 26.95C15.5153 27.9758 15.4192 28.9095 14.9838 29.7666C14.7308 30.2668 14.3777 30.6807 13.9226 31.0102C13.8814 31.0377 13.8658 31.0769 13.8736 31.124C14.0011 31.9792 14.3698 32.7677 14.7837 33.5287C14.7994 33.5562 15.2152 34.3231 16.0273 35.8315C16.553 36.8083 17.0041 37.7968 17.3768 38.7952C17.7808 39.8759 18.0574 40.9842 18.2124 42.1238C18.2124 42.1277 18.2143 42.1296 18.2202 42.1316C18.2222 42.1316 18.2242 42.1296 18.2281 42.1276ZM4.82923 46.7115C4.84688 46.7115 4.85473 46.7037 4.85277 46.686C4.71154 45.1326 4.50559 43.6124 4.23294 42.1276C4.0368 41.0567 3.84065 40.0367 3.64449 39.0638C3.61115 38.8971 3.70726 38.7461 3.88575 38.7775C3.99167 38.7971 4.03874 38.8834 4.06228 38.9834C4.6566 41.5196 5.10576 44.0931 5.32544 46.6881C5.32936 46.7038 5.33721 46.7097 5.34898 46.7097L18.1749 46.6489C18.2063 46.6489 18.222 46.6332 18.222 46.6038C18.2239 46.2174 18.2063 45.8388 18.1651 45.4662C18.0729 44.6345 17.9631 43.7617 17.8356 42.8496C17.8297 42.8045 17.814 42.7633 17.7905 42.7241C17.4217 42.1631 17.0608 41.4962 16.6763 40.9529C16.1271 40.1762 15.4916 39.4759 14.7639 38.8502C14.1971 38.3618 13.489 37.8852 12.7142 37.844C12.0532 37.8087 11.4197 38.1049 10.8018 38.3481C10.433 38.4913 10.0309 38.5384 9.91133 38.05C9.89171 37.9774 9.86817 37.7302 9.84464 37.3105C9.83483 37.1496 9.78971 36.8574 9.7093 36.4337C9.62888 36.0002 9.521 35.5256 9.38762 35.0136C9.22874 34.3997 9.08163 33.7916 8.94629 33.1993C8.94237 33.1856 8.93453 33.1836 8.92276 33.1856C8.04403 33.4464 7.18493 33.7191 6.34934 34.0015C5.66674 34.231 4.99986 34.4879 4.39575 34.8646C4.01131 35.1058 3.69944 35.4746 3.38757 35.8532C3.25811 36.016 3.15023 36.1748 3.06589 36.3318C2.56376 37.2811 2.25385 38.2912 1.91842 39.3387C1.79289 39.727 1.67324 40.1664 1.55555 40.6528C1.32803 41.6022 1.15542 42.4417 1.03972 43.1733C0.84161 44.4345 0.676846 45.5113 0.547391 46.3999C0.527777 46.5568 0.512085 46.6588 0.500317 46.7098C0.498355 46.7255 0.504239 46.7333 0.519931 46.7333L4.82923 46.7115ZM29.6044 34.4957C29.5769 35.955 29.3553 37.4045 28.9375 38.8364C28.808 39.2757 28.5393 40.08 27.9038 39.5739C27.7096 39.4229 27.3997 39.1816 26.9643 38.8521C26.5229 38.5206 26.0444 38.2441 25.5246 38.0205C25.1578 37.8675 24.7047 37.7419 24.3006 37.7674C23.8554 37.7929 23.3454 38.0401 22.9747 38.2852C22.4255 38.6461 21.892 39.0855 21.3702 39.5975C20.6484 40.3114 19.9482 41.0705 19.2754 41.8767C19.0792 42.1081 18.8949 42.3435 18.7183 42.5769C18.5987 42.7397 18.5124 42.877 18.4574 42.9947C18.4574 42.9947 18.4359 43.0241 18.3947 43.079C18.3633 43.1202 18.3535 43.1732 18.3633 43.2359C18.4359 43.7047 18.53 44.4599 18.6438 45.5014C18.683 45.8427 18.6987 46.2173 18.6948 46.6234C18.6948 46.6391 18.7026 46.6469 18.7183 46.6469L30.8403 46.592C30.854 46.592 30.8599 46.5841 30.8618 46.5704C30.8756 46.0702 30.9069 45.6073 30.954 45.1817C31.1286 43.5969 31.3718 41.9885 31.719 40.4173C31.7641 40.2153 31.8484 39.9486 32.0936 40.0878C32.225 40.1604 32.1858 40.3193 32.1485 40.4801C32.0858 40.7724 32.0289 41.0705 31.9779 41.3706C31.8033 42.4337 31.6484 43.4713 31.513 44.4854C31.4189 45.1974 31.3581 45.8878 31.3326 46.5527C31.3326 46.5763 31.3424 46.5861 31.3659 46.5861L35.0299 46.5704C35.0534 46.5704 35.0672 46.5566 35.0672 46.5312C35.0299 45.2778 34.9887 44.2735 34.9475 43.5242C34.8946 42.6377 34.8181 41.7158 34.6513 40.8017C34.516 40.074 34.312 39.362 34.0374 38.6716C33.8216 38.1263 33.5902 37.6556 33.3391 37.2574C32.9311 36.6141 32.3976 36.0825 31.7327 35.6627C31.0658 35.2391 30.1577 34.7762 29.6163 34.4898C29.6065 34.4859 29.6044 34.4879 29.6044 34.4957Z" fill="#0F364C"/>
<path d="M16.8157 12.0966C16.9647 12.2456 16.9843 12.5183 16.745 12.583C16.7058 12.5928 16.6372 12.5908 16.5411 12.5732C16.3312 12.53 16.19 12.5104 16.1193 12.5045C15.423 12.4594 14.7169 12.4987 14.001 12.6222C13.9598 12.6301 13.8342 12.6634 13.6185 12.7242C13.5675 12.738 13.5047 12.7262 13.4302 12.6928C13.287 12.6222 13.2615 12.4594 13.3517 12.3339C13.3988 12.2711 13.4733 12.2044 13.5714 12.1358C13.9166 11.8926 14.2913 11.7023 14.6894 11.5611C14.815 11.516 14.9523 11.4866 15.0994 11.4768C15.7721 11.4199 16.341 11.6258 16.8157 12.0966Z" fill="#0F364C"/>
<path d="M20.4114 12.5989C20.2133 12.542 20.1034 12.3067 20.2545 12.1301C21.2195 11.0082 22.7279 11.5378 23.7066 12.2949C23.7478 12.3302 23.7792 12.3851 23.7949 12.4597C23.8263 12.6087 23.7125 12.7382 23.5713 12.7696C23.5203 12.7794 23.4458 12.7735 23.3438 12.75C22.5062 12.5538 21.6902 12.4577 20.8488 12.5303C20.7193 12.542 20.5055 12.6283 20.4114 12.5989Z" fill="#0F364C"/>
<path d="M16.0232 14.837C16.0193 14.835 16.0153 14.8331 16.0095 14.835C16.0036 14.837 16.0036 14.8429 16.0036 14.8488C16.0977 15.3313 15.8369 15.7844 15.3759 15.9314C14.8973 16.0825 14.3952 15.8216 14.2284 15.3352C14.1441 15.0939 14.1716 14.8487 14.3049 14.5918C14.3049 14.5859 14.3049 14.5839 14.301 14.582C14.2991 14.578 14.2971 14.578 14.2932 14.582C14.0872 14.6938 13.9225 14.8664 13.7518 15.0547C13.7244 15.0861 13.6773 15.1076 13.6086 15.1174C13.4419 15.1469 13.2928 15.0939 13.1614 14.9605C13.0026 14.7977 13.0987 14.5682 13.334 14.5937C13.3399 14.5937 13.3419 14.5976 13.3478 14.5976L13.4517 14.6467C13.4674 14.6545 13.4831 14.6526 13.4968 14.6388C13.6734 14.4368 13.8597 14.2799 14.0559 14.1661C14.6737 13.7993 15.3798 13.8131 15.9761 14.2014C16.1879 14.3407 16.3861 14.5113 16.5293 14.7094C16.7097 14.9546 16.3959 15.2194 16.1723 15.0056C16.1252 14.9605 16.0742 14.9037 16.0232 14.837Z" fill="#0F364C"/>
<path d="M20.7974 14.9229C20.7151 15.0602 20.5836 15.2249 20.411 15.1151C20.2777 15.0307 20.2541 14.9189 20.3345 14.7738C20.8739 13.8362 21.9037 13.7382 22.8138 14.1834C22.9844 14.2638 23.1002 14.3266 23.1571 14.3697C23.1708 14.3776 23.1826 14.3795 23.1963 14.3736C23.2179 14.3658 23.2512 14.358 23.3042 14.3482C23.5003 14.3109 23.6023 14.5266 23.4944 14.6796C23.4473 14.7483 23.3159 14.8601 23.2296 14.8836C23.1629 14.8993 23.0943 14.8836 23.0217 14.8405C22.8432 14.7306 22.6647 14.6326 22.4902 14.5502C22.4843 14.5463 22.4804 14.5502 22.4764 14.5521C22.4725 14.558 22.4725 14.56 22.4745 14.5659C22.6078 14.813 22.6177 15.07 22.5078 15.3367C22.4097 15.5721 22.1704 15.7859 21.9096 15.8448C21.5546 15.9252 21.2525 15.8291 21.0093 15.5545C20.872 15.3936 20.8033 15.1877 20.8092 14.9288C20.8092 14.9229 20.8092 14.9229 20.8053 14.9209C20.8033 14.9209 20.8014 14.9209 20.7974 14.9229Z" fill="#0F364C"/>
<path d="M18.216 19.6538C18.4965 19.8225 18.2905 20.2226 18.0022 20.0697C17.6707 19.8951 17.2627 19.6656 17.0685 19.3321C16.9528 19.1321 16.945 18.8986 17.0509 18.6339C17.3098 17.9807 17.4706 17.5472 17.5412 17.3314C17.6589 16.9686 17.7668 16.5763 17.8629 16.1545C17.9316 15.8603 17.9708 15.6504 17.9786 15.523C17.9885 15.3778 18.0571 15.3033 18.1826 15.2954C18.4357 15.2797 18.416 15.574 18.3847 15.7662C18.2219 16.8097 17.8923 17.8414 17.4706 18.8594C17.4294 18.9614 17.4451 19.0614 17.5216 19.1556C17.6962 19.3713 17.9767 19.5126 18.216 19.6538Z" fill="#0F364C"/>
<path d="M17.2549 22.0861C17.3099 22.0508 17.4158 22.0684 17.4903 22.0998C17.6747 22.1724 17.8905 22.2018 18.1336 22.1841C18.6279 22.1469 19.0869 22.0351 19.4773 21.7291C19.5891 21.6428 19.742 21.4662 19.8715 21.4427C20.0323 21.4172 20.1736 21.5682 20.1265 21.7291C20.1128 21.7722 20.0716 21.8311 20.001 21.8978C19.6754 22.2175 19.2909 22.4293 18.8437 22.5313C18.4239 22.6274 17.9611 22.6745 17.5315 22.5705C17.4118 22.5411 17.1941 22.4607 17.1568 22.3293C17.1313 22.2312 17.1628 22.1488 17.2549 22.0861Z" fill="#0F364C"/>
</svg>
