<svg width="24" height="25" viewBox="0 0 24 25" fill="none" xmlns="http://www.w3.org/2000/svg">
<path d="M1.02413 4.86778H12.8397C13.0599 5.67744 13.5404 6.39215 14.207 6.9017C14.8737 7.41124 15.6894 7.6873 16.5285 7.6873C17.3676 7.6873 18.1833 7.41124 18.85 6.9017C19.5166 6.39215 19.9971 5.67744 20.2173 4.86778H22.4659C22.6004 4.86778 22.7336 4.84129 22.8578 4.78982C22.9821 4.73835 23.095 4.66291 23.1901 4.56782C23.2852 4.47272 23.3606 4.35982 23.4121 4.23557C23.4635 4.11131 23.49 3.97814 23.49 3.84365C23.49 3.70916 23.4635 3.57599 23.4121 3.45173C23.3606 3.32748 23.2852 3.21458 23.1901 3.11948C23.095 3.02438 22.9821 2.94895 22.8578 2.89748C22.7336 2.84601 22.6004 2.81952 22.4659 2.81952H20.2089C19.9886 2.00986 19.5082 1.29514 18.8415 0.785602C18.1749 0.27606 17.3591 0 16.52 0C15.681 0 14.8652 0.27606 14.1985 0.785602C13.5319 1.29514 13.0514 2.00986 12.8312 2.81952H1.02413C0.889636 2.81952 0.756463 2.84601 0.63221 2.89748C0.507957 2.94895 0.395059 3.02438 0.29996 3.11948C0.204861 3.21458 0.129424 3.32748 0.0779571 3.45173C0.0264899 3.57599 0 3.70916 0 3.84365C0 3.97814 0.0264899 4.11131 0.0779571 4.23557C0.129424 4.35982 0.204861 4.47272 0.29996 4.56782C0.395059 4.66291 0.507957 4.73835 0.63221 4.78982C0.756463 4.84129 0.889636 4.86778 1.02413 4.86778ZM16.5412 2.04931C16.8958 2.05154 17.2418 2.15882 17.5356 2.35758C17.8293 2.55635 18.0575 2.83769 18.1914 3.16608C18.3253 3.49447 18.3589 3.85518 18.2879 4.20265C18.217 4.55012 18.0446 4.86877 17.7927 5.11836C17.5407 5.36795 17.2205 5.53728 16.8724 5.60497C16.5242 5.67265 16.1639 5.63566 15.8367 5.49866C15.5096 5.36166 15.2304 5.1308 15.0345 4.83523C14.8385 4.53967 14.7345 4.19265 14.7356 3.83801C14.7367 3.602 14.7843 3.36852 14.8756 3.15091C14.9669 2.93329 15.1003 2.73579 15.2679 2.5697C15.4356 2.4036 15.6343 2.27216 15.8528 2.18287C16.0713 2.09358 16.3052 2.0482 16.5412 2.04931Z" fill="#FDFDFC"/>
<path d="M22.4659 11.2777H10.6475C10.4283 10.4676 9.94837 9.75212 9.28187 9.242C8.61537 8.73187 7.79942 8.45545 6.96011 8.45545C6.1208 8.45545 5.30485 8.73187 4.63835 9.242C3.97185 9.75212 3.49191 10.4676 3.27269 11.2777H1.02413C0.752511 11.2777 0.492021 11.3856 0.29996 11.5777C0.107899 11.7697 0 12.0302 0 12.3019C0 12.5735 0.107899 12.834 0.29996 13.026C0.492021 13.2181 0.752511 13.326 1.02413 13.326H3.28115C3.50037 14.1362 3.98031 14.8516 4.64681 15.3617C5.31331 15.8718 6.12926 16.1483 6.96857 16.1483C7.80789 16.1483 8.62384 15.8718 9.29033 15.3617C9.95683 14.8516 10.4368 14.1362 10.656 13.326H22.4659C22.7375 13.326 22.998 13.2181 23.1901 13.026C23.3821 12.834 23.49 12.5735 23.49 12.3019C23.49 12.0302 23.3821 11.7697 23.1901 11.5777C22.998 11.3856 22.7375 11.2777 22.4659 11.2777ZM6.94882 14.0962C6.59443 14.094 6.24863 13.9868 5.95504 13.7883C5.66145 13.5898 5.43322 13.3088 5.29914 12.9807C5.16506 12.6527 5.13113 12.2923 5.20164 11.9449C5.27214 11.5976 5.44392 11.2789 5.6953 11.0291C5.94669 10.7793 6.26643 10.6095 6.61418 10.5412C6.96194 10.4729 7.32214 10.5091 7.64935 10.6452C7.97657 10.7813 8.25614 11.0113 8.45281 11.3062C8.64948 11.601 8.75444 11.9475 8.75445 12.3019C8.75408 12.5383 8.70704 12.7724 8.61603 12.9907C8.52502 13.209 8.39183 13.4071 8.22408 13.5738C8.05634 13.7405 7.85735 13.8725 7.63851 13.9621C7.41968 14.0517 7.1853 14.0973 6.94882 14.0962Z" fill="#FDFDFC"/>
<path d="M22.4659 19.7359H20.2089C19.9886 18.9263 19.5082 18.2116 18.8415 17.702C18.1749 17.1925 17.3591 16.9164 16.52 16.9164C15.681 16.9164 14.8652 17.1925 14.1985 17.702C13.5319 18.2116 13.0514 18.9263 12.8312 19.7359H1.02413C0.752511 19.7359 0.492021 19.8438 0.29996 20.0359C0.107899 20.228 0 20.4884 0 20.7601C0 21.0317 0.107899 21.2922 0.29996 21.4842C0.492021 21.6763 0.752511 21.7842 1.02413 21.7842H12.8397C13.0599 22.5938 13.5404 23.3086 14.207 23.8181C14.8737 24.3276 15.6894 24.6037 16.5285 24.6037C17.3676 24.6037 18.1833 24.3276 18.85 23.8181C19.5166 23.3086 19.9971 22.5938 20.2173 21.7842H22.4659C22.7375 21.7842 22.998 21.6763 23.1901 21.4842C23.3821 21.2922 23.49 21.0317 23.49 20.7601C23.49 20.4884 23.3821 20.228 23.1901 20.0359C22.998 19.8438 22.7375 19.7359 22.4659 19.7359ZM16.5412 22.5572C16.1857 22.5595 15.8376 22.456 15.541 22.2601C15.2443 22.0642 15.0126 21.7846 14.8751 21.4567C14.7377 21.1289 14.7007 20.7676 14.7689 20.4188C14.8371 20.0699 15.0073 19.7491 15.2581 19.4971C15.5089 19.2452 15.8289 19.0734 16.1774 19.0035C16.526 18.9337 16.8874 18.969 17.2159 19.1049C17.5444 19.2408 17.8251 19.4712 18.0224 19.7669C18.2197 20.0626 18.3248 20.4102 18.3242 20.7657C18.3213 21.2382 18.1327 21.6906 17.7991 22.0253C17.4655 22.3599 17.0137 22.55 16.5412 22.5544V22.5572Z" fill="#FDFDFC"/>
</svg>
