<svg width="42" height="42" viewBox="0 0 42 42" fill="none" xmlns="http://www.w3.org/2000/svg">
<circle cx="21" cy="21" r="20.5" fill="#242424" stroke="#1F1F1F"/>
<path d="M16.6344 21.3352C16.6344 21.7494 16.9702 22.0852 17.3844 22.0852C17.7987 22.0852 18.1344 21.7494 18.1344 21.3352L17.3844 21.3352H16.6344ZM18.1344 14.6685C18.1344 14.2543 17.7987 13.9185 17.3844 13.9185C16.9702 13.9185 16.6344 14.2543 16.6344 14.6685H17.3844H18.1344ZM24.8011 21.3352C24.8011 20.921 24.4653 20.5852 24.0511 20.5852C23.6369 20.5852 23.3011 20.921 23.3011 21.3352H24.0511H24.8011ZM23.3011 28.0019C23.3011 28.4161 23.6369 28.7519 24.0511 28.7519C24.4653 28.7519 24.8011 28.4161 24.8011 28.0019H24.0511H23.3011ZM13.0079 30.2742L13.4487 29.6674L13.0079 30.2742ZM11.7788 29.0451L12.3856 28.6043L11.7788 29.0451ZM29.6568 29.0451L29.05 28.6043L29.6568 29.0451ZM28.4277 30.2742L27.9869 29.6674L28.4277 30.2742ZM28.4277 12.3962L27.9869 13.003L28.4277 12.3962ZM29.6568 13.6253L29.05 14.0661L29.6568 13.6253ZM13.0079 12.3962L13.4487 13.003L13.0079 12.3962ZM11.7788 13.6253L12.3856 14.0661L11.7788 13.6253ZM17.3844 21.3352L18.1344 21.3352L18.1344 14.6685H17.3844H16.6344L16.6344 21.3352H17.3844ZM24.0511 21.3352H23.3011V28.0019H24.0511H24.8011V21.3352H24.0511ZM17.3844 28.0018V28.7518C19.0259 28.7518 20.3566 27.4211 20.3566 25.7796H19.6066H18.8566C18.8566 26.5927 18.1975 27.2518 17.3844 27.2518V28.0018ZM19.6066 25.7796H20.3566C20.3566 24.1381 19.0259 22.8074 17.3844 22.8074V23.5574V24.3074C18.1975 24.3074 18.8566 24.9665 18.8566 25.7796H19.6066ZM17.3844 23.5574V22.8074C15.7429 22.8074 14.4122 24.1381 14.4122 25.7796H15.1622H15.9122C15.9122 24.9665 16.5713 24.3074 17.3844 24.3074V23.5574ZM15.1622 25.7796H14.4122C14.4122 27.4211 15.7429 28.7518 17.3844 28.7518V28.0018V27.2518C16.5713 27.2518 15.9122 26.5927 15.9122 25.7796H15.1622ZM24.0511 14.6685V13.9185C22.4095 13.9185 21.0788 15.2492 21.0788 16.8907H21.8288H22.5788C22.5788 16.0776 23.238 15.4185 24.0511 15.4185V14.6685ZM21.8288 16.8907H21.0788C21.0788 18.5322 22.4095 19.8629 24.051 19.8629V19.1129V18.3629C23.238 18.3629 22.5788 17.7038 22.5788 16.8907H21.8288ZM24.051 19.1129V19.8629C25.6926 19.8629 27.0233 18.5322 27.0233 16.8907H26.2733H25.5233C25.5233 17.7038 24.8641 18.3629 24.051 18.3629V19.1129ZM26.2733 16.8907H27.0233C27.0233 15.2492 25.6926 13.9185 24.0511 13.9185V14.6685V15.4185C24.8641 15.4185 25.5233 16.0776 25.5233 16.8907H26.2733ZM20.7178 31.3352V30.5852C18.6179 30.5852 17.1032 30.5842 15.9288 30.4569C14.7685 30.3312 14.0297 30.0896 13.4487 29.6674L13.0079 30.2742L12.567 30.881C13.4464 31.5198 14.4793 31.8087 15.7673 31.9482C17.0412 32.0862 18.6513 32.0852 20.7178 32.0852V31.3352ZM10.7178 21.3352H9.96777C9.96777 23.4017 9.96674 25.0118 10.1048 26.2857C10.2443 27.5737 10.5331 28.6066 11.172 29.486L11.7788 29.0451L12.3856 28.6043C11.9634 28.0233 11.7218 27.2845 11.596 26.1241C11.4688 24.9498 11.4678 23.4351 11.4678 21.3352H10.7178ZM13.0079 30.2742L13.4487 29.6674C13.0407 29.371 12.682 29.0123 12.3856 28.6043L11.7788 29.0451L11.172 29.486C11.561 30.0213 12.0317 30.492 12.567 30.881L13.0079 30.2742ZM30.7178 21.3352H29.9678C29.9678 23.4351 29.9667 24.9498 29.8395 26.1241C29.7138 27.2845 29.4721 28.0233 29.05 28.6043L29.6568 29.0451L30.2635 29.486C30.9024 28.6066 31.1912 27.5737 31.3308 26.2857C31.4688 25.0118 31.4678 23.4017 31.4678 21.3352H30.7178ZM20.7178 31.3352V32.0852C22.7843 32.0852 24.3944 32.0862 25.6683 31.9482C26.9562 31.8087 27.9892 31.5198 28.8685 30.881L28.4277 30.2742L27.9869 29.6674C27.4058 30.0896 26.667 30.3312 25.5067 30.4569C24.3323 30.5842 22.8177 30.5852 20.7178 30.5852V31.3352ZM29.6568 29.0451L29.05 28.6043C28.7536 29.0123 28.3948 29.371 27.9869 29.6674L28.4277 30.2742L28.8685 30.881C29.4038 30.492 29.8746 30.0213 30.2635 29.486L29.6568 29.0451ZM20.7178 11.3352V12.0852C22.8177 12.0852 24.3323 12.0862 25.5067 12.2135C26.667 12.3392 27.4058 12.5808 27.9869 13.003L28.4277 12.3962L28.8685 11.7895C27.9892 11.1506 26.9562 10.8617 25.6683 10.7222C24.3944 10.5842 22.7843 10.5852 20.7178 10.5852V11.3352ZM30.7178 21.3352H31.4678C31.4678 19.2687 31.4688 17.6586 31.3308 16.3847C31.1912 15.0968 30.9024 14.0638 30.2635 13.1844L29.6568 13.6253L29.05 14.0661C29.4721 14.6471 29.7138 15.386 29.8395 16.5463C29.9667 17.7206 29.9678 19.2353 29.9678 21.3352H30.7178ZM28.4277 12.3962L27.9869 13.003C28.3948 13.2994 28.7536 13.6582 29.05 14.0661L29.6568 13.6253L30.2635 13.1844C29.8746 12.6491 29.4038 12.1784 28.8685 11.7895L28.4277 12.3962ZM20.7178 11.3352V10.5852C18.6513 10.5852 17.0412 10.5842 15.7673 10.7222C14.4793 10.8617 13.4464 11.1506 12.567 11.7895L13.0079 12.3962L13.4487 13.003C14.0297 12.5808 14.7685 12.3392 15.9288 12.2135C17.1032 12.0862 18.6179 12.0852 20.7178 12.0852V11.3352ZM10.7178 21.3352H11.4678C11.4678 19.2353 11.4688 17.7206 11.596 16.5463C11.7218 15.386 11.9634 14.6471 12.3856 14.0661L11.7788 13.6253L11.172 13.1844C10.5331 14.0638 10.2443 15.0968 10.1048 16.3847C9.96674 17.6586 9.96777 19.2687 9.96777 21.3352H10.7178ZM13.0079 12.3962L12.567 11.7895C12.0317 12.1784 11.561 12.6491 11.172 13.1844L11.7788 13.6253L12.3856 14.0661C12.682 13.6582 13.0407 13.2994 13.4487 13.003L13.0079 12.3962Z" fill="white"/>
</svg>
