<svg width="32" height="34" viewBox="0 0 32 34" fill="none" xmlns="http://www.w3.org/2000/svg">
<path d="M1.39515 6.63134H17.4912C17.7912 7.73432 18.4458 8.70797 19.3539 9.40211C20.2621 10.0963 21.3734 10.4723 22.5165 10.4723C23.6595 10.4723 24.7708 10.0963 25.679 9.40211C26.5871 8.70797 27.2417 7.73432 27.5417 6.63134H30.6049C30.7881 6.63134 30.9695 6.59525 31.1388 6.52514C31.308 6.45503 31.4618 6.35226 31.5914 6.22271C31.7209 6.09316 31.8237 5.93936 31.8938 5.77009C31.9639 5.60082 32 5.4194 32 5.23619C32 5.05298 31.9639 4.87156 31.8938 4.70229C31.8237 4.53302 31.7209 4.37922 31.5914 4.24967C31.4618 4.12012 31.308 4.01736 31.1388 3.94724C30.9695 3.87713 30.7881 3.84104 30.6049 3.84104H27.5301C27.2301 2.73806 26.5756 1.76441 25.6674 1.07027C24.7593 0.376132 23.648 6.10352e-05 22.5049 6.10352e-05C21.3619 6.10352e-05 20.2506 0.376132 19.3424 1.07027C18.4343 1.76441 17.7797 2.73806 17.4797 3.84104H1.39515C1.21193 3.84104 1.03051 3.87713 0.861248 3.94724C0.691981 4.01736 0.538181 4.12012 0.40863 4.24967C0.279078 4.37922 0.176312 4.53302 0.106199 4.70229C0.0360867 4.87156 0 5.05298 0 5.23619C0 5.4194 0.0360867 5.60082 0.106199 5.77009C0.176312 5.93936 0.279078 6.09316 0.40863 6.22271C0.538181 6.35226 0.691981 6.45503 0.861248 6.52514C1.03051 6.59525 1.21193 6.63134 1.39515 6.63134ZM22.5338 2.7918C23.0169 2.79484 23.4882 2.94098 23.8884 3.21175C24.2885 3.48253 24.5994 3.86579 24.7818 4.31315C24.9642 4.76051 25.01 5.2519 24.9133 5.72525C24.8166 6.19861 24.5819 6.6327 24.2387 6.97271C23.8954 7.31272 23.4591 7.54339 22.9849 7.6356C22.5107 7.72781 22.0197 7.67742 21.5741 7.49078C21.1285 7.30415 20.7482 6.98966 20.4812 6.58701C20.2142 6.18436 20.0725 5.71163 20.074 5.2285C20.0755 4.907 20.1403 4.58893 20.2648 4.29248C20.3892 3.99602 20.5708 3.72698 20.7992 3.50071C21.0276 3.27444 21.2984 3.09538 21.596 2.97374C21.8936 2.85211 22.2122 2.79028 22.5338 2.7918Z" fill="#A00988"/>
<path d="M30.6049 15.3637H14.5049C14.2063 14.26 13.5525 13.2853 12.6445 12.5904C11.7366 11.8955 10.625 11.5189 9.48162 11.5189C8.33825 11.5189 7.22669 11.8955 6.31873 12.5904C5.41078 13.2853 4.75696 14.26 4.45832 15.3637H1.39515C1.02513 15.3637 0.67027 15.5106 0.40863 15.7723C0.146989 16.0339 0 16.3888 0 16.7588C0 17.1288 0.146989 17.4837 0.40863 17.7453C0.67027 18.007 1.02513 18.154 1.39515 18.154H4.46985C4.76849 19.2576 5.42231 20.2323 6.33026 20.9272C7.23822 21.6221 8.34977 21.9987 9.49315 21.9987C10.6365 21.9987 11.7481 21.6221 12.656 20.9272C13.564 20.2323 14.2178 19.2576 14.5165 18.154H30.6049C30.9749 18.154 31.3297 18.007 31.5914 17.7453C31.853 17.4837 32 17.1288 32 16.7588C32 16.3888 31.853 16.0339 31.5914 15.7723C31.3297 15.5106 30.9749 15.3637 30.6049 15.3637ZM9.46625 19.2032C8.98346 19.2002 8.51239 19.0542 8.11243 18.7838C7.71248 18.5134 7.40157 18.1305 7.21892 17.6836C7.03626 17.2367 6.99004 16.7457 7.08609 16.2726C7.18214 15.7994 7.41615 15.3653 7.75861 15.025C8.10106 14.6847 8.53663 14.4534 9.01037 14.3603C9.48411 14.2672 9.97481 14.3165 10.4206 14.502C10.8663 14.6874 11.2472 15.0007 11.5151 15.4024C11.783 15.804 11.926 16.276 11.926 16.7588C11.9255 17.081 11.8614 17.3998 11.7375 17.6972C11.6135 17.9945 11.432 18.2645 11.2035 18.4916C10.975 18.7187 10.7039 18.8984 10.4058 19.0205C10.1077 19.1426 9.7884 19.2047 9.46625 19.2032Z" fill="#A00988"/>
<path d="M30.6049 26.8861H27.5301C27.2301 25.7831 26.5756 24.8095 25.6674 24.1153C24.7593 23.4212 23.648 23.0451 22.5049 23.0451C21.3619 23.0451 20.2506 23.4212 19.3424 24.1153C18.4343 24.8095 17.7797 25.7831 17.4797 26.8861H1.39515C1.02513 26.8861 0.67027 27.0331 0.40863 27.2947C0.146989 27.5564 0 27.9112 0 28.2812C0 28.6513 0.146989 29.0061 0.40863 29.2678C0.67027 29.5294 1.02513 29.6764 1.39515 29.6764H17.4912C17.7912 30.7794 18.4458 31.753 19.3539 32.4472C20.2621 33.1413 21.3734 33.5174 22.5165 33.5174C23.6595 33.5174 24.7708 33.1413 25.679 32.4472C26.5871 31.753 27.2417 30.7794 27.5417 29.6764H30.6049C30.9749 29.6764 31.3297 29.5294 31.5914 29.2678C31.853 29.0061 32 28.6513 32 28.2812C32 27.9112 31.853 27.5564 31.5914 27.2947C31.3297 27.0331 30.9749 26.8861 30.6049 26.8861ZM22.5338 30.7295C22.0495 30.7325 21.5752 30.5916 21.1712 30.3247C20.7671 30.0578 20.4514 29.6769 20.2641 29.2303C20.0769 28.7837 20.0265 28.2916 20.1194 27.8163C20.2123 27.341 20.4442 26.904 20.7858 26.5608C21.1275 26.2175 21.5633 25.9835 22.0382 25.8884C22.513 25.7932 23.0054 25.8413 23.4529 26.0264C23.9004 26.2116 24.2828 26.5254 24.5516 26.9283C24.8204 27.3311 24.9635 27.8047 24.9628 28.2889C24.9588 28.9326 24.7018 29.5489 24.2474 30.0048C23.7929 30.4607 23.1774 30.7196 22.5338 30.7256V30.7295Z" fill="#A00988"/>
</svg>
