<svg width="22" height="28" viewBox="0 0 22 28" fill="none" xmlns="http://www.w3.org/2000/svg">
<path d="M10.6668 1.33325C11.5557 4.88881 13.3335 7.7777 16.0002 9.99992C18.6668 12.2221 20.0002 14.6666 20.0002 17.3333C20.0002 19.8086 19.0168 22.1826 17.2665 23.9329C15.5162 25.6833 13.1422 26.6666 10.6668 26.6666C8.19148 26.6666 5.81751 25.6833 4.06717 23.9329C2.31683 22.1826 1.3335 19.8086 1.3335 17.3333C1.3335 15.8908 1.80135 14.4872 2.66683 13.3333C2.66683 14.2173 3.01802 15.0652 3.64314 15.6903C4.26826 16.3154 5.11611 16.6666 6.00016 16.6666C6.88422 16.6666 7.73206 16.3154 8.35718 15.6903C8.98231 15.0652 9.3335 14.2173 9.3335 13.3333C9.3335 10.6666 7.3335 9.33325 7.3335 6.66659C7.3335 4.88881 8.44461 3.11103 10.6668 1.33325Z" stroke="#D32F2F" stroke-width="2.66667" stroke-linecap="round" stroke-linejoin="round"/>
</svg>
