<svg width="21" height="26" viewBox="0 0 21 26" fill="none" xmlns="http://www.w3.org/2000/svg">
<path d="M8.45868 1.00108C8.3486 0.934945 8.22277 0.900024 8.09454 0.900024C7.96631 0.900024 7.84048 0.934945 7.7304 1.00108C7.63959 1.07344 7.57833 1.17677 7.55819 1.29151C7.53806 1.40625 7.56046 1.52443 7.62115 1.62367C9.86064 5.52403 10.334 10.8344 7.27522 13.7642C6.09835 12.7696 5.16403 11.5167 4.54414 10.1019C3.41298 10.7338 2.47553 11.6652 1.83357 12.795C1.19161 13.9249 0.869671 15.21 0.902699 16.5109C0.948874 17.6578 1.22266 18.7837 1.70795 19.8225C2.19324 20.8613 2.88023 21.792 3.72849 22.5598C4.57674 23.3276 5.56913 23.917 6.64726 24.2934C7.72539 24.6697 8.86747 24.8253 10.0063 24.7511C15.869 24.7511 18.9096 21.0888 19.1099 16.5109C19.3466 11.0175 15.4685 4.26053 8.45868 1.00108Z" stroke="#0B0C0C" stroke-width="1.8" stroke-linecap="round" stroke-linejoin="round"/>
</svg>
