<svg width="20" height="26" viewBox="0 0 20 26" fill="none" xmlns="http://www.w3.org/2000/svg">
<path d="M8.35161 0.851055C8.24089 0.784921 8.11434 0.75 7.98538 0.75C7.85641 0.75 7.72986 0.784921 7.61915 0.851055C7.52782 0.923411 7.4662 1.02674 7.44596 1.14148C7.42571 1.25622 7.44824 1.3744 7.50928 1.47365C9.76159 5.374 10.2377 10.6843 7.16136 13.6142C5.97775 12.6195 5.03808 11.3667 4.41463 9.95189C3.27699 10.5837 2.33417 11.5151 1.68853 12.645C1.04289 13.7749 0.719104 15.06 0.752322 16.3609C0.798761 17.5077 1.07412 18.6337 1.56219 19.6725C2.05026 20.7113 2.74118 21.642 3.5943 22.4098C4.44742 23.1776 5.4455 23.767 6.5298 24.1433C7.61411 24.5197 8.76273 24.6753 9.90809 24.6011C15.8044 24.6011 18.8624 20.9388 19.0639 16.3609C19.3019 10.8675 15.4015 4.11051 8.35161 0.851055Z" stroke="white" stroke-width="1.5" stroke-linecap="round" stroke-linejoin="round"/>
<path d="M14.486 16.3616C14.486 17.3329 14.1002 18.2644 13.4134 18.9512C12.7266 19.638 11.795 20.0239 10.8237 20.0239" stroke="white" stroke-width="1.5" stroke-linecap="round" stroke-linejoin="round"/>
</svg>
