<svg width="26" height="28" viewBox="0 0 26 28" fill="none" xmlns="http://www.w3.org/2000/svg">
<g opacity="0.9">
<path d="M24.6998 12.3505V24.7002C24.6998 26.1369 23.5366 27.3001 22.0999 27.3001H16.25V11.7005H24.0498C24.4073 11.7005 24.6998 11.993 24.6998 12.3505Z" fill="#0F364C"/>
<path d="M11.0488 11.7005H14.9487V27.3001H11.0488V11.7005Z" fill="#0F364C"/>
<path d="M1.94979 11.7005H9.7496V27.3001H3.89974C2.46302 27.3001 1.2998 26.1369 1.2998 24.7002V12.3505C1.2998 11.993 1.5923 11.7005 1.94979 11.7005Z" fill="#0F364C"/>
<path d="M25.9998 7.80046V9.10043C25.9998 9.81541 25.4148 10.4004 24.6998 10.4004H16.25V6.50049H24.6998C25.4148 6.50049 25.9998 7.08547 25.9998 7.80046Z" fill="#0F364C"/>
<path d="M11.0488 6.50049H14.9487V10.4004H11.0488V6.50049Z" fill="#0F364C"/>
<path d="M1.29997 6.50049H9.74977V10.4004H1.29997C0.584986 10.4004 0 9.81541 0 9.10043V7.80046C0 7.08547 0.584986 6.50049 1.29997 6.50049Z" fill="#0F364C"/>
<path d="M22.736 3.94025C22.652 4.64168 21.937 5.20095 21.2274 5.20095H16.2484V3.57598C16.2484 3.47172 16.2416 3.36745 16.2227 3.26995C17.1448 1.76958 18.679 -0.0503777 20.6817 0.00106639C21.3317 0.0200244 22.0331 0.546776 22.151 1.19C22.197 1.46218 22.1632 1.72219 22.0724 1.95643C21.9749 2.20965 22.0467 2.48862 22.2539 2.67141C22.5978 2.97067 22.7996 3.43108 22.7346 3.93886L22.736 3.94025Z" fill="#0F364C"/>
<path d="M14.9487 5.20046H11.0488V3.5755C11.0488 3.03655 11.4849 2.60052 12.0238 2.60052H13.9738C14.5127 2.60052 14.9487 3.03655 14.9487 3.5755V5.20046Z" fill="#0F364C"/>
<path d="M9.77444 3.27106C9.75548 3.36856 9.74871 3.47283 9.74871 3.5771V5.20206H4.76966C4.06143 5.20206 3.34645 4.6428 3.26114 3.94137C3.19614 3.43493 3.3979 2.97315 3.74185 2.67391C3.95038 2.49246 4.0208 2.21217 3.9233 1.95893C3.83258 1.72467 3.80008 1.46467 3.84476 1.1925C3.96122 0.54928 4.66402 0.0225324 5.31401 0.00357016C7.3154 -0.0478878 8.84958 1.77073 9.77307 3.27245L9.77444 3.27106Z" fill="#0F364C"/>
</g>
</svg>
