<svg width="26" height="26" viewBox="0 0 26 26" fill="none" xmlns="http://www.w3.org/2000/svg">
<path d="M10.9371 0.843123C9.41319 2.34807 7.9077 2.98907 5.90057 2.99835C4.3023 2.99835 2.99211 4.30819 2.99211 5.90603C2.98281 7.91262 2.34165 9.41742 0.836303 10.9412C-0.278768 12.0746 -0.278768 13.9324 0.836303 15.0659C1.58896 15.8277 2.12794 16.5894 2.47174 17.4069C2.82485 18.2244 2.98283 19.0977 2.99211 20.101C2.99211 21.6988 4.3023 23.0086 5.90057 23.0086C7.9077 23.0179 9.41289 23.6589 10.9371 25.1639C11.5039 25.7212 12.2566 25.9999 13 25.9999C13.7434 25.9999 14.496 25.7212 15.0629 25.1639C16.5868 23.6589 18.0923 23.0179 20.0994 23.0086C21.6977 23.0086 23.0079 21.6988 23.0079 20.101C23.0172 18.0944 23.6584 16.5896 25.1637 15.0657C26.2788 13.9324 26.2788 12.0746 25.1637 10.9411C23.6584 9.41757 23.0172 7.91247 23.0079 5.90588C23.0079 4.30804 21.6977 2.9982 20.0994 2.9982C18.0923 2.98891 16.5871 2.34792 15.0629 0.842974C13.9292 -0.281073 12.0709 -0.280924 10.9371 0.843123ZM18.0272 9.55678C18.3896 9.9191 18.3896 10.5136 18.0272 10.8759L12.4518 16.4498C12.2753 16.6263 12.0337 16.7192 11.8014 16.7192C11.5598 16.7192 11.3275 16.6263 11.1416 16.4498L7.97302 13.2725C7.61061 12.9102 7.61061 12.325 7.97302 11.9627C8.33544 11.6004 8.92083 11.6004 9.28322 11.9627L11.8014 14.4802L16.717 9.55681C17.0794 9.19449 17.6648 9.19446 18.0272 9.55678Z" fill="#0ACDA6"/>
</svg>
