<svg width="20" height="20" viewBox="0 0 20 20" fill="none" xmlns="http://www.w3.org/2000/svg">
<path d="M17.4871 10.405C17.409 11.8518 16.9135 13.245 16.0605 14.4162C15.2075 15.5874 14.0335 16.4864 12.6805 17.0047C11.3274 17.5229 9.85325 17.6381 8.43612 17.3363C7.01899 17.0346 5.71961 16.3288 4.69503 15.3043C3.67045 14.2799 2.96455 12.9806 2.66266 11.5635C2.36077 10.1464 2.47581 8.67217 2.99388 7.31906C3.51194 5.96595 4.41086 4.79187 5.58196 3.93874C6.75305 3.08562 8.1462 2.58997 9.59298 2.51171C9.93048 2.49338 10.1071 2.89505 9.92798 3.18088C9.32872 4.13968 9.07212 5.27327 9.20006 6.39667C9.328 7.52007 9.83291 8.56695 10.6324 9.36645C11.4319 10.1659 12.4788 10.6709 13.6022 10.7988C14.7256 10.9267 15.8592 10.6701 16.818 10.0709C17.1046 9.89171 17.5055 10.0675 17.4871 10.405Z" stroke="#6B6B6B" stroke-width="1.66667" stroke-linecap="round" stroke-linejoin="round"/>
</svg>
