<svg width="33" height="23" viewBox="0 0 33 23" fill="none" xmlns="http://www.w3.org/2000/svg">
<path d="M20.2768 5.15527H19.5268C19.5268 7.01869 18.0162 8.52929 16.1528 8.52929V9.27929V10.0293C18.8447 10.0293 21.0268 7.84712 21.0268 5.15527H20.2768ZM16.1528 9.27929V8.52929C14.2894 8.52929 12.7788 7.01869 12.7788 5.15527H12.0288H11.2788C11.2788 7.84712 13.461 10.0293 16.1528 10.0293V9.27929ZM12.0288 5.15527H12.7788C12.7788 3.29185 14.2894 1.78125 16.1528 1.78125V1.03125V0.28125C13.461 0.28125 11.2788 2.46342 11.2788 5.15527H12.0288ZM16.1528 1.03125V1.78125C18.0162 1.78125 19.5268 3.29185 19.5268 5.15527H20.2768H21.0268C21.0268 2.46342 18.8447 0.28125 16.1528 0.28125V1.03125ZM12.0288 13.4033V14.1533H20.2768V13.4033V12.6533H12.0288V13.4033ZM20.2768 21.6514V20.9014H12.0288V21.6514V22.4014H20.2768V21.6514ZM12.0288 21.6514V20.9014C10.1654 20.9014 8.65479 19.3908 8.65479 17.5273H7.90479H7.15479C7.15479 20.2192 9.33696 22.4014 12.0288 22.4014V21.6514ZM24.4009 17.5273H23.6509C23.6509 19.3908 22.1403 20.9014 20.2768 20.9014V21.6514V22.4014C22.9687 22.4014 25.1509 20.2192 25.1509 17.5273H24.4009ZM20.2768 13.4033V14.1533C22.1403 14.1533 23.6509 15.6639 23.6509 17.5273H24.4009H25.1509C25.1509 14.8355 22.9687 12.6533 20.2768 12.6533V13.4033ZM12.0288 13.4033V12.6533C9.33696 12.6533 7.15479 14.8355 7.15479 17.5273H7.90479H8.65479C8.65479 15.6639 10.1654 14.1533 12.0288 14.1533V13.4033Z" fill="#0B0C0C"/>
<path d="M10.313 8.78231C10.0962 8.434 9.68934 8.24804 9.27905 8.24804C7.57082 8.24804 6.18603 6.86325 6.18603 5.15503C6.18603 3.4468 7.57082 2.06201 9.27905 2.06201C9.68934 2.06201 10.0962 1.87605 10.313 1.52774C10.3226 1.51233 10.3322 1.49697 10.3419 1.48165C10.7029 0.911831 10.52 0.105026 9.84954 0.0312095C9.66221 0.0105864 9.47187 0 9.27905 0C6.432 0 4.12402 2.30798 4.12402 5.15503C4.12402 8.00207 6.432 10.3101 9.27905 10.3101C9.47187 10.3101 9.66221 10.2995 9.84954 10.2788C10.52 10.205 10.7029 9.39822 10.3419 8.82841C10.3322 8.81308 10.3226 8.79772 10.313 8.78231Z" fill="#0B0C0C"/>
<path d="M6.12869 19.681C5.97264 19.4207 5.69719 19.2454 5.39365 19.2454H5.15503C3.4468 19.2454 2.06201 17.8606 2.06201 16.1524C2.06201 14.4442 3.4468 13.0594 5.15503 13.0594H5.39365C5.69719 13.0594 5.97264 12.8842 6.12869 12.6238C6.50962 11.9883 6.09624 10.9974 5.3553 10.9974H5.15503C2.30798 10.9974 0 13.3054 0 16.1524C0 18.9995 2.30798 21.3074 5.15503 21.3074H5.3553C6.09625 21.3074 6.50962 20.3165 6.12869 19.681Z" fill="#0B0C0C"/>
<path d="M21.9629 8.82841C21.6019 9.39822 21.7848 10.205 22.4553 10.2788C22.6426 10.2995 22.833 10.3101 23.0258 10.3101C25.8728 10.3101 28.1808 8.00207 28.1808 5.15503C28.1808 2.30798 25.8728 0 23.0258 0C22.833 0 22.6426 0.0105864 22.4553 0.0312097C21.7848 0.105026 21.6019 0.911831 21.9629 1.48165C21.9726 1.49697 21.9822 1.51233 21.9918 1.52773C22.2087 1.87605 22.6155 2.06201 23.0258 2.06201C24.734 2.06201 26.1188 3.4468 26.1188 5.15503C26.1188 6.86325 24.734 8.24804 23.0258 8.24804C22.6155 8.24804 22.2087 8.434 21.9918 8.78231C21.9822 8.79772 21.9726 8.81308 21.9629 8.82841Z" fill="#0B0C0C"/>
<path d="M26.1761 19.681C25.7952 20.3165 26.2086 21.3074 26.9495 21.3074H27.1498C29.9968 21.3074 32.3048 18.9995 32.3048 16.1524C32.3048 13.3054 29.9968 10.9974 27.1498 10.9974H26.9495C26.2086 10.9974 25.7952 11.9883 26.1761 12.6238C26.3322 12.8842 26.6076 13.0594 26.9112 13.0594H27.1498C28.858 13.0594 30.2428 14.4442 30.2428 16.1524C30.2428 17.8606 28.858 19.2454 27.1498 19.2454H26.9112C26.6076 19.2454 26.3322 19.4207 26.1761 19.681Z" fill="#0B0C0C"/>
<path d="M10.313 8.78231C10.0962 8.434 9.68934 8.24804 9.27905 8.24804C7.57082 8.24804 6.18603 6.86325 6.18603 5.15503C6.18603 3.4468 7.57082 2.06201 9.27905 2.06201C9.68934 2.06201 10.0962 1.87605 10.313 1.52774C10.3226 1.51233 10.3322 1.49697 10.3419 1.48165C10.7029 0.911831 10.52 0.105026 9.84954 0.0312095C9.66221 0.0105864 9.47187 0 9.27905 0C6.432 0 4.12402 2.30798 4.12402 5.15503C4.12402 8.00207 6.432 10.3101 9.27905 10.3101C9.47187 10.3101 9.66221 10.2995 9.84954 10.2788C10.52 10.205 10.7029 9.39822 10.3419 8.82841C10.3322 8.81308 10.3226 8.79772 10.313 8.78231Z" stroke="#0B0C0C"/>
<path d="M6.12869 19.681C5.97264 19.4207 5.69719 19.2454 5.39365 19.2454H5.15503C3.4468 19.2454 2.06201 17.8606 2.06201 16.1524C2.06201 14.4442 3.4468 13.0594 5.15503 13.0594H5.39365C5.69719 13.0594 5.97264 12.8842 6.12869 12.6238C6.50962 11.9883 6.09624 10.9974 5.3553 10.9974H5.15503C2.30798 10.9974 0 13.3054 0 16.1524C0 18.9995 2.30798 21.3074 5.15503 21.3074H5.3553C6.09625 21.3074 6.50962 20.3165 6.12869 19.681Z" stroke="#0B0C0C"/>
<path d="M21.9629 8.82841C21.6019 9.39822 21.7848 10.205 22.4553 10.2788C22.6426 10.2995 22.833 10.3101 23.0258 10.3101C25.8728 10.3101 28.1808 8.00207 28.1808 5.15503C28.1808 2.30798 25.8728 0 23.0258 0C22.833 0 22.6426 0.0105864 22.4553 0.0312097C21.7848 0.105026 21.6019 0.911831 21.9629 1.48165C21.9726 1.49697 21.9822 1.51233 21.9918 1.52773C22.2087 1.87605 22.6155 2.06201 23.0258 2.06201C24.734 2.06201 26.1188 3.4468 26.1188 5.15503C26.1188 6.86325 24.734 8.24804 23.0258 8.24804C22.6155 8.24804 22.2087 8.434 21.9918 8.78231C21.9822 8.79772 21.9726 8.81308 21.9629 8.82841Z" stroke="#0B0C0C"/>
<path d="M26.1761 19.681C25.7952 20.3165 26.2086 21.3074 26.9495 21.3074H27.1498C29.9968 21.3074 32.3048 18.9995 32.3048 16.1524C32.3048 13.3054 29.9968 10.9974 27.1498 10.9974H26.9495C26.2086 10.9974 25.7952 11.9883 26.1761 12.6238C26.3322 12.8842 26.6076 13.0594 26.9112 13.0594H27.1498C28.858 13.0594 30.2428 14.4442 30.2428 16.1524C30.2428 17.8606 28.858 19.2454 27.1498 19.2454H26.9112C26.6076 19.2454 26.3322 19.4207 26.1761 19.681Z" stroke="#0B0C0C"/>
</svg>
