<svg width="33" height="30" viewBox="0 0 33 30" fill="none" xmlns="http://www.w3.org/2000/svg">
<path d="M8.34961 0.114075C11.5934 -0.0735258 14.4104 1.57863 16.2002 4.60236C17.933 1.67621 20.6279 0.0344908 23.7432 0.103333L24.0518 0.116028L24.4004 0.144348C26.1352 0.322674 27.7808 1.02939 29.123 2.17365C30.5543 3.3937 31.5628 5.0505 32.0039 6.89825H32.0049C32.5472 9.08086 32.6053 12.6176 29.8379 17.0965C27.2894 21.2243 22.8869 25.2737 16.7598 29.1375C16.4163 29.354 15.9841 29.3541 15.6406 29.1375C9.51521 25.2737 5.11344 21.2238 2.56348 17.0965C-0.205489 12.6175 -0.147443 9.08062 0.396484 6.8963C0.838972 5.04983 1.84844 3.39307 3.27832 2.17267L3.55078 1.94904C4.9078 0.883006 6.54384 0.24803 8.25586 0.12384V0.119934L8.34961 0.114075ZM23.877 2.2713C20.9606 2.12868 18.4603 4.04949 17.1943 7.46368V7.46466C17.0379 7.88509 16.6437 8.16368 16.2012 8.16388C15.7585 8.16388 15.3635 7.88525 15.207 7.46466C13.986 4.17155 11.6163 2.26553 8.8291 2.26544C8.71057 2.26544 8.58925 2.2684 8.47168 2.27618H8.4707C7.06155 2.36573 5.71678 2.91606 4.63477 3.84259C3.57465 4.75043 2.8224 5.97511 2.47949 7.34259L2.45898 7.42657L2.45801 7.42755V7.42853C1.82778 9.95597 2.47969 12.8998 4.36133 15.9461C6.65526 19.6573 10.633 23.3551 16.2002 26.9393C21.7675 23.355 25.7459 19.6576 28.04 15.9442C29.9218 12.8977 30.5732 9.95485 29.9443 7.42755L29.9434 7.42657C29.6315 6.11273 28.9422 4.92628 27.9658 4.01837L27.7666 3.84064C26.6845 2.91401 25.339 2.36469 23.9297 2.27521L23.877 2.2713Z" fill="#0F364C" stroke="#0F364C" stroke-width="0.2"/>
</svg>
