<svg width="32" height="32" viewBox="0 0 32 32" fill="none" xmlns="http://www.w3.org/2000/svg">
<path d="M2.6665 12.6666C2.66653 11.1829 3.11663 9.73408 3.95735 8.51152C4.79807 7.28896 5.98986 6.35018 7.37532 5.81917C8.76077 5.28816 10.2747 5.1899 11.7172 5.53736C13.1597 5.88483 14.4628 6.66168 15.4545 7.76531C15.5244 7.83999 15.6088 7.89953 15.7026 7.94024C15.7964 7.98095 15.8976 8.00195 15.9998 8.00195C16.1021 8.00195 16.2033 7.98095 16.2971 7.94024C16.3909 7.89953 16.4753 7.83999 16.5452 7.76531C17.5338 6.65451 18.8372 5.87113 20.282 5.51944C21.7268 5.16775 23.2445 5.26443 24.633 5.79662C26.0215 6.3288 27.215 7.27124 28.0547 8.49851C28.8943 9.72577 29.3403 11.1797 29.3332 12.6666C29.3332 15.72 27.3332 18 25.3332 20L18.0105 27.084C17.7621 27.3693 17.4557 27.5985 17.1119 27.7564C16.7681 27.9142 16.3946 27.9971 16.0162 27.9995C15.6379 28.0019 15.2634 27.9238 14.9176 27.7703C14.5717 27.6168 14.2625 27.3915 14.0105 27.1093L6.6665 20C4.6665 18 2.6665 15.7333 2.6665 12.6666Z" stroke="#E040FB" stroke-width="2.66667" stroke-linecap="round" stroke-linejoin="round"/>
</svg>
