<svg width="15" height="13" viewBox="0 0 15 13" fill="none" xmlns="http://www.w3.org/2000/svg">
<path d="M0.666016 4.34257C0.666029 3.60097 0.890998 2.87682 1.31121 2.26575C1.73142 1.65469 2.3271 1.18547 3.01959 0.920055C3.71207 0.654643 4.46877 0.60553 5.18975 0.779201C5.91073 0.952873 6.56207 1.34116 7.05774 1.89278C7.09266 1.93011 7.13486 1.95987 7.18175 1.98021C7.22864 2.00056 7.2792 2.01106 7.33031 2.01106C7.38143 2.01106 7.43199 2.00056 7.47888 1.98021C7.52576 1.95987 7.56797 1.93011 7.60288 1.89278C8.097 1.33757 8.74849 0.946024 9.47064 0.770243C10.1928 0.594461 10.9514 0.642785 11.6454 0.908781C12.3394 1.17478 12.9359 1.64583 13.3556 2.25925C13.7753 2.87266 13.9982 3.59934 13.9946 4.34257C13.9946 5.8687 12.995 7.00829 11.9953 8.00794L8.33529 11.5487C8.21111 11.6913 8.05801 11.8059 7.88615 11.8848C7.71429 11.9637 7.52761 12.0051 7.3385 12.0063C7.1494 12.0075 6.96221 11.9684 6.78936 11.8917C6.61652 11.815 6.46198 11.7024 6.336 11.5613L2.66531 8.00794C1.66566 7.00829 0.666016 5.87536 0.666016 4.34257Z" stroke="#6B6B6B" stroke-width="1.33286" stroke-linecap="round" stroke-linejoin="round"/>
</svg>
