<svg width="40" height="40" viewBox="0 0 40 40" fill="none" xmlns="http://www.w3.org/2000/svg">
<path d="M3.33301 15.8333C3.33304 13.9786 3.89566 12.1676 4.94656 10.6394C5.99746 9.11121 7.4872 7.93773 9.21902 7.27396C10.9508 6.6102 12.8433 6.48737 14.6464 6.92171C16.4495 7.35604 18.0784 8.3271 19.318 9.70663C19.4053 9.79999 19.5109 9.87442 19.6281 9.9253C19.7454 9.97618 19.8719 10.0024 19.9997 10.0024C20.1275 10.0024 20.254 9.97618 20.3712 9.9253C20.4885 9.87442 20.594 9.79999 20.6813 9.70663C21.9171 8.31813 23.5464 7.33891 25.3524 6.8993C27.1584 6.45969 29.0555 6.58054 30.7911 7.24577C32.5268 7.911 34.0186 9.08905 35.0682 10.6231C36.1178 12.1572 36.6752 13.9746 36.6663 15.8333C36.6663 19.65 34.1663 22.5 31.6663 25L22.513 33.855C22.2025 34.2116 21.8196 34.4982 21.3898 34.6955C20.9599 34.8928 20.4931 34.9964 20.0202 34.9994C19.5472 35.0024 19.0791 34.9047 18.6468 34.7128C18.2146 34.521 17.8281 34.2394 17.513 33.8866L8.33301 25C5.83301 22.5 3.33301 19.6666 3.33301 15.8333Z" stroke="#D32F2F" stroke-width="3.33333" stroke-linecap="round" stroke-linejoin="round"/>
</svg>
