<svg width="30" height="30" viewBox="0 0 30 30" fill="none" xmlns="http://www.w3.org/2000/svg">
<g opacity="0.9">
<path d="M17.1644 0.796023C15.9106 -0.265341 14.0919 -0.265341 12.8382 0.796023L0.394743 11.3329C-0.0752608 11.7318 -0.133851 12.4347 0.263642 12.9061C0.662524 13.3775 1.36682 13.4347 1.83682 13.0372L14.2803 2.49887C14.6973 2.14462 15.304 2.14462 15.7224 2.49887L28.1658 13.0358C28.375 13.2129 28.6317 13.3007 28.8869 13.3007C29.2035 13.3007 29.5187 13.1669 29.739 12.906C30.1379 12.4346 30.0793 11.7317 29.6079 11.3329L17.1644 0.796023Z" fill="#214153"/>
<path d="M19.1965 15.2934C19.813 15.2934 20.3123 14.7941 20.3123 14.1776C20.3123 13.5612 19.813 13.0619 19.1965 13.0619H10.8062C10.1897 13.0619 9.69043 13.5612 9.69043 14.1776C9.69043 14.7941 10.1897 15.2934 10.8062 15.2934H19.1965Z" fill="#214153"/>
<path d="M2.50488 17.5142C2.50488 24.3983 8.11715 29.9995 15.0012 29.9995C21.8852 29.9995 27.4975 24.3983 27.4975 17.5142C27.4975 16.8894 26.9954 16.3985 26.3817 16.3985H3.62062C3.00695 16.3985 2.50488 16.8894 2.50488 17.5142Z" fill="#214153"/>
</g>
</svg>
