<svg width="30" height="30" viewBox="0 0 30 30" fill="none" xmlns="http://www.w3.org/2000/svg">
<path d="M17.1644 0.796023C15.9106 -0.265341 14.0919 -0.265341 12.8382 0.796023L0.394743 11.3329C-0.0752608 11.7318 -0.133851 12.4347 0.263642 12.9061C0.662524 13.3775 1.36682 13.4347 1.83682 13.0372L14.2803 2.49887C14.6973 2.14462 15.304 2.14462 15.7224 2.49887L28.1658 13.0358C28.375 13.2129 28.6317 13.3007 28.8869 13.3007C29.2035 13.3007 29.5187 13.1669 29.739 12.906C30.1379 12.4346 30.0793 11.7317 29.6079 11.3329L17.1644 0.796023Z" fill="url(#paint0_linear_1_4653)"/>
<path d="M19.1961 15.2934C19.8125 15.2934 20.3118 14.7941 20.3118 14.1776C20.3118 13.5612 19.8125 13.0619 19.1961 13.0619H10.8057C10.1892 13.0619 9.68994 13.5612 9.68994 14.1776C9.68994 14.7941 10.1892 15.2934 10.8057 15.2934H19.1961Z" fill="url(#paint1_linear_1_4653)"/>
<path d="M2.50439 17.5142C2.50439 24.3983 8.11666 29.9995 15.0007 29.9995C21.8847 29.9995 27.497 24.3983 27.497 17.5142C27.497 16.8894 26.9949 16.3985 26.3812 16.3985H3.62014C3.00646 16.3985 2.50439 16.8894 2.50439 17.5142Z" fill="url(#paint2_linear_1_4653)"/>
<defs>
<linearGradient id="paint0_linear_1_4653" x1="15.0018" y1="-3.05929" x2="15.0018" y2="24.4744" gradientUnits="userSpaceOnUse">
<stop stop-color="#370ADD"/>
<stop offset="1" stop-color="#D40438"/>
</linearGradient>
<linearGradient id="paint1_linear_1_4653" x1="15.0009" y1="12.5486" x2="15.0009" y2="17.1678" gradientUnits="userSpaceOnUse">
<stop stop-color="#370ADD"/>
<stop offset="1" stop-color="#D40438"/>
</linearGradient>
<linearGradient id="paint2_linear_1_4653" x1="15.0007" y1="13.2703" x2="15.0007" y2="41.4243" gradientUnits="userSpaceOnUse">
<stop stop-color="#370ADD"/>
<stop offset="1" stop-color="#D40438"/>
</linearGradient>
</defs>
</svg>
