<svg width="112" height="118" viewBox="0 0 112 118" fill="none" xmlns="http://www.w3.org/2000/svg">
<path d="M55.5264 15.8179C57.2411 15.8179 58.9032 16.3913 60.25 17.4419L60.5147 17.6587L60.5411 17.6812C67.2096 23.5114 76.4951 27.8199 83.5264 27.8199C85.3829 27.8199 87.1638 28.5569 88.4766 29.8697C89.7893 31.1824 90.5264 32.9634 90.5264 34.8199L90.5264 62.8199C90.5264 73.612 86.7136 81.8603 80.5948 88.1382C74.5574 94.3324 66.4085 98.4779 57.8741 101.453C57.866 101.455 57.8578 101.459 57.8496 101.461C56.3476 101.97 54.718 101.952 53.2276 101.415L53.2276 101.416C44.6706 98.4606 36.5091 94.3256 30.4649 88.1353C24.3391 81.8614 20.5264 73.6119 20.5264 62.8199L20.5264 34.8199C20.5264 32.9634 21.2635 31.1824 22.5762 29.8697C23.889 28.5569 25.6699 27.8199 27.5264 27.8199L28.1924 27.8072C35.1362 27.5466 44.0886 23.2921 50.5127 17.6802L50.5381 17.6587C51.9287 16.4708 53.6975 15.8179 55.5264 15.8179Z" stroke="url(#paint0_linear_1_4905)" stroke-width="6" stroke-linecap="round" stroke-linejoin="round"/>
<path d="M62.5396 80.3915C57.9841 81.8723 53.0767 81.8729 48.5207 80.3932C43.9648 78.9136 39.9943 76.0296 37.1781 72.1547C34.362 68.2797 32.8449 63.6127 32.8442 58.8225C32.8435 54.0324 34.3593 49.3649 37.1743 45.4892C39.9893 41.6134 43.959 38.7283 48.5145 37.2473C53.07 35.7663 57.9774 35.7655 62.5333 37.245C67.0893 38.7244 71.06 41.6082 73.8763 45.4831C76.6926 49.3579 78.2099 54.0248 78.2108 58.815" stroke="url(#paint1_linear_1_4905)" stroke-width="5.04073" stroke-linecap="round" stroke-linejoin="round"/>
<defs>
<linearGradient id="paint0_linear_1_4905" x1="55.5223" y1="30.5911" x2="55.5223" y2="96.7157" gradientUnits="userSpaceOnUse">
<stop stop-color="#FF1A00"/>
<stop offset="1" stop-color="#8F0000"/>
</linearGradient>
<linearGradient id="paint1_linear_1_4905" x1="70.7503" y1="53.8672" x2="35.0955" y2="65.4588" gradientUnits="userSpaceOnUse">
<stop stop-color="#FF1A00"/>
<stop offset="1" stop-color="#8F0000"/>
</linearGradient>
</defs>
</svg>
