<svg width="41" height="41" viewBox="0 0 41 41" fill="none" xmlns="http://www.w3.org/2000/svg">
<path d="M19.5 37.5C15.9881 37.5107 12.6005 36.201 10.009 33.8309C7.41752 31.4607 5.81149 28.2031 5.50943 24.7042C5.20737 21.2054 6.23134 17.7208 8.37826 14.9415C10.5252 12.1623 13.6382 10.2914 17.1 9.70003C28.5 7.50003 31.5 6.46003 35.5 1.50003C37.5 5.50003 39.5 9.86003 39.5 17.5C39.5 28.5 29.94 37.5 19.5 37.5Z" stroke="#00FF41" stroke-width="3" stroke-linecap="round" stroke-linejoin="round"/>
<path d="M1.5 39.5C1.5 33.5 5.2 28.78 11.66 27.5C16.5 26.54 21.5 23.5 23.5 21.5" stroke="#00FF41" stroke-width="3" stroke-linecap="round" stroke-linejoin="round"/>
</svg>
