<svg width="36" height="36" viewBox="0 0 36 36" fill="none" xmlns="http://www.w3.org/2000/svg">
<path fill-rule="evenodd" clip-rule="evenodd" d="M17.9998 10.7056C28.4549 5.64013 23.3391 -3.70548 17.9998 1.55851C12.6605 -3.70548 7.54482 5.64013 17.9998 10.7056ZM24.9059 7.01095C24.7658 6.92274 24.6664 6.78248 24.6297 6.62104C24.593 6.45959 24.622 6.29019 24.7102 6.15008C24.7984 6.00998 24.9387 5.91066 25.1001 5.87396C25.2616 5.83727 25.431 5.86622 25.5711 5.95443C27.417 7.11696 28.9721 8.68681 30.1171 10.5436C30.2032 10.6843 30.23 10.8534 30.1917 11.0139C30.1533 11.1743 30.053 11.313 29.9127 11.3997C29.7723 11.4864 29.6033 11.5139 29.4427 11.4763C29.2821 11.4386 29.1429 11.3389 29.0557 11.1989C28.0097 9.50483 26.5903 8.07238 24.9059 7.01095ZM29.0973 24.7318C29.14 24.6618 29.1961 24.6009 29.2624 24.5526C29.3286 24.5042 29.4037 24.4694 29.4835 24.4501C29.5632 24.4308 29.6459 24.4274 29.7269 24.44C29.808 24.4527 29.8857 24.4812 29.9557 24.5239C30.0257 24.5666 30.0866 24.6227 30.135 24.689C30.1833 24.7552 30.2181 24.8304 30.2374 24.9101C30.2568 24.9898 30.2602 25.0725 30.2475 25.1535C30.2348 25.2346 30.2063 25.3123 30.1636 25.3823C29.3281 26.7548 28.2671 27.9766 27.0253 28.9963C26.8972 29.0972 26.7346 29.1438 26.5724 29.1263C26.4103 29.1087 26.2615 29.0283 26.1578 28.9024C26.0542 28.7764 26.0041 28.6149 26.0181 28.4524C26.0321 28.2899 26.1093 28.1394 26.2329 28.033C27.3665 27.1016 28.3349 25.9856 29.0973 24.7321V24.7318ZM9.76674 28.033C9.89452 28.1381 9.97532 28.2896 9.99137 28.4543C10.0074 28.6189 9.9574 28.7832 9.85232 28.911C9.74724 29.0388 9.59571 29.1196 9.43106 29.1356C9.26641 29.1517 9.10212 29.1017 8.97435 28.9966C7.79983 28.0309 6.78653 26.8843 5.97247 25.6001C5.8864 25.46 5.85905 25.2916 5.89635 25.1315C5.93366 24.9714 6.03261 24.8325 6.17173 24.7449C6.31084 24.6573 6.4789 24.6281 6.6394 24.6637C6.7999 24.6992 6.9399 24.7967 7.029 24.9348C7.77094 26.1066 8.69514 27.1525 9.76674 28.033ZM6.3421 12.2894C6.26945 12.438 6.14078 12.5515 5.98438 12.6052C5.82799 12.6589 5.65668 12.6482 5.50815 12.5755C5.35962 12.5029 5.24603 12.3742 5.19237 12.2178C5.13871 12.0614 5.14938 11.8901 5.22202 11.7416C6.38725 9.36708 8.19006 7.36352 10.4288 5.95498C10.5689 5.8689 10.7373 5.84155 10.8974 5.87885C11.0575 5.91616 11.1964 6.01511 11.284 6.15423C11.3716 6.29334 11.4008 6.4614 11.3652 6.6219C11.3296 6.7824 11.2322 6.9224 11.0941 7.0115C9.05331 8.29852 7.40861 10.1253 6.3421 12.2894ZM20.8212 26.8784C19.9797 27.4192 19.0003 27.7068 17.9999 27.7068C16.9995 27.7068 16.0202 27.4192 15.1786 26.8784C13.2307 27.4817 11.5271 28.6926 10.3171 30.3339C9.10711 31.9753 8.45427 33.9609 8.45414 36H27.5455C27.5454 33.9609 26.8926 31.9754 25.6826 30.334C24.4726 28.6927 22.7691 27.4817 20.8212 26.8784ZM17.9998 18.522C18.7843 18.522 19.5511 18.7546 20.2034 19.1904C20.8556 19.6262 21.364 20.2456 21.6642 20.9703C21.9644 21.695 22.043 22.4925 21.8899 23.2619C21.7369 24.0312 21.3592 24.738 20.8045 25.2927C20.2498 25.8473 19.5431 26.2251 18.7737 26.3781C18.0043 26.5312 17.2069 26.4526 16.4821 26.1524C15.7574 25.8523 15.138 25.3439 14.7021 24.6917C14.2663 24.0394 14.0337 23.2726 14.0337 22.4882C14.0337 21.4363 14.4516 20.4275 15.1954 19.6837C15.9391 18.9399 16.948 18.522 17.9998 18.522ZM6.77716 23.0664C9.38248 20.8157 9.09252 17.7038 7.65024 16.6221C6.07437 15.4404 5.26914 16.8197 4.36976 16.8197C3.47038 16.8197 2.66507 15.4402 1.08928 16.6221C-0.353004 17.7038 -0.642962 20.8157 1.96228 23.0664C2.19347 23.2662 2.67892 23.5551 3.19983 23.4699C3.97427 23.3381 4.76541 23.3381 5.53984 23.4699C6.06075 23.5551 6.54621 23.2665 6.77739 23.0664H6.77716ZM4.03057 15.3864L4.36952 15.5546C4.46015 15.5194 4.58145 15.452 4.64915 15.417C4.92692 15.2649 5.21734 15.1371 5.51715 15.0351C6.03865 14.8644 6.59818 14.8469 7.12933 14.9847C7.2543 14.9285 7.35738 14.8329 7.42273 14.7125C7.48808 14.5921 7.51209 14.4536 7.49107 14.3183C7.47005 14.1829 7.40515 14.0582 7.30636 13.9633C7.20757 13.8684 7.08035 13.8085 6.94424 13.793C6.25703 13.7142 5.56439 13.8852 4.9928 14.2747C4.68116 13.2536 3.53322 12.3652 2.562 12.5341C2.39413 13.5004 3.27245 14.6416 4.28696 14.9602C4.18922 15.0945 4.10335 15.237 4.03034 15.3862L4.03057 15.3864ZM31.5752 14.6359C32.5333 14.6345 33.4658 14.9454 34.2313 15.5215C34.2408 15.5105 34.2508 15.4997 34.2613 15.4892C34.7036 15.047 35.0192 14.238 34.307 13.8269L34.3076 13.8259C32.7239 12.9126 30.4282 12.9109 28.8435 13.8269C28.1365 14.2357 28.438 15.0381 28.8892 15.4892C28.8996 15.4996 28.9097 15.5104 28.9193 15.5215C29.6847 14.9454 30.6172 14.6345 31.5752 14.6359ZM35.1144 16.4046C35.6076 17.062 35.9081 17.8437 35.982 18.6621C36.056 19.4806 35.9006 20.3036 35.5331 21.0387C35.1657 21.7738 34.6008 22.392 33.9017 22.8241C33.2027 23.2562 32.3971 23.4851 31.5753 23.4851C30.7534 23.4851 29.9478 23.2562 29.2488 22.8241C28.5497 22.392 27.9848 21.7738 27.6174 21.0387C27.25 20.3036 27.0945 19.4806 27.1685 18.6621C27.2424 17.8437 27.5429 17.062 28.0362 16.4046C28.0252 16.395 28.0144 16.3849 28.0038 16.3745C26.9608 15.3315 26.7699 13.5822 28.2174 12.7459C30.1777 11.6133 33.008 11.597 34.9322 12.747L34.9329 12.7459C36.401 13.5936 36.1685 15.352 35.1464 16.3745C35.1363 16.385 35.1256 16.395 35.1144 16.4046Z" fill="#AFAFAF"/>
</svg>
