<svg width="16" height="16" viewBox="0 0 16 16" fill="none" xmlns="http://www.w3.org/2000/svg">
<path d="M13.3337 6.66665C13.3337 9.99531 9.64099 13.462 8.40099 14.5326C8.28548 14.6195 8.14486 14.6665 8.00033 14.6665C7.85579 14.6665 7.71518 14.6195 7.59966 14.5326C6.35966 13.462 2.66699 9.99531 2.66699 6.66665C2.66699 5.25216 3.2289 3.8956 4.22909 2.89541C5.22928 1.89522 6.58584 1.33331 8.00033 1.33331C9.41481 1.33331 10.7714 1.89522 11.7716 2.89541C12.7718 3.8956 13.3337 5.25216 13.3337 6.66665Z" stroke="#00E5FF" stroke-width="1.33333" stroke-linecap="round" stroke-linejoin="round"/>
<path d="M8 8.66669C9.10457 8.66669 10 7.77126 10 6.66669C10 5.56212 9.10457 4.66669 8 4.66669C6.89543 4.66669 6 5.56212 6 6.66669C6 7.77126 6.89543 8.66669 8 8.66669Z" stroke="#00E5FF" stroke-width="1.33333" stroke-linecap="round" stroke-linejoin="round"/>
</svg>
