<svg width="12" height="16" viewBox="0 0 12 16" fill="none" xmlns="http://www.w3.org/2000/svg">
<path d="M5.81902 0.5C2.88248 0.5 0.5 2.62263 0.5 5.23692C0.5 8.24504 4.04601 13.012 5.34806 14.6586C5.40211 14.7281 5.47295 14.7846 5.55479 14.8236C5.63664 14.8626 5.72718 14.8829 5.81902 14.8829C5.91085 14.8829 6.00139 14.8626 6.08324 14.8236C6.16509 14.7846 6.23592 14.7281 6.28997 14.6586C7.59202 13.0127 11.138 8.24746 11.138 5.23692C11.138 2.62263 8.75556 0.5 5.81902 0.5Z" stroke="white" stroke-linecap="round" stroke-linejoin="round"/>
<path d="M5.81793 7.13864C6.79713 7.13864 7.59093 6.39559 7.59093 5.47899C7.59093 4.56239 6.79713 3.81934 5.81793 3.81934C4.83872 3.81934 4.04492 4.56239 4.04492 5.47899C4.04492 6.39559 4.83872 7.13864 5.81793 7.13864Z" stroke="white" stroke-linecap="round" stroke-linejoin="round"/>
</svg>
