<svg width="18" height="23" viewBox="0 0 18 23" fill="none" xmlns="http://www.w3.org/2000/svg">
<path d="M18 9.35593C18 4.17119 13.875 0 9 0C4.0125 0 0 4.17119 0 9.35593C0 9.47288 0 9.62881 0 9.74576C0 9.78475 0.15 11.1492 0.3 11.7339C1.35 16.2949 4.9125 19.7644 9 23C13.0875 19.7644 16.65 16.2949 17.7 11.7339C17.85 11.1492 18 9.82373 18 9.74576C18 9.62881 18 9.47288 18 9.35593ZM9 13.2542C6.9375 13.2542 5.25 11.5 5.25 9.35593C5.25 7.21186 6.9375 5.45763 9 5.45763C11.0625 5.45763 12.75 7.21186 12.75 9.35593C12.75 11.5 11.0625 13.2542 9 13.2542Z" fill="white"/>
</svg>
