<svg width="12" height="14" viewBox="0 0 12 14" fill="none" xmlns="http://www.w3.org/2000/svg">
<path d="M10.2492 1.71589C9.12324 0.617211 7.59613 -1.41206e-05 6.00381 2.42287e-10C4.41148 1.41211e-05 2.88438 0.617267 1.75845 1.71597C0.63252 2.81467 -1.44471e-05 4.30482 2.47483e-10 5.85861C1.44476e-05 7.41239 0.632576 8.90253 1.75853 10.0012L5.75236 13.8984C5.7853 13.9306 5.82443 13.9562 5.86751 13.9736C5.91058 13.991 5.95676 14 6.0034 14C6.05003 14 6.09621 13.991 6.13929 13.9736C6.18237 13.9562 6.2215 13.9306 6.25444 13.8984L10.2483 10.0012C11.3702 8.90044 12 7.41106 12 5.85855C12 4.30605 11.3702 2.81667 10.2483 1.71589H10.2492ZM6.00386 9.57012C5.24424 9.57012 4.50168 9.35032 3.87008 8.93851C3.23848 8.5267 2.74621 7.94138 2.45551 7.25657C2.16482 6.57176 2.08876 5.81821 2.23695 5.09122C2.38515 4.36422 2.75094 3.69644 3.28807 3.17231C3.8252 2.64817 4.50955 2.29123 5.25458 2.14663C5.9996 2.00202 6.77184 2.07624 7.47364 2.35989C8.17543 2.64355 8.77527 3.12391 9.19729 3.74023C9.61932 4.35654 9.84457 5.08113 9.84457 5.82237C9.84343 6.81599 9.43841 7.7686 8.71839 8.4712C7.99836 9.1738 7.02213 9.56901 6.00386 9.57012Z" fill="url(#paint0_linear_1_4012)"/>
<defs>
<linearGradient id="paint0_linear_1_4012" x1="6" y1="-3.5" x2="6" y2="18.48" gradientUnits="userSpaceOnUse">
<stop stop-color="#3505E2"/>
<stop offset="1" stop-color="#F00A44"/>
</linearGradient>
</defs>
</svg>
