<svg width="21" height="26" viewBox="0 0 21 26" fill="none" xmlns="http://www.w3.org/2000/svg">
<path d="M9.09961 16.8999C9.09961 16.1819 9.68162 15.5999 10.3996 15.5999C11.1176 15.5999 11.6996 16.1819 11.6996 16.8999V18.1999C11.6996 18.9179 11.1176 19.4999 10.3996 19.4999C9.68162 19.4999 9.09961 18.9179 9.09961 18.1999V16.8999Z" fill="#62748E"/>
<path d="M10.4004 0.150391C13.9072 0.150602 16.75 2.99313 16.75 6.5V10.4004C16.75 10.4536 16.7493 10.5067 16.748 10.5596L16.7451 10.6787L16.8604 10.709C19.0393 11.2689 20.6502 13.2462 20.6504 15.5996V20.7998C20.6504 23.5888 18.3886 25.8496 15.5996 25.8496H5.2002C2.41116 25.8496 0.150391 23.5888 0.150391 20.7998V15.5996C0.150569 13.2462 1.76044 11.2689 3.93945 10.709L4.05469 10.6787L4.05176 10.5596C4.05045 10.5067 4.04981 10.4536 4.0498 10.4004V6.5C4.0498 2.993 6.89339 0.150391 10.4004 0.150391ZM5.2002 12.8496C3.68154 12.8496 2.45041 14.081 2.4502 15.5996V20.7998C2.4502 22.3186 3.68141 23.5498 5.2002 23.5498H15.5996C17.1184 23.5498 18.3496 22.3186 18.3496 20.7998V15.5996C18.3494 14.081 17.1183 12.8496 15.5996 12.8496H5.2002ZM10.4004 2.4502C8.16358 2.4502 6.34961 4.26325 6.34961 6.5V10.5498H14.4502V6.5C14.4502 4.26338 12.637 2.45041 10.4004 2.4502Z" fill="#62748E" stroke="#F0F0F0" stroke-width="0.3"/>
</svg>
