<svg width="24" height="24" viewBox="0 0 24 24" fill="none" xmlns="http://www.w3.org/2000/svg">
<path d="M18.9933 10.9961H4.99831C3.89414 10.9961 2.99902 11.8912 2.99902 12.9954V19.9929C2.99902 21.0971 3.89414 21.9922 4.99831 21.9922H18.9933C20.0975 21.9922 20.9926 21.0971 20.9926 19.9929V12.9954C20.9926 11.8912 20.0975 10.9961 18.9933 10.9961Z" stroke="#00E5FF" stroke-width="1.99929" stroke-linecap="round" stroke-linejoin="round"/>
<path d="M6.99707 10.9961V6.99749C6.99707 5.67188 7.52367 4.40056 8.46102 3.46321C9.39837 2.52586 10.6697 1.99927 11.9953 1.99927C13.3209 1.99927 14.5922 2.52586 15.5296 3.46321C16.4669 4.40056 16.9935 5.67188 16.9935 6.99749V10.9961" stroke="#00E5FF" stroke-width="1.99929" stroke-linecap="round" stroke-linejoin="round"/>
</svg>
