<svg width="161" height="47" viewBox="0 0 161 47" fill="none" xmlns="http://www.w3.org/2000/svg">
<path d="M154.049 40.8323C152.605 40.8323 151.32 40.5023 150.196 39.8423C149.09 39.1644 148.225 38.2546 147.601 37.113C146.976 35.9535 146.664 34.6602 146.664 33.2331C146.664 31.7703 146.976 30.4771 147.601 29.3532C148.243 28.2294 149.099 27.3464 150.17 26.7042C151.24 26.0442 152.453 25.7142 153.809 25.7142C154.897 25.7142 155.869 25.9015 156.725 26.2761C157.581 26.6507 158.304 27.168 158.893 27.828C159.481 28.4702 159.927 29.2105 160.23 30.0489C160.552 30.8873 160.712 31.7793 160.712 32.7247C160.712 32.9566 160.703 33.1974 160.685 33.4472C160.668 33.6969 160.632 33.9288 160.578 34.1429H149.046V31.7347H158.866L157.421 32.8317C157.599 31.9576 157.537 31.1817 157.234 30.5038C156.948 29.8081 156.502 29.264 155.896 28.8716C155.307 28.4613 154.611 28.2562 153.809 28.2562C153.006 28.2562 152.292 28.4613 151.668 28.8716C151.044 29.264 150.562 29.8349 150.223 30.5841C149.884 31.3155 149.75 32.2074 149.822 33.2599C149.733 34.241 149.866 35.0972 150.223 35.8286C150.598 36.56 151.115 37.1308 151.775 37.5411C152.453 37.9514 153.22 38.1565 154.076 38.1565C154.95 38.1565 155.691 37.9603 156.297 37.5678C156.921 37.1754 157.412 36.667 157.769 36.0427L160.23 37.2468C159.945 37.9246 159.499 38.54 158.893 39.093C158.304 39.6282 157.59 40.0563 156.752 40.3774C155.931 40.6807 155.031 40.8323 154.049 40.8323Z" fill="#FDFDFC"/>
<path d="M143.266 40.6718C141.75 40.6718 140.572 40.2437 139.734 39.3874C138.896 38.5312 138.476 37.3271 138.476 35.7751V28.7646H135.934V26.0353H136.336C137.014 26.0353 137.54 25.8391 137.914 25.4466C138.289 25.0542 138.476 24.519 138.476 23.8412V22.7173H141.5V26.0353H144.791V28.7646H141.5V35.6413C141.5 36.1408 141.58 36.5689 141.741 36.9257C141.901 37.2646 142.16 37.5322 142.517 37.7284C142.874 37.9068 143.337 37.996 143.908 37.996C144.051 37.996 144.211 37.9871 144.39 37.9693C144.568 37.9514 144.738 37.9336 144.898 37.9157V40.5112C144.648 40.5469 144.372 40.5826 144.069 40.6183C143.765 40.6539 143.498 40.6718 143.266 40.6718Z" fill="#FDFDFC"/>
<path d="M126.466 40.8323C125.485 40.8323 124.62 40.6628 123.87 40.3239C123.139 39.9671 122.568 39.4855 122.158 38.879C121.747 38.2546 121.542 37.5233 121.542 36.6848C121.542 35.9 121.712 35.1953 122.051 34.571C122.408 33.9466 122.952 33.4204 123.683 32.9923C124.414 32.5642 125.333 32.2609 126.439 32.0825L131.469 31.253V33.6345L127.028 34.4104C126.225 34.5531 125.636 34.8118 125.262 35.1864C124.887 35.5432 124.7 36.007 124.7 36.5778C124.7 37.1308 124.905 37.5857 125.315 37.9425C125.743 38.2814 126.287 38.4509 126.947 38.4509C127.768 38.4509 128.482 38.2725 129.088 37.9157C129.712 37.5589 130.194 37.0862 130.533 36.4975C130.872 35.891 131.041 35.2221 131.041 34.4907V30.7714C131.041 30.0578 130.774 29.4781 130.239 29.0321C129.721 28.5683 129.026 28.3364 128.152 28.3364C127.349 28.3364 126.644 28.5505 126.038 28.9786C125.449 29.3889 125.012 29.9241 124.727 30.5841L122.211 29.3265C122.479 28.6129 122.916 27.9886 123.522 27.4534C124.129 26.9004 124.834 26.4723 125.636 26.1691C126.457 25.8658 127.322 25.7142 128.232 25.7142C129.373 25.7142 130.381 25.9282 131.255 26.3564C132.147 26.7845 132.834 27.3821 133.316 28.1491C133.815 28.8983 134.065 29.7724 134.065 30.7714V40.5112H131.175V37.8889L131.791 37.9692C131.452 38.5579 131.015 39.0663 130.479 39.4944C129.962 39.9225 129.365 40.2525 128.687 40.4844C128.027 40.7163 127.286 40.8323 126.466 40.8323Z" fill="#FDFDFC"/>
<path d="M111.229 40.8323C109.838 40.8323 108.589 40.5022 107.483 39.8422C106.395 39.1644 105.53 38.2546 104.888 37.1129C104.263 35.9713 103.951 34.6869 103.951 33.2598C103.951 31.8327 104.272 30.5484 104.915 29.4067C105.557 28.265 106.422 27.3642 107.51 26.7042C108.598 26.0441 109.829 25.7141 111.203 25.7141C112.362 25.7141 113.388 25.946 114.28 26.4098C115.172 26.8736 115.876 27.5158 116.394 28.3364L115.939 29.0321V20.2556H118.936V40.5112H116.073V37.5678L116.42 38.1297C115.921 39.0038 115.207 39.6727 114.28 40.1365C113.352 40.6003 112.335 40.8323 111.229 40.8323ZM111.524 38.0227C112.362 38.0227 113.111 37.8175 113.771 37.4073C114.449 36.997 114.975 36.4351 115.35 35.7215C115.743 34.9901 115.939 34.1696 115.939 33.2598C115.939 32.35 115.743 31.5384 115.35 30.8249C114.975 30.1113 114.449 29.5494 113.771 29.1391C113.111 28.7288 112.362 28.5237 111.524 28.5237C110.685 28.5237 109.927 28.7288 109.249 29.1391C108.571 29.5494 108.045 30.1113 107.671 30.8249C107.296 31.5384 107.109 32.35 107.109 33.2598C107.109 34.1696 107.296 34.9901 107.671 35.7215C108.045 36.4351 108.563 36.997 109.223 37.4073C109.9 37.8175 110.667 38.0227 111.524 38.0227Z" fill="#FDFDFC"/>
<path d="M93.7398 40.8323C92.7587 40.8323 91.8936 40.6628 91.1443 40.3239C90.413 39.9671 89.8421 39.4855 89.4318 38.879C89.0215 38.2546 88.8164 37.5233 88.8164 36.6848C88.8164 35.9 88.9859 35.1953 89.3248 34.571C89.6816 33.9466 90.2257 33.4204 90.957 32.9923C91.6884 32.5642 92.6071 32.2609 93.7131 32.0825L98.7435 31.253V33.6345L94.3017 34.4104C93.499 34.5531 92.9103 34.8118 92.5357 35.1864C92.1611 35.5432 91.9738 36.007 91.9738 36.5778C91.9738 37.1308 92.179 37.5857 92.5892 37.9425C93.0174 38.2814 93.5614 38.4509 94.2215 38.4509C95.042 38.4509 95.7556 38.2725 96.3621 37.9157C96.9864 37.5589 97.4681 37.0862 97.807 36.4975C98.1459 35.891 98.3154 35.2221 98.3154 34.4907V30.7714C98.3154 30.0578 98.0478 29.4781 97.5127 29.0321C96.9954 28.5683 96.2997 28.3364 95.4256 28.3364C94.6228 28.3364 93.9182 28.5505 93.3117 28.9786C92.723 29.3889 92.286 29.9241 92.0006 30.5841L89.4853 29.3265C89.7529 28.6129 90.19 27.9886 90.7965 27.4534C91.403 26.9004 92.1076 26.4723 92.9103 26.1691C93.7309 25.8658 94.5961 25.7142 95.5058 25.7142C96.6475 25.7142 97.6554 25.9282 98.5295 26.3564C99.4214 26.7845 100.108 27.3821 100.59 28.1491C101.089 28.8983 101.339 29.7724 101.339 30.7714V40.5112H98.4492V37.8889L99.0646 37.9692C98.7257 38.5579 98.2886 39.0663 97.7535 39.4944C97.2362 39.9225 96.6386 40.2525 95.9607 40.4844C95.3007 40.7163 94.5604 40.8323 93.7398 40.8323Z" fill="#FDFDFC"/>
<path d="M74.0612 40.5112V26.0353H76.951V28.8716L76.6031 28.497C76.9599 27.5872 77.5307 26.9004 78.3156 26.4366C79.1005 25.955 80.0103 25.7142 81.0449 25.7142C82.1152 25.7142 83.0607 25.9461 83.8813 26.4099C84.7018 26.8737 85.344 27.5159 85.8078 28.3364C86.2716 29.157 86.5035 30.1024 86.5035 31.1728V40.5112H83.5066V31.9755C83.5066 31.2441 83.3729 30.6287 83.1053 30.1292C82.8377 29.6119 82.4542 29.2194 81.9547 28.9519C81.4731 28.6664 80.9201 28.5237 80.2957 28.5237C79.6714 28.5237 79.1095 28.6664 78.61 28.9519C78.1283 29.2194 77.7537 29.6119 77.4861 30.1292C77.2186 30.6465 77.0848 31.2619 77.0848 31.9755V40.5112H74.0612Z" fill="#FDFDFC"/>
<path d="M64.7821 40.8323C63.3372 40.8323 62.0528 40.5023 60.929 39.8423C59.823 39.1644 58.9578 38.2546 58.3335 37.113C57.7091 35.9535 57.397 34.6602 57.397 33.2331C57.397 31.7703 57.7091 30.4771 58.3335 29.3532C58.9757 28.2294 59.8319 27.3464 60.9022 26.7042C61.9725 26.0442 63.1856 25.7142 64.5413 25.7142C65.6294 25.7142 66.6016 25.9015 67.4579 26.2761C68.3141 26.6507 69.0366 27.168 69.6253 27.828C70.2139 28.4702 70.6599 29.2105 70.9631 30.0489C71.2842 30.8873 71.4448 31.7793 71.4448 32.7247C71.4448 32.9566 71.4359 33.1974 71.418 33.4472C71.4002 33.6969 71.3645 33.9288 71.311 34.1429H59.7784V31.7347H69.5985L68.1536 32.8317C68.332 31.9576 68.2695 31.1817 67.9663 30.5038C67.6809 29.8081 67.2349 29.264 66.6284 28.8716C66.0397 28.4613 65.344 28.2562 64.5413 28.2562C63.7386 28.2562 63.025 28.4613 62.4007 28.8716C61.7763 29.264 61.2947 29.8349 60.9558 30.5841C60.6168 31.3155 60.483 32.2074 60.5544 33.2599C60.4652 34.241 60.599 35.0972 60.9558 35.8286C61.3304 36.56 61.8477 37.1308 62.5077 37.5411C63.1856 37.9514 63.9526 38.1565 64.8089 38.1565C65.683 38.1565 66.4232 37.9603 67.0298 37.5678C67.6541 37.1754 68.1447 36.667 68.5014 36.0427L70.9631 37.2468C70.6777 37.9246 70.2318 38.54 69.6253 39.093C69.0366 39.6282 68.323 40.0563 67.4846 40.3774C66.6641 40.6807 65.7632 40.8323 64.7821 40.8323Z" fill="#FDFDFC"/>
<path d="M48.6256 40.5112V26.0353H51.5154V28.9519L51.2479 28.5237C51.569 27.5783 52.0863 26.9004 52.7998 26.4901C53.5134 26.062 54.3696 25.848 55.3686 25.848H56.2516V28.604H54.994C53.995 28.604 53.1833 28.9162 52.559 29.5405C51.9525 30.147 51.6492 31.0211 51.6492 32.1628V40.5112H48.6256Z" fill="#FDFDFC"/>
<path d="M35.0103 46.3979C34.6536 46.3979 34.2968 46.3622 33.94 46.2909C33.6011 46.2374 33.2889 46.1482 33.0035 46.0233V43.4278C33.2176 43.4813 33.4762 43.5259 33.7795 43.5616C34.0827 43.6151 34.3771 43.6419 34.6625 43.6419C35.5009 43.6419 36.1163 43.4546 36.5088 43.08C36.919 42.7232 37.2847 42.1702 37.6058 41.421L38.5691 39.2268L38.5156 41.7688L32.2543 26.0353H35.492L40.121 38.103H39.024L43.6263 26.0353H46.8908L40.4957 42.0899C40.1567 42.9462 39.7286 43.6954 39.2113 44.3376C38.7118 44.9976 38.1142 45.506 37.4185 45.8628C36.7407 46.2195 35.9379 46.3979 35.0103 46.3979Z" fill="#FDFDFC"/>
<path d="M15.7335 41.1534C13.2362 41.1534 10.9172 40.6896 8.77654 39.762C6.63592 38.7987 4.81639 37.4965 3.31796 35.8554C1.81953 34.2142 0.71354 32.3233 0 30.1827L5.35155 27.9351C6.31483 30.3968 7.72407 32.2877 9.57927 33.6077C11.4345 34.9278 13.5751 35.5878 16.0011 35.5878C17.4282 35.5878 18.6769 35.3737 19.7472 34.9456C20.8175 34.4818 21.6381 33.8396 22.2089 33.019C22.8154 32.1985 23.1187 31.253 23.1187 30.1827C23.1187 28.72 22.7084 27.5605 21.8878 26.7042C21.0673 25.848 19.8542 25.1701 18.2488 24.6706L10.7566 22.3159C7.75974 21.3883 5.47642 19.9791 3.90663 18.0882C2.33684 16.1617 1.55195 13.914 1.55195 11.3453C1.55195 9.09763 2.10494 7.13539 3.21093 5.45858C4.31691 3.74608 5.83319 2.4082 7.75974 1.44492C9.72198 0.481639 11.9518 0 14.4492 0C16.8395 0 19.0158 0.428124 20.9781 1.28437C22.9403 2.10494 24.6171 3.2466 26.0085 4.70936C27.4356 6.17212 28.4702 7.86677 29.1124 9.79333L23.8679 12.0945C23.083 9.98955 21.8522 8.36625 20.1753 7.22459C18.5342 6.08292 16.6255 5.51209 14.4492 5.51209C13.1291 5.51209 11.9696 5.74399 10.9707 6.20779C9.97172 6.63592 9.18682 7.2781 8.61599 8.13435C8.08084 8.95492 7.81326 9.9182 7.81326 11.0242C7.81326 12.3086 8.22354 13.4502 9.04411 14.4492C9.86469 15.4481 11.1134 16.1973 12.7902 16.6968L19.7472 18.891C22.9225 19.8542 25.3128 21.2456 26.9183 23.0652C28.5237 24.849 29.3265 27.0788 29.3265 29.7546C29.3265 31.9666 28.7378 33.9288 27.5605 35.6413C26.4188 37.3538 24.8312 38.7095 22.7976 39.7085C20.764 40.6718 18.4093 41.1534 15.7335 41.1534Z" fill="#FDFDFC"/>
</svg>
