<svg width="40" height="51" viewBox="0 0 40 51" fill="none" xmlns="http://www.w3.org/2000/svg">
<path d="M13.0956 3.87947C13.0011 3.85846 12.9023 3.83535 12.8015 3.81644C12.3014 3.70929 12.3981 3.3374 12.6082 3.00124C12.8561 2.60834 13.2112 2.37091 13.6839 2.28899C13.707 2.28689 13.7217 2.27218 13.7238 2.24697C13.8058 1.61034 13.9928 1.01782 14.2869 0.465266C14.3458 0.356014 14.4361 0.248859 14.5538 0.145905C14.8668 -0.125135 15.2135 0.0282451 15.5245 0.227844C16.2304 0.681674 16.9595 1.02626 17.7831 1.21323C18.9765 1.49056 20.1216 1.57461 21.4578 1.69227C21.4872 1.69437 21.4957 1.68386 21.4872 1.65865C21.4032 1.40652 21.212 0.574514 21.6931 0.559776C21.7415 0.559776 21.8276 0.589191 21.9495 0.650122C22.3025 0.820311 22.6765 0.883338 23.0841 0.933764C23.5799 0.996797 23.9875 1.0094 24.4225 1.11025C24.8994 1.2195 25.349 1.37288 25.7692 1.56618C26.6055 1.95278 27.345 2.63564 27.6077 3.5412C27.6896 3.82064 27.698 4.098 27.6329 4.37323C27.6308 4.38374 27.6329 4.39214 27.6434 4.39634C28.7338 4.61696 29.7613 5.21154 30.3244 6.18014C30.7572 6.92601 30.8833 7.91984 30.8601 8.80227C30.8454 9.29182 30.8244 9.6868 30.7845 9.98936C30.5996 11.4685 30.2529 12.9119 29.7445 14.3155C29.7445 14.3176 29.7445 14.3218 29.7487 14.326C29.7508 14.3302 29.7571 14.3302 29.7592 14.326C30.068 14.2083 30.4651 14.1894 30.7677 14.3092C31.1018 14.4436 31.3623 14.6264 31.5472 14.8596C32.4149 15.9521 32.2657 17.3137 31.6501 18.507C31.3077 19.171 30.8601 19.711 30.3075 20.1249C30.068 20.3076 29.7907 20.4442 29.4797 20.543C29.0784 20.6669 28.6435 20.6543 28.1728 20.5072C28.156 20.5009 28.1434 20.5072 28.1371 20.5262C27.7589 21.7448 27.2063 22.8856 26.4752 23.9467C26.1285 24.451 25.7524 24.9027 25.3469 25.2998C25.3238 25.325 25.3112 25.3523 25.3112 25.3859C25.286 25.9658 25.286 26.5772 25.3133 27.2138C25.3553 28.1635 25.5549 29.1342 25.8428 30.0587C25.8533 30.0923 25.8743 30.0986 25.9037 30.0755C26.0529 29.9473 26.1894 29.9746 26.3407 30.0965C26.4458 30.1742 26.6559 30.3171 26.8029 30.4369C27.2295 30.7857 27.7232 31.2017 28.2821 31.6954C28.5847 31.9622 28.8662 32.227 29.1183 32.4959C29.3579 32.7522 29.5217 32.8867 29.507 33.1745C29.4986 33.4162 29.4755 33.6452 29.4377 33.8658C29.4314 33.8973 29.4419 33.9204 29.4713 33.9372C30.5471 34.6054 31.6018 35.2189 32.8856 35.8912C33.6756 36.303 34.3458 36.656 34.8921 36.9502C35.4132 37.2275 35.8712 37.5091 36.2746 37.7864C37.2222 38.4377 37.926 39.379 38.4303 40.4464C39.1951 42.0747 39.5858 43.7955 39.7329 45.6024C39.8632 47.2538 39.9178 48.8716 39.9683 50.6407C39.9683 50.6701 39.9557 50.689 39.9368 50.7058C39.6846 50.8907 39.4409 50.8172 39.1636 50.8214C22.4056 50.897 9.47354 50.958 0.371661 51C0.0859165 51.0021 -0.0338464 50.729 0.0081776 50.4873C0.0312894 50.3424 0.0859163 50.1154 0.111132 49.9432C0.270815 48.796 0.417886 47.8043 0.54605 46.9744C0.831795 45.1171 1.23732 43.2366 1.82559 41.4424C2.0357 40.8057 2.21849 40.2784 2.37815 39.8624C2.63869 39.1753 2.95803 38.5513 3.33411 37.9903C3.44336 37.8285 3.63666 37.5974 3.91399 37.3012C4.50651 36.6645 5.30068 36.2759 6.0949 35.9712C7.33873 35.4879 8.15393 35.261 9.95037 34.7021C10.6795 34.471 11.4148 34.2168 12.1607 33.9394C12.2048 33.9226 12.2258 33.889 12.2132 33.8407C12.1544 33.5675 12.1775 33.2566 12.3792 33.0234C13.3016 31.9644 14.3689 31.0253 15.5728 30.2058C15.6317 30.1659 15.7304 30.1134 15.8733 30.0399C16.1443 29.9033 16.4469 29.9075 16.7305 29.9642C16.76 29.9705 16.7768 29.9579 16.7831 29.9285C16.8524 29.4579 16.886 29.0083 16.886 28.5796C16.886 27.2728 16.8902 26.4828 16.9154 25.823C16.9154 25.7768 16.9007 25.739 16.8671 25.7096C15.5329 24.4931 14.6505 22.9698 14.0412 21.2658C14.0328 21.2406 14.0181 21.2343 13.995 21.2469C13.9088 21.2847 13.7849 21.3163 13.6903 21.3247C13.06 21.3898 12.4717 21.2931 11.9275 21.0473C10.7762 20.52 10.0093 19.3833 9.80127 18.1289C9.6584 17.2591 9.80968 16.4754 10.2551 15.7778C10.4526 15.469 10.7888 15.1496 11.1417 15.0193C11.5788 14.8596 12.0263 14.8849 12.4822 15.0971C12.4885 15.0971 12.4906 15.0971 12.4969 15.095C12.499 15.0908 12.5032 15.0866 12.5032 15.0803C12.4129 14.5361 12.2784 13.9226 12.0578 13.494C11.9486 13.2818 11.8078 13.0317 11.6397 12.7502C11.5199 12.5485 11.4947 12.33 11.5641 12.0946C11.6481 11.811 11.7132 11.5904 11.7574 11.4328C11.7847 11.334 11.7574 11.2563 11.7048 11.1639C11.522 10.8529 11.3855 10.5734 11.293 10.3297C11.0241 9.62586 10.9863 8.9178 11.188 8.20345C11.2447 7.99755 11.3435 7.75803 11.4779 7.48066C11.4821 7.47436 11.4821 7.46595 11.4779 7.45965C11.4716 7.45545 11.4653 7.45125 11.4569 7.45125C11.2363 7.46595 10.9737 7.49327 10.8833 7.24954C10.856 7.17391 10.8644 7.05415 10.9064 6.88816C11.2447 5.59813 11.9108 4.55175 13.0999 3.90463C13.1041 3.90253 13.1083 3.89623 13.1083 3.89203C13.1083 3.88572 13.1019 3.88368 13.0956 3.87947ZM27.0868 14.6159C27.0889 14.6243 27.0931 14.6264 27.0973 14.6201L28.3033 13.9877C28.3222 13.9772 28.3306 13.9604 28.3285 13.9373C28.3075 13.7692 28.2865 13.5675 28.2612 13.3259C28.2549 13.2629 28.2318 13.2229 28.1961 13.2082C28.0511 13.1494 27.9755 13.0612 27.8515 12.9057C27.3494 12.3006 27.0679 11.6765 26.8073 10.8929C26.6392 10.3907 26.5174 9.86121 26.4417 9.30027C26.4375 9.24984 26.4165 9.20782 26.3808 9.1721C25.9081 8.65944 25.5341 8.08167 25.2693 7.4408C25.2126 7.30423 25.1727 7.14455 25.1433 7.0395C25.137 7.02059 25.1265 7.01849 25.1097 7.02689C24.6348 7.30423 24.1053 7.53955 23.5213 7.73495C22.1766 8.18667 20.792 8.37367 19.3738 8.30014C18.7603 8.27073 18.1468 8.17828 17.529 8.02701C17.0353 7.90304 16.7076 7.8127 16.5479 7.76017C16.5311 7.75387 16.5163 7.75807 16.5079 7.77488C16.3378 8.07954 16.1466 8.34847 15.9344 8.58169C15.5562 8.9956 15.1296 9.39689 14.6548 9.77931C14.638 9.79192 14.6296 9.80873 14.6233 9.82764C14.5287 10.2563 14.3628 10.7017 14.1337 11.1639C13.9762 11.4812 13.8753 11.6661 13.8354 11.7186C13.8228 11.7375 13.8186 11.7585 13.8249 11.7795C13.8417 11.8446 13.848 12.0043 13.8438 12.2649C13.8396 12.809 14.0077 13.3343 13.8774 13.8764C13.8249 14.0907 13.7976 14.2882 13.7934 14.4668C13.7934 14.4941 13.806 14.5193 13.8312 14.5361L14.2304 14.8303C14.243 14.8387 14.2514 14.8366 14.2535 14.8219C14.6233 13.3722 15.865 12.4161 17.3547 12.4057C17.756 12.3994 18.1383 12.475 18.506 12.6284C19.565 13.0654 20.3466 14.0361 20.4642 15.1728C20.4642 15.1959 20.4747 15.2043 20.4978 15.1959C20.6806 15.1286 20.8571 15.1202 21.021 15.1728C21.0336 15.1749 21.0378 15.1707 21.042 15.1581C21.063 14.7715 21.1702 14.3975 21.3551 14.0319C21.8068 13.1536 22.601 12.559 23.5738 12.3846C23.891 12.33 24.1768 12.3153 24.4331 12.3468C25.2295 12.4414 25.8955 12.7922 26.4334 13.3973C26.7443 13.7461 26.9628 14.1537 27.0868 14.6159ZM26.6644 15.4186C26.6644 15.0803 26.5972 14.7546 26.4669 14.4416C26.3388 14.1285 26.1539 13.8532 25.9165 13.6158C25.6748 13.3742 25.3996 13.1893 25.0865 13.0612C24.7735 12.9309 24.4478 12.8679 24.1095 12.8679C23.7692 12.8679 23.4456 12.9309 23.1346 13.0612C22.8195 13.1893 22.5421 13.3742 22.3047 13.6158C22.0631 13.8532 21.8824 14.1285 21.7501 14.4416C21.6219 14.7546 21.5568 15.0803 21.5568 15.4186C21.5568 15.7589 21.6219 16.0825 21.7501 16.3976C21.8824 16.7086 22.0631 16.986 22.3047 17.2234C22.5421 17.465 22.8195 17.6499 23.1346 17.778C23.4456 17.9062 23.7692 17.9713 24.1095 17.9713C24.4478 17.9713 24.7735 17.9062 25.0865 17.778C25.3996 17.6499 25.6749 17.465 25.9165 17.2234C26.1539 16.986 26.3388 16.7086 26.4669 16.3976C26.5972 16.0825 26.6644 15.7589 26.6644 15.4186ZM19.962 15.5677C19.962 15.2169 19.8948 14.8807 19.7603 14.5592C19.6258 14.2377 19.4367 13.952 19.1888 13.7041C18.943 13.4583 18.6593 13.2671 18.3358 13.1368C18.0122 13.0023 17.6802 12.9351 17.3294 12.9351C16.9785 12.9351 16.6424 13.0023 16.3209 13.1368C15.9994 13.2671 15.7158 13.4583 15.47 13.7041C15.2199 13.952 15.0329 14.2378 14.8985 14.5592C14.764 14.8807 14.6968 15.2169 14.6968 15.5677C14.6968 15.9144 14.764 16.2506 14.8985 16.5741C15.0329 16.8956 15.2199 17.1814 15.47 17.4272C15.7158 17.6751 15.9994 17.8642 16.3209 17.9986C16.6423 18.131 16.9785 18.1982 17.3294 18.1982C17.6802 18.1982 18.0122 18.131 18.3358 17.9986C18.6594 17.8642 18.943 17.6751 19.1888 17.4272C19.4367 17.1813 19.6258 16.8956 19.7603 16.5741C19.8948 16.2506 19.962 15.9144 19.962 15.5677ZM20.1007 17.091C19.7057 17.778 19.1531 18.2571 18.4388 18.5281C17.8652 18.7445 17.2118 18.7887 16.6213 18.65C15.1128 18.2907 14.1169 16.9712 14.1673 15.4102C14.1694 15.3997 14.1631 15.3913 14.1526 15.3829L13.7471 15.0887C13.7471 15.0866 13.7429 15.0866 13.7429 15.0887C13.7408 15.0887 13.7408 15.0887 13.7408 15.0908C13.6336 16.9439 13.8353 18.7425 14.348 20.4927C15.0792 22.9887 16.7642 25.7474 19.4031 26.569C21.4538 27.2056 23.4792 26.4114 24.9497 24.947C25.9666 23.9322 26.7314 22.6926 27.2713 21.3647C28.1433 19.2216 28.4983 16.8558 28.3723 14.5364C28.3702 14.5175 28.3618 14.5154 28.345 14.5238L27.2062 15.1226C27.1957 15.1289 27.1894 15.1394 27.1873 15.1499C27.1789 15.2423 27.202 15.3768 27.1978 15.4671C27.1684 16.2382 26.9121 16.8958 26.433 17.4422C25.2522 18.7868 23.1868 18.8688 21.9157 17.585C21.4283 17.0955 21.1383 16.4903 21.0438 15.7697C21.0417 15.755 21.0354 15.7445 21.0249 15.734C20.8925 15.6205 20.7349 15.6037 20.5584 15.6878C20.5164 15.7046 20.4954 15.7382 20.487 15.7844L20.4219 16.2488C20.4198 16.2656 20.424 16.2761 20.4408 16.2824C20.6929 16.3748 20.6425 16.7005 20.6236 16.9148C20.5647 17.5746 20.4702 18.3015 20.3357 19.0999C20.279 19.4319 20.1634 19.8899 19.9933 20.4845C19.987 20.4992 19.987 20.5118 19.9912 20.5265C20.0017 20.579 20.0248 20.6253 20.0626 20.661C20.3189 20.8879 20.6068 21.0812 20.924 21.2388C21.1194 21.3354 21.2014 21.5791 20.9871 21.7115C20.8442 21.7977 20.6404 21.6968 20.5164 21.6296C20.1866 21.4447 19.9239 21.2556 19.7222 21.0644C19.5121 20.8606 19.4029 20.6442 19.4785 20.3689C19.6718 19.6755 19.8063 19.0894 19.8861 18.6124C19.9848 18.0241 20.0605 17.5177 20.1172 17.0976C20.1172 17.0913 20.1172 17.0892 20.1109 17.0871C20.1046 17.0871 20.1007 17.0868 20.1007 17.091ZM28.8874 16.9124C29.2866 16.4775 29.9526 16.0888 30.564 16.1413C30.751 16.1581 30.9212 16.2989 30.8456 16.5006C30.7909 16.6498 30.6733 16.6792 30.5094 16.6687C30.3224 16.6582 30.1291 16.696 29.9274 16.78C29.9127 16.7884 29.9106 16.7968 29.919 16.8094C30.1459 17.112 30.1879 17.5616 30.127 17.9146C30.0871 18.1394 29.9967 18.3495 29.8539 18.5449C29.7446 18.6962 29.566 18.8622 29.3727 18.7466C29.2803 18.692 29.2467 18.5849 29.2656 18.4777C29.274 18.4399 29.316 18.3748 29.3958 18.2886C29.6186 18.0365 29.6984 17.7255 29.6333 17.3599C29.6165 17.257 29.5765 17.1624 29.5156 17.0742C29.4967 17.0469 29.4736 17.0448 29.4484 17.0658C29.2404 17.2339 29.0429 17.444 28.9189 17.6835C28.8748 17.7759 28.818 17.8705 28.7592 17.9692C28.7424 17.9986 28.7319 18.028 28.7277 18.0617C28.6311 18.7025 28.4924 19.3349 28.3159 19.961C28.3117 19.9778 28.3159 19.9904 28.3369 19.9967C28.7655 20.148 29.1878 20.1228 29.5997 19.9295C29.8035 19.8307 29.9716 19.7278 30.1039 19.6164C30.8456 18.9861 31.3288 18.1919 31.5557 17.2401C31.6944 16.6497 31.6356 16.095 31.3835 15.576C31.1019 14.9982 30.4989 14.5612 29.8623 14.8386C29.5598 14.9688 29.2992 15.1915 29.0807 15.5088C29.0009 15.6286 28.921 15.7546 28.9189 15.8702C28.9168 16.2169 28.8958 16.5615 28.8622 16.9018C28.8622 16.906 28.8664 16.9123 28.8706 16.9144C28.8769 16.9186 28.8832 16.9187 28.8874 16.9124ZM13.2428 17.4314C13.2197 17.1897 13.205 16.9292 13.1966 16.6456C13.1924 16.4607 13.1525 16.3913 13.0516 16.2338C12.6545 15.6287 11.8561 15.1916 11.1774 15.5951C10.4694 16.0153 10.2172 17.0826 10.3013 17.8432C10.4778 19.4148 11.6082 20.7553 13.2554 20.8183C13.4613 20.8225 13.6504 20.8015 13.8332 20.7468C13.8563 20.7384 13.8647 20.7258 13.8563 20.7027C13.6168 19.9022 13.4445 19.1059 13.3394 18.3159C13.331 18.2634 13.3121 18.2151 13.2785 18.173C13.06 17.8936 12.7806 17.6961 12.4381 17.5784C12.3961 17.5658 12.3624 17.5763 12.3393 17.6162C12.0914 18.0638 12.1208 18.6122 12.5158 18.9546C12.5788 19.0072 12.6167 19.0576 12.6377 19.108C12.7301 19.3559 12.4465 19.5429 12.2469 19.3938C11.6544 18.9462 11.5472 18.1793 11.8435 17.5196C11.8498 17.5091 11.8477 17.5007 11.8414 17.4923C11.833 17.4818 11.8246 17.4776 11.8141 17.4818C11.6628 17.5028 11.5199 17.5448 11.3791 17.612C11.0577 17.7612 10.8223 17.3473 11.1186 17.1624C11.751 16.7695 12.665 17.0111 13.226 17.4419C13.2302 17.4419 13.2344 17.444 13.2365 17.4419C13.2428 17.4398 13.2428 17.4356 13.2428 17.4314ZM17.4071 26.1573C17.4155 26.3926 17.4281 26.6699 17.4449 26.9893C17.4554 27.1805 17.4554 27.5503 17.4491 28.0903C17.4491 28.1008 17.447 28.1134 17.4407 28.1218L17.4197 28.1764C17.4155 28.1827 17.4155 28.1911 17.4134 28.1995L17.405 29.1177C17.405 29.1408 17.4155 29.1597 17.4365 29.1723C17.5563 29.2395 17.674 29.2942 17.7937 29.3425C18.3043 29.5337 18.84 29.6534 19.3989 29.7102C20.4369 29.8131 21.4118 29.7711 22.4392 29.6135C23.3132 29.4833 24.1641 29.2311 24.9121 28.7205C24.9436 28.7016 24.9542 28.6722 24.9457 28.6386C24.8827 28.3424 24.8365 28.0125 24.8176 27.6532C24.7819 27.0376 24.7777 26.4283 24.8092 25.8316C24.8092 25.8232 24.8071 25.8148 24.7945 25.8127C24.7861 25.8064 24.7777 25.8064 24.7735 25.8148C24.1431 26.3443 23.4414 26.7456 22.6724 27.0166C20.8844 27.647 18.9409 27.2814 17.4282 26.1489C17.4219 26.1468 17.4198 26.1468 17.4135 26.1468C17.4114 26.1489 17.4071 26.151 17.4071 26.1573ZM16.6571 30.4456C16.6634 30.433 16.6571 30.4266 16.6423 30.4266L16.4701 30.4182C16.4554 30.4182 16.4533 30.4245 16.4554 30.4372L16.5289 30.7481C16.531 30.7565 16.5331 30.7607 16.5415 30.7607C16.5478 30.7607 16.5541 30.7565 16.5562 30.7523L16.6571 30.4456ZM19.3107 39.0892C17.9009 36.7213 16.8903 34.0592 16.1759 31.4121C16.094 31.1138 16.0268 30.8301 15.9742 30.5633C15.97 30.5465 15.9616 30.5444 15.949 30.5528C15.6906 30.7209 15.4364 30.9037 15.1884 31.1012C14.4047 31.7315 13.6903 32.387 13.0369 33.0762C12.9781 33.1392 12.8856 33.2485 12.7638 33.4039C12.747 33.4249 12.7344 33.446 12.7323 33.4712C12.7176 33.5552 12.7155 33.6203 12.7176 33.6645C12.7764 34.1981 12.8667 34.9713 12.9928 35.9799C13.0495 36.4442 13.0852 36.8623 13.1273 37.3602C13.1273 37.3834 13.1378 37.3876 13.1609 37.3771C13.6483 37.0745 14.1778 36.8056 14.743 36.6123C15.1359 36.4778 15.5288 36.4547 15.9196 36.5471C16.2116 36.6144 16.5646 36.8329 16.8146 37.0094C17.7076 37.6355 18.4976 38.3687 19.3044 39.0936C19.3044 39.0936 19.3065 39.0978 19.3107 39.0936L19.3107 39.0892ZM21.7816 37.7067C22.2291 37.3537 22.7082 37.0259 23.2187 36.7234C23.4645 36.5763 23.6999 36.4523 23.9268 36.3515C24.4457 36.1183 24.929 36.0174 25.3639 36.446C25.5341 36.6183 25.719 36.8389 25.9186 37.11C26.4732 37.879 27.0195 38.6543 27.5511 39.4338C27.5574 39.4422 27.5658 39.4443 27.5763 39.4443C27.5847 39.4422 27.5931 39.4359 27.5973 39.4254C27.8852 38.5618 28.1289 37.6857 28.3306 36.799C28.5975 35.6203 28.8601 34.4164 28.9777 33.2356C28.984 33.1726 28.9672 33.118 28.9294 33.076C28.7004 32.8196 28.463 32.578 28.2109 32.349C27.5995 31.788 27.0174 31.2669 26.4586 30.7879C26.4544 30.7858 26.4502 30.7816 26.446 30.7858C26.4418 30.7879 26.4397 30.79 26.4397 30.7963C26.4334 30.9329 26.404 31.0736 26.3451 31.2144C26.2548 31.4266 26.1203 31.6724 25.9459 31.9582C25.6854 32.3847 25.3702 32.849 25.0047 33.3533C24.2546 34.385 23.3553 35.5888 22.3048 36.9714C22.1976 37.11 22.0212 37.3538 21.7732 37.6984C21.769 37.7026 21.769 37.7047 21.7732 37.7068L21.7816 37.7067ZM29.3414 34.5193C29.1145 35.7884 28.8434 37.0091 28.5325 38.1836C28.3875 38.7215 28.232 39.1984 28.0303 39.7783C27.9862 39.9001 27.9379 40.001 27.8832 40.0808C27.7152 40.3204 27.4378 40.1943 27.2992 39.9968C27.0975 39.7069 26.61 39.0135 25.8368 37.9083C25.5258 37.4629 25.2695 37.1268 25.0636 36.8998C24.9291 36.7486 24.7674 36.6435 24.5657 36.6897C24.4228 36.7234 24.2694 36.778 24.1013 36.8557C23.8261 36.9818 23.5298 37.1499 23.2062 37.3537C22.557 37.7718 21.9204 38.2403 21.2964 38.7572C21.1787 38.8559 21.0211 38.9568 20.8762 39.0324C20.832 39.0555 20.7942 39.0892 20.769 39.1312L20.2101 40.0242C20.187 40.0599 20.1723 40.0998 20.1723 40.1439C20.1639 41.7365 20.1849 43.3691 20.2353 45.0415C20.2647 46.0668 20.2731 46.7707 20.2941 47.7561C20.2962 47.7729 20.3025 47.7813 20.3194 47.7792C20.5631 47.7666 20.7984 47.7645 21.0274 47.7708C21.4056 47.7792 21.3888 48.3024 20.977 48.3087C20.3551 48.3171 19.7269 48.3297 19.1007 48.3465C19.0293 48.3465 18.9684 48.3444 18.9179 48.3339C18.7498 48.3003 18.6553 48.149 18.7099 47.9851C18.7583 47.8507 18.8906 47.8086 19.0251 47.8044C19.2121 47.796 19.4453 47.7897 19.7227 47.7897C19.75 47.7897 19.7668 47.775 19.7647 47.7456C19.7395 46.506 19.7101 45.3252 19.6806 44.199C19.6428 42.8249 19.647 41.4592 19.6911 40.0935C19.6911 40.0746 19.6827 40.0578 19.6659 40.0473C19.4306 39.8876 19.2184 39.7216 19.0272 39.5535C18.5713 39.1438 18.1174 38.7404 17.6636 38.337C17.2938 38.0093 16.8274 37.6563 16.2643 37.2844C15.8588 37.0134 15.4217 36.9503 14.9532 37.1016C14.3271 37.3033 13.6568 37.6773 13.1211 38.0156C13.1043 38.0261 13.0875 38.0345 13.0686 38.0408C12.911 38.0828 12.7849 38.0555 12.6925 37.9483C12.6421 37.8916 12.6126 37.7613 12.6 37.5512C12.579 37.1499 12.5391 36.7024 12.4803 36.2086C12.4025 35.5384 12.3353 34.9711 12.2765 34.5005C12.2723 34.4753 12.2597 34.469 12.2365 34.4774C11.9193 34.595 11.5243 34.7358 11.0516 34.8976C9.87286 35.3073 8.28867 35.7653 7.48605 36.0343C6.58049 36.341 5.69806 36.6478 4.91647 37.1436C4.49836 37.4042 4.179 37.797 3.84283 38.1941C3.67474 38.3937 3.52767 38.6207 3.3974 38.8707C2.96458 39.7153 2.68725 40.5389 2.35108 41.5474C2.02752 42.5223 1.75646 43.5225 1.53798 44.5457C1.36359 45.3588 1.24173 45.9975 1.16819 46.4681C0.960185 47.775 0.779493 48.9852 0.621928 50.0988C0.607221 50.1954 0.588311 50.311 0.563096 50.4454C0.560995 50.4601 0.569399 50.4685 0.582005 50.4685L39.3884 50.2858C39.4094 50.2858 39.4241 50.2753 39.422 50.25C39.3737 48.5293 39.3233 47.0775 39.1951 45.5689C39.1447 45.0016 39.0649 44.4133 38.9556 43.7998C38.8085 42.9846 38.5648 42.1504 38.2244 41.3037C37.9975 40.7406 37.737 40.228 37.4428 39.7657C37.0016 39.0723 36.4091 38.4925 35.6737 38.0218C35.346 37.8138 34.9783 37.6016 34.5686 37.3831C33.953 37.0511 33.1041 36.6036 32.0179 36.0384C31.4926 35.7632 30.6101 35.2527 29.3705 34.5088C29.3537 34.5004 29.3456 34.5025 29.3414 34.5193Z" fill="#0F364C"/>
<path d="M22.5842 11.4076C23.5213 10.8676 24.6495 11.0861 25.5908 11.4917C25.7778 11.5736 25.9774 11.6492 26.1433 11.7606C26.3913 11.9308 26.2568 12.3258 25.9543 12.2669C25.0676 12.0863 24.1431 12.0064 23.1872 12.0316C22.9413 12.0379 22.7396 12.0715 22.5253 12.0631C22.4581 12.0631 22.3992 12.0358 22.3488 11.9854C22.1198 11.7375 22.3531 11.5421 22.5842 11.4076Z" fill="#0F364C"/>
<path d="M16.424 11.4496C17.2118 11.1219 18.0334 11.2731 18.7813 11.6198C18.8927 11.6744 18.9999 11.7354 19.044 11.8425C19.1301 12.0484 18.9683 12.206 18.7582 12.2228C18.7435 12.2249 18.483 12.2375 17.9829 12.2585C17.0522 12.2985 16.0773 12.5191 15.0583 12.9183C14.9763 12.9477 14.8944 12.9309 14.8145 12.87C14.7074 12.7859 14.6843 12.6746 14.7494 12.5317C14.7935 12.4308 14.8986 12.3657 14.9868 12.2985C15.5499 11.8972 16.0289 11.6156 16.424 11.4496Z" fill="#0F364C"/>
<path d="M23.412 14.6262C23.2713 14.7334 23.1389 14.8552 22.9771 14.6935C22.8006 14.517 23.0276 14.2985 23.1851 14.1892C23.6642 13.853 24.2062 13.7123 24.8155 13.7753C24.971 13.7921 25.1034 13.8215 25.2021 13.8678C25.3324 13.9266 25.4164 14.0884 25.3366 14.2228C25.1853 14.4729 24.9206 14.2964 24.7084 14.2796C24.7021 14.2796 24.7 14.2817 24.6979 14.288C24.6937 14.2922 24.6937 14.2985 24.7 14.3048C24.7441 14.3426 24.7903 14.414 24.8428 14.5107C25.0445 14.9036 25.0424 15.2839 24.8344 15.6516C24.618 16.0382 24.0886 16.1369 23.7608 15.8386C23.4225 15.5318 23.3111 15.1305 23.4246 14.6367C23.4288 14.6325 23.4246 14.6283 23.4225 14.6262C23.4204 14.6241 23.4162 14.6241 23.412 14.6262Z" fill="#0F364C"/>
<path d="M17.7309 14.7839C17.8402 15.0948 17.815 15.4499 17.6595 15.7357C17.5082 16.0235 17.1973 16.2147 16.8695 16.1391C16.3862 16.0277 16.1509 15.4898 16.1888 15.0234C16.1972 14.9352 16.2098 14.8553 16.2224 14.786C16.2287 14.7671 16.2203 14.7587 16.2014 14.7629C16.0249 14.8196 15.6677 15.1369 15.4639 14.8952C15.3441 14.7545 15.4198 14.5696 15.571 14.4855C16.3799 14.0317 17.2309 13.9119 18.0608 14.3826C18.2016 14.4603 18.2961 14.5317 18.3465 14.5864C18.3549 14.6011 18.3634 14.6116 18.3718 14.6263C18.4327 14.7503 18.4117 14.8532 18.3045 14.9352C18.2898 14.9436 18.2772 14.952 18.2604 14.9541C18.0713 15.0066 17.9074 14.8511 17.7519 14.7629C17.7477 14.7608 17.7414 14.7608 17.7351 14.7671C17.7309 14.7713 17.7267 14.7776 17.7309 14.7839Z" fill="#0F364C"/>
<path d="M19.6383 23.2344C19.6068 23.1062 19.6467 23.0075 19.7497 22.936C19.7917 22.9066 19.8947 22.8982 20.0606 22.915C20.7267 22.9781 21.3738 22.8541 21.9999 22.5452C22.063 22.5116 22.147 22.4444 22.2479 22.3435C22.3193 22.2721 22.3718 22.2259 22.4054 22.2133C22.563 22.1502 22.7332 22.2385 22.7563 22.4066C22.8025 22.7343 22.2542 23.0327 21.9684 23.1461C21.3823 23.3815 20.7898 23.4865 20.1846 23.4655C19.9998 23.4592 19.7833 23.4445 19.6657 23.2911C19.651 23.2743 19.6425 23.2554 19.6383 23.2344Z" fill="#0F364C"/>
<path d="M21.0841 40.2511C21.1682 40.2532 21.2459 40.2763 21.3195 40.3183C21.3951 40.3624 21.4581 40.4212 21.5149 40.5011C21.5674 40.5767 21.6094 40.665 21.6388 40.7637C21.6661 40.8625 21.6766 40.9654 21.6745 41.0726C21.6682 41.1776 21.6493 41.2785 21.6157 41.3751C21.58 41.4718 21.5317 41.5558 21.4707 41.6293C21.4077 41.6987 21.3405 41.7554 21.2627 41.7953C21.185 41.8311 21.1051 41.8479 21.0211 41.8458C20.9413 41.8416 20.8614 41.8205 20.7858 41.7743C20.7144 41.7323 20.6492 41.6714 20.5925 41.5957C20.5379 41.518 20.4958 41.4297 20.4664 41.3289C20.4412 41.2322 20.4286 41.1314 20.4328 41.0242C20.437 40.9171 20.4559 40.8162 20.4916 40.7196C20.5253 40.6229 20.5757 40.5389 20.6345 40.4675C20.6975 40.3939 20.7669 40.3372 20.8446 40.3015C20.9202 40.2658 21.0022 40.2447 21.0841 40.2511Z" fill="#0F364C"/>
<path d="M21.126 44.4513C21.542 44.4366 21.6744 44.9304 21.6828 45.2876C21.6933 45.6469 21.5967 46.1448 21.1765 46.1595C20.7584 46.17 20.626 45.6805 20.6176 45.3191C20.6071 44.9598 20.7058 44.4618 21.126 44.4513Z" fill="#0F364C"/>
</svg>
