<svg width="22" height="22" viewBox="0 0 22 22" fill="none" xmlns="http://www.w3.org/2000/svg">
<path d="M22.0004 0V8.25002L19.0909 5.34029L14.5616 9.86955L12.1309 7.43877L16.6601 2.90951L13.7506 0H22.0004Z" fill="white"/>
<path d="M-9.53674e-07 0H8.25002L5.34029 2.90951L9.86955 7.43854L7.43877 9.86955L2.90951 5.34029L-9.53674e-07 8.24979V0Z" fill="white"/>
<path d="M-9.53674e-07 22.0001V13.7501L2.90951 16.6598L7.43877 12.1308L9.86955 14.5615L5.34051 19.0908L8.24979 22.0001H-9.53674e-07Z" fill="white"/>
<path d="M22.0004 22H13.7504L16.6601 19.0903L12.1311 14.561L14.5619 12.1302L19.0911 16.6593L22.0004 13.75V22Z" fill="white"/>
</svg>
