<svg width="35" height="34" viewBox="0 0 35 34" fill="none" xmlns="http://www.w3.org/2000/svg">
<path d="M27.1473 3.11037C26.8138 2.78244 26.8138 2.24954 27.1473 1.92327L28.001 1.08376C28.3346 0.755828 28.8765 0.755828 29.2083 1.08376C29.5418 1.41169 29.5418 1.94459 29.2083 2.27086L28.3546 3.11037C28.1845 3.27433 27.9677 3.35796 27.7492 3.35796C27.5308 3.35796 27.3141 3.27433 27.1473 3.11037ZM6.65655 3.11037C6.8233 3.27433 7.04008 3.35796 7.25855 3.35796C7.47701 3.35796 7.69376 3.27433 7.86055 3.11037C8.19405 2.78244 8.19405 2.24954 7.86055 1.92327L7.00677 1.08376C6.67326 0.755828 6.1313 0.755828 5.79948 1.08376C5.46597 1.41169 5.46597 1.94459 5.79948 2.27086L6.65655 3.11037ZM31.1643 10.9136H32.8719C33.3421 10.9136 33.7256 10.5365 33.7256 10.0741C33.7256 9.61169 33.3421 9.23456 32.8719 9.23456H31.1643C30.694 9.23456 30.3105 9.61169 30.3105 10.0741C30.3105 10.5365 30.6941 10.9136 31.1643 10.9136ZM2.98956 10.9136H4.69712C5.16738 10.9136 5.5509 10.5365 5.5509 10.0741C5.5509 9.61169 5.16737 9.23456 4.69712 9.23456H2.98956C2.5193 9.23456 2.13578 9.61169 2.13578 10.0741C2.13578 10.5365 2.51932 10.9136 2.98956 10.9136ZM34.2042 31.4815C33.282 32.7538 31.8863 33.3376 30.8791 33.6016C29.8619 33.8655 28.7263 34 27.4756 34C25.1744 34 22.4729 33.5426 19.4031 32.644C19.4115 32.6391 19.4198 32.6309 19.4282 32.6276C21.7327 31.0666 23.4102 30.6256 24.8578 31.2093C25.298 31.3864 25.7933 31.1798 25.9717 30.7518C26.1518 30.319 25.9417 29.8287 25.5065 29.6565C22.8601 28.5941 20.2139 30.055 18.4577 31.247C18.1108 31.4815 17.799 31.6914 17.5038 31.8799C17.222 31.6996 16.9152 31.4979 16.5483 31.2454C14.7891 30.0534 12.1509 28.5891 9.49609 29.6549C9.06087 29.8271 8.85076 30.3173 9.03086 30.7502C9.21096 31.1781 9.70953 31.3847 10.1448 31.2076C11.5955 30.6239 13.2731 31.0601 15.5744 32.6259C15.5877 32.6342 15.5961 32.6391 15.6044 32.6473C10.8621 34.0328 7.00643 34.3558 4.12492 33.5999C3.11772 33.3359 1.722 32.7522 0.799831 31.4798C-0.0756353 30.2828 -0.245708 28.6793 0.372941 27.4922C0.411294 27.4167 0.457986 27.3495 0.501341 27.2774C0.484665 27.2774 0.471325 27.2823 0.457986 27.2823H0.42797C0.206188 27.2823 0.0177543 27.115 0.00107996 26.892C-0.0155952 26.6625 0.162833 26.4608 0.397956 26.4444C0.936563 26.4067 1.28508 26.3346 1.5719 26.2017C1.67863 26.1296 1.79035 26.0673 1.90041 26.0083C2.13553 25.8312 2.36563 25.6016 2.70749 25.236C3.1427 24.7736 3.50957 24.2456 3.89812 23.6833C4.69688 22.5289 5.60069 21.2188 7.31324 20.2449C7.94859 18.5069 8.49219 16.9295 8.73065 15.3212C8.764 15.1064 8.79068 14.8883 8.81569 14.6751C8.87572 14.2013 8.93576 13.7094 9.05415 13.2224C9.25926 12.3616 9.6211 11.6697 10.1347 11.1745C10.7583 10.5695 11.3687 10.2514 12.4576 9.96115C12.7177 9.89392 12.9745 9.83982 13.2263 9.78407C13.9684 9.6283 14.5453 9.50696 14.8955 9.08719C15.6376 9.70041 16.5214 10.0743 17.5036 10.0743C18.4858 10.0743 19.3696 9.70044 20.1116 9.08719C20.4618 9.50695 21.0338 9.6283 21.7758 9.78407C22.0276 9.83818 22.2844 9.89392 22.5446 9.96115C23.6418 10.2514 24.2471 10.5695 24.8674 11.1745C25.3794 11.6697 25.7429 12.3616 25.948 13.2224C26.068 13.7045 26.1281 14.1996 26.1864 14.6751C26.2115 14.8899 26.2381 15.108 26.2715 15.3212C26.5149 16.928 27.0569 18.507 27.6922 20.2449C29.3448 21.1893 30.2235 22.4617 31.0006 23.5865C31.4142 24.1866 31.8077 24.7539 32.2813 25.2278L32.4997 25.4459C32.7349 25.6853 32.9216 25.8738 33.1268 26.0214C33.2201 26.0722 33.3068 26.1214 33.3952 26.1805C33.6854 26.3231 34.0572 26.4067 34.6025 26.4445C34.8376 26.4608 35.0127 26.6625 34.9961 26.8937C34.9794 27.1167 34.7909 27.284 34.5692 27.284H34.5358C34.5225 27.284 34.5108 27.279 34.4925 27.279C34.5392 27.3512 34.5858 27.4217 34.6242 27.4971C35.2529 28.6859 35.0796 30.2894 34.2042 31.4815ZM29.2049 25.61C27.484 24.741 25.3162 23.4194 24.7857 22.4405C23.7919 20.6106 23.1632 19.2842 22.7146 17.6562C22.6846 17.7824 22.6546 17.9037 22.6212 18.0251C22.4628 18.6416 22.3011 19.2762 22.1943 20.196C22.0626 21.3716 22.186 22.6637 22.5062 23.877C19.1244 24.464 15.8808 24.4739 12.6109 23.8983C12.8577 22.9752 12.9227 22.0308 12.811 21.0355C12.7126 20.1714 12.5592 19.4073 12.4091 18.6678C12.3541 18.3825 12.2974 18.1005 12.2423 17.8201C11.7988 19.3729 11.1801 20.6748 10.2196 22.4425C9.69098 23.4197 7.52153 24.7429 5.80044 25.6119C6.43578 25.7333 7.06441 25.9104 7.67474 26.0825L7.86317 26.1366C9.04211 26.4678 10.1861 26.7532 11.3 26.6564C11.5651 26.2695 11.7869 25.8842 11.9837 25.4972C13.8063 25.8366 15.6256 26.0088 17.4564 26.0088C19.304 26.0088 21.1667 25.8317 23.0743 25.489C23.2627 25.9038 23.4678 26.3039 23.7063 26.6597C24.8202 26.7515 25.9692 26.463 27.1381 26.135H27.1431L27.3182 26.0842C27.9319 25.912 28.5639 25.7317 29.2042 25.6103L29.2049 25.61ZM17.5038 8.39506C18.2759 8.39506 18.9896 7.93761 19.5616 7.24074C20.3853 6.234 20.9189 4.72713 20.9189 3.35802C20.9189 1.0412 19.3915 0 17.5038 0C15.6162 0 14.0887 1.0412 14.0887 3.35802C14.0887 4.72713 14.6223 6.234 15.4461 7.24074C16.018 7.93761 16.7317 8.39506 17.5038 8.39506Z" fill="#AFAFAF"/>
</svg>
