<svg width="28" height="20" viewBox="0 0 28 20" fill="none" xmlns="http://www.w3.org/2000/svg">
<path d="M2.9248 0.0498047H24.375C25.9597 0.0498057 27.2499 1.34009 27.25 2.9248V16.5752C27.2499 18.1599 25.9597 19.4502 24.375 19.4502H2.9248C1.34016 19.4501 0.0499105 18.1598 0.0498047 16.5752V2.9248C0.0499107 1.34016 1.34016 0.0499106 2.9248 0.0498047ZM2.9248 1.90039C2.35986 1.9005 1.9005 2.35986 1.90039 2.9248V16.5752C1.9005 17.1401 2.35986 17.5995 2.9248 17.5996H24.375C24.94 17.5996 25.4003 17.1402 25.4004 16.5752V2.9248C25.4003 2.3598 24.94 1.90039 24.375 1.90039H2.9248Z" fill="#62748E" stroke="white" stroke-width="0.1"/>
<g filter="url(#filter0_d_80_543)">
<path d="M9.01963 9.60866C10.671 9.60866 12.0129 8.2656 12.0129 6.6154C12.0129 4.96398 10.671 3.62213 9.01963 3.62213C7.36822 3.62213 6.02637 4.9652 6.02637 6.6154C6.02637 8.26681 7.36822 9.60866 9.01963 9.60866ZM9.01963 5.57201C9.5949 5.57201 10.0629 6.04001 10.0629 6.61527C10.0629 7.19054 9.5949 7.65854 9.01963 7.65854C8.44437 7.65854 7.97637 7.19054 7.97637 6.61527C7.97637 6.04001 8.44437 5.57201 9.01963 5.57201Z" fill="#62748E"/>
<path d="M9.01953 3.67194C10.6433 3.67194 11.9628 4.99154 11.9629 6.6153C11.9629 8.23789 10.6433 9.55865 9.01953 9.55865C7.39578 9.5586 6.07617 8.23906 6.07617 6.6153C6.07623 4.99278 7.39582 3.67199 9.01953 3.67194ZM9.01953 5.52155C8.4167 5.5216 7.92676 6.01245 7.92676 6.6153C7.92677 7.21813 8.41671 7.70801 9.01953 7.70807C9.6224 7.70807 10.1133 7.21816 10.1133 6.6153C10.1133 6.01242 9.62241 5.52155 9.01953 5.52155Z" stroke="white" stroke-width="0.1"/>
</g>
<path d="M7.53711 10.431H10.501C12.0869 10.431 13.3766 11.7212 13.3779 13.306V14.9026C13.3779 15.4137 12.9632 15.8275 12.4521 15.8275C11.9412 15.8273 11.5273 15.4136 11.5273 14.9026V13.306C11.5272 12.7411 11.0678 12.2818 10.5029 12.2816H7.53711C6.97217 12.2817 6.5128 12.741 6.5127 13.306V14.9026C6.5127 15.4137 6.098 15.8275 5.58691 15.8275C5.07601 15.8272 4.66211 15.4136 4.66211 14.9026V13.306C4.66222 11.7213 5.95246 10.4311 7.53711 10.431Z" fill="#62748E" stroke="white" stroke-width="0.1"/>
<path d="M17.0625 12.7248H22.9131C23.424 12.7249 23.8377 13.1388 23.8379 13.6496C23.8379 14.1606 23.4241 14.5753 22.9131 14.5754H17.0625C16.5516 14.5752 16.1377 14.1606 16.1377 13.6496C16.1379 13.1388 16.5517 12.725 17.0625 12.7248Z" fill="#62748E" stroke="white" stroke-width="0.1"/>
<path d="M17.0625 8.82483H22.9131C23.424 8.82493 23.8377 9.23879 23.8379 9.74963C23.8379 10.2607 23.4241 10.6753 22.9131 10.6754H17.0625C16.5516 10.6752 16.1377 10.2606 16.1377 9.74963C16.1379 9.23886 16.5517 8.82504 17.0625 8.82483Z" fill="#62748E" stroke="white" stroke-width="0.1"/>
<path d="M17.0625 4.9248H22.9131C23.424 4.92491 23.8377 5.33877 23.8379 5.84961C23.8379 6.36063 23.4241 6.77529 22.9131 6.77539H17.0625C16.5516 6.77518 16.1377 6.36056 16.1377 5.84961C16.1379 5.33883 16.5517 4.92502 17.0625 4.9248Z" fill="#62748E" stroke="white" stroke-width="0.1"/>
<defs>
<filter id="filter0_d_80_543" x="2.02637" y="3.62213" width="13.9863" height="13.9865" filterUnits="userSpaceOnUse" color-interpolation-filters="sRGB">
<feFlood flood-opacity="0" result="BackgroundImageFix"/>
<feColorMatrix in="SourceAlpha" type="matrix" values="0 0 0 0 0 0 0 0 0 0 0 0 0 0 0 0 0 0 127 0" result="hardAlpha"/>
<feOffset dy="4"/>
<feGaussianBlur stdDeviation="2"/>
<feComposite in2="hardAlpha" operator="out"/>
<feColorMatrix type="matrix" values="0 0 0 0 0 0 0 0 0 0 0 0 0 0 0 0 0 0 0.25 0"/>
<feBlend mode="normal" in2="BackgroundImageFix" result="effect1_dropShadow_80_543"/>
<feBlend mode="normal" in="SourceGraphic" in2="effect1_dropShadow_80_543" result="shape"/>
</filter>
</defs>
</svg>
