<svg width="20" height="20" viewBox="0 0 20 20" fill="none" xmlns="http://www.w3.org/2000/svg">
<g clip-path="url(#clip0_1_730)">
<path d="M9.63519 2.72169C9.67116 2.65636 9.724 2.60188 9.7882 2.56394C9.85241 2.526 9.92562 2.50598 10.0002 2.50598C10.0748 2.50598 10.148 2.526 10.2122 2.56394C10.2764 2.60188 10.3292 2.65636 10.3652 2.72169L12.8252 7.39169C12.8839 7.49982 12.9657 7.59363 13.0649 7.66637C13.1642 7.73911 13.2783 7.78898 13.399 7.8124C13.5198 7.83582 13.6443 7.83221 13.7635 7.80183C13.8827 7.77145 13.9937 7.71505 14.0885 7.63669L17.6527 4.58335C17.7211 4.5277 17.8054 4.4952 17.8935 4.49052C17.9816 4.48584 18.0688 4.50922 18.1428 4.55731C18.2167 4.60539 18.2735 4.67569 18.3049 4.75809C18.3363 4.8405 18.3408 4.93074 18.3177 5.01585L15.956 13.5542C15.9078 13.7289 15.804 13.8831 15.6602 13.9935C15.5164 14.1039 15.3406 14.1644 15.1594 14.1659H4.84186C4.66047 14.1646 4.48445 14.1042 4.34052 13.9938C4.19659 13.8834 4.0926 13.729 4.04436 13.5542L1.68352 5.01669C1.6604 4.93158 1.66488 4.84133 1.69631 4.75893C1.72774 4.67653 1.78451 4.60622 1.85844 4.55814C1.93237 4.51006 2.01966 4.48667 2.10772 4.49135C2.19579 4.49603 2.2801 4.52854 2.34852 4.58419L5.91186 7.63752C6.00669 7.71589 6.1177 7.77229 6.23691 7.80267C6.35612 7.83305 6.48058 7.83666 6.60136 7.81323C6.72213 7.78981 6.83622 7.73994 6.93543 7.6672C7.03465 7.59446 7.11653 7.50065 7.17519 7.39252L9.63519 2.72169Z" stroke="#FFD700" stroke-width="1.66667" stroke-linecap="round" stroke-linejoin="round"/>
<path d="M4.16699 17.5H15.8337" stroke="#FFD700" stroke-width="1.66667" stroke-linecap="round" stroke-linejoin="round"/>
</g>
<defs>
<clipPath id="clip0_1_730">
<rect width="20" height="20" fill="white"/>
</clipPath>
</defs>
</svg>
