<svg width="38" height="38" viewBox="0 0 38 38" fill="none" xmlns="http://www.w3.org/2000/svg">
<mask id="path-1-inside-1_1_981" fill="white">
<path d="M0 18.9062C0 8.46462 8.46462 0 18.9062 0C29.3479 0 37.8125 8.46462 37.8125 18.9062C37.8125 29.3479 29.3479 37.8125 18.9062 37.8125C8.46462 37.8125 0 29.3479 0 18.9062Z"/>
</mask>
<path d="M0 18.9062C0 8.46462 8.46462 0 18.9062 0C29.3479 0 37.8125 8.46462 37.8125 18.9062C37.8125 29.3479 29.3479 37.8125 18.9062 37.8125C8.46462 37.8125 0 29.3479 0 18.9062Z" fill="#141414"/>
<path d="M0 18.9062M37.8125 18.9062M37.8125 18.9062M0 18.9062M18.9062 0M37.8125 18.9062M18.9062 37.8125M0 18.9062M18.9062 37.8125V36.9034C8.96669 36.9034 0.909091 28.8458 0.909091 18.9062H0H-0.909091C-0.909091 29.85 7.96254 38.7216 18.9062 38.7216V37.8125ZM37.8125 18.9062H36.9034C36.9034 28.8458 28.8458 36.9034 18.9062 36.9034V37.8125V38.7216C29.85 38.7216 38.7216 29.85 38.7216 18.9062H37.8125ZM18.9062 0V0.909091C28.8458 0.909091 36.9034 8.96669 36.9034 18.9062H37.8125H38.7216C38.7216 7.96254 29.85 -0.909091 18.9062 -0.909091V0ZM18.9062 0V-0.909091C7.96254 -0.909091 -0.909091 7.96254 -0.909091 18.9062H0H0.909091C0.909091 8.96669 8.96669 0.909091 18.9062 0.909091V0Z" fill="#1F1F1F" mask="url(#path-1-inside-1_1_981)"/>
<path d="M18.9066 19.7396C19.3668 19.7396 19.7399 19.3665 19.7399 18.9062C19.7399 18.446 19.3668 18.0729 18.9066 18.0729C18.4463 18.0729 18.0732 18.446 18.0732 18.9062C18.0732 19.3665 18.4463 19.7396 18.9066 19.7396Z" stroke="#B0B0B0" stroke-width="1.66667" stroke-linecap="round" stroke-linejoin="round"/>
<path d="M18.9066 13.9063C19.3668 13.9063 19.7399 13.5332 19.7399 13.0729C19.7399 12.6127 19.3668 12.2396 18.9066 12.2396C18.4463 12.2396 18.0732 12.6127 18.0732 13.0729C18.0732 13.5332 18.4463 13.9063 18.9066 13.9063Z" stroke="#B0B0B0" stroke-width="1.66667" stroke-linecap="round" stroke-linejoin="round"/>
<path d="M18.9066 25.5729C19.3668 25.5729 19.7399 25.1998 19.7399 24.7396C19.7399 24.2793 19.3668 23.9062 18.9066 23.9062C18.4463 23.9062 18.0732 24.2793 18.0732 24.7396C18.0732 25.1998 18.4463 25.5729 18.9066 25.5729Z" stroke="#B0B0B0" stroke-width="1.66667" stroke-linecap="round" stroke-linejoin="round"/>
</svg>
