<svg width="30" height="30" viewBox="0 0 30 30" fill="none" xmlns="http://www.w3.org/2000/svg">
<path d="M6.99609 2.66797C9.6557 0.941701 12.8024 0.122504 15.9658 0.332031C19.1292 0.541579 22.14 1.76915 24.5488 3.83105C26.9577 5.8931 28.6361 8.67922 29.332 11.7734C30.0279 14.8675 29.704 18.1037 28.4102 20.999L28.3662 21.0996L28.3955 21.2041L29.5674 25.3008C29.7363 25.8923 29.7441 26.5187 29.5898 27.1143C29.4356 27.7099 29.1244 28.2534 28.6895 28.6885C28.2546 29.1234 27.7115 29.4346 27.1162 29.5889C26.5209 29.7432 25.895 29.7354 25.3037 29.5664L21.208 28.3945L21.1025 28.3643L21.0029 28.4092C19.1175 29.2581 17.0735 29.6983 15.0059 29.7002C11.8354 29.7025 8.74921 28.6787 6.20801 26.7822C3.66695 24.8859 1.80727 22.2183 0.90625 19.1777C0.00525179 16.1369 0.111301 12.8856 1.20898 9.91016C2.3067 6.93493 4.33658 4.39418 6.99609 2.66797ZM15.8916 3.4834C12.878 3.24659 9.89175 4.20215 7.57422 6.14355C5.25676 8.08499 3.79311 10.858 3.49707 13.8672C3.20104 16.8765 4.09643 19.8822 5.99121 22.2383C7.88581 24.594 10.6284 26.1113 13.6299 26.4668V26.4678C15.8276 26.7337 18.0552 26.3576 20.0439 25.3848L20.0459 25.3838C20.531 25.1426 21.0885 25.0891 21.6104 25.2344V25.2354L26.1699 26.5381L26.6885 26.6865L26.541 26.168L25.2432 21.6074C25.0975 21.0849 25.1502 20.5267 25.3916 20.041L25.3926 20.04C26.365 18.0507 26.7414 15.8215 26.4756 13.623H26.4746C26.1492 10.972 24.9185 8.51457 22.9902 6.66699C21.0617 4.81937 18.5536 3.69422 15.8916 3.4834Z" fill="#0F364C" stroke="white" stroke-width="0.6"/>
</svg>
