<svg width="30" height="23" viewBox="0 0 30 23" fill="none" xmlns="http://www.w3.org/2000/svg">
<path d="M4.95312 0.446289C9.27504 -0.0162545 20.7325 -0.0155768 25.0498 0.447266V0.446289C25.0523 0.446647 25.0541 0.448096 25.0557 0.448242C25.0572 0.448381 25.0591 0.448163 25.0605 0.448242C26.1234 0.572805 27.1809 1.11168 28.0361 1.9707C28.8918 2.83014 29.428 3.89452 29.5518 4.96191L29.5625 5.05078C30.0149 9.35737 30.0127 13.7227 29.5547 18.0273C29.5542 18.0305 29.5529 18.0334 29.5527 18.0352V18.0371C29.4291 19.1057 28.8928 20.1688 28.0371 21.0283C27.1814 21.8878 26.1219 22.4266 25.0596 22.5508L25.0459 22.5518C22.8871 22.7838 18.9458 22.9004 15 22.9004C11.051 22.9004 7.10471 22.783 4.94824 22.5518H4.94727C4.94543 22.5515 4.94358 22.5509 4.94238 22.5508H4.94043C3.87697 22.4266 2.81861 21.8879 1.96289 21.0283C1.16066 20.2225 0.638591 19.2369 0.474609 18.2373L0.447266 18.0371L0.444336 18.0195C0.0130948 13.9602 -0.0136392 9.84805 0.364258 5.7832L0.445312 4.9707C0.445663 4.96823 0.447129 4.96635 0.447266 4.96484V4.96191C0.570958 3.89345 1.10717 2.83142 1.96289 1.9707C2.81853 1.11127 3.87815 0.572425 4.94043 0.448242L4.95312 0.446289ZM27.5361 6.66211L16.3672 12.46C15.9388 12.6831 15.4685 12.7949 14.998 12.7949C14.5275 12.7949 14.0564 12.6831 13.6279 12.46L2.45996 6.66211L2.32617 6.5918L2.31348 6.74219C2.02001 10.4222 2.06827 14.1382 2.45801 17.8076V17.8086C2.53391 18.4536 2.89631 19.0954 3.3916 19.5928C3.88673 20.0899 4.52535 20.4529 5.16699 20.5293H5.16895C9.40345 20.9821 20.5952 20.9821 24.8281 20.5293H24.8291C25.4715 20.4535 26.1104 20.0903 26.6055 19.5928C27.1006 19.0951 27.4622 18.453 27.5381 17.8086L27.5508 17.6973H27.5479C27.928 14.0636 27.9722 10.3865 27.6816 6.74219L27.6699 6.5918L27.5361 6.66211ZM23.9561 2.39258C19.2221 2.02113 9.13556 2.04718 5.16699 2.47168V2.47266C4.15869 2.59299 3.15302 3.4209 2.69824 4.38379L2.65723 4.4707L2.74219 4.51562L14.5586 10.6504L14.5596 10.6514C14.8009 10.7753 15.0823 10.7904 15.333 10.6973L15.4385 10.6504L27.2539 4.51562L27.3398 4.4707L27.2979 4.38379C26.8419 3.42099 25.8375 2.59289 24.8291 2.47266L24.8281 2.47168L23.9561 2.39258Z" fill="#62748E" stroke="#F0F0F0" stroke-width="0.2"/>
</svg>
