<svg width="16" height="21" viewBox="0 0 16 21" fill="none" xmlns="http://www.w3.org/2000/svg">
<path d="M0.676553 10.3034C1.13929 10.2036 1.59535 10.4978 1.69519 10.9605C2.30732 13.7977 4.82871 15.8571 7.76968 15.8571H8.19825C11.1389 15.8571 13.6601 13.7982 14.2726 10.9613C14.3725 10.4986 14.8286 10.2045 15.2913 10.3044C15.754 10.4043 16.0481 10.8604 15.9482 11.3231C15.2113 14.7365 12.3129 17.2655 8.84115 17.5456L8.84111 20.1429C8.84111 20.6162 8.45736 21 7.98397 21C7.51058 21 7.12683 20.6162 7.12683 20.1429L7.12672 17.5456C3.65459 17.2654 0.755989 14.7359 0.0194571 11.322C-0.0803786 10.8593 0.213813 10.4032 0.676553 10.3034ZM7.98397 0C10.3509 0 12.2697 1.91878 12.2697 4.28571V9.42857C12.2697 11.7955 10.3509 13.7143 7.98397 13.7143C5.61703 13.7143 3.69825 11.7955 3.69825 9.42857V4.28571C3.69825 1.91878 5.61703 0 7.98397 0Z" fill="white"/>
</svg>
