<svg width="24" height="30" viewBox="0 0 24 30" fill="none" xmlns="http://www.w3.org/2000/svg">
<path d="M22.6663 16.0005C22.6663 22.6672 17.9997 26.0005 12.453 27.9339C12.1626 28.0323 11.8471 28.0276 11.5597 27.9205C5.99967 26.0005 1.33301 22.6672 1.33301 16.0005V6.66718C1.33301 6.31356 1.47348 5.97442 1.72353 5.72438C1.97358 5.47433 2.31272 5.33385 2.66634 5.33385C5.33301 5.33385 8.66634 3.73385 10.9863 1.70718C11.2688 1.46585 11.6281 1.33325 11.9997 1.33325C12.3712 1.33325 12.7305 1.46585 13.013 1.70718C15.3463 3.74718 18.6663 5.33385 21.333 5.33385C21.6866 5.33385 22.0258 5.47433 22.2758 5.72438C22.5259 5.97442 22.6663 6.31356 22.6663 6.66718V16.0005Z" stroke="#00FF41" stroke-width="2.66667" stroke-linecap="round" stroke-linejoin="round"/>
</svg>
