<svg width="34" height="34" viewBox="0 0 34 34" fill="none" xmlns="http://www.w3.org/2000/svg">
<path d="M31.6452 17.4547C31.489 20.3483 30.498 23.1347 28.792 25.477C27.086 27.8194 24.738 29.6175 22.0319 30.6539C19.3258 31.6903 16.3774 31.9207 13.5431 31.3172C10.7089 30.7138 8.11011 29.3022 6.06095 27.2533C4.0118 25.2043 2.6 22.6057 1.99621 19.7715C1.39243 16.9373 1.62251 13.9889 2.65865 11.2827C3.69479 8.5765 5.49262 6.22833 7.83481 4.52208C10.177 2.81583 12.9633 1.82453 15.8569 1.66802C16.5319 1.63135 16.8852 2.43469 16.5269 3.00635C15.3283 4.92394 14.8151 7.19114 15.071 9.43794C15.3269 11.6847 16.3367 13.7785 17.9357 15.3775C19.5347 16.9765 21.6285 17.9863 23.8753 18.2422C26.1221 18.4981 28.3893 17.9849 30.3069 16.7864C30.8802 16.428 31.6819 16.7797 31.6452 17.4547Z" stroke="#00E5FF" stroke-width="3.33333" stroke-linecap="round" stroke-linejoin="round"/>
</svg>
