<svg width="36" height="34" viewBox="0 0 36 34" fill="none" xmlns="http://www.w3.org/2000/svg">
<path fill-rule="evenodd" clip-rule="evenodd" d="M15.5032 33.756C10.3354 32.8464 6.22187 28.7535 5.33301 23.5651C6.69731 24.95 9.30188 26.0456 12.4646 26.6244C13.0434 29.7664 14.1389 32.3917 15.5032 33.756ZM13.3328 26.7691C14.573 26.9552 15.896 27.0585 17.2189 27.0792V33.88C15.5446 33.4666 14.0769 30.5313 13.3328 26.7691ZM18.0458 27.0792C19.3894 27.0585 20.6917 26.9552 21.932 26.7691C21.1878 30.5313 19.7408 33.4666 18.0458 33.88V27.0792ZM22.8208 26.6244C25.9628 26.0456 28.5881 24.95 29.9524 23.5651C29.0429 28.7535 24.95 32.8464 19.7615 33.756C21.1465 32.3917 22.242 29.7664 22.8208 26.6244ZM5.20898 21.0225C5.62241 19.3482 8.55771 17.8805 12.3199 17.1363C12.1338 18.3766 12.0098 19.6996 12.0098 21.0225H5.20898ZM12.0098 21.8494C12.0098 23.193 12.1338 24.4953 12.3199 25.7356C8.55771 24.9914 5.62241 23.5444 5.20898 21.8494H12.0098ZM13.1881 16.9916C14.4697 16.7849 15.834 16.6609 17.2189 16.6402V21.0225H12.8366C12.8573 19.6376 12.9813 18.2733 13.1881 16.9916ZM18.0458 16.6402C19.4308 16.6609 20.7951 16.7849 22.0973 16.9916C22.304 18.2733 22.4281 19.6376 22.4487 21.0225H18.0458V16.6402ZM22.4487 21.8494C22.4281 23.2343 22.304 24.5986 22.0973 25.9009C20.7951 26.1076 19.4308 26.2317 18.0458 26.2523V21.8494H22.4487ZM17.2189 26.2523C15.834 26.2317 14.4697 26.1076 13.1881 25.9009C12.9813 24.5986 12.8573 23.2343 12.8366 21.8494H17.2189V26.2523ZM22.9655 17.1363C26.7277 17.8805 29.663 19.3482 30.0764 21.0225H23.2756C23.2549 19.6996 23.1516 18.3766 22.9655 17.1363ZM30.0764 21.8494C29.663 23.5444 26.7277 24.9914 22.9655 25.7356C23.1516 24.4953 23.2549 23.193 23.2756 21.8494H30.0764ZM5.33301 19.3068C6.22187 14.139 10.3354 10.0255 15.5032 9.1366C14.1389 10.5009 13.0434 13.1055 12.4646 16.2682C9.30188 16.8469 6.69731 17.9425 5.33301 19.3068ZM18.0458 9.01257C19.7408 9.426 21.1878 12.3613 21.932 16.1235C20.6917 15.9374 19.3894 15.8134 18.0458 15.8134V9.01257ZM17.2189 15.8134C15.896 15.8134 14.573 15.9374 13.3328 16.1235C14.0769 12.3613 15.5446 9.426 17.2189 9.01257V15.8134ZM19.7615 9.1366C21.0431 9.36398 22.2627 9.77741 23.4203 10.3769L21.7666 11.121C21.6012 11.2037 21.4565 11.3277 21.3325 11.4518C20.8777 10.5009 20.3403 9.71539 19.7615 9.1366ZM27.6992 14.0563C28.8568 15.6067 29.6216 17.4051 29.9524 19.3068C28.5881 17.9425 25.9628 16.8469 22.8208 16.2682C22.6348 15.2966 22.4074 14.3871 22.1593 13.5602L23.5236 14.201L24.3505 15.9581C24.5572 16.3922 24.9913 16.6816 25.4667 16.6816C25.9628 16.6816 26.3969 16.3922 26.6037 15.9581L27.4098 14.201L27.6992 14.0563Z" fill="#AFAFAF"/>
<path fill-rule="evenodd" clip-rule="evenodd" d="M25.4669 15.8547C25.3015 15.8547 25.1568 15.7513 25.0948 15.6066L24.1646 13.5602L22.1182 12.63C21.9735 12.568 21.8701 12.4233 21.8701 12.2579C21.8701 12.0925 21.9735 11.9478 22.1182 11.8858L24.1646 10.935L25.0948 8.88852C25.1568 8.74382 25.3015 8.66113 25.4669 8.66113C25.6323 8.66113 25.777 8.74382 25.839 8.88852L26.7899 10.935L28.8363 11.8858C28.981 11.9478 29.0637 12.0925 29.0637 12.2579C29.0637 12.4233 28.981 12.568 28.8363 12.63L26.7899 13.5602L25.839 15.6066C25.777 15.7513 25.6323 15.8547 25.4669 15.8547Z" fill="#AFAFAF"/>
<path fill-rule="evenodd" clip-rule="evenodd" d="M29.2706 11.2863C29.1259 11.2863 28.9605 11.2037 28.8985 11.059L27.9683 9.01251L25.9219 8.06164C25.7772 7.99963 25.6738 7.85493 25.6738 7.68956C25.6738 7.52419 25.7772 7.37949 25.9219 7.31748L27.9683 6.3666L28.8985 4.32016C28.9605 4.17546 29.1259 4.09277 29.2706 4.09277C29.436 4.09277 29.5807 4.17546 29.6634 4.32016L30.5936 6.3666L32.64 7.31748C32.7847 7.37949 32.8881 7.52419 32.8881 7.68956C32.8881 7.85493 32.7847 7.99963 32.64 8.06164L30.5936 9.01251L29.6634 11.059C29.5807 11.2037 29.436 11.2863 29.2706 11.2863Z" fill="#AFAFAF"/>
<path fill-rule="evenodd" clip-rule="evenodd" d="M4.2169 18.2526C4.17556 18.2526 4.13422 18.2526 4.11355 18.2526L0.888842 17.3844C0.68213 17.3224 0.537432 17.095 0.599445 16.8677C0.661459 16.661 0.888842 16.5163 1.11622 16.5783L4.32026 17.4465C4.54764 17.5085 4.67167 17.7359 4.60965 17.9426C4.56831 18.1286 4.40294 18.2526 4.2169 18.2526Z" fill="#AFAFAF"/>
<path fill-rule="evenodd" clip-rule="evenodd" d="M3.74148 21.8493H0.413424C0.186041 21.8493 0 21.6633 0 21.4359C0 21.2085 0.186041 21.0225 0.413424 21.0225H3.74148C3.96887 21.0225 4.15491 21.2085 4.15491 21.4359C4.15491 21.6633 3.96887 21.8493 3.74148 21.8493Z" fill="#AFAFAF"/>
<path fill-rule="evenodd" clip-rule="evenodd" d="M1.01287 26.3143C0.826828 26.3143 0.661459 26.1903 0.599445 26.0042C0.537432 25.7769 0.68213 25.5495 0.888842 25.5081L4.11355 24.6399C4.32026 24.5779 4.54764 24.7226 4.60965 24.9293C4.67167 25.1567 4.54764 25.3841 4.32026 25.4461L1.11622 26.2936C1.07488 26.3143 1.03354 26.3143 1.01287 26.3143Z" fill="#AFAFAF"/>
<path fill-rule="evenodd" clip-rule="evenodd" d="M2.7288 30.4693C2.5841 30.4693 2.4394 30.3866 2.35672 30.2625C2.25336 30.0558 2.31537 29.8078 2.52208 29.7044L5.39538 28.0301C5.58142 27.9267 5.85014 27.9887 5.9535 28.1954C6.07753 28.3815 5.99484 28.6295 5.8088 28.7535L2.93551 30.4072C2.87349 30.4486 2.79081 30.4693 2.7288 30.4693Z" fill="#AFAFAF"/>
<path fill-rule="evenodd" clip-rule="evenodd" d="M32.5572 30.4693C32.4745 30.4693 32.4125 30.4486 32.3505 30.4072L29.4772 28.7535C29.2705 28.6295 29.2084 28.3815 29.3118 28.1954C29.4358 27.9887 29.6839 27.9267 29.8906 28.0301L32.7639 29.7044C32.9499 29.8078 33.0326 30.0558 32.9086 30.2625C32.8466 30.3866 32.7019 30.4693 32.5572 30.4693Z" fill="#AFAFAF"/>
<path fill-rule="evenodd" clip-rule="evenodd" d="M34.2729 26.3143C34.2315 26.3143 34.2108 26.3143 34.1695 26.2936L30.9655 25.4461C30.7381 25.3841 30.6141 25.1567 30.6761 24.9293C30.7381 24.7226 30.9448 24.5779 31.1722 24.6399L34.3762 25.5081C34.6036 25.5495 34.7276 25.7769 34.6656 26.0042C34.6243 26.1903 34.4589 26.3143 34.2729 26.3143Z" fill="#AFAFAF"/>
<path fill-rule="evenodd" clip-rule="evenodd" d="M34.8723 21.8493H31.5443C31.3169 21.8493 31.1309 21.6633 31.1309 21.4359C31.1309 21.2085 31.3169 21.0225 31.5443 21.0225H34.8723C35.0997 21.0225 35.2858 21.2085 35.2858 21.4359C35.2858 21.6633 35.0997 21.8493 34.8723 21.8493Z" fill="#AFAFAF"/>
<path fill-rule="evenodd" clip-rule="evenodd" d="M31.0688 18.2526C30.8828 18.2526 30.7174 18.1286 30.6761 17.9426C30.6141 17.7359 30.7381 17.5085 30.9655 17.4465L34.1695 16.5783C34.3969 16.5163 34.6243 16.661 34.6656 16.8677C34.7276 17.095 34.6036 17.3224 34.3762 17.3844L31.1722 18.2526C31.1308 18.2526 31.1102 18.2526 31.0688 18.2526Z" fill="#AFAFAF"/>
<path fill-rule="evenodd" clip-rule="evenodd" d="M17.6327 7.13156C17.4053 7.13156 17.2192 6.94552 17.2192 6.71813V0.413424C17.2192 0.186041 17.4053 0 17.6327 0C17.86 0 18.0461 0.186041 18.0461 0.413424V6.71813C18.0461 6.94552 17.86 7.13156 17.6327 7.13156Z" fill="#AFAFAF"/>
<path fill-rule="evenodd" clip-rule="evenodd" d="M24.1853 0.826847H11.1004C10.8731 0.826847 10.687 0.640806 10.687 0.413424C10.687 0.186041 10.8731 0 11.1004 0H24.1853C24.4127 0 24.5987 0.186041 24.5987 0.413424C24.5987 0.640806 24.4127 0.826847 24.1853 0.826847Z" fill="#AFAFAF"/>
<path fill-rule="evenodd" clip-rule="evenodd" d="M15.1523 8.33046V6.71811C15.1523 6.49073 15.3384 6.30469 15.5658 6.30469H19.7C19.9274 6.30469 20.1134 6.49073 20.1134 6.71811V8.33046C18.0256 7.83435 17.2401 7.81368 15.1523 8.33046Z" fill="#AFAFAF"/>
</svg>
