<svg width="25" height="25" viewBox="0 0 25 25" fill="none" xmlns="http://www.w3.org/2000/svg">
<path d="M12.498 0.25C19.2585 0.25 24.75 5.73849 24.75 12.499C24.7498 19.2595 19.2583 24.75 12.498 24.75C5.73796 24.7499 0.250154 19.2595 0.25 12.499L0.253906 12.1826C0.421798 5.56796 5.84349 0.250144 12.498 0.25ZM19.8701 7.62012C19.7674 7.60646 19.6628 7.61657 19.5645 7.64941C19.4651 7.68262 19.3751 7.73867 19.3008 7.8125H19.2998L7.81543 19.2998C7.74179 19.3736 7.68582 19.4637 7.65234 19.5625C7.61892 19.6613 7.60846 19.7668 7.62207 19.8701C7.63572 19.9735 7.67354 20.0724 7.73145 20.1592C7.78938 20.2459 7.86673 20.3179 7.95703 20.3701V20.3711C11.5167 22.4245 16.0159 21.8314 18.9238 18.9277C21.8312 16.0202 22.4287 11.5162 20.374 7.9541V7.95312L20.3301 7.8877C20.2833 7.82532 20.2265 7.77075 20.1611 7.72754C20.074 7.66989 19.9738 7.63324 19.8701 7.62012ZM12.585 3.41016C12.1574 3.40598 11.7312 3.43176 11.3086 3.4873C9.49598 3.72563 7.75261 4.51017 6.34375 5.80371L6.06641 6.06934C3.16301 8.97755 2.57367 13.4776 4.62695 17.0371C4.67918 17.1274 4.75117 17.2048 4.83789 17.2627C4.9247 17.3207 5.02445 17.3575 5.12793 17.3711C5.23117 17.3846 5.33595 17.3742 5.43457 17.3408C5.53342 17.3073 5.6234 17.2515 5.69727 17.1777L17.1777 5.69727C17.2514 5.62342 17.3073 5.53338 17.3408 5.43457C17.3743 5.33578 17.3847 5.23038 17.3711 5.12695C17.3575 5.02352 17.3196 4.92467 17.2617 4.83789C17.2038 4.75109 17.1265 4.67824 17.0361 4.62598C15.6458 3.82393 14.1117 3.42507 12.585 3.41016Z" fill="#62748E" stroke="#F0F0F0" stroke-width="0.5"/>
</svg>
