<svg width="33" height="32" viewBox="0 0 33 32" fill="none" xmlns="http://www.w3.org/2000/svg">
<path d="M12.101 11.1482C11.9056 10.9094 11.6044 10.7848 11.296 10.8124C10.9891 10.8413 10.7154 11.0223 10.5692 11.2945L0.111565 30.6331C-0.0766507 30.9806 -0.0230819 31.4091 0.244762 31.7001C0.424294 31.8956 0.673298 31.9998 0.928151 31.9998C1.05266 31.9998 1.17862 31.9752 1.29734 31.9231L20.6808 23.4825C20.9472 23.3666 21.1441 23.1321 21.2121 22.8512C21.2802 22.5689 21.2121 22.2707 21.0283 22.0462L12.101 11.1482Z" fill="#AFAFAF"/>
<path d="M14.0044 7.09453C14.2621 8.12102 14.2158 9.23876 13.8741 10.2392C13.7091 10.7228 13.9668 11.2498 14.4518 11.4148C14.5502 11.4496 14.6516 11.4641 14.7515 11.4641C15.1366 11.4641 15.4971 11.2223 15.6289 10.8372C16.0849 9.50226 16.1472 8.01246 15.8026 6.64298C15.4595 5.27335 14.7008 3.99059 13.6685 3.02778C13.295 2.67885 12.7072 2.69912 12.3597 3.07411C12.0108 3.44764 12.0311 4.03548 12.406 4.38292C13.1806 5.10393 13.7482 6.06819 14.0059 7.09323L14.0044 7.09453Z" fill="#AFAFAF"/>
<path d="M22.0459 18.1471C21.5348 18.1702 21.1396 18.6046 21.1642 19.1157C21.1873 19.6268 21.6202 20.0235 22.1328 19.9974C24.1018 19.9076 26.1172 20.6779 27.5215 22.062C27.7025 22.2401 27.9371 22.3284 28.173 22.3284C28.4119 22.3284 28.6508 22.2357 28.8332 22.0533C29.1923 21.6884 29.1894 21.1021 28.8245 20.743C27.0597 19.0013 24.5303 18.0283 22.0488 18.1456L22.0459 18.1471Z" fill="#AFAFAF"/>
<path d="M19.3269 9.93508C19.4891 10.0495 19.6758 10.1045 19.8597 10.1045C20.1507 10.1045 20.4374 9.96838 20.6184 9.71211C21.8968 7.89656 22.6526 5.76663 22.8017 3.55168C22.8364 3.0406 22.4499 2.59902 21.9388 2.56569C21.4263 2.5295 20.9861 2.91752 20.9528 3.42859C20.8269 5.30496 20.1869 7.10895 19.1039 8.64648C18.8086 9.0649 18.9099 9.64258 19.3269 9.93794L19.3269 9.93508Z" fill="#AFAFAF"/>
<path d="M23.8411 14.8054C23.9077 14.8054 23.9772 14.7982 24.0453 14.7822C25.9448 14.3566 27.8966 14.1915 29.848 14.2886C30.3663 14.319 30.7949 13.9208 30.821 13.4097C30.847 12.8986 30.4532 12.4628 29.9421 12.4368C27.8225 12.3297 25.7016 12.5092 23.6383 12.9725C23.1388 13.0854 22.8246 13.5806 22.9375 14.0801C23.0345 14.5115 23.4168 14.804 23.841 14.804L23.8411 14.8054Z" fill="#AFAFAF"/>
<path d="M26.64 4.50409H28.4425C28.9536 4.50409 29.3691 5.01517 29.3691 5.43069V7.23324C29.3691 7.74431 28.9536 8.15984 28.4425 8.15984H26.64C26.1289 8.15984 25.7134 7.64876 25.7134 7.23324V5.43069C25.7134 4.91962 26.1289 4.50409 26.64 4.50409Z" fill="#AFAFAF"/>
<path d="M19.2138 11.9403C18.9706 11.9215 18.7259 11.9982 18.5391 12.1575L17.1652 13.3244C16.7757 13.656 16.7279 14.2409 17.0595 14.6303L18.2264 16.0043C18.4103 16.22 18.6709 16.3315 18.9329 16.3315C19.1443 16.3315 19.3586 16.2591 19.5323 16.1115L20.9063 14.9445C21.093 14.7853 21.2103 14.5579 21.2306 14.3133C21.2509 14.0686 21.1727 13.8254 21.0134 13.6386L19.8465 12.2646C19.6872 12.0779 19.4599 11.9606 19.2152 11.9403H19.2138Z" fill="#AFAFAF"/>
<path d="M32.0345 17.7924C32.0345 19.8193 28.9927 19.8193 28.9927 17.7924C28.9927 15.764 32.0345 15.764 32.0345 17.7924Z" fill="#AFAFAF"/>
<path d="M17.3317 3.04045C18.17 3.04045 18.852 2.35854 18.852 1.52022C18.852 0.681944 18.1701 0 17.3317 0C16.4934 0 15.8115 0.681907 15.8115 1.52022C15.8115 2.3585 16.4934 3.04045 17.3317 3.04045Z" fill="#AFAFAF"/>
</svg>
