<svg width="24" height="37" viewBox="0 0 24 37" fill="none" xmlns="http://www.w3.org/2000/svg">
<path d="M17.4606 19.8166L19.9856 34.0266C20.0139 34.1939 19.9904 34.3659 19.9183 34.5195C19.8462 34.6731 19.7289 34.8011 19.5822 34.8863C19.4354 34.9714 19.2661 35.0097 19.0969 34.9961C18.9278 34.9825 18.7668 34.9175 18.6356 34.8099L12.6689 30.3316C12.3809 30.1164 12.031 30.0001 11.6714 30.0001C11.3119 30.0001 10.962 30.1164 10.6739 30.3316L4.69727 34.8083C4.56613 34.9156 4.40537 34.9805 4.23643 34.9942C4.06748 35.0078 3.89839 34.9696 3.75171 34.8847C3.60502 34.7998 3.48773 34.6721 3.41547 34.5188C3.3432 34.3655 3.31941 34.1938 3.34727 34.0266L5.8706 19.8166" stroke="white" stroke-width="3.33333" stroke-linecap="round" stroke-linejoin="round"/>
<path d="M11.666 21.6667C17.1889 21.6667 21.666 17.1895 21.666 11.6667C21.666 6.14384 17.1889 1.66669 11.666 1.66669C6.14317 1.66669 1.66602 6.14384 1.66602 11.6667C1.66602 17.1895 6.14317 21.6667 11.666 21.6667Z" stroke="white" stroke-width="3.33333" stroke-linecap="round" stroke-linejoin="round"/>
</svg>
