<svg width="20" height="27" viewBox="0 0 20 27" fill="none" xmlns="http://www.w3.org/2000/svg">
<path d="M7.27525 13.137C4.77525 13.137 4.69525 8.21702 4.69525 8.13702C4.69516 7.9315 4.63176 7.73101 4.51366 7.56281C4.39557 7.39462 4.22852 7.26689 4.03525 7.19702C3.84513 7.1267 3.63812 7.11582 3.44167 7.16582C3.24523 7.21583 3.06861 7.32435 2.93525 7.47702C1.67368 8.99961 0.780502 10.7928 0.32525 12.717C-1.12475 19.997 2.64525 23.397 4.32525 24.527C5.80824 25.5065 7.54803 26.0249 9.32525 26.017C11.9333 26.0164 14.4406 25.0099 16.3253 23.207C17.7095 21.8661 18.6899 20.1638 19.1548 18.2935C19.6197 16.4232 19.5506 14.46 18.9552 12.627C18.273 10.692 17.0976 8.96858 15.5452 7.62702C13.5132 5.90035 12.1946 3.48064 11.8453 0.837018C11.8156 0.651348 11.7342 0.477805 11.6104 0.336302C11.4865 0.194799 11.3253 0.0910698 11.1453 0.0370178C10.9689 -0.0123454 10.7824 -0.0123392 10.6061 0.0370359C10.4297 0.0864111 10.2703 0.183259 10.1453 0.317018C10.0353 0.437018 7.43525 3.31702 8.71525 8.40702C9.20525 10.357 9.15525 11.837 8.58525 12.577C8.42499 12.7652 8.2233 12.9137 7.99602 13.0109C7.76873 13.108 7.52203 13.1512 7.27525 13.137Z" fill="white"/>
</svg>
