<svg width="20" height="20" viewBox="0 0 20 20" fill="none" xmlns="http://www.w3.org/2000/svg">
<path d="M16.6663 10.8333C16.6663 15 13.7497 17.0833 10.283 18.2917C10.1015 18.3532 9.90429 18.3502 9.72467 18.2833C6.24967 17.0833 3.33301 15 3.33301 10.8333V5C3.33301 4.77898 3.42081 4.56702 3.57709 4.41074C3.73337 4.25446 3.94533 4.16667 4.16634 4.16667C5.83301 4.16667 7.91634 3.16666 9.36634 1.9C9.54289 1.74916 9.76747 1.66629 9.99967 1.66629C10.2319 1.66629 10.4565 1.74916 10.633 1.9C12.0913 3.175 14.1663 4.16667 15.833 4.16667C16.054 4.16667 16.266 4.25446 16.4223 4.41074C16.5785 4.56702 16.6663 4.77898 16.6663 5V10.8333Z" stroke="#00E5FF" stroke-width="1.66667" stroke-linecap="round" stroke-linejoin="round"/>
</svg>
