<svg width="38" height="34" viewBox="0 0 38 34" fill="none" xmlns="http://www.w3.org/2000/svg">
<path d="M18.9985 13.1537C18.9985 12.8375 19.42 12.5969 19.948 12.617C20.476 12.637 20.8645 12.9161 20.852 13.2323C20.8394 13.5485 20.4305 13.7844 19.8978 13.7644C19.3651 13.7443 18.986 13.4698 18.9985 13.1537ZM20.7125 15.868C20.0874 15.6027 19.4466 15.7014 19.2774 16.0885C19.1082 16.4756 19.4764 17.003 20.1219 17.2683C20.7674 17.5336 21.3878 17.4349 21.557 17.0478C21.7262 16.6622 21.3204 16.1332 20.7125 15.868ZM23.4951 17.6261C23.0736 17.5505 22.6506 17.7094 22.6083 17.9839C22.566 18.2584 22.8778 18.5407 23.318 18.6193C23.7567 18.698 24.1625 18.536 24.2095 18.2615C24.255 17.987 23.9384 17.7047 23.4951 17.6261ZM27.5059 19.8623C27.3712 20.6936 25.6447 21.1964 23.487 21.2874C23.2332 24.0464 22.3684 25.5963 19.73 25.1198C16.7202 24.7666 15.4403 23.4943 16.3521 20.3576C14.5283 19.8332 12.9741 18.2802 13.101 17.5476C13.5569 14.9953 15.0219 10.1047 21.6382 11.2508C28.7009 12.4769 27.9195 17.3024 27.5059 19.8623ZM22.95 19.8114C22.6366 19.7621 22.3248 19.6958 22.0178 19.6125L21.2579 22.4795L21.6418 19.4922C20.2677 19.1144 18.9908 18.4527 17.8973 17.5505C17.3599 19.4922 15.4093 23.374 18.1714 24.0633L18.6947 22.2974L18.4832 24.1712C20.426 24.8313 21.4381 24.5044 21.8909 24.1712C22.6555 23.6484 22.8576 21.1085 22.95 19.8114ZM23.7647 15.9112C22.7855 14.5818 23.1489 12.7404 24.7658 13.0442C22.6162 11.6022 17.7452 11.1241 15.9888 12.9069C17.9473 12.0756 18.7886 14.153 16.9007 15.0845C15.9543 15.5549 14.878 15.4007 14.726 14.5571V14.554C14.3578 15.2758 14.0554 16.0269 13.822 16.7995C17.2626 14.6466 18.5973 18.0456 22.3295 19.0357C24.0184 19.4799 26.0568 18.9201 26.9011 19.065H26.9559L26.9575 19.0635C27.1408 17.9808 27.1063 16.872 26.8556 15.8017C26.724 17.5429 24.7311 17.3347 23.7644 15.9097L23.7647 15.9112ZM37.9812 16.9984C38.4027 20.0659 31.5983 19.7791 30.381 22.5056C29.1652 25.2323 32.5259 30.5759 28.844 32.1015C25.4285 33.5111 24.1232 29.6077 20.501 29.3717C16.8787 29.1342 11.1461 36.0649 7.65819 33.3814C4.28027 30.7966 9.34713 25.2108 7.41691 22.0152C5.48824 18.8182 0 19.4089 0 15.6983C0 11.9075 6.4174 12.145 8.49945 10.0553C10.5096 8.04419 7.93857 1.74414 11.6909 0.226497C15.5874 -1.33268 19.3617 5.65039 22.6254 6.16561C25.3781 6.58048 29.9123 2.75422 31.7581 4.80692C33.4095 6.64369 29.4785 9.99787 30.6348 12.5164C31.9179 15.3109 37.5801 13.9601 37.9812 16.9984ZM12.5655 12.2607H12.5639C12.8271 11.2536 13.6262 10.4671 14.6493 10.208C13.6277 9.95048 12.8287 9.16549 12.5639 8.15841C12.3023 9.16549 11.5048 9.95049 10.4833 10.208C11.5001 10.464 12.2976 11.2444 12.5639 12.2437L12.5655 12.2607ZM21.7985 10.3483C16.6766 9.477 13.1595 12.0355 12.2005 17.3886C11.9718 18.6347 13.5636 20.1769 15.3074 20.9342C15.0504 22.4594 15.1632 23.5112 15.6536 24.2006C16.4981 25.368 18.3813 25.8091 19.1616 25.9418C19.3136 25.9711 19.4655 25.9911 19.6175 26.0127C20.639 26.133 22.0413 26.1207 22.9233 25.3681C23.5782 24.8067 24.0169 23.7719 24.2864 22.134C25.9753 21.9844 28.1626 21.494 28.4024 20.0027C28.8066 17.5305 29.7655 11.7456 21.7985 10.3483Z" fill="#AFAFAF"/>
</svg>
