<svg width="25" height="25" viewBox="0 0 25 25" fill="none" xmlns="http://www.w3.org/2000/svg">
<path d="M12.5 0.0996094C19.3413 0.0996094 24.9004 5.65871 24.9004 12.5C24.9004 19.3413 19.3413 24.9004 12.5 24.9004C5.65871 24.9004 0.0996094 19.3413 0.0996094 12.5C0.0996094 5.65871 5.65871 0.0996094 12.5 0.0996094ZM12.5 2.53711C7.00553 2.53711 2.53711 7.00553 2.53711 12.5C2.53711 17.9945 7.00553 22.4629 12.5 22.4629C17.9945 22.4629 22.4629 17.9945 22.4629 12.5C22.4629 7.00553 17.9945 2.53711 12.5 2.53711Z" fill="#62748E" stroke="#F0F0F0" stroke-width="0.2"/>
<path d="M12.4979 6.52663C10.6278 6.52663 9.10352 8.05094 9.10352 9.92098H11.1985C11.1985 9.20301 11.7799 8.62157 12.4979 8.62157C13.2158 8.62157 13.7973 9.22953 13.7973 9.92098C13.7973 10.3187 13.6195 10.691 13.3052 10.9375C12.1266 11.8804 11.446 13.2161 11.446 14.5989V14.9711H13.5409V14.5989C13.5409 13.8446 13.923 13.1266 14.6095 12.5717C15.4218 11.9225 15.8873 10.958 15.8873 9.91607C15.8873 8.07747 14.3316 6.52173 12.493 6.52173L12.4979 6.52663Z" fill="#62748E"/>
<path d="M13.5471 17.6681C13.5471 19.0657 11.4512 19.0657 11.4512 17.6681C11.4512 16.2714 13.5471 16.2714 13.5471 17.6681Z" fill="#62748E"/>
</svg>
