<svg width="30" height="27" viewBox="0 0 30 27" fill="none" xmlns="http://www.w3.org/2000/svg">
<path d="M7.4873 0.0628967C10.4303 -0.105484 12.9859 1.3875 14.5996 4.12442C16.1625 1.47494 18.6081 -0.00903244 21.4355 0.0531311L21.7129 0.0638733L22.0264 0.0902405C23.5903 0.249202 25.0738 0.879048 26.2842 1.89981C27.5746 2.9881 28.484 4.46597 28.8818 6.11465H28.8828C29.3718 8.06138 29.4269 11.2216 26.9248 15.2279C24.6196 18.9217 20.6349 22.5478 15.085 26.0102C14.787 26.1961 14.4122 26.1961 14.1143 26.0102C8.56604 22.5479 4.58184 18.9212 2.27539 15.2279C-0.22798 11.2219 -0.173888 8.06196 0.316406 6.11368C0.71538 4.46562 1.62637 2.98669 2.91602 1.89786C4.19483 0.819322 5.77889 0.179961 7.44043 0.0687561V0.0658264L7.4873 0.0628967ZM21.5713 1.91739C18.9001 1.78231 16.6161 3.52197 15.4629 6.59903C15.3268 6.96132 14.9832 7.20059 14.5996 7.20059C14.2162 7.20041 13.8733 6.96118 13.7373 6.59903C12.6267 3.63601 10.4669 1.91251 7.91895 1.91251C7.8109 1.91251 7.70033 1.91522 7.59277 1.92227C6.30659 2.00304 5.07906 2.49903 4.0918 3.33536C3.12924 4.15077 2.44474 5.24943 2.12988 6.47598L2.10645 6.57071C1.53174 8.85029 2.12706 11.5007 3.83594 14.2377C5.92224 17.5769 9.53968 20.9019 14.5996 24.1215C19.6597 20.9017 23.2778 17.577 25.3643 14.2357C27.0731 11.4988 27.6681 8.85004 27.0947 6.57071H27.0938C26.7904 5.30606 26.0957 4.17118 25.1084 3.3334C24.1211 2.49712 22.8936 2.0011 21.6074 1.92032L21.5713 1.91739Z" fill="#62748E" stroke="#62748E" stroke-width="0.1"/>
</svg>
