<svg width="22" height="22" viewBox="0 0 22 22" fill="none" xmlns="http://www.w3.org/2000/svg">
<path d="M20.7987 9.00341C21.2554 11.2447 20.9299 13.5748 19.8765 15.6052C18.8231 17.6356 17.1056 19.2435 15.0102 20.1607C12.9148 21.078 10.5683 21.2492 8.36196 20.6458C6.15563 20.0424 4.22285 18.7008 2.88593 16.8448C1.54902 14.9889 0.88878 12.7306 1.01532 10.4468C1.14186 8.16294 2.04754 5.9915 3.58131 4.29458C5.11508 2.59766 7.18424 1.47784 9.44372 1.12186C11.7032 0.765884 14.0164 1.19527 15.9977 2.33841" stroke="url(#paint0_linear_1_4901)" stroke-width="2" stroke-linecap="round" stroke-linejoin="round"/>
<path d="M7.99756 10.0034L10.9976 13.0034L20.9976 3.00342" stroke="url(#paint1_linear_1_4901)" stroke-width="2" stroke-linecap="round" stroke-linejoin="round"/>
<defs>
<linearGradient id="paint0_linear_1_4901" x1="10.9987" y1="3.94281" x2="10.9987" y2="20.4712" gradientUnits="userSpaceOnUse">
<stop stop-color="#FF1A00"/>
<stop offset="1" stop-color="#8F0000"/>
</linearGradient>
<linearGradient id="paint1_linear_1_4901" x1="14.4967" y1="4.47482" x2="14.4967" y2="12.739" gradientUnits="userSpaceOnUse">
<stop stop-color="#FF1A00"/>
<stop offset="1" stop-color="#8F0000"/>
</linearGradient>
</defs>
</svg>
