<svg width="20" height="20" viewBox="0 0 20 20" fill="none" xmlns="http://www.w3.org/2000/svg">
<path d="M16.6668 8.33334C16.6668 12.4942 12.051 16.8275 10.501 18.1658C10.3566 18.2744 10.1808 18.3331 10.0002 18.3331C9.8195 18.3331 9.64373 18.2744 9.49933 18.1658C7.94933 16.8275 3.3335 12.4942 3.3335 8.33334C3.3335 6.56523 4.03588 4.86954 5.28612 3.61929C6.53636 2.36905 8.23205 1.66667 10.0002 1.66667C11.7683 1.66667 13.464 2.36905 14.7142 3.61929C15.9645 4.86954 16.6668 6.56523 16.6668 8.33334Z" stroke="url(#paint0_linear_1_1078)" stroke-width="1.66667" stroke-linecap="round" stroke-linejoin="round"/>
<path d="M10 10.8333C11.3807 10.8333 12.5 9.71404 12.5 8.33333C12.5 6.95262 11.3807 5.83333 10 5.83333C8.61929 5.83333 7.5 6.95262 7.5 8.33333C7.5 9.71404 8.61929 10.8333 10 10.8333Z" stroke="url(#paint1_linear_1_1078)" stroke-width="1.66667" stroke-linecap="round" stroke-linejoin="round"/>
<defs>
<linearGradient id="paint0_linear_1_1078" x1="9.99932" y1="4.11898" x2="9.99932" y2="17.8925" gradientUnits="userSpaceOnUse">
<stop stop-color="#FF1A00"/>
<stop offset="1" stop-color="#8F0000"/>
</linearGradient>
<linearGradient id="paint1_linear_1_1078" x1="9.99968" y1="6.56903" x2="9.99968" y2="10.7011" gradientUnits="userSpaceOnUse">
<stop stop-color="#FF1A00"/>
<stop offset="1" stop-color="#8F0000"/>
</linearGradient>
</defs>
</svg>
