<svg width="30" height="26" viewBox="0 0 30 26" fill="none" xmlns="http://www.w3.org/2000/svg">
<path d="M20.9953 0.00125404C18.8496 0.00125404 16.7056 0.824711 15.0569 2.47318L10.0632 7.46849C9.31432 8.21736 9.32518 9.42461 10.0772 10.1766C10.8307 10.9286 12.0364 10.9395 12.7853 10.1906L15.3132 7.66269L15.3163 7.66114C15.3411 7.63628 15.3691 7.61452 15.3986 7.59588C15.4048 7.59122 15.4111 7.58811 15.4188 7.585C15.4421 7.57102 15.467 7.55859 15.4934 7.54927C15.5012 7.54616 15.5089 7.54305 15.5167 7.53995C15.5245 7.53684 15.5338 7.53373 15.5416 7.53062C15.5571 7.52752 15.5742 7.52441 15.5897 7.52286C15.6022 7.51975 15.6146 7.5182 15.6255 7.51664C15.6503 7.51509 15.6767 7.51509 15.7016 7.51664C15.7125 7.51664 15.7234 7.51664 15.7342 7.5182C15.7622 7.5213 15.7886 7.52752 15.815 7.53684C15.8228 7.53839 15.8321 7.5415 15.8399 7.54305C15.8709 7.55393 15.9005 7.56791 15.9269 7.58501C15.93 7.58656 15.9347 7.58811 15.9378 7.58967C15.9688 7.60986 15.9984 7.63162 16.0248 7.65803L24.8249 16.4582L26.9349 14.3483C30.2303 11.0528 30.2318 5.76726 26.9349 2.47192C25.2864 0.823457 23.1423 0 20.9965 0L20.9953 0.00125404ZM17.5616 14.8205C17.5368 14.8454 17.515 14.8718 17.4979 14.8998C17.5166 14.8718 17.5368 14.8454 17.5616 14.8205ZM17.4979 15.4513C17.5166 15.4793 17.5368 15.5057 17.5616 15.5306C17.5368 15.5057 17.515 15.4793 17.4979 15.4513ZM14.9871 17.3966C14.9623 17.4214 14.9405 17.4478 14.9234 17.4758C14.9421 17.4478 14.9638 17.4214 14.9871 17.3966ZM14.9234 18.0274C14.9421 18.0554 14.9638 18.0818 14.9871 18.1066C14.9623 18.0818 14.9405 18.0554 14.9234 18.0274ZM12.4126 19.9726C12.3878 19.9975 12.366 20.0239 12.3489 20.0518C12.3676 20.0239 12.3893 19.9975 12.4126 19.9726ZM12.3489 20.6034C12.3676 20.6314 12.3893 20.6578 12.4126 20.6827C12.3878 20.6578 12.366 20.6314 12.3489 20.6034Z" fill="white"/>
<path d="M8.41051 0.00128174C6.26487 0.00128174 4.11922 0.824738 2.47214 2.4732C-0.823273 5.76862 -0.824824 11.0542 2.47214 14.3495L13.4365 25.3139C13.4365 25.3139 14.2413 26.0891 15.1284 25.2004C16.0156 24.3133 15.2419 23.5085 15.2419 23.5085L12.411 20.6776C12.2152 20.4818 12.2152 20.1649 12.411 19.9691C12.4732 19.907 12.5508 19.8619 12.6347 19.8402C12.8072 19.7936 12.9921 19.8433 13.1195 19.9707L16.4258 23.277C16.4258 23.277 17.2539 24.0274 18.1488 23.134C19.0438 22.2391 18.2918 21.411 18.2918 21.411L14.9855 18.1032C14.7897 17.9074 14.7897 17.5904 14.9855 17.3947C15.0476 17.3325 15.1253 17.2875 15.2092 17.2657C15.3817 17.2191 15.5666 17.2688 15.694 17.3947L19.0003 20.7025C19.0003 20.7025 19.8284 21.4529 20.7233 20.5596C21.6183 19.6646 20.8663 18.8365 20.8663 18.8365L17.56 15.5287C17.3642 15.3329 17.3642 15.016 17.56 14.8202C17.6221 14.7581 17.6998 14.713 17.7837 14.6897C17.9562 14.6431 18.1411 14.6928 18.2685 14.8202L21.5748 18.1281C21.5748 18.1281 22.4013 18.8816 23.2388 18.0426C24.0778 17.2036 23.3242 16.3786 23.3242 16.3786L15.6676 8.72355L13.4908 10.8987C12.3551 12.0361 10.4984 12.0159 9.36581 10.8848C8.23314 9.7521 8.21453 7.89545 9.35183 6.75973L13.9804 2.13114C12.3879 0.712611 10.3976 0.00255247 8.40718 0.00255247L8.41051 0.00128174Z" fill="white"/>
</svg>
