<svg width="22" height="25" viewBox="0 0 22 25" fill="none" xmlns="http://www.w3.org/2000/svg">
<path d="M10.7256 0.0996399C14.8552 0.0996556 17.8484 3.09716 17.8486 6.78519V9.7803C17.8929 11.1336 18.2626 12.3879 18.6982 13.376C19.1313 14.358 19.6348 15.0867 19.957 15.3916V15.3926L19.9707 15.4063C20.0389 15.4744 20.1121 15.5371 20.1865 15.5957L20.4102 15.7627L20.501 15.8291C21.0167 16.2096 21.3514 16.821 21.3516 17.5108C21.3516 18.6643 20.4162 19.5994 19.2627 19.5996H2.18848C1.03499 19.5994 0.0996094 18.6643 0.0996094 17.5108C0.0997328 16.9073 0.356165 16.3638 0.765625 15.9825L0.950195 15.8291L1.04102 15.7627C1.18846 15.6555 1.34333 15.5424 1.47949 15.4063L1.49023 15.3946L1.49121 15.3955C1.9569 14.9572 2.47287 14.0914 2.87695 13.0518C3.28204 12.0095 3.58039 10.7785 3.60254 9.60062V6.78519C3.60277 3.09715 6.59601 0.0996399 10.7256 0.0996399ZM10.7256 2.0889C7.61041 2.0889 5.59105 4.27777 5.59082 6.78519V9.63773C5.56329 11.1016 5.19914 12.5666 4.73047 13.7725C4.28922 14.9077 3.65162 16.0795 2.88184 16.8174L2.88086 16.8184C2.74982 16.9487 2.60524 17.0712 2.47754 17.1719L2.17383 17.3985L2.12988 17.4307L1.88086 17.6114H2.18848L19.2607 17.6104H19.5703L19.3193 17.4287L19.2773 17.3985C19.1477 17.3054 18.8316 17.0786 18.5693 16.8174L18.5684 16.8164L18.3467 16.585C17.828 16.0032 17.2986 15.1296 16.8789 14.1778C16.3665 13.0155 15.916 11.51 15.8613 9.84573V9.84476L15.8604 9.8096V6.78519C15.8601 4.27778 13.8408 2.08891 10.7256 2.0889Z" fill="#62748E" stroke="#F0F0F0" stroke-width="0.2"/>
<path d="M13.959 21.7197C13.9527 22.0986 13.8775 22.4729 13.7324 22.8232C13.581 23.1888 13.359 23.5219 13.0791 23.8018C12.7992 24.0817 12.4663 24.3037 12.1006 24.4551C11.7349 24.6066 11.343 24.6846 10.9473 24.6846C10.5515 24.6846 10.1596 24.6066 9.79395 24.4551C9.42823 24.3037 9.09534 24.0817 8.81543 23.8018C8.53555 23.5219 8.3136 23.1888 8.16211 22.8232C8.01707 22.4729 7.94181 22.0986 7.93555 21.7197H13.959Z" fill="#62748E" stroke="#F0F0F0" stroke-width="0.1"/>
</svg>
