<svg width="20" height="20" viewBox="0 0 20 20" fill="none" xmlns="http://www.w3.org/2000/svg">
<path d="M16.6673 10.8331C16.6673 14.9997 13.7507 17.0831 10.284 18.2914C10.1025 18.3529 9.90527 18.35 9.72565 18.2831C6.25065 17.0831 3.33398 14.9997 3.33398 10.8331V4.99972C3.33398 4.77871 3.42178 4.56675 3.57806 4.41047C3.73434 4.25419 3.9463 4.16639 4.16732 4.16639C5.83398 4.16639 7.91732 3.16639 9.36732 1.89972C9.54386 1.74889 9.76845 1.66602 10.0007 1.66602C10.2329 1.66602 10.4574 1.74889 10.634 1.89972C12.0923 3.17472 14.1673 4.16639 15.834 4.16639C16.055 4.16639 16.267 4.25419 16.4232 4.41047C16.5795 4.56675 16.6673 4.77871 16.6673 4.99972V10.8331Z" stroke="#00FF41" stroke-width="1.66667" stroke-linecap="round" stroke-linejoin="round"/>
</svg>
