<svg width="20" height="20" viewBox="0 0 20 20" fill="none" xmlns="http://www.w3.org/2000/svg">
<path d="M19.7329 18.3875L16.9079 15.5625C18.4556 13.6696 19.2166 11.2543 19.0334 8.81607C18.8502 6.37786 17.7369 4.10333 15.9237 2.46295C14.1105 0.822579 11.7362 -0.0581351 9.29189 0.00298062C6.84757 0.0640964 4.52024 1.06237 2.7913 2.7913C1.06237 4.52024 0.0640964 6.84757 0.00298062 9.29189C-0.0581351 11.7362 0.822579 14.1105 2.46295 15.9237C4.10333 17.7369 6.37786 18.8502 8.81607 19.0334C11.2543 19.2166 13.6696 18.4557 15.5625 16.9079L18.3875 19.7329C18.567 19.9062 18.8073 20.0021 19.0568 20C19.3063 19.9978 19.5449 19.8977 19.7213 19.7213C19.8977 19.5449 19.9978 19.3063 20 19.0568C20.0021 18.8073 19.9062 18.567 19.7329 18.3875ZM9.54533 17.1572C8.03984 17.1572 6.56815 16.7108 5.31638 15.8744C4.06461 15.038 3.08898 13.8492 2.51285 12.4583C1.93672 11.0674 1.78598 9.53689 2.07969 8.06032C2.3734 6.58376 3.09836 5.22745 4.1629 4.1629C5.22745 3.09836 6.58376 2.3734 8.06032 2.07969C9.53688 1.78598 11.0674 1.93672 12.4583 2.51285C13.8492 3.08898 15.038 4.06461 15.8744 5.31638C16.7108 6.56815 17.1572 8.03984 17.1572 9.54533C17.155 11.5634 16.3523 13.4982 14.9253 14.9253C13.4982 16.3523 11.5634 17.155 9.54533 17.1572Z" fill="#4E4D60"/>
</svg>
