<svg width="20" height="20" viewBox="0 0 20 20" fill="none" xmlns="http://www.w3.org/2000/svg">
    <path
        d="M13.9768 7.5656C14.0474 7.47464 14.0821 7.36038 14.0742 7.24499C14.0662 7.1296 14.0162 7.02131 13.9338 6.94114C13.8514 6.86097 13.7425 6.81463 13.6282 6.81112C13.514 6.80762 13.4025 6.84719 13.3154 6.92216L5.04818 14.0386L0.682438 12.3303C0.492523 12.2567 0.327466 12.1296 0.206881 11.9639C0.0862958 11.7982 0.0152526 11.601 0.00219295 11.3957C-0.0108667 11.1904 0.0346061 10.9856 0.133209 10.8057C0.231811 10.6257 0.379398 10.4782 0.55843 10.3806L18.6828 0.108129C18.8252 0.0304941 18.9858 -0.00655031 19.1474 0.00094939C19.3091 0.00844909 19.4656 0.0602115 19.6005 0.150712C19.7353 0.241212 19.8433 0.367054 19.9129 0.514806C19.9826 0.662558 20.0113 0.826675 19.996 0.989642L18.4061 17.7577C18.3902 17.9297 18.3348 18.0955 18.2444 18.242C18.154 18.3885 18.031 18.5117 17.8853 18.6017C17.7396 18.6916 17.5751 18.7459 17.405 18.7603C17.2348 18.7746 17.0637 18.7486 16.9053 18.6842L11.592 16.6027L8.2565 19.7652C8.1334 19.8816 7.97928 19.9589 7.81321 19.9876C7.64714 20.0163 7.47641 19.995 7.32212 19.9266C7.16784 19.8581 7.03677 19.7454 6.94514 19.6024C6.85351 19.4593 6.80533 19.2922 6.80656 19.1218V16.6381L13.9768 7.5656Z"
        fill="white" />
</svg>