<svg width="24" height="24" viewBox="0 0 24 24" fill="none" xmlns="http://www.w3.org/2000/svg">
<path fill-rule="evenodd" clip-rule="evenodd" d="M12.0006 24C11.6561 24 11.3151 23.9848 10.9788 23.9566C10.5464 23.9203 10.2042 23.6098 10.1257 23.1832L9.9335 22.146C9.86553 21.7768 9.60657 21.4979 9.24329 21.4018C8.39724 21.178 7.59805 20.8428 6.85864 20.4127C6.53406 20.224 6.1532 20.2381 5.84385 20.4514L5.10562 20.9588C4.73765 21.212 4.25957 21.1792 3.9291 20.8791C3.5471 20.5323 3.18733 20.1608 2.85338 19.767C2.57097 19.4353 2.54755 18.9724 2.79479 18.6138L3.28929 17.8954C3.50139 17.586 3.51662 17.2051 3.32796 16.8805C2.89907 16.1422 2.56276 15.3418 2.33894 14.4968C2.24285 14.1335 1.96396 13.8745 1.59365 13.8065L0.800343 13.66C0.366773 13.5792 0.0538884 13.2276 0.0257797 12.7881C0.00937442 12.528 0 12.2643 0 11.9994C0 11.7346 0.00820267 11.472 0.0257797 11.2119C0.0539034 10.7724 0.366773 10.4197 0.800343 10.34L1.59365 10.1935C1.96279 10.1255 2.24168 9.86652 2.33777 9.5032C2.56159 8.65824 2.89673 7.8578 3.32679 7.11949C3.51546 6.79488 3.50139 6.41398 3.28812 6.1046L2.79362 5.38621C2.54754 5.02761 2.57098 4.56468 2.85221 4.23302C3.18619 3.83925 3.54593 3.46774 3.92793 3.12086C4.2584 2.82084 4.73648 2.78802 5.10445 3.04117L5.84268 3.54862C6.15203 3.76074 6.53289 3.77597 6.85747 3.58729C7.59571 3.15836 8.39607 2.82318 9.24212 2.59817C9.60537 2.50207 9.86435 2.22315 9.93233 1.85398L10.1245 0.81683C10.203 0.390239 10.5452 0.0796931 10.9776 0.0433613C11.3139 0.0152349 11.6549 0 11.9994 0C12.3439 0 12.6837 0.0140633 13.0201 0.0433613C13.4525 0.0796901 13.7946 0.390239 13.8732 0.81566L14.0653 1.85281C14.1333 2.22198 14.3923 2.50091 14.7555 2.597C15.6004 2.82084 16.4019 3.15602 17.1402 3.58612C17.4648 3.7748 17.8456 3.76074 18.155 3.54745L18.892 3.04C19.26 2.78686 19.7381 2.81967 20.0686 3.11969C20.4506 3.46657 20.8103 3.83808 21.1443 4.23185C21.4255 4.56351 21.4501 5.02641 21.204 5.38505L20.7095 6.10343C20.4963 6.41281 20.4822 6.79371 20.6709 7.11832C21.0998 7.85663 21.4361 8.65707 21.6599 9.50203C21.756 9.86532 22.0349 10.1243 22.4052 10.1923L23.1985 10.3388C23.6321 10.4185 23.9438 10.7712 23.973 11.2107C23.9918 11.4709 24 11.7346 24 11.9994C24 12.2643 23.9918 12.528 23.9742 12.7881C23.9461 13.2276 23.6332 13.5803 23.1997 13.66L22.4063 13.8065C22.0372 13.8745 21.7571 14.1335 21.6611 14.4968C21.4372 15.3418 21.1021 16.1422 20.672 16.8817C20.4834 17.2063 20.4974 17.5872 20.7107 17.8966L21.2052 18.615C21.4513 18.9736 21.4279 19.4365 21.1466 19.7682C20.8115 20.1608 20.4529 20.5334 20.0709 20.8803C19.7404 21.1803 19.2623 21.2131 18.8944 20.96L18.1573 20.4526C17.848 20.2393 17.4671 20.2252 17.1425 20.4139C16.4043 20.844 15.6039 21.178 14.7579 21.403C14.3946 21.4991 14.1368 21.778 14.0677 22.1472L13.8755 23.1843C13.7958 23.6109 13.4548 23.9203 13.0224 23.9566C12.6861 23.9848 12.3451 24 12.0006 24ZM12.0006 5.94748C8.65844 5.94748 5.94927 8.65698 5.94927 11.9994C5.94927 15.3418 8.6585 18.0513 12.0006 18.0513C15.3427 18.0513 18.0519 15.3418 18.0519 11.9994C18.0519 8.65698 15.3427 5.94748 12.0006 5.94748Z" fill="white"/>
</svg>
