<svg width="24" height="24" viewBox="0 0 24 24" fill="none" xmlns="http://www.w3.org/2000/svg">
<mask id="path-1-outside-1_1_1457" maskUnits="userSpaceOnUse" x="-0.900391" y="-0.899994" width="25" height="25" fill="black">
<rect fill="white" x="-0.900391" y="-0.899994" width="25" height="25"/>
<path d="M13.538 23.55H9.65577C8.97148 23.55 8.31522 23.2782 7.83136 22.7943C7.3475 22.3105 7.07567 21.6542 7.07567 20.9699C7.07816 20.833 7.04363 20.6981 6.97572 20.5792C6.9078 20.4604 6.80903 20.3621 6.68986 20.2947C6.57386 20.2233 6.44029 20.1854 6.30405 20.1854C6.1678 20.1854 6.03423 20.2233 5.91824 20.2947C5.62485 20.4676 5.29988 20.5802 4.9624 20.6257C4.62492 20.6713 4.28174 20.6489 3.95302 20.56C3.29354 20.3774 2.73126 19.9449 2.38567 19.3543L0.444561 15.9905C0.103345 15.3988 0.0107274 14.6958 0.187017 14.0359C0.363306 13.3759 0.794114 12.8128 1.38497 12.47C1.5064 12.4043 1.6076 12.3067 1.6777 12.1877C1.7478 12.0688 1.78415 11.9329 1.78284 11.7949C1.78445 11.6598 1.74942 11.5268 1.68149 11.41C1.61356 11.2933 1.51525 11.1971 1.39703 11.1318C0.803297 10.7887 0.369705 10.2243 0.191189 9.56219C0.0126729 8.9001 0.103779 8.19425 0.444561 7.59918L2.38567 4.2354C2.73126 3.64482 3.29354 3.21229 3.95302 3.02975C4.28369 2.9493 4.62723 2.93668 4.96291 2.99262C5.2986 3.04857 5.61947 3.17194 5.90618 3.35528C6.02482 3.43109 6.16168 3.47354 6.3024 3.47817C6.44311 3.4828 6.58247 3.44943 6.70583 3.38158C6.82919 3.31374 6.932 3.21391 7.00344 3.09259C7.07489 2.97128 7.11233 2.83295 7.11184 2.69217C7.11025 2.35233 7.17581 2.01553 7.30476 1.7011C7.43371 1.38667 7.62351 1.10082 7.86325 0.859958C8.103 0.619095 8.38796 0.427967 8.70178 0.297552C9.0156 0.167136 9.3521 0.100002 9.69194 0.100006H13.5742C14.2584 0.100006 14.9147 0.371838 15.3986 0.855701C15.8824 1.33956 16.1543 1.99582 16.1543 2.68011C16.1518 2.81697 16.1863 2.95196 16.2542 3.07081C16.3221 3.18966 16.4209 3.28794 16.5401 3.35528C16.6561 3.42675 16.7896 3.4646 16.9259 3.4646C17.0621 3.4646 17.1957 3.42675 17.3117 3.35528C17.6051 3.18238 17.93 3.06985 18.2675 3.0243C18.605 2.97875 18.9482 3.0011 19.2769 3.09003C19.9364 3.27257 20.4987 3.7051 20.8443 4.29569L22.7854 7.65947C23.1266 8.25124 23.2192 8.95417 23.0429 9.61412C22.8666 10.2741 22.4358 10.8372 21.8449 11.18C21.7235 11.2457 21.6223 11.3433 21.5522 11.4623C21.4821 11.5813 21.4458 11.7171 21.4471 11.8551C21.4455 11.9902 21.4805 12.1232 21.5484 12.24C21.6164 12.3567 21.7147 12.4529 21.8329 12.5183C22.4266 12.8614 22.8602 13.4257 23.0387 14.0878C23.2172 14.7499 23.1261 15.4558 22.7854 16.0508L20.8443 19.4146C20.4987 20.0052 19.9364 20.4377 19.2769 20.6203C18.9502 20.7096 18.6089 20.7321 18.2733 20.6865C17.9377 20.641 17.6148 20.5282 17.3237 20.355C17.2051 20.2792 17.0682 20.2368 16.9275 20.2321C16.7868 20.2275 16.6474 20.2609 16.5241 20.3287C16.4007 20.3966 16.2979 20.4964 16.2265 20.6177C16.155 20.739 16.1176 20.8773 16.1181 21.0181C16.1054 21.694 15.828 22.338 15.3455 22.8114C14.863 23.2849 14.214 23.5501 13.538 23.55ZM6.30405 18.3777C6.75723 18.3795 7.20204 18.5001 7.5941 18.7274C7.9874 18.9516 8.31408 19.2763 8.54075 19.6682C8.76741 20.0601 8.88592 20.5051 8.88415 20.9578C8.88412 21.1636 8.96503 21.3611 9.1094 21.5078C9.25377 21.6544 9.45002 21.7384 9.65577 21.7415H13.538C13.7426 21.7415 13.9389 21.6602 14.0836 21.5155C14.2283 21.3708 14.3096 21.1746 14.3096 20.9699C14.3069 20.5154 14.425 20.0683 14.6516 19.6743C14.8783 19.2803 15.2054 18.9536 15.5997 18.7274C15.9902 18.4961 16.4358 18.3741 16.8897 18.3741C17.3436 18.3741 17.7892 18.4961 18.1798 18.7274C18.2675 18.7793 18.3647 18.8134 18.4656 18.8276C18.5666 18.8418 18.6694 18.8358 18.7681 18.81C18.8667 18.7842 18.9593 18.7391 19.0404 18.6774C19.1216 18.6156 19.1896 18.5383 19.2407 18.4501L21.2421 15.0863C21.2938 14.9995 21.3277 14.9032 21.3417 14.8032C21.3557 14.7031 21.3496 14.6013 21.3238 14.5036C21.298 14.4059 21.2529 14.3144 21.1913 14.2343C21.1297 14.1543 21.0527 14.0873 20.9648 14.0374C20.5716 13.8112 20.245 13.4854 20.0179 13.0927C19.7908 12.7001 19.6712 12.2545 19.6712 11.8009C19.6712 11.3473 19.7908 10.9017 20.0179 10.5091C20.245 10.1164 20.5716 9.79058 20.9648 9.5644C21.0531 9.51331 21.1303 9.44523 21.1921 9.3641C21.2539 9.28298 21.299 9.19041 21.3247 9.09175C21.3505 8.99309 21.3565 8.8903 21.3423 8.78932C21.3281 8.68833 21.2941 8.59117 21.2421 8.50343L19.2407 5.13965C19.1374 4.96212 18.9686 4.83224 18.7705 4.77795C18.6733 4.7524 18.572 4.7467 18.4726 4.7612C18.3731 4.7757 18.2776 4.8101 18.1918 4.86235C17.799 5.08776 17.3539 5.20632 16.901 5.20619C16.4481 5.20607 16.0031 5.08728 15.6104 4.86165C15.2176 4.63602 14.8909 4.31142 14.6627 3.9202C14.4345 3.52898 14.3127 3.08479 14.3096 2.63188C14.3096 2.42611 14.2287 2.22859 14.0843 2.08196C13.94 1.93533 13.7437 1.85137 13.538 1.84821H9.65577C9.45112 1.84821 9.25486 1.9295 9.11015 2.07421C8.96544 2.21892 8.88415 2.41518 8.88415 2.61983C8.88681 3.07434 8.76879 3.52142 8.54214 3.9154C8.3155 4.30939 7.98835 4.63616 7.5941 4.86235C7.20353 5.09363 6.75796 5.21565 6.30405 5.21565C5.85013 5.21565 5.40457 5.09363 5.014 4.86235C4.92626 4.81038 4.82909 4.77633 4.7281 4.76214C4.62712 4.74796 4.52433 4.75394 4.42567 4.77972C4.32702 4.80551 4.23445 4.85059 4.15332 4.91237C4.07219 4.97415 4.00411 5.0514 3.95302 5.13965L2.01191 8.50343C1.96023 8.59024 1.92638 8.68649 1.91235 8.78655C1.89832 8.88661 1.9044 8.98846 1.93022 9.08614C1.95605 9.18382 2.0011 9.27536 2.06274 9.35542C2.12438 9.43547 2.20138 9.50242 2.28921 9.55235C2.68241 9.77852 3.00902 10.1044 3.23614 10.497C3.46325 10.8897 3.58283 11.3352 3.58283 11.7888C3.58283 12.2424 3.46325 12.688 3.23614 13.0807C3.00902 13.4733 2.68241 13.7992 2.28921 14.0253C2.19996 14.0754 2.12156 14.1427 2.05858 14.2234C1.9956 14.3041 1.9493 14.3965 1.92237 14.4952C1.89544 14.594 1.88842 14.6971 1.90173 14.7985C1.91503 14.9 1.94839 14.9978 1.99986 15.0863L3.94096 18.4501C4.04425 18.6276 4.21309 18.7575 4.41117 18.8118C4.50835 18.8373 4.60969 18.843 4.70912 18.8285C4.80856 18.814 4.90404 18.7796 4.98988 18.7274C5.39032 18.4991 5.84312 18.3787 6.30405 18.3777Z"/>
</mask>
<path d="M13.538 23.55H9.65577C8.97148 23.55 8.31522 23.2782 7.83136 22.7943C7.3475 22.3105 7.07567 21.6542 7.07567 20.9699C7.07816 20.833 7.04363 20.6981 6.97572 20.5792C6.9078 20.4604 6.80903 20.3621 6.68986 20.2947C6.57386 20.2233 6.44029 20.1854 6.30405 20.1854C6.1678 20.1854 6.03423 20.2233 5.91824 20.2947C5.62485 20.4676 5.29988 20.5802 4.9624 20.6257C4.62492 20.6713 4.28174 20.6489 3.95302 20.56C3.29354 20.3774 2.73126 19.9449 2.38567 19.3543L0.444561 15.9905C0.103345 15.3988 0.0107274 14.6958 0.187017 14.0359C0.363306 13.3759 0.794114 12.8128 1.38497 12.47C1.5064 12.4043 1.6076 12.3067 1.6777 12.1877C1.7478 12.0688 1.78415 11.9329 1.78284 11.7949C1.78445 11.6598 1.74942 11.5268 1.68149 11.41C1.61356 11.2933 1.51525 11.1971 1.39703 11.1318C0.803297 10.7887 0.369705 10.2243 0.191189 9.56219C0.0126729 8.9001 0.103779 8.19425 0.444561 7.59918L2.38567 4.2354C2.73126 3.64482 3.29354 3.21229 3.95302 3.02975C4.28369 2.9493 4.62723 2.93668 4.96291 2.99262C5.2986 3.04857 5.61947 3.17194 5.90618 3.35528C6.02482 3.43109 6.16168 3.47354 6.3024 3.47817C6.44311 3.4828 6.58247 3.44943 6.70583 3.38158C6.82919 3.31374 6.932 3.21391 7.00344 3.09259C7.07489 2.97128 7.11233 2.83295 7.11184 2.69217C7.11025 2.35233 7.17581 2.01553 7.30476 1.7011C7.43371 1.38667 7.62351 1.10082 7.86325 0.859958C8.103 0.619095 8.38796 0.427967 8.70178 0.297552C9.0156 0.167136 9.3521 0.100002 9.69194 0.100006H13.5742C14.2584 0.100006 14.9147 0.371838 15.3986 0.855701C15.8824 1.33956 16.1543 1.99582 16.1543 2.68011C16.1518 2.81697 16.1863 2.95196 16.2542 3.07081C16.3221 3.18966 16.4209 3.28794 16.5401 3.35528C16.6561 3.42675 16.7896 3.4646 16.9259 3.4646C17.0621 3.4646 17.1957 3.42675 17.3117 3.35528C17.6051 3.18238 17.93 3.06985 18.2675 3.0243C18.605 2.97875 18.9482 3.0011 19.2769 3.09003C19.9364 3.27257 20.4987 3.7051 20.8443 4.29569L22.7854 7.65947C23.1266 8.25124 23.2192 8.95417 23.0429 9.61412C22.8666 10.2741 22.4358 10.8372 21.8449 11.18C21.7235 11.2457 21.6223 11.3433 21.5522 11.4623C21.4821 11.5813 21.4458 11.7171 21.4471 11.8551C21.4455 11.9902 21.4805 12.1232 21.5484 12.24C21.6164 12.3567 21.7147 12.4529 21.8329 12.5183C22.4266 12.8614 22.8602 13.4257 23.0387 14.0878C23.2172 14.7499 23.1261 15.4558 22.7854 16.0508L20.8443 19.4146C20.4987 20.0052 19.9364 20.4377 19.2769 20.6203C18.9502 20.7096 18.6089 20.7321 18.2733 20.6865C17.9377 20.641 17.6148 20.5282 17.3237 20.355C17.2051 20.2792 17.0682 20.2368 16.9275 20.2321C16.7868 20.2275 16.6474 20.2609 16.5241 20.3287C16.4007 20.3966 16.2979 20.4964 16.2265 20.6177C16.155 20.739 16.1176 20.8773 16.1181 21.0181C16.1054 21.694 15.828 22.338 15.3455 22.8114C14.863 23.2849 14.214 23.5501 13.538 23.55ZM6.30405 18.3777C6.75723 18.3795 7.20204 18.5001 7.5941 18.7274C7.9874 18.9516 8.31408 19.2763 8.54075 19.6682C8.76741 20.0601 8.88592 20.5051 8.88415 20.9578C8.88412 21.1636 8.96503 21.3611 9.1094 21.5078C9.25377 21.6544 9.45002 21.7384 9.65577 21.7415H13.538C13.7426 21.7415 13.9389 21.6602 14.0836 21.5155C14.2283 21.3708 14.3096 21.1746 14.3096 20.9699C14.3069 20.5154 14.425 20.0683 14.6516 19.6743C14.8783 19.2803 15.2054 18.9536 15.5997 18.7274C15.9902 18.4961 16.4358 18.3741 16.8897 18.3741C17.3436 18.3741 17.7892 18.4961 18.1798 18.7274C18.2675 18.7793 18.3647 18.8134 18.4656 18.8276C18.5666 18.8418 18.6694 18.8358 18.7681 18.81C18.8667 18.7842 18.9593 18.7391 19.0404 18.6774C19.1216 18.6156 19.1896 18.5383 19.2407 18.4501L21.2421 15.0863C21.2938 14.9995 21.3277 14.9032 21.3417 14.8032C21.3557 14.7031 21.3496 14.6013 21.3238 14.5036C21.298 14.4059 21.2529 14.3144 21.1913 14.2343C21.1297 14.1543 21.0527 14.0873 20.9648 14.0374C20.5716 13.8112 20.245 13.4854 20.0179 13.0927C19.7908 12.7001 19.6712 12.2545 19.6712 11.8009C19.6712 11.3473 19.7908 10.9017 20.0179 10.5091C20.245 10.1164 20.5716 9.79058 20.9648 9.5644C21.0531 9.51331 21.1303 9.44523 21.1921 9.3641C21.2539 9.28298 21.299 9.19041 21.3247 9.09175C21.3505 8.99309 21.3565 8.8903 21.3423 8.78932C21.3281 8.68833 21.2941 8.59117 21.2421 8.50343L19.2407 5.13965C19.1374 4.96212 18.9686 4.83224 18.7705 4.77795C18.6733 4.7524 18.572 4.7467 18.4726 4.7612C18.3731 4.7757 18.2776 4.8101 18.1918 4.86235C17.799 5.08776 17.3539 5.20632 16.901 5.20619C16.4481 5.20607 16.0031 5.08728 15.6104 4.86165C15.2176 4.63602 14.8909 4.31142 14.6627 3.9202C14.4345 3.52898 14.3127 3.08479 14.3096 2.63188C14.3096 2.42611 14.2287 2.22859 14.0843 2.08196C13.94 1.93533 13.7437 1.85137 13.538 1.84821H9.65577C9.45112 1.84821 9.25486 1.9295 9.11015 2.07421C8.96544 2.21892 8.88415 2.41518 8.88415 2.61983C8.88681 3.07434 8.76879 3.52142 8.54214 3.9154C8.3155 4.30939 7.98835 4.63616 7.5941 4.86235C7.20353 5.09363 6.75796 5.21565 6.30405 5.21565C5.85013 5.21565 5.40457 5.09363 5.014 4.86235C4.92626 4.81038 4.82909 4.77633 4.7281 4.76214C4.62712 4.74796 4.52433 4.75394 4.42567 4.77972C4.32702 4.80551 4.23445 4.85059 4.15332 4.91237C4.07219 4.97415 4.00411 5.0514 3.95302 5.13965L2.01191 8.50343C1.96023 8.59024 1.92638 8.68649 1.91235 8.78655C1.89832 8.88661 1.9044 8.98846 1.93022 9.08614C1.95605 9.18382 2.0011 9.27536 2.06274 9.35542C2.12438 9.43547 2.20138 9.50242 2.28921 9.55235C2.68241 9.77852 3.00902 10.1044 3.23614 10.497C3.46325 10.8897 3.58283 11.3352 3.58283 11.7888C3.58283 12.2424 3.46325 12.688 3.23614 13.0807C3.00902 13.4733 2.68241 13.7992 2.28921 14.0253C2.19996 14.0754 2.12156 14.1427 2.05858 14.2234C1.9956 14.3041 1.9493 14.3965 1.92237 14.4952C1.89544 14.594 1.88842 14.6971 1.90173 14.7985C1.91503 14.9 1.94839 14.9978 1.99986 15.0863L3.94096 18.4501C4.04425 18.6276 4.21309 18.7575 4.41117 18.8118C4.50835 18.8373 4.60969 18.843 4.70912 18.8285C4.80856 18.814 4.90404 18.7796 4.98988 18.7274C5.39032 18.4991 5.84312 18.3787 6.30405 18.3777Z" fill="#62748E"/>
<path d="M13.538 23.55H9.65577C8.97148 23.55 8.31522 23.2782 7.83136 22.7943C7.3475 22.3105 7.07567 21.6542 7.07567 20.9699C7.07816 20.833 7.04363 20.6981 6.97572 20.5792C6.9078 20.4604 6.80903 20.3621 6.68986 20.2947C6.57386 20.2233 6.44029 20.1854 6.30405 20.1854C6.1678 20.1854 6.03423 20.2233 5.91824 20.2947C5.62485 20.4676 5.29988 20.5802 4.9624 20.6257C4.62492 20.6713 4.28174 20.6489 3.95302 20.56C3.29354 20.3774 2.73126 19.9449 2.38567 19.3543L0.444561 15.9905C0.103345 15.3988 0.0107274 14.6958 0.187017 14.0359C0.363306 13.3759 0.794114 12.8128 1.38497 12.47C1.5064 12.4043 1.6076 12.3067 1.6777 12.1877C1.7478 12.0688 1.78415 11.9329 1.78284 11.7949C1.78445 11.6598 1.74942 11.5268 1.68149 11.41C1.61356 11.2933 1.51525 11.1971 1.39703 11.1318C0.803297 10.7887 0.369705 10.2243 0.191189 9.56219C0.0126729 8.9001 0.103779 8.19425 0.444561 7.59918L2.38567 4.2354C2.73126 3.64482 3.29354 3.21229 3.95302 3.02975C4.28369 2.9493 4.62723 2.93668 4.96291 2.99262C5.2986 3.04857 5.61947 3.17194 5.90618 3.35528C6.02482 3.43109 6.16168 3.47354 6.3024 3.47817C6.44311 3.4828 6.58247 3.44943 6.70583 3.38158C6.82919 3.31374 6.932 3.21391 7.00344 3.09259C7.07489 2.97128 7.11233 2.83295 7.11184 2.69217C7.11025 2.35233 7.17581 2.01553 7.30476 1.7011C7.43371 1.38667 7.62351 1.10082 7.86325 0.859958C8.103 0.619095 8.38796 0.427967 8.70178 0.297552C9.0156 0.167136 9.3521 0.100002 9.69194 0.100006H13.5742C14.2584 0.100006 14.9147 0.371838 15.3986 0.855701C15.8824 1.33956 16.1543 1.99582 16.1543 2.68011C16.1518 2.81697 16.1863 2.95196 16.2542 3.07081C16.3221 3.18966 16.4209 3.28794 16.5401 3.35528C16.6561 3.42675 16.7896 3.4646 16.9259 3.4646C17.0621 3.4646 17.1957 3.42675 17.3117 3.35528C17.6051 3.18238 17.93 3.06985 18.2675 3.0243C18.605 2.97875 18.9482 3.0011 19.2769 3.09003C19.9364 3.27257 20.4987 3.7051 20.8443 4.29569L22.7854 7.65947C23.1266 8.25124 23.2192 8.95417 23.0429 9.61412C22.8666 10.2741 22.4358 10.8372 21.8449 11.18C21.7235 11.2457 21.6223 11.3433 21.5522 11.4623C21.4821 11.5813 21.4458 11.7171 21.4471 11.8551C21.4455 11.9902 21.4805 12.1232 21.5484 12.24C21.6164 12.3567 21.7147 12.4529 21.8329 12.5183C22.4266 12.8614 22.8602 13.4257 23.0387 14.0878C23.2172 14.7499 23.1261 15.4558 22.7854 16.0508L20.8443 19.4146C20.4987 20.0052 19.9364 20.4377 19.2769 20.6203C18.9502 20.7096 18.6089 20.7321 18.2733 20.6865C17.9377 20.641 17.6148 20.5282 17.3237 20.355C17.2051 20.2792 17.0682 20.2368 16.9275 20.2321C16.7868 20.2275 16.6474 20.2609 16.5241 20.3287C16.4007 20.3966 16.2979 20.4964 16.2265 20.6177C16.155 20.739 16.1176 20.8773 16.1181 21.0181C16.1054 21.694 15.828 22.338 15.3455 22.8114C14.863 23.2849 14.214 23.5501 13.538 23.55ZM6.30405 18.3777C6.75723 18.3795 7.20204 18.5001 7.5941 18.7274C7.9874 18.9516 8.31408 19.2763 8.54075 19.6682C8.76741 20.0601 8.88592 20.5051 8.88415 20.9578C8.88412 21.1636 8.96503 21.3611 9.1094 21.5078C9.25377 21.6544 9.45002 21.7384 9.65577 21.7415H13.538C13.7426 21.7415 13.9389 21.6602 14.0836 21.5155C14.2283 21.3708 14.3096 21.1746 14.3096 20.9699C14.3069 20.5154 14.425 20.0683 14.6516 19.6743C14.8783 19.2803 15.2054 18.9536 15.5997 18.7274C15.9902 18.4961 16.4358 18.3741 16.8897 18.3741C17.3436 18.3741 17.7892 18.4961 18.1798 18.7274C18.2675 18.7793 18.3647 18.8134 18.4656 18.8276C18.5666 18.8418 18.6694 18.8358 18.7681 18.81C18.8667 18.7842 18.9593 18.7391 19.0404 18.6774C19.1216 18.6156 19.1896 18.5383 19.2407 18.4501L21.2421 15.0863C21.2938 14.9995 21.3277 14.9032 21.3417 14.8032C21.3557 14.7031 21.3496 14.6013 21.3238 14.5036C21.298 14.4059 21.2529 14.3144 21.1913 14.2343C21.1297 14.1543 21.0527 14.0873 20.9648 14.0374C20.5716 13.8112 20.245 13.4854 20.0179 13.0927C19.7908 12.7001 19.6712 12.2545 19.6712 11.8009C19.6712 11.3473 19.7908 10.9017 20.0179 10.5091C20.245 10.1164 20.5716 9.79058 20.9648 9.5644C21.0531 9.51331 21.1303 9.44523 21.1921 9.3641C21.2539 9.28298 21.299 9.19041 21.3247 9.09175C21.3505 8.99309 21.3565 8.8903 21.3423 8.78932C21.3281 8.68833 21.2941 8.59117 21.2421 8.50343L19.2407 5.13965C19.1374 4.96212 18.9686 4.83224 18.7705 4.77795C18.6733 4.7524 18.572 4.7467 18.4726 4.7612C18.3731 4.7757 18.2776 4.8101 18.1918 4.86235C17.799 5.08776 17.3539 5.20632 16.901 5.20619C16.4481 5.20607 16.0031 5.08728 15.6104 4.86165C15.2176 4.63602 14.8909 4.31142 14.6627 3.9202C14.4345 3.52898 14.3127 3.08479 14.3096 2.63188C14.3096 2.42611 14.2287 2.22859 14.0843 2.08196C13.94 1.93533 13.7437 1.85137 13.538 1.84821H9.65577C9.45112 1.84821 9.25486 1.9295 9.11015 2.07421C8.96544 2.21892 8.88415 2.41518 8.88415 2.61983C8.88681 3.07434 8.76879 3.52142 8.54214 3.9154C8.3155 4.30939 7.98835 4.63616 7.5941 4.86235C7.20353 5.09363 6.75796 5.21565 6.30405 5.21565C5.85013 5.21565 5.40457 5.09363 5.014 4.86235C4.92626 4.81038 4.82909 4.77633 4.7281 4.76214C4.62712 4.74796 4.52433 4.75394 4.42567 4.77972C4.32702 4.80551 4.23445 4.85059 4.15332 4.91237C4.07219 4.97415 4.00411 5.0514 3.95302 5.13965L2.01191 8.50343C1.96023 8.59024 1.92638 8.68649 1.91235 8.78655C1.89832 8.88661 1.9044 8.98846 1.93022 9.08614C1.95605 9.18382 2.0011 9.27536 2.06274 9.35542C2.12438 9.43547 2.20138 9.50242 2.28921 9.55235C2.68241 9.77852 3.00902 10.1044 3.23614 10.497C3.46325 10.8897 3.58283 11.3352 3.58283 11.7888C3.58283 12.2424 3.46325 12.688 3.23614 13.0807C3.00902 13.4733 2.68241 13.7992 2.28921 14.0253C2.19996 14.0754 2.12156 14.1427 2.05858 14.2234C1.9956 14.3041 1.9493 14.3965 1.92237 14.4952C1.89544 14.594 1.88842 14.6971 1.90173 14.7985C1.91503 14.9 1.94839 14.9978 1.99986 15.0863L3.94096 18.4501C4.04425 18.6276 4.21309 18.7575 4.41117 18.8118C4.50835 18.8373 4.60969 18.843 4.70912 18.8285C4.80856 18.814 4.90404 18.7796 4.98988 18.7274C5.39032 18.4991 5.84312 18.3787 6.30405 18.3777Z" stroke="#62748E" stroke-width="0.2" mask="url(#path-1-outside-1_1_1457)"/>
<path d="M11.5954 16.316C10.7012 16.316 9.82709 16.0508 9.08358 15.554C8.34007 15.0573 7.76058 14.3511 7.41838 13.525C7.07618 12.6988 6.98664 11.7898 7.16109 10.9128C7.33555 10.0357 7.76615 9.23013 8.39845 8.59782C9.03075 7.96552 9.83636 7.53492 10.7134 7.36047C11.5904 7.18601 12.4995 7.27555 13.3256 7.61775C14.1518 7.95995 14.8579 8.53944 15.3547 9.28295C15.8515 10.0265 16.1166 10.9006 16.1166 11.7948C16.1166 12.9939 15.6403 14.1439 14.7924 14.9918C13.9445 15.8397 12.7945 16.316 11.5954 16.316ZM11.5954 9.08208C11.0589 9.08208 10.5344 9.24117 10.0883 9.53925C9.64221 9.83733 9.29452 10.261 9.0892 10.7567C8.88388 11.2524 8.83016 11.7978 8.93483 12.324C9.0395 12.8502 9.29786 13.3336 9.67724 13.713C10.0566 14.0924 10.54 14.3507 11.0662 14.4554C11.5924 14.5601 12.1379 14.5064 12.6335 14.301C13.1292 14.0957 13.5529 13.748 13.851 13.3019C14.1491 12.8558 14.3082 12.3313 14.3082 11.7948C14.3082 11.0753 14.0224 10.3853 13.5136 9.87661C13.0049 9.36788 12.3149 9.08208 11.5954 9.08208Z" fill="#62748E"/>
</svg>
