<svg width="26" height="26" viewBox="0 0 26 26" fill="none" xmlns="http://www.w3.org/2000/svg">
<path d="M21.6663 14.0833C21.6663 19.5 17.8747 22.2083 13.368 23.7792C13.132 23.8591 12.8757 23.8553 12.6422 23.7683C8.12467 22.2083 4.33301 19.5 4.33301 14.0833V6.5C4.33301 6.21269 4.44714 5.93714 4.65031 5.73397C4.85347 5.53081 5.12902 5.41667 5.41634 5.41667C7.58301 5.41667 10.2913 4.11667 12.1763 2.47C12.4058 2.27392 12.6978 2.16618 12.9997 2.16618C13.3015 2.16618 13.5935 2.27392 13.823 2.47C15.7188 4.1275 18.4163 5.41667 20.583 5.41667C20.8703 5.41667 21.1459 5.53081 21.349 5.73397C21.5522 5.93714 21.6663 6.21269 21.6663 6.5V14.0833Z" stroke="url(#paint0_linear_1_284)" stroke-width="1.66667" stroke-linecap="round" stroke-linejoin="round"/>
<defs>
<linearGradient id="paint0_linear_1_284" x1="12.9986" y1="5.35475" x2="12.9986" y2="23.2635" gradientUnits="userSpaceOnUse">
<stop stop-color="#FF1A00"/>
<stop offset="1" stop-color="#8F0000"/>
</linearGradient>
</defs>
</svg>
