<svg width="20" height="21" viewBox="0 0 20 21" fill="none" xmlns="http://www.w3.org/2000/svg">
<path d="M12.1083 8.3916L7.8916 12.6083C7.34994 12.0666 7.0166 11.3249 7.0166 10.4999C7.0166 8.84993 8.34993 7.5166 9.99993 7.5166C10.8249 7.5166 11.5666 7.84994 12.1083 8.3916Z" stroke="#292D32" stroke-width="1.25" stroke-linecap="round" stroke-linejoin="round"/>
<path d="M14.8499 5.3084C13.3915 4.2084 11.7249 3.6084 9.99987 3.6084C7.0582 3.6084 4.31654 5.34173 2.4082 8.34173C1.6582 9.51673 1.6582 11.4917 2.4082 12.6667C3.06654 13.7001 3.8332 14.5917 4.66654 15.3084" stroke="#292D32" stroke-width="1.25" stroke-linecap="round" stroke-linejoin="round"/>
<path d="M7.0166 16.7751C7.9666 17.1751 8.97493 17.3917 9.99993 17.3917C12.9416 17.3917 15.6833 15.6584 17.5916 12.6584C18.3416 11.4834 18.3416 9.5084 17.5916 8.3334C17.3166 7.90006 17.0166 7.49173 16.7083 7.1084" stroke="#292D32" stroke-width="1.25" stroke-linecap="round" stroke-linejoin="round"/>
<path d="M12.9252 11.0833C12.7085 12.2583 11.7502 13.2166 10.5752 13.4333" stroke="#292D32" stroke-width="1.25" stroke-linecap="round" stroke-linejoin="round"/>
<path d="M7.8915 12.6084L1.6665 18.8334" stroke="#292D32" stroke-width="1.25" stroke-linecap="round" stroke-linejoin="round"/>
<path d="M18.3334 2.16675L12.1084 8.39175" stroke="#292D32" stroke-width="1.25" stroke-linecap="round" stroke-linejoin="round"/>
</svg>
