<svg width="39" height="34" viewBox="0 0 39 34" fill="none" xmlns="http://www.w3.org/2000/svg">
<path d="M19.5571 4.40796H11.3096C10.7983 4.40796 10.3824 3.99205 10.3824 3.48081V0.201681C10.3824 0.0802375 10.2944 0.0338832 10.2565 0.0195983C10.2187 0.0052835 10.1219 -0.0180959 10.0417 0.0730431L6.49991 4.09367C6.32405 4.29339 6.07045 4.40796 5.80423 4.40796H5.45222C4.68995 4.40796 4.06982 5.0281 4.06982 5.79036V14.8039C4.06982 15.5661 4.68995 16.1862 5.45222 16.1862H7.57906C7.57906 16.1862 7.81052 16.1482 7.68647 15.9078C7.55846 15.6596 7.47294 15.3886 7.47294 15.0982C7.47294 14.5784 7.71083 14.1005 8.12557 13.787C8.25997 13.6854 8.45154 13.712 8.55334 13.8466C8.65504 13.9811 8.6284 14.1726 8.4938 14.2743C8.23314 14.4713 8.08372 14.7716 8.08372 15.0982C8.08372 15.4249 8.26775 15.6863 8.4938 15.9223C8.70418 16.1418 9.06422 16.1862 9.06422 16.1862H10.8644C10.8644 16.1862 11.263 16.1161 10.9049 15.8421C10.402 15.4575 10.1104 14.879 10.1104 14.2466C10.1105 13.6143 10.3999 13.0329 10.9044 12.6516C11.0388 12.55 11.2304 12.5766 11.3322 12.7112C11.4339 12.8457 11.4072 13.0372 11.2726 13.1389C10.9222 13.4037 10.7213 13.8075 10.7212 14.2467C10.7212 14.6859 10.9222 15.0896 11.2725 15.3544C11.5078 15.5322 11.7019 15.7503 11.8279 16.0039C11.9124 16.174 12.1503 16.1862 12.1503 16.1862H13.2433C13.2433 16.1862 13.3783 16.1225 13.2772 15.9631C13.1159 15.7088 13.0306 15.411 13.0306 15.0982C13.0306 14.5784 13.2685 14.1005 13.6832 13.787C13.8176 13.6854 14.0092 13.712 14.111 13.8466C14.2127 13.9811 14.1861 14.1726 14.0515 14.2743C13.7908 14.4713 13.6414 14.7716 13.6414 15.0982C13.6414 15.4249 13.7967 15.7177 14.0515 15.9223C14.3169 16.1354 14.6963 16.1862 14.6963 16.1862H19.5571C20.3194 16.1862 20.9395 15.5661 20.9395 14.8038V5.79036C20.9395 5.0281 20.3194 4.40796 19.5571 4.40796ZM6.14053 6.90592H15.2339C15.4026 6.90592 15.5393 7.04265 15.5393 7.2113C15.5393 7.37997 15.4026 7.5167 15.2339 7.5167H6.14053C5.97184 7.5167 5.83513 7.37997 5.83513 7.2113C5.83515 7.04265 5.97184 6.90592 6.14053 6.90592ZM18.8688 13.6883H15.111C14.9423 13.6883 14.8057 13.5515 14.8057 13.3829C14.8057 13.2142 14.9423 13.0775 15.111 13.0775H18.8688C19.0375 13.0775 19.1742 13.2142 19.1742 13.3829C19.1742 13.5515 19.0375 13.6883 18.8688 13.6883ZM18.8688 10.6025H6.14053C5.97184 10.6025 5.83513 10.4657 5.83513 10.2971C5.83513 10.1284 5.97182 9.99169 6.14053 9.99169H18.8688C19.0375 9.99169 19.1742 10.1284 19.1742 10.2971C19.1742 10.4657 19.0375 10.6025 18.8688 10.6025ZM18.8688 7.5167H16.8627C16.694 7.5167 16.5573 7.37997 16.5573 7.2113C16.5573 7.04264 16.694 6.90592 16.8627 6.90592H18.8688C19.0375 6.90592 19.1742 7.04265 19.1742 7.2113C19.1742 7.37999 19.0375 7.5167 18.8688 7.5167Z" fill="#AFAFAF"/>
<path d="M17.7633 20.0536H4.41413C4.23797 20.0536 4.09373 20.193 4.08568 20.3709C3.93299 23.7741 4.62647 26.8785 5.4481 29.2855C5.46062 29.3096 5.47116 29.3349 5.47702 29.3628C5.47792 29.3668 5.47762 29.3709 5.47831 29.375C6.22449 31.537 7.06839 33.1236 7.47896 33.8359C7.53731 33.9372 7.64607 34 7.76287 34H14.4145C14.5313 34 14.6402 33.9371 14.6986 33.8359C15.5684 32.3263 18.3841 26.8938 18.0917 20.3708C18.0837 20.193 17.9394 20.0536 17.7633 20.0536Z" fill="#AFAFAF"/>
<path d="M30.2676 6.19485C30.5368 6.19485 30.7559 5.97579 30.7559 5.70652C30.7559 5.43724 30.5368 5.21817 30.2676 5.21817C29.9984 5.21817 29.7793 5.43724 29.7793 5.70652C29.7793 5.97579 29.9984 6.19485 30.2676 6.19485Z" fill="#AFAFAF"/>
<path d="M26.3198 6.19485C26.589 6.19485 26.8081 5.97579 26.8081 5.70652C26.8081 5.43724 26.589 5.21817 26.3198 5.21817C26.0506 5.21817 25.8315 5.43724 25.8315 5.70652C25.8315 5.97579 26.0506 6.19485 26.3198 6.19485Z" fill="#AFAFAF"/>
<path d="M21.5504 5.7904V11.3211C21.5504 11.5736 21.7551 11.7783 22.0076 11.7783H27.5148C28.0268 11.7783 28.4419 12.1934 28.4419 12.7054V15.9846C28.4419 16.106 28.5299 16.1523 28.5677 16.1666C28.6056 16.1809 28.7022 16.2043 28.7826 16.1132L32.3243 12.0926C32.5004 11.8928 32.7538 11.7783 33.0201 11.7783H33.3721C34.1356 11.7783 34.7545 11.1594 34.7545 10.3959V1.3824C34.7545 0.618916 34.1356 0 33.3721 0H19.2672C18.5037 0 17.8848 0.618931 17.8848 1.3824V3.31822C17.8848 3.58276 18.0992 3.79722 18.3638 3.79722H19.5572C20.6581 3.79722 21.5504 4.6896 21.5504 5.7904ZM30.2676 4.60746C30.8736 4.60746 31.3667 5.10052 31.3667 5.70659C31.3667 6.31266 30.8736 6.8057 30.2676 6.8057C29.6616 6.8057 29.1686 6.31266 29.1686 5.70659C29.1686 5.10052 29.6616 4.60746 30.2676 4.60746ZM26.3197 4.60746C26.9257 4.60746 27.4187 5.10052 27.4187 5.70659C27.4187 6.31266 26.9257 6.8057 26.3197 6.8057C25.7137 6.8057 25.2206 6.31266 25.2206 5.70659C25.2206 5.10052 25.7136 4.60746 26.3197 4.60746ZM22.6038 5.21824C22.4351 5.21824 22.2984 5.08151 22.2984 4.91284C22.2984 4.74418 22.4351 4.60745 22.6038 4.60745C23.2099 4.60745 23.703 5.10051 23.703 5.70657C23.703 6.31264 23.2099 6.80569 22.6038 6.80569C22.4351 6.80569 22.2984 6.66895 22.2984 6.50029C22.2984 6.33162 22.4351 6.19491 22.6038 6.19491C22.8731 6.19491 23.0922 5.97585 23.0922 5.70657C23.0922 5.4373 22.8731 5.21824 22.6038 5.21824Z" fill="#AFAFAF"/>
<path d="M33.3424 29.3628C33.3481 29.3352 33.3587 29.31 33.371 29.2861C34.1927 26.8789 34.8864 23.7741 34.7337 20.3708C34.7258 20.1929 34.5815 20.0536 34.4053 20.0536H21.0562C20.8799 20.0536 20.7357 20.1929 20.7277 20.3708C20.4353 26.8945 23.2511 32.3265 24.121 33.8359C24.1793 33.9371 24.2881 34 24.4048 34H31.0566C31.1734 34 31.2822 33.9371 31.3404 33.8359C31.751 33.1235 32.595 31.5367 33.3411 29.3745C33.3418 29.3705 33.3416 29.3667 33.3424 29.3628Z" fill="#AFAFAF"/>
<path d="M11.3276 18.9451C11.1994 19.0835 10.9795 19.0774 10.8675 18.9267L10.8512 18.9043C10.7657 18.7903 10.7819 18.6376 10.8817 18.5317C11.0924 18.3037 11.4293 17.3698 11.4523 17.0534C11.4634 16.9003 11.5817 16.7775 11.7352 16.7775H11.7801C11.941 16.7775 12.0738 16.9119 12.0642 17.0725C12.0364 17.5393 11.6411 18.6113 11.3276 18.9451Z" fill="#AFAFAF"/>
<path d="M9.14747 17.2315C9.14747 17.7507 8.69544 18.6335 8.2801 18.945C8.22513 18.9878 8.16002 19.0081 8.09688 19.0081C8.00522 19.0081 7.91366 18.9654 7.85462 18.888C7.75283 18.7557 7.77519 18.5643 7.90751 18.4625C8.17423 18.2609 8.5367 17.5573 8.5367 17.2295C8.5367 17.1889 8.53431 17.1485 8.52961 17.1086C8.50912 16.9343 8.63279 16.7775 8.80831 16.7775H8.85277C8.9941 16.7775 9.11727 16.8812 9.13472 17.0214C9.14328 17.0903 9.14747 17.1603 9.14747 17.2315Z" fill="#AFAFAF"/>
<path d="M14.7055 17.2417C14.7055 17.7609 14.2309 18.8437 13.8155 19.1572C13.7605 19.2 13.6954 19.2183 13.6323 19.2183C13.5407 19.2183 13.4491 19.1755 13.388 19.0982C13.2863 18.9658 13.3106 18.7744 13.4429 18.6726C13.7096 18.4711 14.0947 17.5695 14.0947 17.2417C14.0947 17.197 14.0919 17.1527 14.0864 17.1089C14.0645 16.9346 14.1889 16.7775 14.3646 16.7775H14.4108C14.556 16.7775 14.6756 16.8876 14.693 17.0318C14.7014 17.101 14.7055 17.1711 14.7055 17.2417Z" fill="#AFAFAF"/>
<path d="M25.5218 18.2857C25.3689 18.1477 25.4931 17.9268 25.5489 17.852C25.679 17.6779 25.7521 17.4623 25.7521 17.2338C25.7521 16.9072 25.6026 16.6068 25.342 16.4099C24.9268 16.096 24.6889 15.6181 24.689 15.0982C24.689 14.5784 24.9269 14.1005 25.3416 13.787C25.476 13.6854 25.6676 13.712 25.7694 13.8466C25.8711 13.9811 25.8444 14.1727 25.7098 14.2744C25.4492 14.4713 25.2997 14.7716 25.2997 15.0983C25.2996 15.4249 25.4492 15.7253 25.7097 15.9223C26.1249 16.2361 26.3628 16.714 26.3628 17.2338C26.3628 17.5894 26.2516 17.9254 26.0485 18.2025C25.9547 18.3305 25.747 18.4891 25.5218 18.2857Z" fill="#AFAFAF"/>
<path d="M5.46495 29.9644C4.25016 29.9644 2.22775 29.1252 1.15321 27.876C-0.184362 26.3207 -0.377214 24.4474 0.67336 23.2145C1.20242 22.5937 2.02157 22.2518 2.97988 22.2518C3.61432 22.2518 4.241 22.4044 4.69909 22.6703C4.81669 22.7385 4.90069 22.8485 4.93559 22.9799C4.97049 23.1113 4.95209 23.2484 4.88379 23.3661C4.79313 23.5224 4.62433 23.6195 4.44331 23.6195C4.35394 23.6195 4.26567 23.5957 4.18802 23.5506C3.87984 23.3718 3.43061 23.2649 2.98645 23.2649C2.606 23.2649 1.90029 23.3442 1.44817 23.8748C0.73569 24.7109 0.927361 26.0521 1.92504 27.2122C2.84995 28.2876 4.60556 28.9479 5.457 28.9479C5.54408 28.9479 5.62053 28.9411 5.68415 28.9277C5.71914 28.9204 5.75444 28.9168 5.78942 28.9168C6.0286 28.9168 6.23797 29.0868 6.28716 29.321C6.3152 29.4539 6.28975 29.5899 6.21549 29.7038C6.14113 29.8177 6.027 29.8958 5.89399 29.9238C5.76607 29.9507 5.62173 29.9644 5.46495 29.9644Z" fill="#AFAFAF"/>
<path d="M33.3548 29.9643C33.198 29.9643 33.0537 29.9506 32.9258 29.9237C32.7928 29.8957 32.6786 29.8176 32.6043 29.7037C32.53 29.5898 32.5046 29.4538 32.5326 29.3207C32.5818 29.0866 32.7912 28.9166 33.0303 28.9166C33.0654 28.9166 33.1007 28.9203 33.1352 28.9275C33.1991 28.9409 33.2756 28.9478 33.3626 28.9478C34.2142 28.9478 35.9699 28.2874 36.8947 27.212C37.8925 26.052 38.0842 24.7108 37.3717 23.8746C36.9196 23.344 36.2139 23.2648 35.8334 23.2648C35.3893 23.2648 34.94 23.3716 34.6317 23.5505C34.5541 23.5956 34.4658 23.6194 34.3764 23.6194C34.1956 23.6194 34.0269 23.5223 33.9361 23.3659C33.8678 23.2483 33.8494 23.1111 33.8843 22.9798C33.9191 22.8483 34.0032 22.7384 34.1208 22.6701C34.5788 22.4042 35.2055 22.2516 35.8401 22.2516C36.7984 22.2516 37.6175 22.5936 38.1465 23.2144C39.1971 24.4473 39.0042 26.3206 37.6665 27.8758C36.5921 29.1251 34.5696 29.9643 33.3548 29.9643Z" fill="#AFAFAF"/>
</svg>
