<svg width="21" height="21" viewBox="0 0 21 21" fill="none" xmlns="http://www.w3.org/2000/svg">
<path d="M10.2002 0.100403C11.1819 0.100405 12.0744 0.669814 12.4873 1.56036L13.9873 4.77911C14.1134 5.05144 14.3675 5.24323 14.6641 5.28986L18.1553 5.82697L18.3291 5.86017C19.1876 6.0568 19.8885 6.68869 20.1699 7.53204C20.4512 8.37535 20.2703 9.29994 19.7021 9.97345L19.583 10.1043L16.9531 12.8221C16.7526 13.0307 16.6622 13.3213 16.708 13.6063L17.3135 17.3504C17.4753 18.3127 17.067 19.2819 16.2666 19.8397C15.4779 20.398 14.438 20.4515 13.5957 19.9774L13.3467 19.8377L10.6348 18.3289C10.3726 18.1818 10.055 18.1784 9.79102 18.3182L9.77051 18.3299L6.80762 19.9764L6.80859 19.9774C5.96057 20.4534 4.91313 20.3983 4.11914 19.8377C3.32442 19.2762 2.92348 18.3078 3.08887 17.3494L3.10645 17.2449L3.69629 13.6063C3.74209 13.3204 3.65052 13.0296 3.4502 12.8221L0.817383 10.1043C0.156668 9.42323 -0.0695809 8.43165 0.230469 7.53204C0.530684 6.63234 1.3081 5.97384 2.24512 5.82697L5.73633 5.28986L5.8457 5.26544C6.09454 5.1938 6.30279 5.01726 6.41309 4.77911L7.91309 1.56036C8.32598 0.669815 9.21847 0.100403 10.2002 0.100403ZM10.1982 1.73126C9.8498 1.73129 9.53299 1.93471 9.3877 2.25177H9.38672L7.88672 5.46661C7.53239 6.23226 6.81795 6.77087 5.9834 6.89923L5.86816 6.91681V6.91583L2.49121 7.43536H2.49023C2.15651 7.48519 1.88084 7.71992 1.77734 8.04083L1.77637 8.04279C1.67798 8.32619 1.72744 8.63752 1.90234 8.87384L1.98535 8.96954L1.98633 8.97052L4.62012 11.6883L4.7207 11.7996C5.20755 12.3674 5.42209 13.123 5.30273 13.867L4.69629 17.6102V17.6111C4.6429 17.9132 4.74828 18.2182 4.96875 18.4227L5.07031 18.5047L5.07227 18.5057C5.34934 18.7051 5.71635 18.7244 6.0127 18.5555L6.01367 18.5545L8.97559 16.9061C9.73631 16.4793 10.6641 16.4792 11.4248 16.9061L11.7588 17.0926L14.3867 18.5545L14.3877 18.5555C14.684 18.7242 15.0511 18.7047 15.3271 18.5057L15.3291 18.5047C15.6181 18.3064 15.7642 17.9565 15.7031 17.6111L15.0967 13.866C14.9694 13.0734 15.2227 12.2663 15.7803 11.6883L18.4111 8.97443L18.4121 8.97345C18.6522 8.73019 18.7334 8.3705 18.6211 8.04669L18.6201 8.04376C18.5182 7.72809 18.2494 7.4969 17.9229 7.4422L17.9062 7.44025L14.415 6.90216C13.5804 6.77377 12.865 6.23652 12.5107 5.46954L11.0107 2.25177H11.0098C10.8635 1.93449 10.5475 1.73126 10.1982 1.73126Z" fill="white" stroke="white" stroke-width="0.2"/>
</svg>
