<svg width="32" height="32" viewBox="0 0 32 32" fill="none" xmlns="http://www.w3.org/2000/svg">
<path d="M15.3665 3.05997C15.4249 2.94192 15.5152 2.84255 15.6271 2.77307C15.739 2.70359 15.8681 2.66678 15.9998 2.66678C16.1315 2.66678 16.2606 2.70359 16.3725 2.77307C16.4844 2.84255 16.5747 2.94192 16.6331 3.05997L19.7131 9.29864C19.916 9.70926 20.2155 10.0645 20.586 10.3339C20.9564 10.6033 21.3866 10.7788 21.8398 10.8453L28.7278 11.8533C28.8583 11.8722 28.9809 11.9273 29.0818 12.0122C29.1826 12.0972 29.2577 12.2087 29.2985 12.3341C29.3393 12.4595 29.3442 12.5938 29.3126 12.7219C29.281 12.8499 29.2142 12.9666 29.1198 13.0586L24.1385 17.9093C23.8099 18.2294 23.5642 18.6246 23.4222 19.0608C23.2803 19.497 23.2465 19.9612 23.3238 20.4133L24.4998 27.2666C24.5228 27.3971 24.5087 27.5314 24.4591 27.6542C24.4095 27.777 24.3264 27.8835 24.2192 27.9613C24.112 28.0391 23.9851 28.0853 23.8529 28.0945C23.7208 28.1037 23.5887 28.0756 23.4718 28.0133L17.3145 24.776C16.9088 24.5629 16.4574 24.4516 15.9991 24.4516C15.5409 24.4516 15.0895 24.5629 14.6838 24.776L8.52779 28.0133C8.4109 28.0752 8.27899 28.103 8.14706 28.0936C8.01514 28.0843 7.88849 28.0381 7.78152 27.9603C7.67456 27.8825 7.59157 27.7762 7.542 27.6536C7.49243 27.531 7.47827 27.3969 7.50113 27.2666L8.67579 20.4146C8.75339 19.9623 8.71977 19.4978 8.57785 19.0614C8.43592 18.6249 8.18994 18.2295 7.86113 17.9093L2.8798 13.06C2.78459 12.968 2.71712 12.8512 2.68508 12.7227C2.65304 12.5943 2.65771 12.4595 2.69857 12.3336C2.73942 12.2077 2.81482 12.0958 2.91616 12.0106C3.01751 11.9255 3.14073 11.8705 3.2718 11.852L10.1585 10.8453C10.6121 10.7793 11.043 10.604 11.4139 10.3346C11.7848 10.0652 12.0847 9.70966 12.2878 9.29864L15.3665 3.05997Z" stroke="#FFD700" stroke-width="2.66667" stroke-linecap="round" stroke-linejoin="round"/>
</svg>
