<svg width="29" height="29" viewBox="0 0 29 29" fill="none" xmlns="http://www.w3.org/2000/svg">
<g opacity="0.9">
<path d="M14.2002 0.100403C15.5592 0.100405 16.7948 0.889026 17.3662 2.12189L19.4658 6.62775C19.648 7.02112 20.015 7.29768 20.4434 7.36505L25.3311 8.11798L25.5713 8.16388C26.7598 8.43599 27.7295 9.30985 28.1191 10.4774C28.5347 11.7225 28.2221 13.0949 27.3076 14.0379L23.625 17.8426C23.3355 18.1437 23.2043 18.564 23.2705 18.9754L24.1201 24.2176L24.1523 24.4676C24.2627 25.6318 23.781 26.7748 22.8721 27.5106L22.6709 27.6619C21.5795 28.4351 20.1416 28.5092 18.9756 27.8533V27.8543L14.8281 25.5447C14.4466 25.3307 13.9837 25.3277 13.6006 25.534L13.5791 25.5467L9.43164 27.8543L9.43066 27.8533C8.25707 28.5118 6.80874 28.4367 5.70996 27.6609C4.60965 26.8837 4.05511 25.5424 4.28418 24.2156L4.31641 24.0252L5.13379 18.9754C5.20003 18.5627 5.06854 18.1433 4.7793 17.8436L1.09277 14.0379C0.178263 13.095 -0.134239 11.7226 0.28125 10.4774C0.696819 9.23194 1.77233 8.3213 3.06934 8.11798L7.95703 7.36505L8.11426 7.3299C8.47395 7.22653 8.77514 6.97197 8.93457 6.62775L11.0342 2.12189C11.6056 0.889024 12.8412 0.100403 14.2002 0.100403ZM14.1973 2.30353C13.6939 2.30364 13.2363 2.59746 13.0264 3.05548L13.0254 3.05646L10.9258 7.55548C10.4354 8.61589 9.44572 9.36128 8.29004 9.53888L8.1748 9.55646V9.55548L3.40137 10.2899H3.40039C2.91828 10.3618 2.51981 10.7004 2.37012 11.1639L2.36914 11.1668C2.22701 11.5762 2.29895 12.0256 2.55176 12.367L2.6709 12.5057L2.67188 12.5067L6.35938 16.3113V16.3123C7.13101 17.1124 7.48083 18.2287 7.30469 19.327L6.45605 24.5672V24.5692C6.37898 25.0057 6.53058 25.4467 6.84961 25.742L6.99609 25.8592L6.99805 25.8602C7.39864 26.1485 7.92896 26.1766 8.35742 25.9324L8.3584 25.9315L12.5049 23.6229L12.7051 23.5193C13.7176 23.0348 14.9084 23.069 15.8955 23.6229L16.0498 23.7098L20.041 25.9315L20.042 25.9324C20.4705 26.1768 21.002 26.1483 21.4014 25.8602L21.4033 25.8592C21.8208 25.5727 22.0324 25.068 21.9443 24.5692L21.9541 24.5672L21.9443 24.5682L21.0957 19.326C20.9195 18.2288 21.2692 17.1125 22.041 16.3123V16.3113L25.7246 12.5115L25.7256 12.5106C26.0723 12.159 26.1898 11.6394 26.0273 11.1717L26.0264 11.1697C25.8797 10.7149 25.4933 10.3812 25.0234 10.3006L24.9951 10.2967L20.1074 9.54376C18.9521 9.36618 17.9612 8.62279 17.4707 7.56134L15.3711 3.05646L15.3701 3.05548C15.1589 2.59723 14.7018 2.30353 14.1973 2.30353Z" fill="#193C50" stroke="#193C50" stroke-width="0.2"/>
<path d="M12.5854 1.27716L9.35464 7.20024L8.59944 8.27716L1.81618 9.89254L0.739258 12.0464L2.35464 13.6618L6.66233 17.9695L4.50849 24.431L6.12387 26.5849L7.73926 27.1233L13.1239 24.431L19.0469 26.5849H22.2777L23.3546 23.8925L22.2777 17.9695L27.1239 12.5849L26.5854 10.431L24.4316 9.35408L20.1239 8.27716L18.5085 6.66178L15.2777 1.27716H12.5854Z" fill="#193C50"/>
</g>
</svg>
