<svg width="29" height="29" viewBox="0 0 29 29" fill="none" xmlns="http://www.w3.org/2000/svg">
<g opacity="0.9">
<path d="M14.2002 0.100586C15.5592 0.100588 16.7948 0.889209 17.3662 2.12207L19.4658 6.62793C19.648 7.0213 20.015 7.29787 20.4434 7.36523L25.3311 8.11816L25.5713 8.16406C26.7598 8.43618 27.7295 9.31003 28.1191 10.4775C28.5347 11.7227 28.2221 13.0951 27.3076 14.0381L23.625 17.8428C23.3355 18.1439 23.2043 18.5642 23.2705 18.9756L24.1201 24.2178L24.1523 24.4678C24.2627 25.6319 23.781 26.775 22.8721 27.5107L22.6709 27.6621C21.5795 28.4353 20.1416 28.5094 18.9756 27.8535V27.8545L14.8281 25.5449C14.4466 25.3308 13.9837 25.3278 13.6006 25.5342L13.5791 25.5469L9.43164 27.8545L9.43066 27.8535C8.25707 28.512 6.80874 28.4369 5.70996 27.6611C4.60965 26.8839 4.05511 25.5426 4.28418 24.2158L4.31641 24.0254L5.13379 18.9756C5.20003 18.5629 5.06854 18.1435 4.7793 17.8438L1.09277 14.0381C0.178263 13.0952 -0.134239 11.7228 0.28125 10.4775C0.696819 9.23213 1.77233 8.32148 3.06934 8.11816L7.95703 7.36523L8.11426 7.33008C8.47395 7.22671 8.77514 6.97216 8.93457 6.62793L11.0342 2.12207C11.6056 0.889207 12.8412 0.100586 14.2002 0.100586ZM14.1973 2.30371C13.6939 2.30383 13.2363 2.59765 13.0264 3.05566L13.0254 3.05664L10.9258 7.55566C10.4354 8.61607 9.44572 9.36147 8.29004 9.53906L8.1748 9.55664V9.55566L3.40137 10.29H3.40039C2.91828 10.362 2.51981 10.7006 2.37012 11.1641L2.36914 11.167C2.22701 11.5764 2.29895 12.0258 2.55176 12.3672L2.6709 12.5059L2.67188 12.5068L6.35938 16.3115V16.3125C7.13101 17.1126 7.48083 18.2289 7.30469 19.3271L6.45605 24.5674V24.5693C6.37899 25.0059 6.53058 25.4469 6.84961 25.7422L6.99609 25.8594L6.99805 25.8604C7.39864 26.1486 7.92896 26.1767 8.35742 25.9326L8.3584 25.9316L12.5049 23.623L12.7051 23.5195C13.7176 23.0349 14.9084 23.0692 15.8955 23.623L16.0498 23.71L20.041 25.9316L20.042 25.9326C20.4705 26.177 21.002 26.1485 21.4014 25.8604L21.4033 25.8594C21.8208 25.5729 22.0324 25.0682 21.9443 24.5693L21.9541 24.5674L21.9443 24.5684L21.0957 19.3262C20.9195 18.229 21.2692 17.1127 22.041 16.3125V16.3115L25.7246 12.5117L25.7256 12.5107C26.0723 12.1592 26.1898 11.6396 26.0273 11.1719L26.0264 11.1699C25.8797 10.7151 25.4933 10.3814 25.0234 10.3008L24.9951 10.2969L20.1074 9.54395C18.9521 9.36636 17.9612 8.62297 17.4707 7.56152L15.3711 3.05664L15.3701 3.05566C15.1589 2.59741 14.7018 2.30371 14.1973 2.30371Z" fill="url(#paint0_linear_1010_1076)" stroke="url(#paint1_linear_1010_1076)" stroke-width="0.2"/>
<path d="M12.5854 1.27734L9.35464 7.20042L8.59944 8.27734L1.81618 9.89273L0.739258 12.0466L2.35464 13.662L6.66233 17.9697L4.50849 24.4312L6.12387 26.585L7.73926 27.1235L13.1239 24.4312L19.0469 26.585H22.2777L23.3546 23.8927L22.2777 17.9697L27.1239 12.585L26.5854 10.4312L24.4316 9.35427L20.1239 8.27734L18.5085 6.66196L15.2777 1.27734H12.5854Z" fill="url(#paint2_linear_1010_1076)"/>
</g>
<defs>
<linearGradient id="paint0_linear_1010_1076" x1="14.2002" y1="-6.2398" x2="14.2002" y2="51.7202" gradientUnits="userSpaceOnUse">
<stop stop-color="#370ADD"/>
<stop offset="1" stop-color="#D40438"/>
</linearGradient>
<linearGradient id="paint1_linear_1010_1076" x1="14.2002" y1="-6.2398" x2="14.2002" y2="51.7202" gradientUnits="userSpaceOnUse">
<stop stop-color="#370ADD"/>
<stop offset="1" stop-color="#D40438"/>
</linearGradient>
<linearGradient id="paint2_linear_1010_1076" x1="13.9316" y1="-4.66727" x2="13.9316" y2="48.8343" gradientUnits="userSpaceOnUse">
<stop stop-color="#370ADD"/>
<stop offset="1" stop-color="#D40438"/>
</linearGradient>
</defs>
</svg>
