<svg width="64" height="64" viewBox="0 0 64 64" fill="none" xmlns="http://www.w3.org/2000/svg">
<path d="M0 32C0 14.3269 14.3269 0 32 0C49.6731 0 64 14.3269 64 32C64 49.6731 49.6731 64 32 64C14.3269 64 0 49.6731 0 32Z" fill="#D32F2F" fill-opacity="0.2"/>
<path d="M32 21.3333V42.6667" stroke="url(#paint0_linear_1_1935)" stroke-width="2.66667" stroke-linecap="round" stroke-linejoin="round"/>
<path d="M21.333 25.3333V22.6667C21.333 22.3131 21.4735 21.9739 21.7235 21.7239C21.9736 21.4738 22.3127 21.3333 22.6663 21.3333H41.333C41.6866 21.3333 42.0258 21.4738 42.2758 21.7239C42.5259 21.9739 42.6663 22.3131 42.6663 22.6667V25.3333" stroke="url(#paint1_linear_1_1935)" stroke-width="2.66667" stroke-linecap="round" stroke-linejoin="round"/>
<path d="M28 42.6667H36" stroke="url(#paint2_linear_1_1935)" stroke-width="2.66667" stroke-linecap="round" stroke-linejoin="round"/>
<defs>
<linearGradient id="paint0_linear_1_1935" x1="32.4999" y1="24.4723" x2="32.4999" y2="42.1026" gradientUnits="userSpaceOnUse">
<stop stop-color="#FF1A00"/>
<stop offset="1" stop-color="#8F0000"/>
</linearGradient>
<linearGradient id="paint1_linear_1_1935" x1="31.9983" y1="21.9219" x2="31.9983" y2="25.2276" gradientUnits="userSpaceOnUse">
<stop stop-color="#FF1A00"/>
<stop offset="1" stop-color="#8F0000"/>
</linearGradient>
<linearGradient id="paint2_linear_1_1935" x1="31.9995" y1="42.8138" x2="31.9995" y2="43.6402" gradientUnits="userSpaceOnUse">
<stop stop-color="#FF1A00"/>
<stop offset="1" stop-color="#8F0000"/>
</linearGradient>
</defs>
</svg>
