<svg width="27" height="32" viewBox="0 0 27 32" fill="none" xmlns="http://www.w3.org/2000/svg">
<path d="M13.2006 21.6502C9.97464 21.6502 7.35059 19.0262 7.35059 15.8002C7.35059 15.4414 7.64114 15.1502 8.00059 15.1502C8.36004 15.1502 8.65059 15.4414 8.65059 15.8002C8.65059 18.3086 10.6922 20.3502 13.2006 20.3502C13.56 20.3502 13.8506 20.6408 13.8506 21.0002C13.8506 21.3597 13.56 21.6502 13.2006 21.6502Z" fill="#62748E"/>
<path d="M7.7002 12.2C7.5052 12.2 7.3102 12.155 7.1302 12.08C6.9352 12.005 6.7852 11.9 6.6352 11.765C6.3637 11.48 6.2002 11.09 6.2002 10.7C6.2002 10.505 6.2302 10.31 6.3202 10.13C6.3952 9.93501 6.5002 9.78501 6.6352 9.63501C6.7852 9.50001 6.9352 9.39501 7.1302 9.32001C7.4002 9.20001 7.70019 9.17001 7.98369 9.23001C8.08869 9.24501 8.17869 9.27501 8.26869 9.32001C8.35869 9.35001 8.44869 9.39501 8.52369 9.45501C8.61369 9.50001 8.68869 9.57501 8.76369 9.63501C8.89869 9.78501 9.0037 9.93501 9.0787 10.13C9.1552 10.31 9.2002 10.505 9.2002 10.7C9.2002 11.09 9.03519 11.48 8.76519 11.765C8.69019 11.825 8.61369 11.9 8.52519 11.945C8.45019 12.005 8.36019 12.05 8.27019 12.08C8.17869 12.125 8.0902 12.155 7.9852 12.17C7.8952 12.185 7.7902 12.2 7.7002 12.2Z" fill="#62748E"/>
<path d="M13.2002 0.100403C13.6149 0.100403 13.9502 0.43644 13.9502 0.850403V25.5496C13.9502 25.9643 13.6149 26.2996 13.2002 26.2996C5.97677 26.2996 0.100586 20.4234 0.100586 13.2C0.100586 5.97658 5.97677 0.100403 13.2002 0.100403ZM12.4502 1.62482C6.40218 2.01286 1.60059 7.05563 1.60059 13.2C1.60059 19.3444 6.40221 24.3862 12.4502 24.7742V1.62482Z" fill="#62748E" stroke="#62748E" stroke-width="0.2"/>
<path d="M18.3998 26.8499C18.0404 26.8499 17.7498 26.5594 17.7498 26.1999C17.7498 23.6916 15.7082 21.6499 13.1998 21.6499C12.8404 21.6499 12.5498 21.3594 12.5498 20.9999C12.5498 20.6405 12.8404 20.3499 13.1998 20.3499C16.4258 20.3499 19.0498 22.974 19.0498 26.1999C19.0498 26.5594 18.7593 26.8499 18.3998 26.8499Z" fill="#62748E"/>
<path d="M17.7002 17.2C17.2937 17.2 16.9187 17.0483 16.6352 16.7644C16.5002 16.6127 16.3952 16.4489 16.3037 16.2687C16.2302 16.0884 16.2002 15.8931 16.2002 15.6978C16.2002 15.3072 16.3637 14.9167 16.6352 14.6313C16.9952 14.2858 17.5052 14.1355 17.9837 14.2257C18.0887 14.2407 18.1787 14.2707 18.2687 14.3158C18.3587 14.3458 18.4487 14.3909 18.5387 14.451C18.6137 14.5111 18.6902 14.5712 18.7637 14.6313C19.0352 14.9167 19.2002 15.3072 19.2002 15.6978C19.2002 15.8931 19.1552 16.0884 19.0802 16.2687C19.0052 16.4489 18.9002 16.6127 18.7652 16.7644C18.6137 16.8996 18.4502 17.0047 18.2702 17.0949C18.0902 17.1685 17.8952 17.2 17.7002 17.2Z" fill="#62748E"/>
<path d="M13.2002 5.3006C20.4234 5.30081 26.2998 11.1769 26.2998 18.4002C26.2998 25.6235 20.4234 31.4996 13.2002 31.4998C12.7855 31.4998 12.4502 31.1645 12.4502 30.7498V6.0506C12.4502 5.63663 12.7855 5.3006 13.2002 5.3006ZM13.9502 29.9734C19.998 29.5858 24.7998 24.5444 24.7998 18.4002C24.7998 12.256 19.998 7.21325 13.9502 6.82501V29.9734Z" fill="#62748E" stroke="#62748E" stroke-width="0.2"/>
</svg>
