<svg width="23" height="27" viewBox="0 0 23 27" fill="none" xmlns="http://www.w3.org/2000/svg">
<path d="M11.2002 13.0916C17.3348 13.0916 22.2996 18.0511 22.2998 24.1795V25.3914C22.2973 25.8932 21.8897 26.2975 21.3877 26.2986C21.1458 26.2996 20.9132 26.2054 20.7412 26.0359V26.035C20.5702 25.8642 20.4729 25.6331 20.4717 25.3914V24.1795C20.4714 19.034 16.3501 14.9168 11.1992 14.9168C6.04833 14.9168 1.92895 19.034 1.92871 24.1795V25.3914C1.92621 25.893 1.51977 26.2985 1.01758 26.2996C0.774559 26.3006 0.54306 26.2053 0.371094 26.0359V26.035C0.19891 25.8641 0.101829 25.6331 0.100586 25.3914V24.1795C0.10083 18.0518 5.06329 13.0932 11.1963 13.0916H11.2002ZM11.1992 0.100403C14.6296 0.100407 17.4296 2.89796 17.4297 6.32404C17.4297 9.75038 14.6295 12.5408 11.1992 12.5408C7.76984 12.5408 4.97656 9.75024 4.97656 6.32404C4.9767 2.89706 7.76873 0.100403 11.1992 0.100403ZM11.1992 1.92462C8.75862 1.92462 6.79798 3.88608 6.79785 6.32404C6.79785 8.76082 8.75829 10.7166 11.1992 10.7166C13.6402 10.7166 15.6025 8.76184 15.6025 6.32404C15.6024 3.88604 13.6398 1.92463 11.1992 1.92462Z" fill="#62748E" stroke="#62748E" stroke-width="0.2"/>
</svg>
