<svg width="11" height="11" viewBox="0 0 11 11" fill="none" xmlns="http://www.w3.org/2000/svg">
<path fill-rule="evenodd" clip-rule="evenodd" d="M2.9875 2.2372C2.9875 1.64386 3.2393 1.07482 3.68752 0.655261C4.13573 0.235704 4.74363 0 5.3775 0C6.01137 0 6.61928 0.235704 7.06749 0.655261C7.5157 1.07482 7.7675 1.64386 7.7675 2.2372C7.7675 2.83054 7.5157 3.39959 7.06749 3.81914C6.61928 4.2387 6.01137 4.4744 5.3775 4.4744C4.74363 4.4744 4.13573 4.2387 3.68752 3.81914C3.2393 3.39959 2.9875 2.83054 2.9875 2.2372ZM2.9875 5.593C2.19517 5.593 1.43528 5.88763 0.875019 6.41208C0.314754 6.93653 0 7.64783 0 8.38951C0 8.83451 0.188852 9.26129 0.525011 9.57596C0.86117 9.89063 1.3171 10.0674 1.7925 10.0674H8.9625C9.4379 10.0674 9.89383 9.89063 10.23 9.57596C10.5662 9.26129 10.755 8.83451 10.755 8.38951C10.755 7.64783 10.4403 6.93653 9.87999 6.41208C9.31972 5.88763 8.55984 5.593 7.7675 5.593H2.9875Z" fill="white"/>
</svg>
