<svg width="22" height="21" viewBox="0 0 22 21" fill="none" xmlns="http://www.w3.org/2000/svg">
<ellipse cx="10.7559" cy="10.0672" rx="7.68215" ry="7.19101" fill="white"/>
<path fill-rule="evenodd" clip-rule="evenodd" d="M16.0478 0.850854C15.8342 0.531362 15.5195 0.282159 15.1476 0.137935C14.7756 -0.00628995 14.3648 -0.0383605 13.9725 0.0461881L11.1878 0.644975C10.9024 0.706378 10.6059 0.706378 10.3205 0.644975L7.53579 0.0461881C7.14343 -0.0383605 6.73267 -0.00628995 6.3607 0.137935C5.98872 0.282159 5.67403 0.531362 5.46043 0.850854L3.94264 3.11841C3.78776 3.35039 3.57868 3.54612 3.33087 3.69255L0.908597 5.11341C0.567895 5.31318 0.302079 5.60729 0.148047 5.95492C-0.00598452 6.30254 -0.040592 6.68643 0.0490284 7.0533L0.688671 9.66303C0.754027 9.92972 0.754027 10.2068 0.688671 10.4735L0.0490284 13.0818C-0.0409403 13.4489 -0.00650699 13.8331 0.147541 14.181C0.30159 14.5289 0.5676 14.8232 0.908597 15.0231L3.33087 16.444C3.57868 16.5889 3.78776 16.7847 3.94419 17.0167L5.46198 19.2842C5.89874 19.9381 6.73198 20.2614 7.53579 20.0889L10.3205 19.4901C10.6059 19.4287 10.9024 19.4287 11.1878 19.4901L13.974 20.0889C14.3662 20.1731 14.7766 20.1409 15.1482 19.9967C15.5199 19.8524 15.8343 19.6034 16.0478 19.2842L17.5656 17.0167C17.7205 16.7847 17.9296 16.5889 18.1774 16.444L20.6012 15.0231C20.9422 14.823 21.2081 14.5283 21.3619 14.1801C21.5157 13.8319 21.5497 13.4475 21.4592 13.0803L20.8211 10.4735C20.7556 10.2063 20.7556 9.92873 20.8211 9.66158L21.4608 7.0533C21.5509 6.68637 21.5167 6.30227 21.3629 5.95436C21.2092 5.60646 20.9435 5.31202 20.6028 5.11196L18.1789 3.69111C17.9315 3.54585 17.7223 3.35007 17.5672 3.11841L16.0478 0.850854ZM15.2688 6.83437C15.3646 6.66948 15.3883 6.47623 15.335 6.29528C15.2817 6.11434 15.1555 5.9598 14.9829 5.8642C14.8104 5.76859 14.6049 5.73937 14.4098 5.78268C14.2147 5.82599 14.0452 5.93845 13.9369 6.0964L9.88682 12.5134L7.44131 10.3213C7.36876 10.2515 7.28195 10.1962 7.18606 10.1585C7.09017 10.1209 6.98716 10.1017 6.88317 10.1021C6.77919 10.1025 6.67636 10.1226 6.58083 10.161C6.48529 10.1994 6.399 10.2555 6.3271 10.3258C6.2552 10.3961 6.19917 10.4793 6.16235 10.5703C6.12552 10.6614 6.10866 10.7584 6.11277 10.8557C6.11688 10.9529 6.14187 11.0484 6.18625 11.1365C6.23064 11.2245 6.29351 11.3033 6.37111 11.368L9.52131 14.1938C9.60563 14.2693 9.70706 14.3259 9.81805 14.3596C9.92903 14.3932 10.0467 14.4029 10.1623 14.388C10.2778 14.3731 10.3883 14.3339 10.4854 14.2734C10.5825 14.2129 10.6638 14.1327 10.7232 14.0387L15.2688 6.83437Z" fill="#0099D0"/>
</svg>
