<svg width="38" height="38" viewBox="0 0 38 38" fill="none" xmlns="http://www.w3.org/2000/svg">
<mask id="path-1-inside-1_1_977" fill="white">
<path d="M0 18.9062C0 8.46462 8.46462 0 18.9062 0C29.3479 0 37.8125 8.46462 37.8125 18.9062C37.8125 29.3479 29.3479 37.8125 18.9062 37.8125C8.46462 37.8125 0 29.3479 0 18.9062Z"/>
</mask>
<path d="M0 18.9062C0 8.46462 8.46462 0 18.9062 0C29.3479 0 37.8125 8.46462 37.8125 18.9062C37.8125 29.3479 29.3479 37.8125 18.9062 37.8125C8.46462 37.8125 0 29.3479 0 18.9062Z" fill="#141414"/>
<path d="M0 18.9062M37.8125 18.9062M37.8125 18.9062M0 18.9062M18.9062 0M37.8125 18.9062M18.9062 37.8125M0 18.9062M18.9062 37.8125V36.9034C8.96669 36.9034 0.909091 28.8458 0.909091 18.9062H0H-0.909091C-0.909091 29.85 7.96254 38.7216 18.9062 38.7216V37.8125ZM37.8125 18.9062H36.9034C36.9034 28.8458 28.8458 36.9034 18.9062 36.9034V37.8125V38.7216C29.85 38.7216 38.7216 29.85 38.7216 18.9062H37.8125ZM18.9062 0V0.909091C28.8458 0.909091 36.9034 8.96669 36.9034 18.9062H37.8125H38.7216C38.7216 7.96254 29.85 -0.909091 18.9062 -0.909091V0ZM18.9062 0V-0.909091C7.96254 -0.909091 -0.909091 7.96254 -0.909091 18.9062H0H0.909091C0.909091 8.96669 8.96669 0.909091 18.9062 0.909091V0Z" fill="#1F1F1F" mask="url(#path-1-inside-1_1_977)"/>
<g clip-path="url(#clip0_1_977)">
<path d="M22.2393 19.7396L26.5918 22.6412C26.6545 22.683 26.7274 22.707 26.8027 22.7106C26.878 22.7142 26.9528 22.6973 27.0193 22.6617C27.0857 22.6261 27.1413 22.5732 27.18 22.5085C27.2187 22.4439 27.2392 22.3699 27.2393 22.2946V15.4646C27.2393 15.3913 27.22 15.3192 27.1832 15.2558C27.1465 15.1923 27.0937 15.1397 27.0301 15.1032C26.9666 15.0666 26.8945 15.0475 26.8212 15.0478C26.7479 15.048 26.6759 15.0676 26.6126 15.1046L22.2393 17.6562" stroke="#B0B0B0" stroke-width="1.66667" stroke-linecap="round" stroke-linejoin="round"/>
<path d="M20.5732 13.9062H12.2399C11.3194 13.9062 10.5732 14.6524 10.5732 15.5729V22.2396C10.5732 23.1601 11.3194 23.9062 12.2399 23.9062H20.5732C21.4937 23.9062 22.2399 23.1601 22.2399 22.2396V15.5729C22.2399 14.6524 21.4937 13.9062 20.5732 13.9062Z" stroke="#B0B0B0" stroke-width="1.66667" stroke-linecap="round" stroke-linejoin="round"/>
</g>
<defs>
<clipPath id="clip0_1_977">
<rect width="20" height="20" fill="white" transform="translate(8.90625 8.90625)"/>
</clipPath>
</defs>
</svg>
