<svg width="26" height="25" viewBox="0 0 26 25" fill="none" xmlns="http://www.w3.org/2000/svg">
<path d="M2.09848 9.93307C2.34757 8.69788 2.77294 7.52931 3.34607 6.45786C3.35979 6.42619 3.37668 6.39561 3.39462 6.36722C4.09864 5.07524 5.01796 3.92741 6.10289 2.9728C8.21071 1.11948 10.9401 0 13.9199 0C17.2553 0 20.2752 1.399 22.4608 3.66197C24.6436 5.92047 25.9946 9.03751 26 12.5094C25.9947 15.9617 24.6437 19.0807 22.4608 21.338C20.2749 23.5998 17.254 25 13.9199 25C10.9393 25 8.20968 23.8817 6.10289 22.0272C5.02101 21.0749 4.10275 19.9281 3.39867 18.6395C3.37756 18.6078 3.35962 18.574 3.34379 18.5379C2.77171 17.4677 2.34741 16.3002 2.09831 15.0672C1.57268 14.9755 1.10192 14.7144 0.739903 14.3398C0.281824 13.8691 0 13.2171 0 12.4996C0 11.781 0.281824 11.1301 0.736742 10.6594C1.09876 10.2848 1.57057 10.0238 2.09833 9.93204L2.09848 9.93307ZM12.1425 4.91149C12.4455 4.59914 12.8233 4.36544 13.2455 4.24421V1.4221C12.3938 1.47671 11.5694 1.63397 10.7831 1.88188C10.174 3.01114 9.66425 4.43089 9.29061 6.05269H11.4966C11.6148 5.61475 11.8407 5.22384 12.1425 4.91149ZM14.5966 4.24312C15.0198 4.36544 15.3977 4.59805 15.6995 4.9104C16.0004 5.22384 16.2262 5.6159 16.3444 6.05166H18.5515C18.1789 4.42985 17.668 3.01119 17.0601 1.88196C16.2737 1.63296 15.4483 1.4757 14.5966 1.4211V4.24312ZM16.3445 7.45077C16.2315 7.86796 16.0204 8.24255 15.7386 8.54836L15.6996 8.59204C15.3977 8.90439 15.0188 9.13809 14.5966 9.25932V11.8007H19.2322C19.1995 10.2651 19.0591 8.80159 18.829 7.44981H16.3444L16.3445 7.45077ZM13.2444 9.25934C12.8232 9.13702 12.4464 8.9055 12.1435 8.59206C11.8395 8.27752 11.6147 7.88656 11.4965 7.4508H9.01084C8.78075 8.80283 8.64142 10.2662 8.60764 11.8017H13.2433V9.2592L13.2444 9.25934ZM17.6077 16.4083C17.9961 16.0064 18.5101 15.7355 19.0832 15.6634C19.1244 15.2583 19.1571 14.8411 19.1835 14.414C19.2067 14.022 19.2236 13.6157 19.2321 13.1974H14.5953V17.5483H16.9628C17.0757 17.1311 17.2868 16.7565 17.5686 16.4507L17.6077 16.407L17.6077 16.4083ZM20.4165 15.8742C20.6951 16.0042 20.9474 16.1855 21.1637 16.4083C21.4677 16.7228 21.6925 17.1138 21.8107 17.5495H23.4774C24.1297 16.2302 24.5339 14.7581 24.6278 13.1987H20.5831C20.5736 13.629 20.5557 14.0625 20.5293 14.4972C20.5019 14.9591 20.4639 15.4188 20.4165 15.8742ZM21.8118 18.9485C21.6936 19.3864 21.4688 19.7774 21.1669 20.0898C20.7205 20.5484 20.1114 20.8379 19.4401 20.8521C19.2839 21.3599 19.1119 21.8481 18.9229 22.3199C19.8771 21.8033 20.7489 21.1349 21.5078 20.3508C21.9269 19.9172 22.3111 19.4487 22.6562 18.9485H21.8118ZM18.1314 20.5037C17.9572 20.3988 17.7957 20.2732 17.6511 20.1302L17.6089 20.0898C17.307 19.7774 17.0812 19.3865 16.964 18.9485H14.5965V23.5801C15.4483 23.5255 16.2737 23.3682 17.0601 23.1192C17.2817 22.7086 17.4886 22.2608 17.6796 21.7847C17.839 21.3849 17.9899 20.958 18.1314 20.5037ZM3.44434 14.9196C3.64278 15.8446 3.95414 16.727 4.3605 17.5505H7.64512C7.42346 16.1832 7.28942 14.7197 7.25775 13.1996H4.94096C4.82274 13.6376 4.59688 14.0297 4.295 14.342L4.25278 14.3824C4.02057 14.6117 3.74615 14.7952 3.44427 14.9208L3.44434 14.9196ZM4.93998 11.8005H7.25678C7.28844 10.2803 7.42355 8.81796 7.64414 7.44968H4.35953C3.95211 8.27205 3.64181 9.15558 3.44337 10.0806C3.76424 10.2128 4.05239 10.4115 4.29303 10.6605C4.59596 10.9718 4.82177 11.3626 4.93998 11.8005ZM9.0109 17.5493H13.2445V13.1985H8.60883C8.64155 14.734 8.78185 16.1975 9.0109 17.5493ZM20.5833 11.8005H24.628C24.534 10.241 24.1297 8.76875 23.4775 7.44968H20.195C20.4167 8.81701 20.5516 10.2805 20.5833 11.8005ZM19.932 6.05177H22.6551C22.31 5.55266 21.9258 5.08307 21.5068 4.65058C20.7489 3.86644 19.8771 3.19807 18.9208 2.67603C19.323 3.68189 19.665 4.81775 19.932 6.05177ZM8.92113 2.67385C8.22241 3.05501 7.57011 3.5126 6.97376 4.03682C6.30036 4.62875 5.69872 5.30587 5.18365 6.05068H7.90895C8.17598 4.81548 8.51796 3.67859 8.92011 2.67276L8.92113 2.67385ZM8.92113 22.3254C8.51793 21.3196 8.17702 20.1827 7.90997 18.9475H5.18468C5.69975 19.6924 6.30138 20.3694 6.97479 20.9625C7.57113 21.4867 8.22346 21.9454 8.92113 22.3254ZM9.29056 18.9475C9.66315 20.5704 10.174 21.9891 10.783 23.1183C11.5694 23.3662 12.3937 23.5246 13.2455 23.5781V18.9465H9.29048L9.29056 18.9475Z" fill="white"/>
</svg>
