<svg width="30" height="26" viewBox="0 0 30 26" fill="none" xmlns="http://www.w3.org/2000/svg">
<path d="M1.33301 8.68812C1.33304 7.20439 1.78313 5.75557 2.62385 4.53301C3.46457 3.31045 4.65636 2.37167 6.04182 1.84066C7.42727 1.30964 8.94122 1.21138 10.3837 1.55885C11.8262 1.90631 13.1293 2.68316 14.121 3.78679C14.1909 3.86147 14.2753 3.92102 14.3691 3.96172C14.4629 4.00243 14.5641 4.02343 14.6663 4.02343C14.7686 4.02343 14.8698 4.00243 14.9636 3.96172C15.0574 3.92102 15.1418 3.86147 15.2117 3.78679C16.2003 2.67599 17.5037 1.89261 18.9485 1.54093C20.3933 1.18924 21.911 1.28592 23.2995 1.8181C24.688 2.35028 25.8815 3.29273 26.7212 4.51999C27.5608 5.74726 28.0068 7.20114 27.9997 8.68812C27.9997 11.7415 25.9997 14.0215 23.9997 16.0215L16.677 23.1055C16.4286 23.3908 16.1222 23.62 15.7784 23.7779C15.4346 23.9357 15.0611 24.0186 14.6827 24.021C14.3044 24.0234 13.9299 23.9452 13.5841 23.7918C13.2382 23.6383 12.929 23.413 12.677 23.1308L5.33301 16.0215C3.33301 14.0215 1.33301 11.7548 1.33301 8.68812Z" stroke="#D32F2F" stroke-width="2.66667" stroke-linecap="round" stroke-linejoin="round"/>
</svg>
